{
	"asset":
	{
		"version": "2.0",
		"generator": "Unreal Engine 5.3.2"
	},
	"scene": 0,
	"accessors": [
		{
			"bufferView": 0,
			"count": 5520,
			"type": "SCALAR",
			"componentType": 5123
		},
		{
			"bufferView": 1,
			"count": 1802,
			"type": "VEC3",
			"componentType": 5126,
			"min": [ -1.09689558, -0.00622860761, -1.09689498 ],
			"max": [ 1.09689629, 2.17455959, 1.09689617 ]
		},
		{
			"bufferView": 2,
			"count": 1802,
			"type": "VEC3",
			"componentType": 5126
		},
		{
			"bufferView": 3,
			"count": 1802,
			"type": "VEC4",
			"componentType": 5126
		},
		{
			"bufferView": 4,
			"count": 1802,
			"type": "VEC2",
			"componentType": 5126
		},
		{
			"bufferView": 5,
			"count": 1802,
			"type": "VEC2",
			"componentType": 5126
		},
		{
			"bufferView": 6,
			"count": 1080,
			"type": "SCALAR",
			"componentType": 5123
		},
		{
			"bufferView": 7,
			"count": 522,
			"type": "VEC3",
			"componentType": 5126,
			"min": [ -0.246196315, -0.011617233, -0.207037747 ],
			"max": [ 0.250065506, 0.288493812, 0.263596416 ]
		},
		{
			"bufferView": 8,
			"count": 522,
			"type": "VEC3",
			"componentType": 5126
		},
		{
			"bufferView": 9,
			"count": 522,
			"type": "VEC4",
			"componentType": 5126
		},
		{
			"bufferView": 10,
			"count": 522,
			"type": "VEC2",
			"componentType": 5126
		},
		{
			"bufferView": 11,
			"count": 522,
			"type": "VEC2",
			"componentType": 5126
		},
		{
			"bufferView": 12,
			"count": 162,
			"type": "SCALAR",
			"componentType": 5121
		},
		{
			"bufferView": 13,
			"count": 108,
			"type": "VEC3",
			"componentType": 5126,
			"min": [ -0.668136597, -4.76837158e-07, -0.668142319 ],
			"max": [ 0.668136597, 0.46578154, 0.668129385 ]
		},
		{
			"bufferView": 14,
			"count": 108,
			"type": "VEC3",
			"componentType": 5126
		},
		{
			"bufferView": 15,
			"count": 108,
			"type": "VEC4",
			"componentType": 5126
		},
		{
			"bufferView": 16,
			"count": 108,
			"type": "VEC2",
			"componentType": 5126
		},
		{
			"bufferView": 17,
			"count": 108,
			"type": "VEC2",
			"componentType": 5126
		}
	],
	"buffers": [
		{
			"uri": "FireBowl.bin",
			"byteLength": 149556
		}
	],
	"bufferViews": [
		{
			"buffer": 0,
			"byteLength": 11040,
			"target": 34963
		},
		{
			"buffer": 0,
			"byteLength": 21624,
			"byteOffset": 11040,
			"target": 34962
		},
		{
			"buffer": 0,
			"byteLength": 21624,
			"byteOffset": 32664,
			"target": 34962
		},
		{
			"buffer": 0,
			"byteLength": 28832,
			"byteOffset": 54288,
			"target": 34962
		},
		{
			"buffer": 0,
			"byteLength": 14416,
			"byteOffset": 83120,
			"target": 34962
		},
		{
			"buffer": 0,
			"byteLength": 14416,
			"byteOffset": 97536,
			"target": 34962
		},
		{
			"buffer": 0,
			"byteLength": 2160,
			"byteOffset": 111952,
			"target": 34963
		},
		{
			"buffer": 0,
			"byteLength": 6264,
			"byteOffset": 114112,
			"target": 34962
		},
		{
			"buffer": 0,
			"byteLength": 6264,
			"byteOffset": 120376,
			"target": 34962
		},
		{
			"buffer": 0,
			"byteLength": 8352,
			"byteOffset": 126640,
			"target": 34962
		},
		{
			"buffer": 0,
			"byteLength": 4176,
			"byteOffset": 134992,
			"target": 34962
		},
		{
			"buffer": 0,
			"byteLength": 4176,
			"byteOffset": 139168,
			"target": 34962
		},
		{
			"buffer": 0,
			"byteLength": 162,
			"byteOffset": 143344,
			"target": 34963
		},
		{
			"buffer": 0,
			"byteLength": 1296,
			"byteOffset": 143508,
			"target": 34962
		},
		{
			"buffer": 0,
			"byteLength": 1296,
			"byteOffset": 144804,
			"target": 34962
		},
		{
			"buffer": 0,
			"byteLength": 1728,
			"byteOffset": 146100,
			"target": 34962
		},
		{
			"buffer": 0,
			"byteLength": 864,
			"byteOffset": 147828,
			"target": 34962
		},
		{
			"buffer": 0,
			"byteLength": 864,
			"byteOffset": 148692,
			"target": 34962
		}
	],
	"images": [
		{
			"uri": "M_FireBowl_01_MetallicRoughness.png"
		},
		{
			"uri": "M_Wood_Fire_01_MetallicRoughness.png"
		},
		{
			"uri": "M_Pillar_01_Master_MetallicRoughness.png"
		},
		{
			"uri": "T_FireBowl_01_D.png"
		},
		{
			"uri": "T_FireBowl_01_N.png"
		},
		{
			"uri": "T_Wood_Fire_01_D.png"
		},
		{
			"uri": "T_Wood_Fire_01_N.png"
		},
		{
			"uri": "T_Pillar_01_Master_D.png"
		},
		{
			"uri": "T_Pillar_01_Master_N.png"
		}
	],
	"materials": [
		{
			"name": "M_FireBowl_01",
			"pbrMetallicRoughness":
			{
				"baseColorTexture":
				{
					"index": 0
				},
				"metallicRoughnessTexture":
				{
					"index": 1
				}
			},
			"normalTexture":
			{
				"index": 2
			}
		},
		{
			"name": "M_Wood_Fire_01",
			"pbrMetallicRoughness":
			{
				"baseColorTexture":
				{
					"index": 3
				},
				"metallicRoughnessTexture":
				{
					"index": 4
				}
			},
			"normalTexture":
			{
				"index": 5
			}
		},
		{
			"name": "M_Pillar_01_Master",
			"pbrMetallicRoughness":
			{
				"baseColorTexture":
				{
					"index": 6
				},
				"metallicRoughnessTexture":
				{
					"index": 7
				}
			},
			"normalTexture":
			{
				"index": 8
			}
		}
	],
	"meshes": [
		{
			"name": "SM_FireBowl_01",
			"primitives": [
				{
					"attributes":
					{
						"POSITION": 1,
						"NORMAL": 2,
						"TANGENT": 3,
						"TEXCOORD_0": 4,
						"TEXCOORD_1": 5
					},
					"indices": 0,
					"material": 0
				}
			]
		},
		{
			"name": "SM_WoodFire_01",
			"primitives": [
				{
					"attributes":
					{
						"POSITION": 7,
						"NORMAL": 8,
						"TANGENT": 9,
						"TEXCOORD_0": 10,
						"TEXCOORD_1": 11
					},
					"indices": 6,
					"material": 1
				}
			]
		},
		{
			"name": "SM_Pillar_01_Base",
			"primitives": [
				{
					"attributes":
					{
						"POSITION": 13,
						"NORMAL": 14,
						"TANGENT": 15,
						"TEXCOORD_0": 16,
						"TEXCOORD_1": 17
					},
					"indices": 12,
					"material": 2
				}
			]
		}
	],
	"nodes": [
		{
			"name": "FireBowl2",
			"mesh": 0,
			"children": [ 1, 3, 4 ]
		},
		{
			"name": "pointlight2",
			"translation": [ -0.0107186493, 2.94962215, -0.556452811 ],
			"children": [ 2 ]
		},
		{
			"name": "pointlight2",
			"rotation": [ -0, -0.707106829, 0, 0.707106769 ],
			"extensions":
			{
				"KHR_lights_punctual":
				{
					"light": 0
				}
			}
		},
		{
			"name": "woodFire2",
			"translation": [ 0, 1.55897295, 0 ],
			"scale": [ 1.46789706, 1.46789706, 1.46789706 ],
			"mesh": 1
		},
		{
			"name": "PillarBase2",
			"translation": [ 0, -0.5, 0 ],
			"scale": [ 1.46991396, 1.11298001, 1.46991396 ],
			"mesh": 2
		}
	],
	"samplers": [
		{
			"minFilter": 9987,
			"magFilter": 9729
		}
	],
	"scenes": [
		{
			"name": "ThirdPersonMap",
			"nodes": [ 0 ]
		}
	],
	"textures": [
		{
			"name": "T_FireBowl_01_D",
			"sampler": 0,
			"source": 3
		},
		{
			"name": "M_FireBowl_01_MetallicRoughness",
			"sampler": 0,
			"source": 0
		},
		{
			"name": "T_FireBowl_01_N",
			"sampler": 0,
			"source": 4
		},
		{
			"name": "T_Wood_Fire_01_D",
			"sampler": 0,
			"source": 5
		},
		{
			"name": "M_Wood_Fire_01_MetallicRoughness",
			"sampler": 0,
			"source": 1
		},
		{
			"name": "T_Wood_Fire_01_N",
			"sampler": 0,
			"source": 6
		},
		{
			"name": "T_Pillar_01_Master_D",
			"sampler": 0,
			"source": 7
		},
		{
			"name": "M_Pillar_01_Master_MetallicRoughness",
			"sampler": 0,
			"source": 2
		},
		{
			"name": "T_Pillar_01_Master_N",
			"sampler": 0,
			"source": 8
		}
	],
	"extensions":
	{
		"KHR_lights_punctual":
		{
			"lights": [
				{
					"name": "pointlight2",
					"type": "point",
					"color": [ 1, 0.752942204, 0.527115107 ],
					"intensity": 10,
					"range": 10
				}
			]
		}
	},
	"extensionsUsed": [
		"KHR_lights_punctual"
	]
}