{
	"asset":{
		"generator":"Khronos glTF Blender I/O v4.2.57",
		"version":"2.0"
	},
	"scene":0,
	"scenes":[
		{
			"name":"Scene",
			"nodes":[
				5
			]
		}
	],
	"nodes":[
		{
			"name":"Cylinder.004",
			"translation":[
				-0.03980207443237305,
				362.9806213378906,
				3.26611328125
			]
		},
		{
			"mesh":0,
			"name":"Plane.004_flag_0",
			"translation":[
				-7.247863292694092,
				-2.7083709239959717,
				0.1808483600616455
			]
		},
		{
			"children":[
				1
			],
			"name":"Plane.004",
			"rotation":[
				0,
				0,
				0.7071068286895752,
				0.7071067094802856
			],
			"translation":[
				-10.215054512023926,
				358.580078125,
				3.751220464706421
			]
		},
		{
			"children":[
				0,
				2
			],
			"name":"RootNode"
		},
		{
			"children":[
				3
			],
			"name":"medieval flag.fbx",
			"rotation":[
				0.70710688829422,
				0,
				0,
				0.7071066498756409
			],
			"scale":[
				0.009999999776482582,
				0.010000000707805157,
				0.010000000707805157
			]
		},
		{
			"children":[
				4
			],
			"name":"Sketchfab_model",
			"rotation":[
				-0.70710688829422,
				0,
				0,
				0.7071066498756409
			],
			"translation":[
				0.04823505878448486,
				0,
				0
			]
		}
	],
	"materials":[
		{
			"doubleSided":true,
			"name":"flag",
			"normalTexture":{
				"index":0
			},
			"pbrMetallicRoughness":{
				"baseColorTexture":{
					"index":1
				},
				"metallicFactor":0.7556515336036682,
				"metallicRoughnessTexture":{
					"index":2
				}
			}
		}
	],
	"meshes":[
		{
			"name":"Plane.004_flag_0",
			"primitives":[
				{
					"attributes":{
						"POSITION":0,
						"NORMAL":1,
						"TEXCOORD_0":2
					},
					"indices":3,
					"material":0
				}
			]
		}
	],
	"textures":[
		{
			"sampler":0,
			"source":0
		},
		{
			"sampler":0,
			"source":1
		},
		{
			"sampler":0,
			"source":2
		}
	],
	"images":[
		{
			"mimeType":"image/png",
			"name":"flag_normal",
			"uri":"flag_normal.png"
		},
		{
			"mimeType":"image/png",
			"name":"flag_baseColor",
			"uri":"flag_baseColor.png"
		},
		{
			"mimeType":"image/png",
			"name":"flag_metallicRoughness",
			"uri":"flag_metallicRoughness.png"
		}
	],
	"accessors":[
		{
			"bufferView":0,
			"componentType":5126,
			"count":4477,
			"max":[
				212.80503845214844,
				6.126381874084473,
				108.35406494140625
			],
			"min":[
				-203.267333984375,
				-5.567666053771973,
				-110.59393310546875
			],
			"type":"VEC3"
		},
		{
			"bufferView":1,
			"componentType":5126,
			"count":4477,
			"type":"VEC3"
		},
		{
			"bufferView":2,
			"componentType":5126,
			"count":4477,
			"type":"VEC2"
		},
		{
			"bufferView":3,
			"componentType":5123,
			"count":25296,
			"type":"SCALAR"
		}
	],
	"bufferViews":[
		{
			"buffer":0,
			"byteLength":53724,
			"byteOffset":0,
			"target":34962
		},
		{
			"buffer":0,
			"byteLength":53724,
			"byteOffset":53724,
			"target":34962
		},
		{
			"buffer":0,
			"byteLength":35816,
			"byteOffset":107448,
			"target":34962
		},
		{
			"buffer":0,
			"byteLength":50592,
			"byteOffset":143264,
			"target":34963
		}
	],
	"samplers":[
		{
			"magFilter":9729,
			"minFilter":9987
		}
	],
	"buffers":[
		{
			"byteLength":193856,
			"uri":"cloth.bin"
		}
	]
}
