{
	"asset":{
		"generator":"Khronos glTF Blender I/O v4.2.57",
		"version":"2.0"
	},
	"extensionsUsed":[
		"KHR_materials_specular"
	],
	"scene":0,
	"scenes":[
		{
			"name":"Scene",
			"nodes":[
				5
			]
		}
	],
	"nodes":[
		{
			"mesh":0,
			"name":"Cylinder.004_pole_0",
			"translation":[
				-0.010131359100341797,
				-567.9788208007812,
				-0.006037235260009766
			]
		},
		{
			"children":[
				0
			],
			"name":"Cylinder.004",
			"translation":[
				-0.03980207443237305,
				362.9806213378906,
				3.26611328125
			]
		},
		{
			"name":"Plane.004",
			"rotation":[
				0,
				0,
				0.7071068286895752,
				0.7071067094802856
			],
			"translation":[
				-10.215054512023926,
				358.580078125,
				3.751220464706421
			]
		},
		{
			"children":[
				1,
				2
			],
			"name":"RootNode"
		},
		{
			"children":[
				3
			],
			"name":"medieval flag.fbx",
			"rotation":[
				0.70710688829422,
				0,
				0,
				0.7071066498756409
			],
			"scale":[
				0.009999999776482582,
				0.010000000707805157,
				0.010000000707805157
			]
		},
		{
			"children":[
				4
			],
			"name":"Sketchfab_model",
			"rotation":[
				-0.70710688829422,
				0,
				0,
				0.7071066498756409
			],
			"translation":[
				0.04823505878448486,
				0,
				0
			]
		}
	],
	"materials":[
		{
			"doubleSided":true,
			"extensions":{
				"KHR_materials_specular":{
					"specularFactor":0.5428454875946045
				}
			},
			"name":"pole",
			"normalTexture":{
				"index":0
			},
			"pbrMetallicRoughness":{
				"baseColorTexture":{
					"index":1
				},
				"metallicRoughnessTexture":{
					"index":2
				}
			}
		}
	],
	"meshes":[
		{
			"name":"Cylinder.004_pole_0",
			"primitives":[
				{
					"attributes":{
						"POSITION":0,
						"NORMAL":1,
						"TEXCOORD_0":2
					},
					"indices":3,
					"material":0
				}
			]
		}
	],
	"textures":[
		{
			"sampler":0,
			"source":0
		},
		{
			"sampler":0,
			"source":1
		},
		{
			"sampler":0,
			"source":2
		}
	],
	"images":[
		{
			"mimeType":"image/png",
			"name":"pole_normal",
			"uri":"pole_normal.png"
		},
		{
			"mimeType":"image/png",
			"name":"pole_baseColor",
			"uri":"pole_baseColor.png"
		},
		{
			"mimeType":"image/png",
			"name":"pole_metallicRoughness",
			"uri":"pole_metallicRoughness.png"
		}
	],
	"accessors":[
		{
			"bufferView":0,
			"componentType":5126,
			"count":3835,
			"max":[
				18.328691482543945,
				874.67138671875,
				146.99505615234375
			],
			"min":[
				-18.308427810668945,
				204.85452270507812,
				-146.98297119140625
			],
			"type":"VEC3"
		},
		{
			"bufferView":1,
			"componentType":5126,
			"count":3835,
			"type":"VEC3"
		},
		{
			"bufferView":2,
			"componentType":5126,
			"count":3835,
			"type":"VEC2"
		},
		{
			"bufferView":3,
			"componentType":5123,
			"count":11322,
			"type":"SCALAR"
		}
	],
	"bufferViews":[
		{
			"buffer":0,
			"byteLength":46020,
			"byteOffset":0,
			"target":34962
		},
		{
			"buffer":0,
			"byteLength":46020,
			"byteOffset":46020,
			"target":34962
		},
		{
			"buffer":0,
			"byteLength":30680,
			"byteOffset":92040,
			"target":34962
		},
		{
			"buffer":0,
			"byteLength":22644,
			"byteOffset":122720,
			"target":34963
		}
	],
	"samplers":[
		{
			"magFilter":9729,
			"minFilter":9987
		}
	],
	"buffers":[
		{
			"byteLength":145364,
			"uri":"pole.bin"
		}
	]
}
