{
	"asset":{
		"generator":"Khronos glTF Blender I/O v4.2.57",
		"version":"2.0"
	},
	"scene":0,
	"scenes":[
		{
			"name":"Scene",
			"nodes":[
				0,
				1,
				2,
				3,
				4,
				5,
				6,
				7,
				8,
				9,
				10,
				11,
				12,
				13,
				14,
				15,
				16
			]
		}
	],
	"nodes":[
		{
			"mesh":0,
			"name":"SM_Barrel_01.256"
		},
		{
			"mesh":1,
			"name":"SM_Barrel_01.257"
		},
		{
			"mesh":2,
			"name":"SM_Barrel_01.258"
		},
		{
			"mesh":3,
			"name":"SM_Barrel_01.260"
		},
		{
			"mesh":4,
			"name":"SM_Barrel_01.264"
		},
		{
			"mesh":5,
			"name":"SM_Barrel_01.266"
		},
		{
			"mesh":6,
			"name":"SM_Barrel_01.267"
		},
		{
			"mesh":7,
			"name":"SM_Barrel_01.271"
		},
		{
			"mesh":8,
			"name":"SM_Barrel_01.272"
		},
		{
			"mesh":9,
			"name":"SM_Barrel_01.275"
		},
		{
			"mesh":10,
			"name":"SM_Barrel_01.279"
		},
		{
			"mesh":11,
			"name":"SM_Barrel_01.282"
		},
		{
			"mesh":12,
			"name":"SM_Barrel_01.288"
		},
		{
			"mesh":13,
			"name":"SM_Barrel_01.293"
		},
		{
			"mesh":14,
			"name":"SM_Barrel_01.302"
		},
		{
			"mesh":15,
			"name":"SM_Barrel_01.304"
		},
		{
			"mesh":16,
			"name":"SM_Barrel_01.305"
		}
	],
	"materials":[
		{
			"name":"M_Barrel_01",
			"normalTexture":{
				"index":0
			},
			"pbrMetallicRoughness":{
				"baseColorTexture":{
					"index":1
				},
				"metallicRoughnessTexture":{
					"index":2
				}
			}
		}
	],
	"meshes":[
		{
			"name":"SM_Barrel_01.256",
			"primitives":[
				{
					"attributes":{
						"POSITION":0,
						"NORMAL":1,
						"TEXCOORD_0":2,
						"TEXCOORD_1":3
					},
					"indices":4,
					"material":0
				}
			]
		},
		{
			"name":"SM_Barrel_01.257",
			"primitives":[
				{
					"attributes":{
						"POSITION":5,
						"NORMAL":6,
						"TEXCOORD_0":7,
						"TEXCOORD_1":8
					},
					"indices":9,
					"material":0
				}
			]
		},
		{
			"name":"SM_Barrel_01.258",
			"primitives":[
				{
					"attributes":{
						"POSITION":10,
						"NORMAL":11,
						"TEXCOORD_0":12,
						"TEXCOORD_1":13
					},
					"indices":14,
					"material":0
				}
			]
		},
		{
			"name":"SM_Barrel_01.260",
			"primitives":[
				{
					"attributes":{
						"POSITION":15,
						"NORMAL":16,
						"TEXCOORD_0":17,
						"TEXCOORD_1":18
					},
					"indices":19,
					"material":0
				}
			]
		},
		{
			"name":"SM_Barrel_01.264",
			"primitives":[
				{
					"attributes":{
						"POSITION":20,
						"NORMAL":21,
						"TEXCOORD_0":22,
						"TEXCOORD_1":23
					},
					"indices":19,
					"material":0
				}
			]
		},
		{
			"name":"SM_Barrel_01.266",
			"primitives":[
				{
					"attributes":{
						"POSITION":24,
						"NORMAL":25,
						"TEXCOORD_0":26,
						"TEXCOORD_1":27
					},
					"indices":28,
					"material":0
				}
			]
		},
		{
			"name":"SM_Barrel_01.267",
			"primitives":[
				{
					"attributes":{
						"POSITION":29,
						"NORMAL":30,
						"TEXCOORD_0":31,
						"TEXCOORD_1":32
					},
					"indices":33,
					"material":0
				}
			]
		},
		{
			"name":"SM_Barrel_01.271",
			"primitives":[
				{
					"attributes":{
						"POSITION":34,
						"NORMAL":35,
						"TEXCOORD_0":36,
						"TEXCOORD_1":37
					},
					"indices":38,
					"material":0
				}
			]
		},
		{
			"name":"SM_Barrel_01.272",
			"primitives":[
				{
					"attributes":{
						"POSITION":39,
						"NORMAL":40,
						"TEXCOORD_0":41,
						"TEXCOORD_1":42
					},
					"indices":43,
					"material":0
				}
			]
		},
		{
			"name":"SM_Barrel_01.275",
			"primitives":[
				{
					"attributes":{
						"POSITION":44,
						"NORMAL":45,
						"TEXCOORD_0":46,
						"TEXCOORD_1":47
					},
					"indices":48,
					"material":0
				}
			]
		},
		{
			"name":"SM_Barrel_01.279",
			"primitives":[
				{
					"attributes":{
						"POSITION":49,
						"NORMAL":50,
						"TEXCOORD_0":51,
						"TEXCOORD_1":52
					},
					"indices":53,
					"material":0
				}
			]
		},
		{
			"name":"SM_Barrel_01.282",
			"primitives":[
				{
					"attributes":{
						"POSITION":54,
						"NORMAL":55,
						"TEXCOORD_0":56,
						"TEXCOORD_1":57
					},
					"indices":58,
					"material":0
				}
			]
		},
		{
			"name":"SM_Barrel_01.288",
			"primitives":[
				{
					"attributes":{
						"POSITION":59,
						"NORMAL":60,
						"TEXCOORD_0":61,
						"TEXCOORD_1":62
					},
					"indices":63,
					"material":0
				}
			]
		},
		{
			"name":"SM_Barrel_01.293",
			"primitives":[
				{
					"attributes":{
						"POSITION":64,
						"NORMAL":65,
						"TEXCOORD_0":66,
						"TEXCOORD_1":67
					},
					"indices":68,
					"material":0
				}
			]
		},
		{
			"name":"SM_Barrel_01.302",
			"primitives":[
				{
					"attributes":{
						"POSITION":69,
						"NORMAL":70,
						"TEXCOORD_0":71,
						"TEXCOORD_1":72
					},
					"indices":73,
					"material":0
				}
			]
		},
		{
			"name":"SM_Barrel_01.304",
			"primitives":[
				{
					"attributes":{
						"POSITION":74,
						"NORMAL":75,
						"TEXCOORD_0":76,
						"TEXCOORD_1":77
					},
					"indices":78,
					"material":0
				}
			]
		},
		{
			"name":"SM_Barrel_01.305",
			"primitives":[
				{
					"attributes":{
						"POSITION":79,
						"NORMAL":80,
						"TEXCOORD_0":81,
						"TEXCOORD_1":82
					},
					"indices":83,
					"material":0
				}
			]
		}
	],
	"textures":[
		{
			"sampler":0,
			"source":0
		},
		{
			"sampler":0,
			"source":1
		},
		{
			"sampler":0,
			"source":2
		}
	],
	"images":[
		{
			"mimeType":"image/png",
			"name":"T_Barrel_01_N",
			"uri":"T_Barrel_01_N.png"
		},
		{
			"mimeType":"image/png",
			"name":"T_Barrel_01_D",
			"uri":"T_Barrel_01_D.png"
		},
		{
			"mimeType":"image/png",
			"name":"M_Barrel_01_MetallicRoughness",
			"uri":"M_Barrel_01_MetallicRoughness.png"
		}
	],
	"accessors":[
		{
			"bufferView":0,
			"componentType":5126,
			"count":34,
			"max":[
				0.4004223048686981,
				0.701264500617981,
				0.4004223048686981
			],
			"min":[
				-1.3308417123880645e-07,
				0.6326273679733276,
				-0.4004223048686981
			],
			"type":"VEC3"
		},
		{
			"bufferView":1,
			"componentType":5126,
			"count":34,
			"type":"VEC3"
		},
		{
			"bufferView":2,
			"componentType":5126,
			"count":34,
			"type":"VEC2"
		},
		{
			"bufferView":3,
			"componentType":5126,
			"count":34,
			"type":"VEC2"
		},
		{
			"bufferView":4,
			"componentType":5123,
			"count":96,
			"type":"SCALAR"
		},
		{
			"bufferView":5,
			"componentType":5126,
			"count":34,
			"max":[
				0.3574144244194031,
				1.0004193782806396,
				0.3574144244194031
			],
			"min":[
				-1.16692845608668e-07,
				0.9408731460571289,
				-0.3574144244194031
			],
			"type":"VEC3"
		},
		{
			"bufferView":6,
			"componentType":5126,
			"count":34,
			"type":"VEC3"
		},
		{
			"bufferView":7,
			"componentType":5126,
			"count":34,
			"type":"VEC2"
		},
		{
			"bufferView":8,
			"componentType":5126,
			"count":34,
			"type":"VEC2"
		},
		{
			"bufferView":9,
			"componentType":5123,
			"count":96,
			"type":"SCALAR"
		},
		{
			"bufferView":10,
			"componentType":5126,
			"count":80,
			"max":[
				-0.23446989059448242,
				1.0213958024978638,
				-3.272900528372702e-07
			],
			"min":[
				-0.399259090423584,
				-2.586841446827748e-06,
				-0.28231915831565857
			],
			"type":"VEC3"
		},
		{
			"bufferView":11,
			"componentType":5126,
			"count":80,
			"type":"VEC3"
		},
		{
			"bufferView":12,
			"componentType":5126,
			"count":80,
			"type":"VEC2"
		},
		{
			"bufferView":13,
			"componentType":5126,
			"count":80,
			"type":"VEC2"
		},
		{
			"bufferView":14,
			"componentType":5123,
			"count":216,
			"type":"SCALAR"
		},
		{
			"bufferView":15,
			"componentType":5126,
			"count":34,
			"max":[
				-2.4176545210252698e-09,
				0.701264500617981,
				0.4004223048686981
			],
			"min":[
				-0.4004223048686981,
				0.6326273679733276,
				-0.4004223048686981
			],
			"type":"VEC3"
		},
		{
			"bufferView":16,
			"componentType":5126,
			"count":34,
			"type":"VEC3"
		},
		{
			"bufferView":17,
			"componentType":5126,
			"count":34,
			"type":"VEC2"
		},
		{
			"bufferView":18,
			"componentType":5126,
			"count":34,
			"type":"VEC2"
		},
		{
			"bufferView":19,
			"componentType":5123,
			"count":96,
			"type":"SCALAR"
		},
		{
			"bufferView":20,
			"componentType":5126,
			"count":34,
			"max":[
				1.3828380662772588e-09,
				1.0004193782806396,
				0.3574144244194031
			],
			"min":[
				-0.3574144244194031,
				0.9408731460571289,
				-0.3574144244194031
			],
			"type":"VEC3"
		},
		{
			"bufferView":21,
			"componentType":5126,
			"count":34,
			"type":"VEC3"
		},
		{
			"bufferView":22,
			"componentType":5126,
			"count":34,
			"type":"VEC2"
		},
		{
			"bufferView":23,
			"componentType":5126,
			"count":34,
			"type":"VEC2"
		},
		{
			"bufferView":24,
			"componentType":5126,
			"count":34,
			"max":[
				0.4004223048686981,
				0.388765811920166,
				0.4004223048686981
			],
			"min":[
				-1.3308417123880645e-07,
				0.32012873888015747,
				-0.4004223048686981
			],
			"type":"VEC3"
		},
		{
			"bufferView":25,
			"componentType":5126,
			"count":34,
			"type":"VEC3"
		},
		{
			"bufferView":26,
			"componentType":5126,
			"count":34,
			"type":"VEC2"
		},
		{
			"bufferView":27,
			"componentType":5126,
			"count":34,
			"type":"VEC2"
		},
		{
			"bufferView":28,
			"componentType":5123,
			"count":96,
			"type":"SCALAR"
		},
		{
			"bufferView":29,
			"componentType":5126,
			"count":34,
			"max":[
				-2.4176545210252698e-09,
				0.388765811920166,
				0.4004223048686981
			],
			"min":[
				-0.4004223048686981,
				0.32012873888015747,
				-0.4004223048686981
			],
			"type":"VEC3"
		},
		{
			"bufferView":30,
			"componentType":5126,
			"count":34,
			"type":"VEC3"
		},
		{
			"bufferView":31,
			"componentType":5126,
			"count":34,
			"type":"VEC2"
		},
		{
			"bufferView":32,
			"componentType":5126,
			"count":34,
			"type":"VEC2"
		},
		{
			"bufferView":33,
			"componentType":5123,
			"count":96,
			"type":"SCALAR"
		},
		{
			"bufferView":34,
			"componentType":5126,
			"count":34,
			"max":[
				0.3574144244194031,
				0.08052003383636475,
				0.3574144244194031
			],
			"min":[
				-1.16692845608668e-07,
				0.02097386308014393,
				-0.3574144244194031
			],
			"type":"VEC3"
		},
		{
			"bufferView":35,
			"componentType":5126,
			"count":34,
			"type":"VEC3"
		},
		{
			"bufferView":36,
			"componentType":5126,
			"count":34,
			"type":"VEC2"
		},
		{
			"bufferView":37,
			"componentType":5126,
			"count":34,
			"type":"VEC2"
		},
		{
			"bufferView":38,
			"componentType":5123,
			"count":96,
			"type":"SCALAR"
		},
		{
			"bufferView":39,
			"componentType":5126,
			"count":34,
			"max":[
				1.3828380662772588e-09,
				0.08052003383636475,
				0.3574144244194031
			],
			"min":[
				-0.3574144244194031,
				0.02097386308014393,
				-0.3574144244194031
			],
			"type":"VEC3"
		},
		{
			"bufferView":40,
			"componentType":5126,
			"count":34,
			"type":"VEC3"
		},
		{
			"bufferView":41,
			"componentType":5126,
			"count":34,
			"type":"VEC2"
		},
		{
			"bufferView":42,
			"componentType":5126,
			"count":34,
			"type":"VEC2"
		},
		{
			"bufferView":43,
			"componentType":5123,
			"count":96,
			"type":"SCALAR"
		},
		{
			"bufferView":44,
			"componentType":5126,
			"count":80,
			"max":[
				0.3319718539714813,
				1.0213958024978638,
				-0.1842220425605774
			],
			"min":[
				0.06469018757343292,
				-2.586841446827748e-06,
				-0.39158743619918823
			],
			"type":"VEC3"
		},
		{
			"bufferView":45,
			"componentType":5126,
			"count":80,
			"type":"VEC3"
		},
		{
			"bufferView":46,
			"componentType":5126,
			"count":80,
			"type":"VEC2"
		},
		{
			"bufferView":47,
			"componentType":5126,
			"count":80,
			"type":"VEC2"
		},
		{
			"bufferView":48,
			"componentType":5123,
			"count":216,
			"type":"SCALAR"
		},
		{
			"bufferView":49,
			"componentType":5126,
			"count":60,
			"max":[
				0.399259090423584,
				1.0213958024978638,
				-1.555462247893047e-08
			],
			"min":[
				0.27570781111717224,
				-2.586841446827748e-06,
				-0.22181643545627594
			],
			"type":"VEC3"
		},
		{
			"bufferView":50,
			"componentType":5126,
			"count":60,
			"type":"VEC3"
		},
		{
			"bufferView":51,
			"componentType":5126,
			"count":60,
			"type":"VEC2"
		},
		{
			"bufferView":52,
			"componentType":5126,
			"count":60,
			"type":"VEC2"
		},
		{
			"bufferView":53,
			"componentType":5123,
			"count":162,
			"type":"SCALAR"
		},
		{
			"bufferView":54,
			"componentType":5126,
			"count":120,
			"max":[
				0.399259090423584,
				1.0213958024978638,
				0.3688673973083496
			],
			"min":[
				0.12689431011676788,
				-2.586841446827748e-06,
				-3.21405515535389e-08
			],
			"type":"VEC3"
		},
		{
			"bufferView":55,
			"componentType":5126,
			"count":120,
			"type":"VEC3"
		},
		{
			"bufferView":56,
			"componentType":5126,
			"count":120,
			"type":"VEC2"
		},
		{
			"bufferView":57,
			"componentType":5126,
			"count":120,
			"type":"VEC2"
		},
		{
			"bufferView":58,
			"componentType":5123,
			"count":324,
			"type":"SCALAR"
		},
		{
			"bufferView":59,
			"componentType":5126,
			"count":100,
			"max":[
				0.15278978645801544,
				1.0213958024978638,
				0.399259090423584
			],
			"min":[
				-0.22181667387485504,
				-2.586841446827748e-06,
				0.2757076919078827
			],
			"type":"VEC3"
		},
		{
			"bufferView":60,
			"componentType":5126,
			"count":100,
			"type":"VEC3"
		},
		{
			"bufferView":61,
			"componentType":5126,
			"count":100,
			"type":"VEC2"
		},
		{
			"bufferView":62,
			"componentType":5126,
			"count":100,
			"type":"VEC2"
		},
		{
			"bufferView":63,
			"componentType":5123,
			"count":270,
			"type":"SCALAR"
		},
		{
			"bufferView":64,
			"componentType":5126,
			"count":100,
			"max":[
				-0.18422219157218933,
				1.0213958024978638,
				0.3319717049598694
			],
			"min":[
				-0.399259090423584,
				-2.586841446827748e-06,
				-3.709356519721041e-07
			],
			"type":"VEC3"
		},
		{
			"bufferView":65,
			"componentType":5126,
			"count":100,
			"type":"VEC3"
		},
		{
			"bufferView":66,
			"componentType":5126,
			"count":100,
			"type":"VEC2"
		},
		{
			"bufferView":67,
			"componentType":5126,
			"count":100,
			"type":"VEC2"
		},
		{
			"bufferView":68,
			"componentType":5123,
			"count":270,
			"type":"SCALAR"
		},
		{
			"bufferView":69,
			"componentType":5126,
			"count":100,
			"max":[
				0.07789158821105957,
				1.0213958024978638,
				-0.23447050154209137
			],
			"min":[
				-0.28231847286224365,
				-2.586841446827748e-06,
				-0.399259090423584
			],
			"type":"VEC3"
		},
		{
			"bufferView":70,
			"componentType":5126,
			"count":100,
			"type":"VEC3"
		},
		{
			"bufferView":71,
			"componentType":5126,
			"count":100,
			"type":"VEC2"
		},
		{
			"bufferView":72,
			"componentType":5126,
			"count":100,
			"type":"VEC2"
		},
		{
			"bufferView":73,
			"componentType":5123,
			"count":270,
			"type":"SCALAR"
		},
		{
			"bufferView":74,
			"componentType":5126,
			"count":32,
			"max":[
				0.3292388916015625,
				0.9824059009552002,
				0.3292388916015625
			],
			"min":[
				-0.3292388916015625,
				0.9824059009552002,
				-0.3292388319969177
			],
			"type":"VEC3"
		},
		{
			"bufferView":75,
			"componentType":5126,
			"count":32,
			"type":"VEC3"
		},
		{
			"bufferView":76,
			"componentType":5126,
			"count":32,
			"type":"VEC2"
		},
		{
			"bufferView":77,
			"componentType":5126,
			"count":32,
			"type":"VEC2"
		},
		{
			"bufferView":78,
			"componentType":5123,
			"count":90,
			"type":"SCALAR"
		},
		{
			"bufferView":79,
			"componentType":5126,
			"count":32,
			"max":[
				0.3292388916015625,
				0.03898737579584122,
				0.3292388916015625
			],
			"min":[
				-0.3292388916015625,
				0.03898737579584122,
				-0.3292388319969177
			],
			"type":"VEC3"
		},
		{
			"bufferView":80,
			"componentType":5126,
			"count":32,
			"type":"VEC3"
		},
		{
			"bufferView":81,
			"componentType":5126,
			"count":32,
			"type":"VEC2"
		},
		{
			"bufferView":82,
			"componentType":5126,
			"count":32,
			"type":"VEC2"
		},
		{
			"bufferView":83,
			"componentType":5123,
			"count":90,
			"type":"SCALAR"
		}
	],
	"bufferViews":[
		{
			"buffer":0,
			"byteLength":408,
			"byteOffset":0,
			"target":34962
		},
		{
			"buffer":0,
			"byteLength":408,
			"byteOffset":408,
			"target":34962
		},
		{
			"buffer":0,
			"byteLength":272,
			"byteOffset":816,
			"target":34962
		},
		{
			"buffer":0,
			"byteLength":272,
			"byteOffset":1088,
			"target":34962
		},
		{
			"buffer":0,
			"byteLength":192,
			"byteOffset":1360,
			"target":34963
		},
		{
			"buffer":0,
			"byteLength":408,
			"byteOffset":1552,
			"target":34962
		},
		{
			"buffer":0,
			"byteLength":408,
			"byteOffset":1960,
			"target":34962
		},
		{
			"buffer":0,
			"byteLength":272,
			"byteOffset":2368,
			"target":34962
		},
		{
			"buffer":0,
			"byteLength":272,
			"byteOffset":2640,
			"target":34962
		},
		{
			"buffer":0,
			"byteLength":192,
			"byteOffset":2912,
			"target":34963
		},
		{
			"buffer":0,
			"byteLength":960,
			"byteOffset":3104,
			"target":34962
		},
		{
			"buffer":0,
			"byteLength":960,
			"byteOffset":4064,
			"target":34962
		},
		{
			"buffer":0,
			"byteLength":640,
			"byteOffset":5024,
			"target":34962
		},
		{
			"buffer":0,
			"byteLength":640,
			"byteOffset":5664,
			"target":34962
		},
		{
			"buffer":0,
			"byteLength":432,
			"byteOffset":6304,
			"target":34963
		},
		{
			"buffer":0,
			"byteLength":408,
			"byteOffset":6736,
			"target":34962
		},
		{
			"buffer":0,
			"byteLength":408,
			"byteOffset":7144,
			"target":34962
		},
		{
			"buffer":0,
			"byteLength":272,
			"byteOffset":7552,
			"target":34962
		},
		{
			"buffer":0,
			"byteLength":272,
			"byteOffset":7824,
			"target":34962
		},
		{
			"buffer":0,
			"byteLength":192,
			"byteOffset":8096,
			"target":34963
		},
		{
			"buffer":0,
			"byteLength":408,
			"byteOffset":8288,
			"target":34962
		},
		{
			"buffer":0,
			"byteLength":408,
			"byteOffset":8696,
			"target":34962
		},
		{
			"buffer":0,
			"byteLength":272,
			"byteOffset":9104,
			"target":34962
		},
		{
			"buffer":0,
			"byteLength":272,
			"byteOffset":9376,
			"target":34962
		},
		{
			"buffer":0,
			"byteLength":408,
			"byteOffset":9648,
			"target":34962
		},
		{
			"buffer":0,
			"byteLength":408,
			"byteOffset":10056,
			"target":34962
		},
		{
			"buffer":0,
			"byteLength":272,
			"byteOffset":10464,
			"target":34962
		},
		{
			"buffer":0,
			"byteLength":272,
			"byteOffset":10736,
			"target":34962
		},
		{
			"buffer":0,
			"byteLength":192,
			"byteOffset":11008,
			"target":34963
		},
		{
			"buffer":0,
			"byteLength":408,
			"byteOffset":11200,
			"target":34962
		},
		{
			"buffer":0,
			"byteLength":408,
			"byteOffset":11608,
			"target":34962
		},
		{
			"buffer":0,
			"byteLength":272,
			"byteOffset":12016,
			"target":34962
		},
		{
			"buffer":0,
			"byteLength":272,
			"byteOffset":12288,
			"target":34962
		},
		{
			"buffer":0,
			"byteLength":192,
			"byteOffset":12560,
			"target":34963
		},
		{
			"buffer":0,
			"byteLength":408,
			"byteOffset":12752,
			"target":34962
		},
		{
			"buffer":0,
			"byteLength":408,
			"byteOffset":13160,
			"target":34962
		},
		{
			"buffer":0,
			"byteLength":272,
			"byteOffset":13568,
			"target":34962
		},
		{
			"buffer":0,
			"byteLength":272,
			"byteOffset":13840,
			"target":34962
		},
		{
			"buffer":0,
			"byteLength":192,
			"byteOffset":14112,
			"target":34963
		},
		{
			"buffer":0,
			"byteLength":408,
			"byteOffset":14304,
			"target":34962
		},
		{
			"buffer":0,
			"byteLength":408,
			"byteOffset":14712,
			"target":34962
		},
		{
			"buffer":0,
			"byteLength":272,
			"byteOffset":15120,
			"target":34962
		},
		{
			"buffer":0,
			"byteLength":272,
			"byteOffset":15392,
			"target":34962
		},
		{
			"buffer":0,
			"byteLength":192,
			"byteOffset":15664,
			"target":34963
		},
		{
			"buffer":0,
			"byteLength":960,
			"byteOffset":15856,
			"target":34962
		},
		{
			"buffer":0,
			"byteLength":960,
			"byteOffset":16816,
			"target":34962
		},
		{
			"buffer":0,
			"byteLength":640,
			"byteOffset":17776,
			"target":34962
		},
		{
			"buffer":0,
			"byteLength":640,
			"byteOffset":18416,
			"target":34962
		},
		{
			"buffer":0,
			"byteLength":432,
			"byteOffset":19056,
			"target":34963
		},
		{
			"buffer":0,
			"byteLength":720,
			"byteOffset":19488,
			"target":34962
		},
		{
			"buffer":0,
			"byteLength":720,
			"byteOffset":20208,
			"target":34962
		},
		{
			"buffer":0,
			"byteLength":480,
			"byteOffset":20928,
			"target":34962
		},
		{
			"buffer":0,
			"byteLength":480,
			"byteOffset":21408,
			"target":34962
		},
		{
			"buffer":0,
			"byteLength":324,
			"byteOffset":21888,
			"target":34963
		},
		{
			"buffer":0,
			"byteLength":1440,
			"byteOffset":22212,
			"target":34962
		},
		{
			"buffer":0,
			"byteLength":1440,
			"byteOffset":23652,
			"target":34962
		},
		{
			"buffer":0,
			"byteLength":960,
			"byteOffset":25092,
			"target":34962
		},
		{
			"buffer":0,
			"byteLength":960,
			"byteOffset":26052,
			"target":34962
		},
		{
			"buffer":0,
			"byteLength":648,
			"byteOffset":27012,
			"target":34963
		},
		{
			"buffer":0,
			"byteLength":1200,
			"byteOffset":27660,
			"target":34962
		},
		{
			"buffer":0,
			"byteLength":1200,
			"byteOffset":28860,
			"target":34962
		},
		{
			"buffer":0,
			"byteLength":800,
			"byteOffset":30060,
			"target":34962
		},
		{
			"buffer":0,
			"byteLength":800,
			"byteOffset":30860,
			"target":34962
		},
		{
			"buffer":0,
			"byteLength":540,
			"byteOffset":31660,
			"target":34963
		},
		{
			"buffer":0,
			"byteLength":1200,
			"byteOffset":32200,
			"target":34962
		},
		{
			"buffer":0,
			"byteLength":1200,
			"byteOffset":33400,
			"target":34962
		},
		{
			"buffer":0,
			"byteLength":800,
			"byteOffset":34600,
			"target":34962
		},
		{
			"buffer":0,
			"byteLength":800,
			"byteOffset":35400,
			"target":34962
		},
		{
			"buffer":0,
			"byteLength":540,
			"byteOffset":36200,
			"target":34963
		},
		{
			"buffer":0,
			"byteLength":1200,
			"byteOffset":36740,
			"target":34962
		},
		{
			"buffer":0,
			"byteLength":1200,
			"byteOffset":37940,
			"target":34962
		},
		{
			"buffer":0,
			"byteLength":800,
			"byteOffset":39140,
			"target":34962
		},
		{
			"buffer":0,
			"byteLength":800,
			"byteOffset":39940,
			"target":34962
		},
		{
			"buffer":0,
			"byteLength":540,
			"byteOffset":40740,
			"target":34963
		},
		{
			"buffer":0,
			"byteLength":384,
			"byteOffset":41280,
			"target":34962
		},
		{
			"buffer":0,
			"byteLength":384,
			"byteOffset":41664,
			"target":34962
		},
		{
			"buffer":0,
			"byteLength":256,
			"byteOffset":42048,
			"target":34962
		},
		{
			"buffer":0,
			"byteLength":256,
			"byteOffset":42304,
			"target":34962
		},
		{
			"buffer":0,
			"byteLength":180,
			"byteOffset":42560,
			"target":34963
		},
		{
			"buffer":0,
			"byteLength":384,
			"byteOffset":42740,
			"target":34962
		},
		{
			"buffer":0,
			"byteLength":384,
			"byteOffset":43124,
			"target":34962
		},
		{
			"buffer":0,
			"byteLength":256,
			"byteOffset":43508,
			"target":34962
		},
		{
			"buffer":0,
			"byteLength":256,
			"byteOffset":43764,
			"target":34962
		},
		{
			"buffer":0,
			"byteLength":180,
			"byteOffset":44020,
			"target":34963
		}
	],
	"samplers":[
		{
			"magFilter":9729,
			"minFilter":9987
		}
	],
	"buffers":[
		{
			"byteLength":44200,
			"uri":"barrel_convex.bin"
		}
	]
}
