{
  "accessors": [
    {
      "bufferView": 2,
      "componentType": 5126,
      "count": 24467,
      "max": [
        1.860733985900879,
        0.7746536731719971,
        1.8283427953720093
      ],
      "min": [
        -1.860733985900879,
        -1.0037386417388916,
        -1.8283427953720093
      ],
      "type": "VEC3"
    },
    {
      "bufferView": 2,
      "byteOffset": 293604,
      "componentType": 5126,
      "count": 24467,
      "max": [
        1.0,
        1.0,
        0.9999976754188538
      ],
      "min": [
        -1.0,
        -1.0,
        -0.999997615814209
      ],
      "type": "VEC3"
    },
    {
      "bufferView": 1,
      "componentType": 5126,
      "count": 24467,
      "max": [
        99934048.0,
        99437592.0
      ],
      "min": [
        -99970184.0,
        -99976168.0
      ],
      "type": "VEC2"
    },
    {
      "bufferView": 0,
      "componentType": 5125,
      "count": 135861,
      "type": "SCALAR"
    },
    {
      "bufferView": 2,
      "byteOffset": 587208,
      "componentType": 5126,
      "count": 31165,
      "max": [
        8.294819831848145,
        9.205156326293945,
        0.9790241122245789
      ],
      "min": [
        -1.5684771537780762,
        -1.0000008344650269,
        -0.9790241718292236
      ],
      "type": "VEC3"
    },
    {
      "bufferView": 2,
      "byteOffset": 961188,
      "componentType": 5126,
      "count": 31165,
      "max": [
        0.998020589351654,
        0.9998573064804077,
        0.9999994039535522
      ],
      "min": [
        -0.999495267868042,
        -1.0,
        -0.9999993443489075
      ],
      "type": "VEC3"
    },
    {
      "bufferView": 1,
      "byteOffset": 195736,
      "componentType": 5126,
      "count": 31165,
      "max": [
        1.0000001192092896,
        1.0000003576278687
      ],
      "min": [
        0.0,
        0.011537184938788414
      ],
      "type": "VEC2"
    },
    {
      "bufferView": 0,
      "byteOffset": 543444,
      "componentType": 5125,
      "count": 141312,
      "type": "SCALAR"
    },
    {
      "bufferView": 2,
      "byteOffset": 1335168,
      "componentType": 5126,
      "count": 34425,
      "max": [
        0.8955745697021484,
        0.6891530752182007,
        0.7925711274147034
      ],
      "min": [
        -0.8955740928649902,
        -0.9194437265396118,
        -0.8968132138252258
      ],
      "type": "VEC3"
    },
    {
      "bufferView": 2,
      "byteOffset": 1748268,
      "componentType": 5126,
      "count": 34425,
      "max": [
        0.9999771118164063,
        0.9999971985816956,
        0.9999450445175171
      ],
      "min": [
        -0.9999771118164063,
        -0.9999459981918335,
        -0.9999750852584839
      ],
      "type": "VEC3"
    },
    {
      "bufferView": 1,
      "byteOffset": 445056,
      "componentType": 5126,
      "count": 34425,
      "max": [
        1.0000003576278687,
        1.0000001192092896
      ],
      "min": [
        0.0,
        0.0
      ],
      "type": "VEC2"
    },
    {
      "bufferView": 0,
      "byteOffset": 1108692,
      "componentType": 5125,
      "count": 202752,
      "type": "SCALAR"
    },
    {
      "bufferView": 2,
      "byteOffset": 2161368,
      "componentType": 5126,
      "count": 34738,
      "max": [
        0.5018647909164429,
        0.7482460737228394,
        0.8594995737075806
      ],
      "min": [
        -1.515211582183838,
        -0.2298901528120041,
        -1.1917712688446045
      ],
      "type": "VEC3"
    },
    {
      "bufferView": 2,
      "byteOffset": 2578224,
      "componentType": 5126,
      "count": 34738,
      "max": [
        0.9999663829803467,
        0.999993622303009,
        0.9998995661735535
      ],
      "min": [
        -0.9999862909317017,
        -0.9999995231628418,
        -0.9999423623085022
      ],
      "type": "VEC3"
    },
    {
      "bufferView": 1,
      "byteOffset": 720456,
      "componentType": 5126,
      "count": 34738,
      "max": [
        1.0,
        1.0
      ],
      "min": [
        0.0,
        0.0
      ],
      "type": "VEC2"
    },
    {
      "bufferView": 0,
      "byteOffset": 1919700,
      "componentType": 5125,
      "count": 205056,
      "type": "SCALAR"
    },
    {
      "bufferView": 2,
      "byteOffset": 2995080,
      "componentType": 5126,
      "count": 7170,
      "max": [
        0.9721494913101196,
        -0.012053236365318298,
        0.9721494913101196
      ],
      "min": [
        -0.9721494317054749,
        -0.07601621001958847,
        -0.9721494913101196
      ],
      "type": "VEC3"
    },
    {
      "bufferView": 2,
      "byteOffset": 3081120,
      "componentType": 5126,
      "count": 7170,
      "max": [
        0.9983661770820618,
        1.0,
        0.9983667135238647
      ],
      "min": [
        -0.9983664751052856,
        -1.0,
        -0.9983664155006409
      ],
      "type": "VEC3"
    },
    {
      "bufferView": 1,
      "byteOffset": 998360,
      "componentType": 5126,
      "count": 7170,
      "max": [
        0.0,
        0.0
      ],
      "min": [
        0.0,
        0.0
      ],
      "type": "VEC2"
    },
    {
      "bufferView": 0,
      "byteOffset": 2739924,
      "componentType": 5125,
      "count": 43008,
      "type": "SCALAR"
    }
  ],
  "asset": {
    "extras": {
      "author": "reiinaru (https://sketchfab.com/reiinaru)",
      "license": "CC-BY-4.0 (http://creativecommons.org/licenses/by/4.0/)",
      "source": "https://sketchfab.com/3d-models/pink-pudding-465c873020b04e658bf6caa759e7587f",
      "title": "pink pudding"
    },
    "generator": "Sketchfab-15.37.0",
    "version": "2.0"
  },
  "bufferViews": [
    {
      "buffer": 0,
      "byteLength": 2911956,
      "name": "floatBufferViews",
      "target": 34963
    },
    {
      "buffer": 0,
      "byteLength": 1055720,
      "byteOffset": 2911956,
      "byteStride": 8,
      "name": "floatBufferViews",
      "target": 34962
    },
    {
      "buffer": 0,
      "byteLength": 3167160,
      "byteOffset": 3967676,
      "byteStride": 12,
      "name": "floatBufferViews",
      "target": 34962
    }
  ],
  "buffers": [
    {
      "byteLength": 7134836,
      "uri": "scene.bin"
    }
  ],
  "materials": [
    {
      "doubleSided": true,
      "name": "material_0",
      "pbrMetallicRoughness": {
        "metallicFactor": 0.0,
        "roughnessFactor": 0.6
      }
    },
    {
      "alphaMode": "BLEND",
      "doubleSided": true,
      "name": "Material.001",
      "pbrMetallicRoughness": {
        "baseColorFactor": [
          0.8648245820318268,
          0.27420344673405117,
          0.5047968015336786,
          0.6445733929855786
        ],
        "metallicFactor": 0.0,
        "roughnessFactor": 0.0
      }
    },
    {
      "doubleSided": true,
      "name": "Material.002",
      "pbrMetallicRoughness": {
        "baseColorFactor": [
          0.162029,
          0.0109601,
          0.0137021,
          1.0
        ],
        "metallicFactor": 0.0,
        "roughnessFactor": 0.5
      }
    },
    {
      "doubleSided": true,
      "name": "Material",
      "pbrMetallicRoughness": {
        "baseColorFactor": [
          0.162029,
          0.0109601,
          0.0137021,
          1.0
        ],
        "metallicFactor": 0.0,
        "roughnessFactor": 0.0972222
      }
    },
    {
      "doubleSided": true,
      "name": "Material.003",
      "pbrMetallicRoughness": {
        "baseColorFactor": [
          0.8,
          0.8,
          0.8,
          1.0
        ],
        "metallicFactor": 0.0,
        "roughnessFactor": 0.361111
      }
    }
  ],
  "meshes": [
    {
      "name": "Object_0",
      "primitives": [
        {
          "attributes": {
            "NORMAL": 1,
            "POSITION": 0,
            "TEXCOORD_0": 2
          },
          "indices": 3,
          "material": 1,
          "mode": 4
        }
      ]
    },
    {
      "name": "Object_1",
      "primitives": [
        {
          "attributes": {
            "NORMAL": 5,
            "POSITION": 4,
            "TEXCOORD_0": 6
          },
          "indices": 7,
          "material": 2,
          "mode": 4
        }
      ]
    },
    {
      "name": "Object_2",
      "primitives": [
        {
          "attributes": {
            "NORMAL": 9,
            "POSITION": 8,
            "TEXCOORD_0": 10
          },
          "indices": 11,
          "material": 3,
          "mode": 4
        }
      ]
    },
    {
      "name": "Object_3",
      "primitives": [
        {
          "attributes": {
            "NORMAL": 13,
            "POSITION": 12,
            "TEXCOORD_0": 14
          },
          "indices": 15,
          "material": 0,
          "mode": 4
        }
      ]
    },
    {
      "name": "Object_4",
      "primitives": [
        {
          "attributes": {
            "NORMAL": 17,
            "POSITION": 16,
            "TEXCOORD_0": 18
          },
          "indices": 19,
          "material": 4,
          "mode": 4
        }
      ]
    }
  ],
  "nodes": [
    {
      "children": [
        1
      ],
      "matrix": [
        1.0,
        0.0,
        0.0,
        0.0,
        0.0,
        2.220446049250313e-16,
        -1.0,
        0.0,
        0.0,
        1.0,
        2.220446049250313e-16,
        0.0,
        0.0,
        0.0,
        0.0,
        1.0
      ],
      "name": "Sketchfab_model"
    },
    {
      "children": [
        2
      ],
      "name": "root"
    },
    {
      "children": [
        3,
        5,
        7,
        9,
        11
      ],
      "matrix": [
        1.0,
        0.0,
        0.0,
        0.0,
        0.0,
        2.220446049250313e-16,
        1.0,
        0.0,
        0.0,
        -1.0,
        2.220446049250313e-16,
        0.0,
        0.0,
        0.0,
        0.0,
        1.0
      ],
      "name": "GLTF_SceneRootNode"
    },
    {
      "children": [
        4
      ],
      "matrix": [
        1.0,
        0.0,
        0.0,
        0.0,
        0.0,
        1.3314106464385986,
        0.0,
        0.0,
        0.0,
        0.0,
        1.0,
        0.0,
        0.0,
        1.234108567237854,
        0.0,
        1.0
      ],
      "name": "Cylinder_2"
    },
    {
      "mesh": 0,
      "name": "Object_4"
    },
    {
      "children": [
        6
      ],
      "matrix": [
        0.029146506910807883,
        1.4113150987784648e-05,
        -0.013459834891933383,
        0.0,
        -0.013699131911076865,
        0.08732690526991271,
        -0.02957312539973692,
        0.0,
        0.012605731419628828,
        0.011225556451185685,
        0.02730876484461236,
        0.0,
        -0.08516985923051834,
        3.096912145614624,
        -0.21905896067619324,
        1.0
      ],
      "name": "Cherry01_6"
    },
    {
      "mesh": 1,
      "name": "Object_6"
    },
    {
      "children": [
        8
      ],
      "matrix": [
        0.37827052039291514,
        0.00018315822032188243,
        -0.17468502610081377,
        0.0,
        -0.0612359910852942,
        0.3903567761814813,
        -0.13219377572103524,
        0.0,
        0.16360022391055387,
        0.1456880273872768,
        0.3544197644000163,
        0.0,
        -0.04338930547237396,
        2.8305764198303223,
        -0.1288648247718811,
        1.0
      ],
      "name": "Cherry02_7"
    },
    {
      "mesh": 2,
      "name": "Object_8"
    },
    {
      "children": [
        10
      ],
      "matrix": [
        0.7885462641716003,
        0.0,
        0.0,
        0.0,
        0.0,
        0.7885462641716003,
        0.0,
        0.0,
        0.0,
        0.0,
        0.7885462641716003,
        0.0,
        0.3993756175041199,
        2.1641600131988525,
        0.10606654733419418,
        1.0
      ],
      "name": "NurbsPath.001_9"
    },
    {
      "mesh": 3,
      "name": "Object_10"
    },
    {
      "children": [
        12
      ],
      "matrix": [
        2.818328380584717,
        0.0,
        0.0,
        0.0,
        0.0,
        2.818328380584717,
        0.0,
        0.0,
        0.0,
        0.0,
        2.818328380584717,
        0.0,
        0.0,
        0.0,
        0.0,
        1.0
      ],
      "name": "Circle_13"
    },
    {
      "mesh": 4,
      "name": "Object_12"
    }
  ],
  "scene": 0,
  "scenes": [
    {
      "name": "Sketchfab_Scene",
      "nodes": [
        0
      ]
    }
  ]
}
