{
  "accessors": [
    {
      "bufferView": 0,
      "componentType": 5126,
      "count": 659,
      "max": [
        10.0,
        1.6658499240875244,
        10.000000953674316
      ],
      "min": [
        -10.000001907348633,
        -1.4756792783737183,
        -10.000004768371582
      ],
      "type": "VEC3"
    },
    {
      "bufferView": 1,
      "componentType": 5126,
      "count": 659,
      "max": [
        1.0,
        1.0,
        1.0
      ],
      "min": [
        -1.0,
        -1.0,
        -1.0
      ],
      "type": "VEC3"
    },
    {
      "bufferView": 2,
      "componentType": 5126,
      "count": 659,
      "max": [
        1.0,
        1.0,
        1.0,
        1.0
      ],
      "min": [
        -1.0,
        -1.0,
        -1.0,
        1.0
      ],
      "type": "VEC4"
    },
    {
      "bufferView": 3,
      "componentType": 5126,
      "count": 659,
      "max": [
        0.9840601682662964,
        0.5764038562774658
      ],
      "min": [
        0.024402828887104988,
        0.0741431713104248
      ],
      "type": "VEC2"
    },
    {
      "bufferView": 4,
      "componentType": 5125,
      "count": 1674,
      "max": [
        658
      ],
      "min": [
        0
      ],
      "type": "SCALAR"
    }
  ],
  "asset": {
    "version": "2.0"
  },
  "bufferViews": [
    {
      "buffer": 0,
      "byteLength": 7908,
      "target": 34962
    },
    {
      "buffer": 0,
      "byteLength": 7908,
      "byteOffset": 7908,
      "target": 34962
    },
    {
      "buffer": 0,
      "byteLength": 10544,
      "byteOffset": 15816,
      "target": 34962
    },
    {
      "buffer": 0,
      "byteLength": 5272,
      "byteOffset": 26360,
      "target": 34962
    },
    {
      "buffer": 0,
      "byteLength": 6696,
      "byteOffset": 31632,
      "target": 34963
    }
  ],
  "buffers": [
    {
      "byteLength": 38328,
      "uri": "titleCoin.bin"
    }
  ],
  "images": [
    {
      "uri": "resultCoin_BaseColor.png"
    },
    {
      "uri": "resultCoin_Metalness.png"
    },
    {
      "uri": "resultCoin_Normal.png"
    }
  ],
  "materials": [
    {
      "emissiveFactor": [
        1.0,
        1.0,
        1.0
      ],
      "name": "resultCoin1",
      "normalTexture": {
        "index": 2
      },
      "pbrMetallicRoughness": {
        "baseColorTexture": {
          "index": 0
        },
        "metallicFactor": 0.0,
        "metallicRoughnessTexture": {
          "index": 1
        }
      }
    }
  ],
  "meshes": [
    {
      "primitives": [
        {
          "attributes": {
            "NORMAL": 1,
            "POSITION": 0,
            "TANGENT": 2,
            "TEXCOORD_0": 3
          },
          "indices": 4,
          "material": 0,
          "mode": 4
        }
      ]
    }
  ],
  "nodes": [
    {
      "mesh": 0,
      "name": "Mesh",
      "rotation": [
        -0.0,
        0.0,
        0.0,
        -1.0
      ],
      "scale": [
        1.0,
        1.0,
        1.0
      ],
      "translation": [
        -0.0,
        0.0,
        0.0
      ]
    }
  ],
  "samplers": [
    {
      "wrapS": 10497,
      "wrapT": 10497
    }
  ],
  "scenes": [
    {
      "nodes": [
        0
      ]
    }
  ],
  "textures": [
    {
      "sampler": 0,
      "source": 0
    },
    {
      "sampler": 0,
      "source": 1
    },
    {
      "sampler": 0,
      "source": 2
    }
  ]
}
