{
  "accessors": [
    {
      "bufferView": 0,
      "componentType": 5126,
      "count": 88,
      "max": [
        1.5394295454025269,
        0.5195598006248474,
        0.5411245226860046
      ],
      "min": [
        -1.5398072004318237,
        0.519555389881134,
        -0.5411245226860046
      ],
      "type": "VEC3"
    },
    {
      "bufferView": 1,
      "componentType": 5126,
      "count": 88,
      "max": [
        2.188950384152122e-05,
        1.0,
        2.333127849851735e-05
      ],
      "min": [
        -2.187512473028619e-05,
        1.0,
        -2.3456666895071976e-05
      ],
      "type": "VEC3"
    },
    {
      "bufferView": 2,
      "componentType": 5126,
      "count": 88,
      "max": [
        0.9999890923500061,
        2.1880523490835913e-05,
        -0.004677233751863241,
        1.0
      ],
      "min": [
        0.9999890327453613,
        -2.19084231503075e-05,
        -0.004681210964918137,
        1.0
      ],
      "type": "VEC4"
    },
    {
      "bufferView": 3,
      "componentType": 5126,
      "count": 88,
      "max": [
        0.7130596041679382,
        0.9873495101928711
      ],
      "min": [
        0.01660636067390442,
        0.7405371069908142
      ],
      "type": "VEC2"
    },
    {
      "bufferView": 4,
      "componentType": 5125,
      "count": 366,
      "max": [
        87
      ],
      "min": [
        0
      ],
      "type": "SCALAR"
    }
  ],
  "asset": {
    "version": "2.0"
  },
  "bufferViews": [
    {
      "buffer": 0,
      "byteLength": 1056,
      "target": 34962
    },
    {
      "buffer": 0,
      "byteLength": 1056,
      "byteOffset": 1056,
      "target": 34962
    },
    {
      "buffer": 0,
      "byteLength": 1408,
      "byteOffset": 2112,
      "target": 34962
    },
    {
      "buffer": 0,
      "byteLength": 704,
      "byteOffset": 3520,
      "target": 34962
    },
    {
      "buffer": 0,
      "byteLength": 1464,
      "byteOffset": 4224,
      "target": 34963
    }
  ],
  "buffers": [
    {
      "byteLength": 5688,
      "uri": "data:application/octet-stream;base64,"
    }
  ],
  "images": [
    {
      "uri": "m_dotine2_BaseColo.png"
    },
    {
      "uri": "m_dotine2_Opacity.png"
    }
  ],
  "materials": [
    {
      "alphaMode": "BLEND",
      "name": "m_dotine2",
      "normalTexture": {
        "index": 1
      },
      "pbrMetallicRoughness": {
        "baseColorFactor": [
          0.800000011920929,
          0.800000011920929,
          0.800000011920929,
          1.0
        ],
        "baseColorTexture": {
          "index": 0
        },
        "metallicFactor": 0.0
      }
    }
  ],
  "meshes": [
    {
      "primitives": [
        {
          "attributes": {
            "NORMAL": 1,
            "POSITION": 0,
            "TANGENT": 2,
            "TEXCOORD_0": 3
          },
          "indices": 4,
          "material": 0,
          "mode": 4
        }
      ]
    }
  ],
  "nodes": [
    {
      "children": [
        1
      ],
      "name": "dotline2",
      "rotation": [
        0.0,
        0.0,
        0.0,
        1.0
      ],
      "scale": [
        1.0,
        1.0,
        1.0
      ],
      "translation": [
        0.0,
        0.0,
        0.0
      ]
    },
    {
      "mesh": 0,
      "name": "Oden_DotLine_Ribbon",
      "rotation": [
        0.0,
        0.0,
        0.0,
        1.0
      ],
      "scale": [
        1.0,
        1.0,
        1.0
      ],
      "translation": [
        0.0,
        0.0,
        0.0
      ]
    }
  ],
  "samplers": [
    {
      "wrapS": 10497,
      "wrapT": 10497
    }
  ],
  "scenes": [
    {
      "nodes": [
        0
      ]
    }
  ],
  "textures": [
    {
      "sampler": 0,
      "source": 0
    },
    {
      "sampler": 0,
      "source": 1
    }
  ]
}
