{
  "accessors": [
    {
      "bufferView": 0,
      "componentType": 5126,
      "count": 173,
      "max": [
        0.723991870880127,
        1.1923760175704956,
        0.7308678030967712
      ],
      "min": [
        -0.7239920496940613,
        -0.723991870880127,
        0.7308605313301086
      ],
      "type": "VEC3"
    },
    {
      "bufferView": 1,
      "componentType": 5126,
      "count": 173,
      "max": [
        3.2123527489602566e-05,
        8.399842772632837e-05,
        1.0
      ],
      "min": [
        -3.2123614801093936e-05,
        -0.000137293289299123,
        1.0
      ],
      "type": "VEC3"
    },
    {
      "bufferView": 2,
      "componentType": 5126,
      "count": 173,
      "max": [
        0.0001520819787401706,
        -1.0,
        8.399842772632837e-05,
        1.0
      ],
      "min": [
        -7.82683418947272e-05,
        -1.0,
        -0.000137293289299123,
        1.0
      ],
      "type": "VEC4"
    },
    {
      "bufferView": 3,
      "componentType": 5126,
      "count": 173,
      "max": [
        0.9959000945091248,
        0.7656954526901245
      ],
      "min": [
        0.5625694394111633,
        0.4382762908935547
      ],
      "type": "VEC2"
    },
    {
      "bufferView": 4,
      "componentType": 5125,
      "count": 912,
      "max": [
        172
      ],
      "min": [
        0
      ],
      "type": "SCALAR"
    }
  ],
  "asset": {
    "version": "2.0"
  },
  "bufferViews": [
    {
      "buffer": 0,
      "byteLength": 2076,
      "target": 34962
    },
    {
      "buffer": 0,
      "byteLength": 2076,
      "byteOffset": 2076,
      "target": 34962
    },
    {
      "buffer": 0,
      "byteLength": 2768,
      "byteOffset": 4152,
      "target": 34962
    },
    {
      "buffer": 0,
      "byteLength": 1384,
      "byteOffset": 6920,
      "target": 34962
    },
    {
      "buffer": 0,
      "byteLength": 3648,
      "byteOffset": 8304,
      "target": 34963
    }
  ],
  "buffers": [
    {
      "byteLength": 11952,
      "uri": "data:application/octet-stream;base64,"
    }
  ],
  "images": [
    {
      "uri": "m_dotine2_BaseColo.png"
    },
    {
      "uri": "m_dotine2_Opacity.png"
    }
  ],
  "materials": [
    {
      "alphaMode": "BLEND",
      "name": "m_dotine2",
      "normalTexture": {
        "index": 1
      },
      "pbrMetallicRoughness": {
        "baseColorFactor": [
          0.800000011920929,
          0.800000011920929,
          0.800000011920929,
          1.0
        ],
        "baseColorTexture": {
          "index": 0
        },
        "metallicFactor": 0.0
      }
    }
  ],
  "meshes": [
    {
      "primitives": [
        {
          "attributes": {
            "NORMAL": 1,
            "POSITION": 0,
            "TANGENT": 2,
            "TEXCOORD_0": 3
          },
          "indices": 4,
          "material": 0,
          "mode": 4
        }
      ]
    }
  ],
  "nodes": [
    {
      "children": [
        1
      ],
      "name": "dotline2",
      "rotation": [
        0.0,
        0.0,
        0.0,
        1.0
      ],
      "scale": [
        1.0,
        1.0,
        1.0
      ],
      "translation": [
        0.0,
        0.0,
        0.0
      ]
    },
    {
      "mesh": 0,
      "name": "Oden_DotLine_Egg",
      "rotation": [
        0.0,
        0.0,
        0.0,
        1.0
      ],
      "scale": [
        1.0,
        1.0,
        1.0
      ],
      "translation": [
        0.0,
        0.0,
        0.0
      ]
    }
  ],
  "samplers": [
    {
      "wrapS": 10497,
      "wrapT": 10497
    }
  ],
  "scenes": [
    {
      "nodes": [
        0
      ]
    }
  ],
  "textures": [
    {
      "sampler": 0,
      "source": 0
    },
    {
      "sampler": 0,
      "source": 1
    }
  ]
}
