{
  "accessors": [
    {
      "bufferView": 0,
      "componentType": 5126,
      "count": 218,
      "max": [
        8.539399147033691,
        10.705413818359375,
        3.5
      ],
      "min": [
        0.4625563621520996,
        -0.18345880508422852,
        2.5
      ],
      "type": "VEC3"
    },
    {
      "bufferView": 1,
      "componentType": 5126,
      "count": 218,
      "max": [
        0.9997685551643372,
        0.9957302212715149,
        1.0
      ],
      "min": [
        -0.9999980330467224,
        -0.9999929666519165,
        -1.0
      ],
      "type": "VEC3"
    },
    {
      "bufferView": 2,
      "componentType": 5126,
      "count": 218,
      "max": [
        1.0,
        0.8965874910354614,
        0.9983220100402832,
        1.0
      ],
      "min": [
        -0.9957302212715149,
        -0.8949620127677917,
        -0.9983596801757813,
        1.0
      ],
      "type": "VEC4"
    },
    {
      "bufferView": 3,
      "componentType": 5126,
      "count": 218,
      "max": [
        0.2872161865234375,
        0.9980079531669617
      ],
      "min": [
        0.14823882281780243,
        0.810644268989563
      ],
      "type": "VEC2"
    },
    {
      "bufferView": 4,
      "componentType": 5125,
      "count": 624,
      "max": [
        217
      ],
      "min": [
        0
      ],
      "type": "SCALAR"
    }
  ],
  "asset": {
    "version": "2.0"
  },
  "bufferViews": [
    {
      "buffer": 0,
      "byteLength": 2616,
      "target": 34962
    },
    {
      "buffer": 0,
      "byteLength": 2616,
      "byteOffset": 2616,
      "target": 34962
    },
    {
      "buffer": 0,
      "byteLength": 3488,
      "byteOffset": 5232,
      "target": 34962
    },
    {
      "buffer": 0,
      "byteLength": 1744,
      "byteOffset": 8720,
      "target": 34962
    },
    {
      "buffer": 0,
      "byteLength": 2496,
      "byteOffset": 10464,
      "target": 34963
    }
  ],
  "buffers": [
    {
      "byteLength": 12960,
      "uri": "data:application/octet-stream;base64,"
    }
  ],
  "materials": [
    {
      "name": "typeStandardSurface",
      "pbrMetallicRoughness": {
        "baseColorFactor": [
          1.0,
          0.0,
          0.0,
          1.0
        ],
        "metallicFactor": 0.0
      }
    }
  ],
  "meshes": [
    {
      "primitives": [
        {
          "attributes": {
            "NORMAL": 1,
            "POSITION": 0,
            "TANGENT": 2,
            "TEXCOORD_0": 3
          },
          "indices": 4,
          "material": 0,
          "mode": 4
        }
      ]
    }
  ],
  "nodes": [
    {
      "children": [
        1
      ],
      "name": "num",
      "rotation": [
        0.0,
        0.0,
        0.0,
        1.0
      ],
      "scale": [
        0.7641406655311584,
        0.7641406655311584,
        0.7641406655311584
      ],
      "translation": [
        0.0,
        0.0,
        0.0
      ]
    },
    {
      "mesh": 0,
      "name": "NumberModel_0",
      "rotation": [
        -0.7071067690849304,
        0.0,
        0.0,
        0.7071067690849304
      ],
      "scale": [
        1.0,
        1.0,
        1.0
      ],
      "translation": [
        -4.500977516174316,
        -2.500000238418579,
        5.260977268218994
      ]
    }
  ],
  "samplers": [
    {
      "wrapS": 10497,
      "wrapT": 10497
    }
  ],
  "scenes": [
    {
      "nodes": [
        0
      ]
    }
  ]
}
