{
  "accessors": [
    {
      "bufferView": 0,
      "componentType": 5126,
      "count": 250,
      "max": [
        5.161233425140381,
        1.0529173612594604,
        0.3499999940395355
      ],
      "min": [
        4.454887390136719,
        -0.01834588125348091,
        0.25
      ],
      "type": "VEC3"
    },
    {
      "bufferView": 1,
      "componentType": 5126,
      "count": 250,
      "max": [
        1.0,
        1.0,
        1.0
      ],
      "min": [
        -1.0,
        -1.0,
        -1.0
      ],
      "type": "VEC3"
    },
    {
      "bufferView": 2,
      "componentType": 5126,
      "count": 250,
      "max": [
        1.0,
        1.0,
        0.9946166276931763,
        1.0
      ],
      "min": [
        -1.0,
        -1.0,
        -0.9903199672698975,
        -1.0
      ],
      "type": "VEC4"
    },
    {
      "bufferView": 3,
      "componentType": 5126,
      "count": 250,
      "max": [
        0.12347963452339172,
        0.61854088306427
      ],
      "min": [
        0.0019394700648263097,
        0.4342097043991089
      ],
      "type": "VEC2"
    },
    {
      "bufferView": 4,
      "componentType": 5125,
      "count": 684,
      "max": [
        249
      ],
      "min": [
        0
      ],
      "type": "SCALAR"
    }
  ],
  "asset": {
    "version": "2.0"
  },
  "bufferViews": [
    {
      "buffer": 0,
      "byteLength": 3000,
      "target": 34962
    },
    {
      "buffer": 0,
      "byteLength": 3000,
      "byteOffset": 3000,
      "target": 34962
    },
    {
      "buffer": 0,
      "byteLength": 4000,
      "byteOffset": 6000,
      "target": 34962
    },
    {
      "buffer": 0,
      "byteLength": 2000,
      "byteOffset": 10000,
      "target": 34962
    },
    {
      "buffer": 0,
      "byteLength": 2736,
      "byteOffset": 12000,
      "target": 34963
    }
  ],
  "buffers": [
    {
      "byteLength": 14736,
      "uri": "data:application/octet-stream;base64,"
    }
  ],
  "materials": [
    {
      "name": "typeStandardSurface",
      "pbrMetallicRoughness": {
        "baseColorFactor": [
          0.0,
          0.4107320308685303,
          1.0,
          1.0
        ],
        "metallicFactor": 0.0
      }
    }
  ],
  "meshes": [
    {
      "primitives": [
        {
          "attributes": {
            "NORMAL": 1,
            "POSITION": 0,
            "TANGENT": 2,
            "TEXCOORD_0": 3
          },
          "indices": 4,
          "material": 0,
          "mode": 4
        }
      ]
    }
  ],
  "nodes": [
    {
      "children": [
        1
      ],
      "name": "num",
      "rotation": [
        0.0,
        0.0,
        0.0,
        1.0
      ],
      "scale": [
        0.7641406655311584,
        0.7641406655311584,
        0.7641406655311584
      ],
      "translation": [
        0.0,
        0.0,
        0.0
      ]
    },
    {
      "mesh": 0,
      "name": "NumberModel_5",
      "rotation": [
        -0.7071067690849304,
        0.0,
        0.0,
        0.7071067690849304
      ],
      "scale": [
        1.0,
        1.0,
        1.0
      ],
      "translation": [
        -4.808060169219971,
        -0.2500000298023224,
        0.5172857642173767
      ]
    }
  ],
  "samplers": [
    {
      "wrapS": 10497,
      "wrapT": 10497
    }
  ],
  "scenes": [
    {
      "nodes": [
        0
      ]
    }
  ]
}
