{
	"asset":{
		"generator":"Khronos glTF Blender I/O v4.2.57",
		"version":"2.0"
	},
	"scene":0,
	"scenes":[
		{
			"name":"Scene",
			"nodes":[
				1
			]
		}
	],
	"nodes":[
		{
			"mesh":0,
			"name":"NumberModel_8",
			"rotation":[
				-0.70710688829422,
				0,
				0,
				0.7071066498756409
			]
		},
		{
			"children":[
				0
			],
			"name":"num",
			"scale":[
				0.7641406655311584,
				0.7641406655311584,
				0.7641406655311584
			]
		}
	],
	"materials":[
		{
			"name":"typeStandardSurface",
			"pbrMetallicRoughness":{
				"baseColorFactor":[
					0.06949806213378906,
					0.06949736922979355,
					0.06949736922979355,
					1
				],
				"metallicFactor":0
			}
		}
	],
	"meshes":[
		{
			"name":"Mesh_0",
			"primitives":[
				{
					"attributes":{
						"POSITION":0,
						"NORMAL":1,
						"TEXCOORD_0":2
					},
					"indices":3,
					"material":0
				}
			]
		}
	],
	"accessors":[
		{
			"bufferView":0,
			"componentType":5126,
			"count":570,
			"max":[
				0.40090179443359375,
				0.5437144637107849,
				0.09999993443489075
			],
			"min":[
				-0.40090274810791016,
				-0.543714165687561,
				-5.960464477539063e-08
			],
			"type":"VEC3"
		},
		{
			"bufferView":1,
			"componentType":5126,
			"count":570,
			"type":"VEC3"
		},
		{
			"bufferView":2,
			"componentType":5126,
			"count":570,
			"type":"VEC2"
		},
		{
			"bufferView":3,
			"componentType":5123,
			"count":1692,
			"type":"SCALAR"
		}
	],
	"bufferViews":[
		{
			"buffer":0,
			"byteLength":6840,
			"byteOffset":0,
			"target":34962
		},
		{
			"buffer":0,
			"byteLength":6840,
			"byteOffset":6840,
			"target":34962
		},
		{
			"buffer":0,
			"byteLength":4560,
			"byteOffset":13680,
			"target":34962
		},
		{
			"buffer":0,
			"byteLength":3384,
			"byteOffset":18240,
			"target":34963
		}
	],
	"buffers":[
		{
			"byteLength":21624,
			"uri":"NumberModel_8.bin"
		}
	]
}
