{
	"asset":{
		"generator":"Khronos glTF Blender I/O v4.2.57",
		"version":"2.0"
	},
	"scene":0,
	"scenes":[
		{
			"name":"Scene",
			"nodes":[
				1
			]
		}
	],
	"nodes":[
		{
			"mesh":0,
			"name":"NumberModel_3",
			"rotation":[
				-0.70710688829422,
				0,
				0,
				0.7071066498756409
			]
		},
		{
			"children":[
				0
			],
			"name":"num",
			"scale":[
				0.7641406655311584,
				0.7641406655311584,
				0.7641406655311584
			]
		}
	],
	"materials":[
		{
			"name":"typeStandardSurface",
			"pbrMetallicRoughness":{
				"baseColorFactor":[
					0.5178570747375488,
					1,
					0,
					1
				],
				"metallicFactor":0
			}
		}
	],
	"meshes":[
		{
			"name":"Mesh_0",
			"primitives":[
				{
					"attributes":{
						"POSITION":0,
						"NORMAL":1,
						"TEXCOORD_0":2
					},
					"indices":3,
					"material":0
				}
			]
		}
	],
	"accessors":[
		{
			"bufferView":0,
			"componentType":5126,
			"count":392,
			"max":[
				0.3524436950683594,
				0.5444437861442566,
				0.09999993443489075
			],
			"min":[
				-0.3524436950683594,
				-0.5444434881210327,
				-5.960464477539063e-08
			],
			"type":"VEC3"
		},
		{
			"bufferView":1,
			"componentType":5126,
			"count":392,
			"type":"VEC3"
		},
		{
			"bufferView":2,
			"componentType":5126,
			"count":392,
			"type":"VEC2"
		},
		{
			"bufferView":3,
			"componentType":5123,
			"count":1116,
			"type":"SCALAR"
		}
	],
	"bufferViews":[
		{
			"buffer":0,
			"byteLength":4704,
			"byteOffset":0,
			"target":34962
		},
		{
			"buffer":0,
			"byteLength":4704,
			"byteOffset":4704,
			"target":34962
		},
		{
			"buffer":0,
			"byteLength":3136,
			"byteOffset":9408,
			"target":34962
		},
		{
			"buffer":0,
			"byteLength":2232,
			"byteOffset":12544,
			"target":34963
		}
	],
	"buffers":[
		{
			"byteLength":14776,
			"uri":"NumberModel_3.bin"
		}
	]
}
