{
  "accessors": [
    {
      "bufferView": 0,
      "componentType": 5126,
      "count": 388,
      "max": [
        6.120029926300049,
        1.0705413818359375,
        0.3499999940395355
      ],
      "min": [
        5.333638668060303,
        -0.016887236386537552,
        0.25
      ],
      "type": "VEC3"
    },
    {
      "bufferView": 1,
      "componentType": 5126,
      "count": 388,
      "max": [
        1.0,
        1.0,
        1.0
      ],
      "min": [
        -0.9999982714653015,
        -0.9999976754188538,
        -1.0
      ],
      "type": "VEC3"
    },
    {
      "bufferView": 2,
      "componentType": 5126,
      "count": 388,
      "max": [
        1.0,
        1.0,
        0.999757707118988,
        1.0
      ],
      "min": [
        -1.0,
        -1.0,
        -0.999757707118988,
        1.0
      ],
      "type": "VEC4"
    },
    {
      "bufferView": 3,
      "componentType": 5126,
      "count": 388,
      "max": [
        0.830387532711029,
        0.8067581653594971
      ],
      "min": [
        0.6950740814208984,
        0.6196454763412476
      ],
      "type": "VEC2"
    },
    {
      "bufferView": 4,
      "componentType": 5125,
      "count": 1128,
      "max": [
        387
      ],
      "min": [
        0
      ],
      "type": "SCALAR"
    }
  ],
  "asset": {
    "version": "2.0"
  },
  "bufferViews": [
    {
      "buffer": 0,
      "byteLength": 4656,
      "target": 34962
    },
    {
      "buffer": 0,
      "byteLength": 4656,
      "byteOffset": 4656,
      "target": 34962
    },
    {
      "buffer": 0,
      "byteLength": 6208,
      "byteOffset": 9312,
      "target": 34962
    },
    {
      "buffer": 0,
      "byteLength": 3104,
      "byteOffset": 15520,
      "target": 34962
    },
    {
      "buffer": 0,
      "byteLength": 4512,
      "byteOffset": 18624,
      "target": 34963
    }
  ],
  "buffers": [
    {
      "byteLength": 23136,
      "uri": "data:application/octet-stream;base64,"
    }
  ],
  "materials": [
    {
      "name": "typeStandardSurface",
      "pbrMetallicRoughness": {
        "baseColorFactor": [
          0.7092463970184326,
          0.023166000843048096,
          1.0,
          1.0
        ],
        "metallicFactor": 0.0
      }
    }
  ],
  "meshes": [
    {
      "primitives": [
        {
          "attributes": {
            "NORMAL": 1,
            "POSITION": 0,
            "TANGENT": 2,
            "TEXCOORD_0": 3
          },
          "indices": 4,
          "material": 0,
          "mode": 4
        }
      ]
    }
  ],
  "nodes": [
    {
      "children": [
        1
      ],
      "name": "num",
      "rotation": [
        0.0,
        0.0,
        0.0,
        1.0
      ],
      "scale": [
        0.7641406655311584,
        0.7641406655311584,
        0.7641406655311584
      ],
      "translation": [
        0.0,
        0.0,
        0.0
      ]
    },
    {
      "mesh": 0,
      "name": "NumberModel_6",
      "rotation": [
        -0.7071067690849304,
        0.0,
        0.0,
        0.7071067690849304
      ],
      "scale": [
        1.0,
        1.0,
        1.0
      ],
      "translation": [
        -5.726834297180176,
        -0.2500000298023224,
        0.5268270373344421
      ]
    }
  ],
  "samplers": [
    {
      "wrapS": 10497,
      "wrapT": 10497
    }
  ],
  "scenes": [
    {
      "nodes": [
        0
      ]
    }
  ]
}
