{
  "accessors": [
    {
      "bufferView": 0,
      "componentType": 5126,
      "count": 121,
      "max": [
        -9.711012840270996,
        33.067440032958984,
        12.944129943847656
      ],
      "min": [
        -15.626306533813477,
        27.152149200439453,
        12.944129943847656
      ],
      "type": "VEC3"
    },
    {
      "bufferView": 1,
      "componentType": 5126,
      "count": 121,
      "max": [
        0.0,
        0.0,
        1.0
      ],
      "min": [
        0.0,
        0.0,
        1.0
      ],
      "type": "VEC3"
    },
    {
      "bufferView": 2,
      "componentType": 5126,
      "count": 121,
      "max": [
        1.0,
        2.4456817300233524e-06,
        0.0,
        1.0
      ],
      "min": [
        1.0,
        -2.4456699065922294e-06,
        0.0,
        1.0
      ],
      "type": "VEC4"
    },
    {
      "bufferView": 3,
      "componentType": 5126,
      "count": 121,
      "max": [
        0.9950859546661377,
        0.3295783996582031
      ],
      "min": [
        0.6701325178146362,
        0.004625201225280762
      ],
      "type": "VEC2"
    },
    {
      "bufferView": 4,
      "componentType": 5125,
      "count": 600,
      "max": [
        120
      ],
      "min": [
        0
      ],
      "type": "SCALAR"
    }
  ],
  "asset": {
    "version": "2.0"
  },
  "bufferViews": [
    {
      "buffer": 0,
      "byteLength": 1452,
      "target": 34962
    },
    {
      "buffer": 0,
      "byteLength": 1452,
      "byteOffset": 1452,
      "target": 34962
    },
    {
      "buffer": 0,
      "byteLength": 1936,
      "byteOffset": 2904,
      "target": 34962
    },
    {
      "buffer": 0,
      "byteLength": 968,
      "byteOffset": 4840,
      "target": 34962
    },
    {
      "buffer": 0,
      "byteLength": 2400,
      "byteOffset": 5808,
      "target": 34963
    }
  ],
  "buffers": [
    {
      "byteLength": 8208,
      "uri": "data:application/octet-stream;base64,"
    }
  ],
  "images": [
    {
      "uri": "m_Noren_BaseColor.png"
    }
  ],
  "materials": [
    {
      "name": "m_Noren",
      "pbrMetallicRoughness": {
        "baseColorFactor": [
          0.9999914765357971,
          0.9999899864196777,
          1.0,
          1.0
        ],
        "baseColorTexture": {
          "index": 0
        },
        "metallicFactor": 0.0
      }
    }
  ],
  "meshes": [
    {
      "primitives": [
        {
          "attributes": {
            "NORMAL": 1,
            "POSITION": 0,
            "TANGENT": 2,
            "TEXCOORD_0": 3
          },
          "indices": 4,
          "material": 0,
          "mode": 4
        }
      ]
    }
  ],
  "nodes": [
    {
      "children": [
        1
      ],
      "name": "Noren_G",
      "rotation": [
        -0.7071067690849304,
        -0.0,
        0.0,
        0.7071067690849304
      ],
      "scale": [
        1.0,
        1.0,
        1.0
      ],
      "translation": [
        0.0,
        20.123308181762695,
        46.011566162109375
      ]
    },
    {
      "mesh": 0,
      "name": "Noren3",
      "rotation": [
        0.0,
        0.0,
        0.0,
        1.0
      ],
      "scale": [
        1.0,
        1.0,
        1.0
      ],
      "translation": [
        12.668658256530762,
        15.901774406433105,
        -33.067440032958984
      ]
    }
  ],
  "samplers": [
    {
      "wrapS": 10497,
      "wrapT": 10497
    }
  ],
  "scenes": [
    {
      "nodes": [
        0
      ]
    }
  ],
  "textures": [
    {
      "sampler": 0,
      "source": 0
    }
  ]
}
