{
	"asset":{
		"generator":"Khronos glTF Blender I/O v4.2.57",
		"version":"2.0"
	},
	"scene":0,
	"scenes":[
		{
			"name":"Scene",
			"nodes":[
				0,
				1,
				2,
				3,
				4,
				5,
				6
			]
		}
	],
	"nodes":[
		{
			"mesh":0,
			"name":"SM_Barrel_01.001",
			"translation":[
				0.36030563712120056,
				0.5106966495513916,
				-0.10929751396179199
			]
		},
		{
			"mesh":1,
			"name":"SM_Barrel_01.002",
			"translation":[
				0.25986555218696594,
				0.5106966495513916,
				-0.2598656713962555
			]
		},
		{
			"mesh":2,
			"name":"SM_Barrel_01.003",
			"translation":[
				0,
				0.9704216718673706,
				0
			]
		},
		{
			"mesh":3,
			"name":"SM_Barrel_01.004",
			"translation":[
				-0.011365237645804882,
				0.6653428077697754,
				0
			]
		},
		{
			"mesh":4,
			"name":"SM_Barrel_01.005",
			"translation":[
				-0.0113652553409338,
				0.3560503125190735,
				0
			]
		},
		{
			"mesh":5,
			"name":"SM_Barrel_01.006",
			"translation":[
				-0.006139784585684538,
				0.05188584327697754,
				0.0026835030876100063
			]
		},
		{
			"mesh":6,
			"name":"SM_Barrel_01.007",
			"translation":[
				0.3466019034385681,
				0.5109441876411438,
				0.10514051467180252
			]
		}
	],
	"materials":[
		{
			"name":"M_Barrel_01",
			"normalTexture":{
				"index":0
			},
			"pbrMetallicRoughness":{
				"baseColorTexture":{
					"index":1
				},
				"metallicRoughnessTexture":{
					"index":2
				}
			}
		}
	],
	"meshes":[
		{
			"name":"SM_Barrel_01.001",
			"primitives":[
				{
					"attributes":{
						"POSITION":0,
						"NORMAL":1,
						"TEXCOORD_0":2,
						"TEXCOORD_1":3
					},
					"indices":4,
					"material":0
				}
			]
		},
		{
			"name":"SM_Barrel_01.002",
			"primitives":[
				{
					"attributes":{
						"POSITION":5,
						"NORMAL":6,
						"TEXCOORD_0":7,
						"TEXCOORD_1":8
					},
					"indices":9,
					"material":0
				}
			]
		},
		{
			"name":"SM_Barrel_01.003",
			"primitives":[
				{
					"attributes":{
						"POSITION":10,
						"NORMAL":11,
						"TEXCOORD_0":12,
						"TEXCOORD_1":13
					},
					"indices":14,
					"material":0
				}
			]
		},
		{
			"name":"SM_Barrel_01.004",
			"primitives":[
				{
					"attributes":{
						"POSITION":15,
						"NORMAL":16,
						"TEXCOORD_0":17,
						"TEXCOORD_1":18
					},
					"indices":19,
					"material":0
				}
			]
		},
		{
			"name":"SM_Barrel_01.005",
			"primitives":[
				{
					"attributes":{
						"POSITION":20,
						"NORMAL":21,
						"TEXCOORD_0":22,
						"TEXCOORD_1":23
					},
					"indices":24,
					"material":0
				}
			]
		},
		{
			"name":"SM_Barrel_01.006",
			"primitives":[
				{
					"attributes":{
						"POSITION":25,
						"NORMAL":26,
						"TEXCOORD_0":27,
						"TEXCOORD_1":28
					},
					"indices":29,
					"material":0
				}
			]
		},
		{
			"name":"SM_Barrel_01.007",
			"primitives":[
				{
					"attributes":{
						"POSITION":30,
						"NORMAL":31,
						"TEXCOORD_0":32,
						"TEXCOORD_1":33
					},
					"indices":34,
					"material":0
				}
			]
		}
	],
	"textures":[
		{
			"sampler":0,
			"source":0
		},
		{
			"sampler":0,
			"source":1
		},
		{
			"sampler":0,
			"source":2
		}
	],
	"images":[
		{
			"mimeType":"image/png",
			"name":"T_Barrel_01_N",
			"uri":"T_Barrel_01_N.png"
		},
		{
			"mimeType":"image/png",
			"name":"T_Barrel_01_D",
			"uri":"T_Barrel_01_D.png"
		},
		{
			"mimeType":"image/png",
			"name":"M_Barrel_01_MetallicRoughness",
			"uri":"M_Barrel_01_MetallicRoughness.png"
		}
	],
	"accessors":[
		{
			"bufferView":0,
			"componentType":5126,
			"count":20,
			"max":[
				0.03128179907798767,
				0.5106991529464722,
				0.044607311487197876
			],
			"min":[
				-0.0539555549621582,
				-0.5106992125511169,
				-0.04349231719970703
			],
			"type":"VEC3"
		},
		{
			"bufferView":1,
			"componentType":5126,
			"count":20,
			"type":"VEC3"
		},
		{
			"bufferView":2,
			"componentType":5126,
			"count":20,
			"type":"VEC2"
		},
		{
			"bufferView":3,
			"componentType":5126,
			"count":20,
			"type":"VEC2"
		},
		{
			"bufferView":4,
			"componentType":5123,
			"count":54,
			"type":"SCALAR"
		},
		{
			"bufferView":5,
			"componentType":5126,
			"count":80,
			"max":[
				0.10900169610977173,
				0.5106991529464722,
				0.13297131657600403
			],
			"min":[
				-0.13297118246555328,
				-0.5106992125511169,
				-0.10900157690048218
			],
			"type":"VEC3"
		},
		{
			"bufferView":6,
			"componentType":5126,
			"count":80,
			"type":"VEC3"
		},
		{
			"bufferView":7,
			"componentType":5126,
			"count":80,
			"type":"VEC2"
		},
		{
			"bufferView":8,
			"componentType":5126,
			"count":80,
			"type":"VEC2"
		},
		{
			"bufferView":9,
			"componentType":5123,
			"count":216,
			"type":"SCALAR"
		},
		{
			"bufferView":10,
			"componentType":5126,
			"count":68,
			"max":[
				0.3574144244194031,
				0.029997706413269043,
				0.3574144244194031
			],
			"min":[
				-0.3574144244194031,
				-0.0295485258102417,
				-0.3574144244194031
			],
			"type":"VEC3"
		},
		{
			"bufferView":11,
			"componentType":5126,
			"count":68,
			"type":"VEC3"
		},
		{
			"bufferView":12,
			"componentType":5126,
			"count":68,
			"type":"VEC2"
		},
		{
			"bufferView":13,
			"componentType":5126,
			"count":68,
			"type":"VEC2"
		},
		{
			"bufferView":14,
			"componentType":5123,
			"count":192,
			"type":"SCALAR"
		},
		{
			"bufferView":15,
			"componentType":5126,
			"count":102,
			"max":[
				0.4117875397205353,
				0.035921696573495865,
				0.4004223048686981
			],
			"min":[
				-0.38905707001686096,
				-0.032715436071157455,
				-0.4004223048686981
			],
			"type":"VEC3"
		},
		{
			"bufferView":16,
			"componentType":5126,
			"count":102,
			"type":"VEC3"
		},
		{
			"bufferView":17,
			"componentType":5126,
			"count":102,
			"type":"VEC2"
		},
		{
			"bufferView":18,
			"componentType":5126,
			"count":102,
			"type":"VEC2"
		},
		{
			"bufferView":19,
			"componentType":5123,
			"count":288,
			"type":"SCALAR"
		},
		{
			"bufferView":20,
			"componentType":5126,
			"count":102,
			"max":[
				0.41178756952285767,
				0.03271549940109253,
				0.40042227506637573
			],
			"min":[
				-0.3890570402145386,
				-0.035921573638916016,
				-0.4004223346710205
			],
			"type":"VEC3"
		},
		{
			"bufferView":21,
			"componentType":5126,
			"count":102,
			"type":"VEC3"
		},
		{
			"bufferView":22,
			"componentType":5126,
			"count":102,
			"type":"VEC2"
		},
		{
			"bufferView":23,
			"componentType":5126,
			"count":102,
			"type":"VEC2"
		},
		{
			"bufferView":24,
			"componentType":5123,
			"count":288,
			"type":"SCALAR"
		},
		{
			"bufferView":25,
			"componentType":5126,
			"count":106,
			"max":[
				0.3635542094707489,
				0.028634190559387207,
				0.3547309339046478
			],
			"min":[
				-0.35127463936805725,
				-0.05188842862844467,
				-0.3600979149341583
			],
			"type":"VEC3"
		},
		{
			"bufferView":26,
			"componentType":5126,
			"count":106,
			"type":"VEC3"
		},
		{
			"bufferView":27,
			"componentType":5126,
			"count":106,
			"type":"VEC2"
		},
		{
			"bufferView":28,
			"componentType":5126,
			"count":106,
			"type":"VEC2"
		},
		{
			"bufferView":29,
			"componentType":5123,
			"count":294,
			"type":"SCALAR"
		},
		{
			"bufferView":30,
			"componentType":5126,
			"count":104,
			"max":[
				0.05265718698501587,
				0.51045161485672,
				0.17717832326889038
			],
			"min":[
				-0.11213171482086182,
				-0.5109467506408691,
				-0.1830320954322815
			],
			"type":"VEC3"
		},
		{
			"bufferView":31,
			"componentType":5126,
			"count":104,
			"type":"VEC3"
		},
		{
			"bufferView":32,
			"componentType":5126,
			"count":104,
			"type":"VEC2"
		},
		{
			"bufferView":33,
			"componentType":5126,
			"count":104,
			"type":"VEC2"
		},
		{
			"bufferView":34,
			"componentType":5123,
			"count":276,
			"type":"SCALAR"
		}
	],
	"bufferViews":[
		{
			"buffer":0,
			"byteLength":240,
			"byteOffset":0,
			"target":34962
		},
		{
			"buffer":0,
			"byteLength":240,
			"byteOffset":240,
			"target":34962
		},
		{
			"buffer":0,
			"byteLength":160,
			"byteOffset":480,
			"target":34962
		},
		{
			"buffer":0,
			"byteLength":160,
			"byteOffset":640,
			"target":34962
		},
		{
			"buffer":0,
			"byteLength":108,
			"byteOffset":800,
			"target":34963
		},
		{
			"buffer":0,
			"byteLength":960,
			"byteOffset":908,
			"target":34962
		},
		{
			"buffer":0,
			"byteLength":960,
			"byteOffset":1868,
			"target":34962
		},
		{
			"buffer":0,
			"byteLength":640,
			"byteOffset":2828,
			"target":34962
		},
		{
			"buffer":0,
			"byteLength":640,
			"byteOffset":3468,
			"target":34962
		},
		{
			"buffer":0,
			"byteLength":432,
			"byteOffset":4108,
			"target":34963
		},
		{
			"buffer":0,
			"byteLength":816,
			"byteOffset":4540,
			"target":34962
		},
		{
			"buffer":0,
			"byteLength":816,
			"byteOffset":5356,
			"target":34962
		},
		{
			"buffer":0,
			"byteLength":544,
			"byteOffset":6172,
			"target":34962
		},
		{
			"buffer":0,
			"byteLength":544,
			"byteOffset":6716,
			"target":34962
		},
		{
			"buffer":0,
			"byteLength":384,
			"byteOffset":7260,
			"target":34963
		},
		{
			"buffer":0,
			"byteLength":1224,
			"byteOffset":7644,
			"target":34962
		},
		{
			"buffer":0,
			"byteLength":1224,
			"byteOffset":8868,
			"target":34962
		},
		{
			"buffer":0,
			"byteLength":816,
			"byteOffset":10092,
			"target":34962
		},
		{
			"buffer":0,
			"byteLength":816,
			"byteOffset":10908,
			"target":34962
		},
		{
			"buffer":0,
			"byteLength":576,
			"byteOffset":11724,
			"target":34963
		},
		{
			"buffer":0,
			"byteLength":1224,
			"byteOffset":12300,
			"target":34962
		},
		{
			"buffer":0,
			"byteLength":1224,
			"byteOffset":13524,
			"target":34962
		},
		{
			"buffer":0,
			"byteLength":816,
			"byteOffset":14748,
			"target":34962
		},
		{
			"buffer":0,
			"byteLength":816,
			"byteOffset":15564,
			"target":34962
		},
		{
			"buffer":0,
			"byteLength":576,
			"byteOffset":16380,
			"target":34963
		},
		{
			"buffer":0,
			"byteLength":1272,
			"byteOffset":16956,
			"target":34962
		},
		{
			"buffer":0,
			"byteLength":1272,
			"byteOffset":18228,
			"target":34962
		},
		{
			"buffer":0,
			"byteLength":848,
			"byteOffset":19500,
			"target":34962
		},
		{
			"buffer":0,
			"byteLength":848,
			"byteOffset":20348,
			"target":34962
		},
		{
			"buffer":0,
			"byteLength":588,
			"byteOffset":21196,
			"target":34963
		},
		{
			"buffer":0,
			"byteLength":1248,
			"byteOffset":21784,
			"target":34962
		},
		{
			"buffer":0,
			"byteLength":1248,
			"byteOffset":23032,
			"target":34962
		},
		{
			"buffer":0,
			"byteLength":832,
			"byteOffset":24280,
			"target":34962
		},
		{
			"buffer":0,
			"byteLength":832,
			"byteOffset":25112,
			"target":34962
		},
		{
			"buffer":0,
			"byteLength":552,
			"byteOffset":25944,
			"target":34963
		}
	],
	"samplers":[
		{
			"magFilter":9729,
			"minFilter":9987
		}
	],
	"buffers":[
		{
			"byteLength":26496,
			"uri":"Barrel_Convex1.bin"
		}
	]
}
