{
	"asset":{
		"generator":"Khronos glTF Blender I/O v4.2.57",
		"version":"2.0"
	},
	"scene":0,
	"scenes":[
		{
			"name":"Scene",
			"nodes":[
				0
			]
		}
	],
	"nodes":[
		{
			"mesh":0,
			"name":"Oden_Result_Pot",
			"rotation":[
				0,
				-1,
				0,
				4.371138828673793e-08
			]
		}
	],
	"materials":[
		{
			"name":"standardSurface1",
			"pbrMetallicRoughness":{
				"baseColorFactor":[
					1,
					0.9871295094490051,
					0.7297297716140747,
					1
				],
				"metallicFactor":0
			}
		}
	],
	"meshes":[
		{
			"name":"Mesh_0",
			"primitives":[
				{
					"attributes":{
						"POSITION":0,
						"NORMAL":1,
						"TEXCOORD_0":2
					},
					"indices":3,
					"material":0
				}
			]
		}
	],
	"accessors":[
		{
			"bufferView":0,
			"componentType":5126,
			"count":621,
			"max":[
				22.983423233032227,
				40.07568359375,
				1.30385160446167e-06
			],
			"min":[
				-22.983423233032227,
				0,
				-17.42534828186035
			],
			"type":"VEC3"
		},
		{
			"bufferView":1,
			"componentType":5126,
			"count":621,
			"type":"VEC3"
		},
		{
			"bufferView":2,
			"componentType":5126,
			"count":621,
			"type":"VEC2"
		},
		{
			"bufferView":3,
			"componentType":5123,
			"count":2280,
			"type":"SCALAR"
		}
	],
	"bufferViews":[
		{
			"buffer":0,
			"byteLength":7452,
			"byteOffset":0,
			"target":34962
		},
		{
			"buffer":0,
			"byteLength":7452,
			"byteOffset":7452,
			"target":34962
		},
		{
			"buffer":0,
			"byteLength":4968,
			"byteOffset":14904,
			"target":34962
		},
		{
			"buffer":0,
			"byteLength":4560,
			"byteOffset":19872,
			"target":34963
		}
	],
	"buffers":[
		{
			"byteLength":24432,
			"uri":"Oden_Result_Pot.bin"
		}
	]
}
