{
  "accessors": [
    {
      "bufferView": 0,
      "componentType": 5126,
      "count": 869,
      "max": [
        1.1334277391433716,
        1.0357565879821777,
        1.114830493927002
      ],
      "min": [
        -1.1334277391433716,
        -1.03575599193573,
        -1.114830732345581
      ],
      "type": "VEC3"
    },
    {
      "bufferView": 1,
      "componentType": 5126,
      "count": 869,
      "max": [
        1.0,
        0.9979365468025208,
        1.0
      ],
      "min": [
        -1.0,
        -0.997935950756073,
        -1.0
      ],
      "type": "VEC3"
    },
    {
      "bufferView": 2,
      "componentType": 5126,
      "count": 869,
      "max": [
        1.0,
        0.04110989719629288,
        1.0,
        1.0
      ],
      "min": [
        -1.0,
        -0.04110976681113243,
        -1.0,
        1.0
      ],
      "type": "VEC4"
    },
    {
      "bufferView": 3,
      "componentType": 5126,
      "count": 869,
      "max": [
        1.0,
        1.0
      ],
      "min": [
        0.0,
        0.0
      ],
      "type": "VEC2"
    },
    {
      "bufferView": 4,
      "componentType": 5125,
      "count": 3840,
      "max": [
        868
      ],
      "min": [
        0
      ],
      "type": "SCALAR"
    }
  ],
  "asset": {
    "version": "2.0"
  },
  "bufferViews": [
    {
      "buffer": 0,
      "byteLength": 10428,
      "target": 34962
    },
    {
      "buffer": 0,
      "byteLength": 10428,
      "byteOffset": 10428,
      "target": 34962
    },
    {
      "buffer": 0,
      "byteLength": 13904,
      "byteOffset": 20856,
      "target": 34962
    },
    {
      "buffer": 0,
      "byteLength": 6952,
      "byteOffset": 34760,
      "target": 34962
    },
    {
      "buffer": 0,
      "byteLength": 15360,
      "byteOffset": 41712,
      "target": 34963
    }
  ],
  "buffers": [
    {
      "byteLength": 57072,
      "uri": "data:application/octet-stream;base64,"
    }
  ],
  "materials": [
    {
      "alphaMode": "BLEND",
      "name": "m_TrailModel",
      "pbrMetallicRoughness": {
        "baseColorFactor": [
          0.800000011920929,
          0.38440001010894775,
          0.5251200199127197,
          1.0
        ],
        "metallicFactor": 0.0
      }
    }
  ],
  "meshes": [
    {
      "primitives": [
        {
          "attributes": {
            "NORMAL": 1,
            "POSITION": 0,
            "TANGENT": 2,
            "TEXCOORD_0": 3
          },
          "indices": 4,
          "material": 0,
          "mode": 4
        }
      ]
    }
  ],
  "nodes": [
    {
      "mesh": 0,
      "name": "BobbinStringModel",
      "rotation": [
        0.0,
        0.0,
        0.0,
        1.0
      ],
      "scale": [
        1.0,
        1.0,
        1.0
      ],
      "translation": [
        0.0,
        0.0,
        0.0
      ]
    }
  ],
  "samplers": [
    {
      "wrapS": 10497,
      "wrapT": 10497
    }
  ],
  "scenes": [
    {
      "nodes": [
        0
      ]
    }
  ]
}
