{
  "accessors": [
    {
      "bufferView": 0,
      "componentType": 5126,
      "count": 818,
      "max": [
        0.947431206703186,
        2.8364663124084473,
        0.9474306106567383
      ],
      "min": [
        -0.947431206703186,
        -0.045260239392519,
        -0.947431206703186
      ],
      "type": "VEC3"
    },
    {
      "bufferView": 1,
      "componentType": 5126,
      "count": 818,
      "max": [
        1.0,
        1.0,
        1.0
      ],
      "min": [
        -1.0,
        -1.0,
        -1.0
      ],
      "type": "VEC3"
    },
    {
      "bufferView": 2,
      "componentType": 5126,
      "count": 818,
      "max": [
        1.0,
        0.9986739158630371,
        1.0,
        1.0
      ],
      "min": [
        -1.0,
        -0.9986760020256042,
        -1.0,
        -1.0
      ],
      "type": "VEC4"
    },
    {
      "bufferView": 3,
      "componentType": 5126,
      "count": 818,
      "max": [
        0.6902965307235718,
        0.6418054103851318
      ],
      "min": [
        0.0036640092730522156,
        0.005833864212036133
      ],
      "type": "VEC2"
    },
    {
      "bufferView": 4,
      "componentType": 5125,
      "count": 2880,
      "max": [
        817
      ],
      "min": [
        0
      ],
      "type": "SCALAR"
    }
  ],
  "asset": {
    "version": "2.0"
  },
  "bufferViews": [
    {
      "buffer": 0,
      "byteLength": 9816,
      "target": 34962
    },
    {
      "buffer": 0,
      "byteLength": 9816,
      "byteOffset": 9816,
      "target": 34962
    },
    {
      "buffer": 0,
      "byteLength": 13088,
      "byteOffset": 19632,
      "target": 34962
    },
    {
      "buffer": 0,
      "byteLength": 6544,
      "byteOffset": 32720,
      "target": 34962
    },
    {
      "buffer": 0,
      "byteLength": 11520,
      "byteOffset": 39264,
      "target": 34963
    }
  ],
  "buffers": [
    {
      "byteLength": 50784,
      "uri": "data:application/octet-stream;base64,"
    }
  ],
  "materials": [
    {
      "alphaMode": "BLEND",
      "name": "standardSurface1",
      "pbrMetallicRoughness": {
        "baseColorFactor": [
          0.6370656490325928,
          0.4919893145561218,
          0.07625111192464828,
          1.0
        ],
        "metallicFactor": 0.0
      }
    }
  ],
  "meshes": [
    {
      "primitives": [
        {
          "attributes": {
            "NORMAL": 1,
            "POSITION": 0,
            "TANGENT": 2,
            "TEXCOORD_0": 3
          },
          "indices": 4,
          "material": 0,
          "mode": 4
        }
      ]
    }
  ],
  "nodes": [
    {
      "mesh": 0,
      "name": "ito",
      "rotation": [
        0.0,
        0.0,
        0.0,
        1.0
      ],
      "scale": [
        1.0,
        1.0,
        1.0
      ],
      "translation": [
        0.0,
        0.0,
        0.0
      ]
    }
  ],
  "samplers": [
    {
      "wrapS": 10497,
      "wrapT": 10497
    }
  ],
  "scenes": [
    {
      "nodes": [
        0
      ]
    }
  ]
}
