{
  "accessors": [
    {
      "bufferView": 0,
      "componentType": 5126,
      "count": 455,
      "max": [
        0.5270830988883972,
        1.6184433698654175,
        0.5270833969116211
      ],
      "min": [
        -0.5270836353302002,
        0.0,
        -0.5270833969116211
      ],
      "type": "VEC3"
    },
    {
      "bufferView": 1,
      "componentType": 5126,
      "count": 455,
      "max": [
        1.0,
        1.0,
        1.0
      ],
      "min": [
        -1.0,
        -1.0,
        -1.0
      ],
      "type": "VEC3"
    },
    {
      "bufferView": 2,
      "componentType": 5126,
      "count": 455,
      "max": [
        0.9999995231628418,
        0.7071068286895752,
        1.0,
        1.0
      ],
      "min": [
        -0.9966858625411987,
        -0.7071068286895752,
        -0.9998106956481934,
        1.0
      ],
      "type": "VEC4"
    },
    {
      "bufferView": 3,
      "componentType": 5126,
      "count": 455,
      "max": [
        0.9902347922325134,
        0.9902353286743164
      ],
      "min": [
        0.009764289483428001,
        0.009739935398101807
      ],
      "type": "VEC2"
    },
    {
      "bufferView": 4,
      "componentType": 5125,
      "count": 1908,
      "max": [
        454
      ],
      "min": [
        0
      ],
      "type": "SCALAR"
    }
  ],
  "asset": {
    "version": "2.0"
  },
  "bufferViews": [
    {
      "buffer": 0,
      "byteLength": 5460,
      "target": 34962
    },
    {
      "buffer": 0,
      "byteLength": 5460,
      "byteOffset": 5460,
      "target": 34962
    },
    {
      "buffer": 0,
      "byteLength": 7280,
      "byteOffset": 10920,
      "target": 34962
    },
    {
      "buffer": 0,
      "byteLength": 3640,
      "byteOffset": 18200,
      "target": 34962
    },
    {
      "buffer": 0,
      "byteLength": 7632,
      "byteOffset": 21840,
      "target": 34963
    }
  ],
  "buffers": [
    {
      "byteLength": 29472,
      "uri": "data:application/octet-stream;base64,"
    }
  ],
  "images": [
    {
      "uri": "./Textures/T_bossitem.png"
    }
  ],
  "materials": [
    {
      "name": "M_bossitem",
      "pbrMetallicRoughness": {
        "baseColorFactor": [
          0.800000011920929,
          0.800000011920929,
          0.800000011920929,
          1.0
        ],
        "baseColorTexture": {
          "index": 0
        },
        "metallicFactor": 0.0
      }
    }
  ],
  "meshes": [
    {
      "primitives": [
        {
          "attributes": {
            "NORMAL": 1,
            "POSITION": 0,
            "TANGENT": 2,
            "TEXCOORD_0": 3
          },
          "indices": 4,
          "material": 0,
          "mode": 4
        }
      ]
    }
  ],
  "nodes": [
    {
      "mesh": 0,
      "name": "BombModel",
      "rotation": [
        0.0,
        0.0,
        0.0,
        1.0
      ],
      "scale": [
        1.0,
        1.0,
        1.0
      ],
      "translation": [
        0.0,
        0.0,
        0.0
      ]
    }
  ],
  "samplers": [
    {
      "wrapS": 10497,
      "wrapT": 10497
    }
  ],
  "scenes": [
    {
      "nodes": [
        0
      ]
    }
  ],
  "textures": [
    {
      "sampler": 0,
      "source": 0
    }
  ]
}
