{
  "accessors": [
    {
      "bufferView": 0,
      "componentType": 5126,
      "count": 642,
      "max": [
        0.2755620777606964,
        2.4080007076263428,
        0.26454490423202515
      ],
      "min": [
        -0.2755621373653412,
        -2.4080007076263428,
        -0.21731097996234894
      ],
      "type": "VEC3"
    },
    {
      "bufferView": 1,
      "componentType": 5126,
      "count": 642,
      "max": [
        0.9982142448425293,
        1.0,
        1.0
      ],
      "min": [
        -0.9982141852378845,
        -1.0,
        -1.0
      ],
      "type": "VEC3"
    },
    {
      "bufferView": 2,
      "componentType": 5126,
      "count": 642,
      "max": [
        1.0,
        0.99998939037323,
        0.34149956703186035,
        1.0
      ],
      "min": [
        -1.0,
        -0.9999901056289673,
        -0.3541701138019562,
        1.0
      ],
      "type": "VEC4"
    },
    {
      "bufferView": 3,
      "componentType": 5126,
      "count": 642,
      "max": [
        1.0,
        1.0,
        1.0,
        1.0
      ],
      "min": [
        1.0,
        1.0,
        1.0,
        1.0
      ],
      "type": "VEC4"
    },
    {
      "bufferView": 4,
      "componentType": 5126,
      "count": 642,
      "max": [
        0.9840791821479797,
        0.9578484296798706
      ],
      "min": [
        0.5277619957923889,
        0.5636690855026245
      ],
      "type": "VEC2"
    },
    {
      "bufferView": 5,
      "componentType": 5125,
      "count": 3600,
      "max": [
        641
      ],
      "min": [
        0
      ],
      "type": "SCALAR"
    }
  ],
  "asset": {
    "version": "2.0"
  },
  "bufferViews": [
    {
      "buffer": 0,
      "byteLength": 7704,
      "target": 34962
    },
    {
      "buffer": 0,
      "byteLength": 7704,
      "byteOffset": 7704,
      "target": 34962
    },
    {
      "buffer": 0,
      "byteLength": 10272,
      "byteOffset": 15408,
      "target": 34962
    },
    {
      "buffer": 0,
      "byteLength": 10272,
      "byteOffset": 25680,
      "target": 34962
    },
    {
      "buffer": 0,
      "byteLength": 5136,
      "byteOffset": 35952,
      "target": 34962
    },
    {
      "buffer": 0,
      "byteLength": 14400,
      "byteOffset": 41088,
      "target": 34963
    }
  ],
  "buffers": [
    {
      "byteLength": 55488,
      "uri": "data:application/octet-stream;base64,"
    }
  ],
  "images": [
    {
      "uri": "item_Heart.fbm\\item_hp.png"
    }
  ],
  "materials": [
    {
      "name": "L_item_hp",
      "pbrMetallicRoughness": {
        "baseColorFactor": [
          0.800000011920929,
          0.800000011920929,
          0.800000011920929,
          1.0
        ],
        "baseColorTexture": {
          "index": 0
        },
        "metallicFactor": 0.0
      }
    }
  ],
  "meshes": [
    {
      "primitives": [
        {
          "attributes": {
            "COLOR_0": 3,
            "NORMAL": 1,
            "POSITION": 0,
            "TANGENT": 2,
            "TEXCOORD_0": 4
          },
          "indices": 5,
          "material": 0,
          "mode": 4
        }
      ]
    }
  ],
  "nodes": [
    {
      "children": [
        1
      ],
      "name": "RootNode",
      "rotation": [
        0.0,
        0.0,
        0.0,
        1.0
      ],
      "scale": [
        1.0,
        1.0,
        1.0
      ],
      "translation": [
        0.0,
        0.0,
        0.0
      ]
    },
    {
      "children": [
        2
      ],
      "name": "item_Heart",
      "rotation": [
        0.0,
        0.0,
        0.0,
        1.0
      ],
      "scale": [
        1.0,
        1.0,
        1.0
      ],
      "translation": [
        0.0,
        0.0,
        0.0
      ]
    },
    {
      "mesh": 0,
      "name": "item_Heart",
      "rotation": [
        0.6662132143974304,
        0.23698092997074127,
        -0.23698092997074127,
        0.6662132143974304
      ],
      "scale": [
        2.2676053047180176,
        0.11024777591228485,
        2.2676053047180176
      ],
      "translation": [
        0.0010685602901503444,
        0.7794553637504578,
        0.04111556336283684
      ]
    }
  ],
  "samplers": [
    {
      "wrapS": 10497,
      "wrapT": 10497
    }
  ],
  "scenes": [
    {
      "nodes": [
        0
      ]
    }
  ],
  "textures": [
    {
      "sampler": 0,
      "source": 0
    }
  ]
}
