{
  "accessors": [
    {
      "bufferView": 0,
      "componentType": 5126,
      "count": 629,
      "max": [
        0.2636910080909729,
        0.07748504728078842,
        1.008435845375061
      ],
      "min": [
        -0.5316512584686279,
        -0.04492490366101265,
        -0.8180702328681946
      ],
      "type": "VEC3"
    },
    {
      "bufferView": 1,
      "componentType": 5126,
      "count": 629,
      "max": [
        0.9999769926071167,
        1.0,
        0.9940641522407532
      ],
      "min": [
        -1.0,
        -1.0,
        -0.9963731169700623
      ],
      "type": "VEC3"
    },
    {
      "bufferView": 2,
      "componentType": 5126,
      "count": 629,
      "max": [
        0.999998927116394,
        1.0,
        0.9999960660934448,
        1.0
      ],
      "min": [
        -0.9999986886978149,
        -0.707173228263855,
        -1.0,
        1.0
      ],
      "type": "VEC4"
    },
    {
      "bufferView": 3,
      "componentType": 5126,
      "count": 629,
      "max": [
        0.7939580678939819,
        0.9808074831962585
      ],
      "min": [
        0.024517130106687546,
        0.4635277986526489
      ],
      "type": "VEC2"
    },
    {
      "bufferView": 4,
      "componentType": 5125,
      "count": 1392,
      "max": [
        628
      ],
      "min": [
        0
      ],
      "type": "SCALAR"
    }
  ],
  "asset": {
    "version": "2.0"
  },
  "bufferViews": [
    {
      "buffer": 0,
      "byteLength": 7548,
      "target": 34962
    },
    {
      "buffer": 0,
      "byteLength": 7548,
      "byteOffset": 7548,
      "target": 34962
    },
    {
      "buffer": 0,
      "byteLength": 10064,
      "byteOffset": 15096,
      "target": 34962
    },
    {
      "buffer": 0,
      "byteLength": 5032,
      "byteOffset": 25160,
      "target": 34962
    },
    {
      "buffer": 0,
      "byteLength": 5568,
      "byteOffset": 30192,
      "target": 34963
    }
  ],
  "buffers": [
    {
      "byteLength": 35760,
      "uri": "data:application/octet-stream;base64,"
    }
  ],
  "images": [
    {
      "uri": "ScissorsSecondModel (1).fbm/M_ScissorsModel_BaseColor.png"
    }
  ],
  "materials": [
    {
      "name": "M_ScissorsModel",
      "pbrMetallicRoughness": {
        "baseColorFactor": [
          1.0,
          0.9999899864196777,
          0.9999899864196777,
          1.0
        ],
        "baseColorTexture": {
          "index": 0
        },
        "metallicFactor": 0.0
      }
    }
  ],
  "meshes": [
    {
      "primitives": [
        {
          "attributes": {
            "NORMAL": 1,
            "POSITION": 0,
            "TANGENT": 2,
            "TEXCOORD_0": 3
          },
          "indices": 4,
          "material": 0,
          "mode": 4
        }
      ]
    }
  ],
  "nodes": [
    {
      "children": [
        1
      ],
      "name": "group1",
      "rotation": [
        0.0,
        0.22506767511367798,
        0.0,
        0.9743431210517883
      ],
      "scale": [
        1.0,
        1.0,
        1.0
      ],
      "translation": [
        0.0,
        0.0,
        0.0
      ]
    },
    {
      "mesh": 0,
      "name": "ScissorsSecondModel",
      "rotation": [
        0.0,
        0.0,
        0.0,
        1.0
      ],
      "scale": [
        1.0,
        1.0,
        1.0
      ],
      "translation": [
        3.5544485610951553e-16,
        0.0,
        0.003139312146231532
      ]
    }
  ],
  "samplers": [
    {
      "wrapS": 10497,
      "wrapT": 10497
    }
  ],
  "scenes": [
    {
      "nodes": [
        0
      ]
    }
  ],
  "textures": [
    {
      "sampler": 0,
      "source": 0
    }
  ]
}
