{
  "accessors": [
    {
      "bufferView": 0,
      "componentType": 5126,
      "count": 695,
      "max": [
        0.5316512584686279,
        0.07748507708311081,
        1.0084359645843506
      ],
      "min": [
        -0.2636909484863281,
        -0.044924911111593246,
        -0.8180702328681946
      ],
      "type": "VEC3"
    },
    {
      "bufferView": 1,
      "componentType": 5126,
      "count": 695,
      "max": [
        1.0,
        1.0,
        0.9940642714500427
      ],
      "min": [
        -0.9999769926071167,
        -1.0,
        -0.996373176574707
      ],
      "type": "VEC3"
    },
    {
      "bufferView": 2,
      "componentType": 5126,
      "count": 695,
      "max": [
        0.9999986886978149,
        1.0,
        0.2499614655971527,
        1.0
      ],
      "min": [
        -0.9999961256980896,
        -1.0,
        -0.2311970442533493,
        1.0
      ],
      "type": "VEC4"
    },
    {
      "bufferView": 3,
      "componentType": 5126,
      "count": 695,
      "max": [
        0.9106981158256531,
        0.5890767574310303
      ],
      "min": [
        0.008704730309545994,
        0.004033565521240234
      ],
      "type": "VEC2"
    },
    {
      "bufferView": 4,
      "componentType": 5125,
      "count": 1392,
      "max": [
        694
      ],
      "min": [
        0
      ],
      "type": "SCALAR"
    }
  ],
  "asset": {
    "version": "2.0"
  },
  "bufferViews": [
    {
      "buffer": 0,
      "byteLength": 8340,
      "target": 34962
    },
    {
      "buffer": 0,
      "byteLength": 8340,
      "byteOffset": 8340,
      "target": 34962
    },
    {
      "buffer": 0,
      "byteLength": 11120,
      "byteOffset": 16680,
      "target": 34962
    },
    {
      "buffer": 0,
      "byteLength": 5560,
      "byteOffset": 27800,
      "target": 34962
    },
    {
      "buffer": 0,
      "byteLength": 5568,
      "byteOffset": 33360,
      "target": 34963
    }
  ],
  "buffers": [
    {
      "byteLength": 38928,
      "uri": "data:application/octet-stream;base64,"
    }
  ],
  "images": [
    {
      "uri": "ScissorsFirstModel (1).fbm/M_ScissorsModel_BaseColor.png"
    }
  ],
  "materials": [
    {
      "name": "M_ScissorsModel",
      "pbrMetallicRoughness": {
        "baseColorFactor": [
          1.0,
          0.9999899864196777,
          0.9999899864196777,
          1.0
        ],
        "baseColorTexture": {
          "index": 0
        },
        "metallicFactor": 0.0
      }
    }
  ],
  "meshes": [
    {
      "primitives": [
        {
          "attributes": {
            "NORMAL": 1,
            "POSITION": 0,
            "TANGENT": 2,
            "TEXCOORD_0": 3
          },
          "indices": 4,
          "material": 0,
          "mode": 4
        }
      ]
    }
  ],
  "nodes": [
    {
      "children": [
        1
      ],
      "name": "group1",
      "rotation": [
        0.0,
        0.22506767511367798,
        0.0,
        0.9743431210517883
      ],
      "scale": [
        1.0,
        1.0,
        1.0
      ],
      "translation": [
        0.0,
        0.0,
        0.0
      ]
    },
    {
      "mesh": 0,
      "name": "ScissorsFirstModel",
      "rotation": [
        0.0,
        0.0,
        0.0,
        1.0
      ],
      "scale": [
        1.0,
        1.0,
        1.0
      ],
      "translation": [
        3.5544485610951553e-16,
        0.0,
        0.003139312146231532
      ]
    }
  ],
  "samplers": [
    {
      "wrapS": 10497,
      "wrapT": 10497
    }
  ],
  "scenes": [
    {
      "nodes": [
        0
      ]
    }
  ],
  "textures": [
    {
      "sampler": 0,
      "source": 0
    }
  ]
}
