{
  "accessors": [
    {
      "bufferView": 0,
      "componentType": 5126,
      "count": 3805,
      "max": [
        1.8734207153320313,
        5.3864850997924805,
        1.8744179010391235
      ],
      "min": [
        -1.826712965965271,
        4.679288387298584,
        -1.8285435438156128
      ],
      "type": "VEC3"
    },
    {
      "bufferView": 1,
      "componentType": 5126,
      "count": 3805,
      "max": [
        0.9997550845146179,
        1.0,
        1.0
      ],
      "min": [
        -0.9995136260986328,
        -1.0,
        -1.0
      ],
      "type": "VEC3"
    },
    {
      "bufferView": 2,
      "componentType": 5126,
      "count": 3805,
      "max": [
        0.996881365776062,
        0.9258363842964172,
        0.9999856948852539,
        1.0
      ],
      "min": [
        -0.9985331296920776,
        -0.9997829794883728,
        -0.9999601244926453,
        1.0
      ],
      "type": "VEC4"
    },
    {
      "bufferView": 3,
      "componentType": 5126,
      "count": 3805,
      "max": [
        0.7303500771522522,
        0.7811585664749146
      ],
      "min": [
        0.027030646800994873,
        0.01838475465774536
      ],
      "type": "VEC2"
    },
    {
      "bufferView": 4,
      "componentType": 5125,
      "count": 21000,
      "max": [
        3804
      ],
      "min": [
        0
      ],
      "type": "SCALAR"
    }
  ],
  "asset": {
    "version": "2.0"
  },
  "bufferViews": [
    {
      "buffer": 0,
      "byteLength": 45660,
      "target": 34962
    },
    {
      "buffer": 0,
      "byteLength": 45660,
      "byteOffset": 45660,
      "target": 34962
    },
    {
      "buffer": 0,
      "byteLength": 60880,
      "byteOffset": 91320,
      "target": 34962
    },
    {
      "buffer": 0,
      "byteLength": 30440,
      "byteOffset": 152200,
      "target": 34962
    },
    {
      "buffer": 0,
      "byteLength": 84000,
      "byteOffset": 182640,
      "target": 34963
    }
  ],
  "buffers": [
    {
      "byteLength": 266640,
      "uri": "data:application/octet-stream;base64,"
    }
  ],
  "images": [
    {
      "uri": "StunVisualModel.fbm/boss_asset.png"
    }
  ],
  "materials": [
    {
      "name": "m_boss_asset",
      "pbrMetallicRoughness": {
        "baseColorFactor": [
          0.800000011920929,
          0.800000011920929,
          0.800000011920929,
          1.0
        ],
        "baseColorTexture": {
          "index": 0
        },
        "metallicFactor": 0.0
      }
    }
  ],
  "meshes": [
    {
      "primitives": [
        {
          "attributes": {
            "NORMAL": 1,
            "POSITION": 0,
            "TANGENT": 2,
            "TEXCOORD_0": 3
          },
          "indices": 4,
          "material": 0,
          "mode": 4
        }
      ]
    }
  ],
  "nodes": [
    {
      "mesh": 0,
      "name": "StunVisualModel",
      "rotation": [
        0.0,
        0.44231271743774414,
        0.0,
        0.8968608975410461
      ],
      "scale": [
        1.0,
        1.0,
        1.0
      ],
      "translation": [
        -0.032413993030786514,
        -5.032886505126953,
        0.0045663174241781235
      ]
    }
  ],
  "samplers": [
    {
      "wrapS": 10497,
      "wrapT": 10497
    }
  ],
  "scenes": [
    {
      "nodes": [
        0
      ]
    }
  ],
  "textures": [
    {
      "sampler": 0,
      "source": 0
    }
  ]
}
