{
  "accessors": [
    {
      "bufferView": 0,
      "componentType": 5126,
      "count": 565,
      "max": [
        0.9969254732131958,
        1.1969577074050903,
        0.5085250735282898
      ],
      "min": [
        -1.1950421333312988,
        0.0,
        -0.6692119836807251
      ],
      "type": "VEC3"
    },
    {
      "bufferView": 1,
      "componentType": 5126,
      "count": 565,
      "max": [
        1.0,
        1.0,
        1.0
      ],
      "min": [
        -1.0,
        -1.0,
        -1.0
      ],
      "type": "VEC3"
    },
    {
      "bufferView": 2,
      "componentType": 5126,
      "count": 565,
      "max": [
        1.0,
        1.0,
        0.9999712705612183,
        1.0
      ],
      "min": [
        -0.9981659650802612,
        -0.9999997615814209,
        -0.9999730587005615,
        1.0
      ],
      "type": "VEC4"
    },
    {
      "bufferView": 3,
      "componentType": 5126,
      "count": 565,
      "max": [
        0.8366727828979492,
        0.9902330636978149
      ],
      "min": [
        0.009765625,
        0.009765625
      ],
      "type": "VEC2"
    },
    {
      "bufferView": 4,
      "componentType": 5125,
      "count": 2748,
      "max": [
        564
      ],
      "min": [
        0
      ],
      "type": "SCALAR"
    }
  ],
  "asset": {
    "version": "2.0"
  },
  "bufferViews": [
    {
      "buffer": 0,
      "byteLength": 6780,
      "target": 34962
    },
    {
      "buffer": 0,
      "byteLength": 6780,
      "byteOffset": 6780,
      "target": 34962
    },
    {
      "buffer": 0,
      "byteLength": 9040,
      "byteOffset": 13560,
      "target": 34962
    },
    {
      "buffer": 0,
      "byteLength": 4520,
      "byteOffset": 22600,
      "target": 34962
    },
    {
      "buffer": 0,
      "byteLength": 10992,
      "byteOffset": 27120,
      "target": 34963
    }
  ],
  "buffers": [
    {
      "byteLength": 38112,
      "uri": "data:application/octet-stream;base64,"
    }
  ],
  "images": [
    {
      "uri": "YarnWallModel.fbm/YarnWallModel_tex.png"
    }
  ],
  "materials": [
    {
      "name": "M_YarnWallModel",
      "pbrMetallicRoughness": {
        "baseColorFactor": [
          0.800000011920929,
          0.800000011920929,
          0.800000011920929,
          1.0
        ],
        "baseColorTexture": {
          "index": 0
        },
        "metallicFactor": 0.0
      }
    }
  ],
  "meshes": [
    {
      "primitives": [
        {
          "attributes": {
            "NORMAL": 1,
            "POSITION": 0,
            "TANGENT": 2,
            "TEXCOORD_0": 3
          },
          "indices": 4,
          "material": 0,
          "mode": 4
        }
      ]
    }
  ],
  "nodes": [
    {
      "mesh": 0,
      "name": "YarnWallModel",
      "rotation": [
        0.0,
        0.0,
        0.0,
        1.0
      ],
      "scale": [
        1.0,
        1.0,
        1.0
      ],
      "translation": [
        0.0,
        0.0,
        0.0
      ]
    }
  ],
  "samplers": [
    {
      "wrapS": 10497,
      "wrapT": 10497
    }
  ],
  "scenes": [
    {
      "nodes": [
        0
      ]
    }
  ],
  "textures": [
    {
      "sampler": 0,
      "source": 0
    }
  ]
}
