{
	"asset":{
		"generator":"Khronos glTF Blender I/O v4.2.57",
		"version":"2.0"
	},
	"scene":0,
	"scenes":[
		{
			"name":"Scene",
			"nodes":[
				0,
				1,
				2
			]
		}
	],
	"nodes":[
		{
			"mesh":0,
			"name":"Mesh_0.018",
			"scale":[
				0.00800000037997961,
				0.00800000037997961,
				0.00800000037997961
			]
		},
		{
			"mesh":1,
			"name":"Mesh_0.019",
			"scale":[
				0.00800000037997961,
				0.00800000037997961,
				0.00800000037997961
			]
		},
		{
			"mesh":2,
			"name":"Mesh_0.020",
			"scale":[
				0.00800000037997961,
				0.00800000037997961,
				0.00800000037997961
			]
		}
	],
	"materials":[
		{
			"name":"Material_17",
			"normalTexture":{
				"index":0
			},
			"pbrMetallicRoughness":{
				"baseColorFactor":[
					0.5879999995231628,
					0.5879999995231628,
					0.5879999995231628,
					1
				],
				"baseColorTexture":{
					"index":1
				},
				"metallicRoughnessTexture":{
					"index":2
				}
			}
		},
		{
			"name":"Material_18",
			"normalTexture":{
				"index":3
			},
			"pbrMetallicRoughness":{
				"baseColorFactor":[
					0.5879999995231628,
					0.5879999995231628,
					0.5879999995231628,
					1
				],
				"baseColorTexture":{
					"index":4
				},
				"metallicRoughnessTexture":{
					"index":5
				}
			}
		},
		{
			"name":"Material_19",
			"normalTexture":{
				"index":6
			},
			"pbrMetallicRoughness":{
				"baseColorFactor":[
					0.5879999995231628,
					0.5879999995231628,
					0.5879999995231628,
					1
				],
				"baseColorTexture":{
					"index":7
				},
				"metallicRoughnessTexture":{
					"index":8
				}
			}
		}
	],
	"meshes":[
		{
			"name":"Mesh_0.018",
			"primitives":[
				{
					"attributes":{
						"POSITION":0,
						"NORMAL":1,
						"TEXCOORD_0":2
					},
					"indices":3,
					"material":0
				}
			]
		},
		{
			"name":"Mesh_0.019",
			"primitives":[
				{
					"attributes":{
						"POSITION":4,
						"NORMAL":5,
						"TEXCOORD_0":6
					},
					"indices":7,
					"material":1
				}
			]
		},
		{
			"name":"Mesh_0.020",
			"primitives":[
				{
					"attributes":{
						"POSITION":8,
						"NORMAL":9,
						"TEXCOORD_0":10
					},
					"indices":3,
					"material":2
				}
			]
		}
	],
	"textures":[
		{
			"sampler":0,
			"source":0
		},
		{
			"sampler":0,
			"source":1
		},
		{
			"sampler":0,
			"source":2
		},
		{
			"sampler":0,
			"source":3
		},
		{
			"sampler":0,
			"source":4
		},
		{
			"sampler":0,
			"source":2
		},
		{
			"sampler":0,
			"source":5
		},
		{
			"sampler":0,
			"source":6
		},
		{
			"sampler":0,
			"source":2
		}
	],
	"images":[
		{
			"mimeType":"image/jpeg",
			"name":"6593109234861095314",
			"uri":"6593109234861095314.jpg"
		},
		{
			"mimeType":"image/jpeg",
			"name":"17876391417123941155",
			"uri":"17876391417123941155.jpg"
		},
		{
			"mimeType":"image/jpeg",
			"name":"466164707995436622",
			"uri":"466164707995436622.jpg"
		},
		{
			"mimeType":"image/jpeg",
			"name":"4601176305987539675",
			"uri":"4601176305987539675.jpg"
		},
		{
			"mimeType":"image/jpeg",
			"name":"11474523244911310074",
			"uri":"11474523244911310074.jpg"
		},
		{
			"mimeType":"image/jpeg",
			"name":"4910669866631290573",
			"uri":"4910669866631290573.jpg"
		},
		{
			"mimeType":"image/jpeg",
			"name":"9288698199695299068",
			"uri":"9288698199695299068.jpg"
		}
	],
	"accessors":[
		{
			"bufferView":0,
			"componentType":5126,
			"count":7739,
			"max":[
				820.1740112304688,
				283.6809997558594,
				213.4824981689453
			],
			"min":[
				-577.6201782226562,
				-0.30889999866485596,
				-295.25439453125
			],
			"type":"VEC3"
		},
		{
			"bufferView":1,
			"componentType":5126,
			"count":7739,
			"type":"VEC3"
		},
		{
			"bufferView":2,
			"componentType":5126,
			"count":7739,
			"type":"VEC2"
		},
		{
			"bufferView":3,
			"componentType":5123,
			"count":43008,
			"type":"SCALAR"
		},
		{
			"bufferView":4,
			"componentType":5126,
			"count":10248,
			"max":[
				820.1740112304688,
				283.6809997558594,
				213.4824981689453
			],
			"min":[
				-946.2379150390625,
				-0.30889999866485596,
				-295.25439453125
			],
			"type":"VEC3"
		},
		{
			"bufferView":5,
			"componentType":5126,
			"count":10248,
			"type":"VEC3"
		},
		{
			"bufferView":6,
			"componentType":5126,
			"count":10248,
			"type":"VEC2"
		},
		{
			"bufferView":7,
			"componentType":5123,
			"count":56832,
			"type":"SCALAR"
		},
		{
			"bufferView":8,
			"componentType":5126,
			"count":7739,
			"max":[
				448.0338134765625,
				283.6809997558594,
				213.4824981689453
			],
			"min":[
				-946.2379150390625,
				-0.30889999866485596,
				-289.25689697265625
			],
			"type":"VEC3"
		},
		{
			"bufferView":9,
			"componentType":5126,
			"count":7739,
			"type":"VEC3"
		},
		{
			"bufferView":10,
			"componentType":5126,
			"count":7739,
			"type":"VEC2"
		}
	],
	"bufferViews":[
		{
			"buffer":0,
			"byteLength":92868,
			"byteOffset":0,
			"target":34962
		},
		{
			"buffer":0,
			"byteLength":92868,
			"byteOffset":92868,
			"target":34962
		},
		{
			"buffer":0,
			"byteLength":61912,
			"byteOffset":185736,
			"target":34962
		},
		{
			"buffer":0,
			"byteLength":86016,
			"byteOffset":247648,
			"target":34963
		},
		{
			"buffer":0,
			"byteLength":122976,
			"byteOffset":333664,
			"target":34962
		},
		{
			"buffer":0,
			"byteLength":122976,
			"byteOffset":456640,
			"target":34962
		},
		{
			"buffer":0,
			"byteLength":81984,
			"byteOffset":579616,
			"target":34962
		},
		{
			"buffer":0,
			"byteLength":113664,
			"byteOffset":661600,
			"target":34963
		},
		{
			"buffer":0,
			"byteLength":92868,
			"byteOffset":775264,
			"target":34962
		},
		{
			"buffer":0,
			"byteLength":92868,
			"byteOffset":868132,
			"target":34962
		},
		{
			"buffer":0,
			"byteLength":61912,
			"byteOffset":961000,
			"target":34962
		}
	],
	"samplers":[
		{
			"magFilter":9729,
			"minFilter":9987
		}
	],
	"buffers":[
		{
			"byteLength":1022912,
			"uri":"curtain.bin"
		}
	]
}
