{
  "accessors": [
    {
      "bufferView": 0,
      "componentType": 5126,
      "count": 226,
      "max": [
        0.5000001788139343,
        0.5,
        0.5000001192092896
      ],
      "min": [
        -0.5000001192092896,
        -0.5,
        -0.5000001192092896
      ],
      "type": "VEC3"
    },
    {
      "bufferView": 1,
      "componentType": 5126,
      "count": 226,
      "max": [
        0.9238795042037964,
        1.0,
        0.9238795638084412
      ],
      "min": [
        -0.9238795042037964,
        -1.0,
        -0.9238795638084412
      ],
      "type": "VEC3"
    },
    {
      "bufferView": 2,
      "componentType": 5126,
      "count": 226,
      "max": [
        0.39601415395736694,
        0.9640830755233765,
        0.9292829632759094,
        1.0
      ],
      "min": [
        -0.3951268196105957,
        -1.0,
        -0.9289266467094421,
        1.0
      ],
      "type": "VEC4"
    },
    {
      "bufferView": 3,
      "componentType": 5126,
      "count": 226,
      "max": [
        0.9831279516220093,
        0.999991774559021
      ],
      "min": [
        0.013093650341033936,
        0.013093709945678711
      ],
      "type": "VEC2"
    },
    {
      "bufferView": 4,
      "componentType": 5125,
      "count": 432,
      "max": [
        225
      ],
      "min": [
        0
      ],
      "type": "SCALAR"
    }
  ],
  "asset": {
    "version": "2.0"
  },
  "bufferViews": [
    {
      "buffer": 0,
      "byteLength": 2712,
      "target": 34962
    },
    {
      "buffer": 0,
      "byteLength": 2712,
      "byteOffset": 2712,
      "target": 34962
    },
    {
      "buffer": 0,
      "byteLength": 3616,
      "byteOffset": 5424,
      "target": 34962
    },
    {
      "buffer": 0,
      "byteLength": 1808,
      "byteOffset": 9040,
      "target": 34962
    },
    {
      "buffer": 0,
      "byteLength": 1728,
      "byteOffset": 10848,
      "target": 34963
    }
  ],
  "buffers": [
    {
      "byteLength": 12576,
      "uri": "coin_copper.bin"
    }
  ],
  "images": [
    {
      "uri": "BaseColor_bronze.png"
    },
    {
      "uri": "Metalness.png"
    },
    {
      "uri": "Normal.png"
    }
  ],
  "materials": [
    {
      "emissiveFactor": [
        1.0,
        1.0,
        1.0
      ],
      "name": "m_coin",
      "normalTexture": {
        "index": 2
      },
      "pbrMetallicRoughness": {
        "baseColorTexture": {
          "index": 0
        },
        "metallicFactor": 0.0,
        "metallicRoughnessTexture": {
          "index": 1
        }
      }
    }
  ],
  "meshes": [
    {
      "primitives": [
        {
          "attributes": {
            "NORMAL": 1,
            "POSITION": 0,
            "TANGENT": 2,
            "TEXCOORD_0": 3
          },
          "indices": 4,
          "material": 0,
          "mode": 4
        }
      ]
    }
  ],
  "nodes": [
    {
      "mesh": 0,
      "name": "coin",
      "rotation": [
        0.0,
        0.1908089965581894,
        0.0,
        0.9816271662712097
      ],
      "scale": [
        3.584449052810669,
        1.0,
        3.584449052810669
      ],
      "translation": [
        0.0,
        0.0,
        0.0
      ]
    }
  ],
  "samplers": [
    {
      "wrapS": 10497,
      "wrapT": 10497
    }
  ],
  "scenes": [
    {
      "nodes": [
        0
      ]
    }
  ],
  "textures": [
    {
      "sampler": 0,
      "source": 0
    },
    {
      "sampler": 0,
      "source": 1
    },
    {
      "sampler": 0,
      "source": 2
    }
  ]
}
