{
  "accessors": [
    {
      "bufferView": 0,
      "componentType": 5126,
      "count": 348,
      "max": [
        0.9103906750679016,
        0.9970300793647766,
        0.9999998211860657
      ],
      "min": [
        -0.9103906750679016,
        -1.1504801511764526,
        -0.9999999403953552
      ],
      "type": "VEC3"
    },
    {
      "bufferView": 1,
      "componentType": 5126,
      "count": 348,
      "max": [
        1.0,
        1.0,
        1.0
      ],
      "min": [
        -1.0,
        -1.0,
        -0.9998229742050171
      ],
      "type": "VEC3"
    },
    {
      "bufferView": 2,
      "componentType": 5126,
      "count": 348,
      "max": [
        1.0,
        0.8477830290794373,
        0.9999973177909851,
        1.0
      ],
      "min": [
        -0.9999991059303284,
        -0.8477715849876404,
        -0.9999977350234985,
        1.0
      ],
      "type": "VEC4"
    },
    {
      "bufferView": 3,
      "componentType": 5126,
      "count": 348,
      "max": [
        0.608660101890564,
        0.9896697998046875
      ],
      "min": [
        0.013798147439956665,
        0.48551034927368164
      ],
      "type": "VEC2"
    },
    {
      "bufferView": 4,
      "componentType": 5125,
      "count": 1590,
      "max": [
        347
      ],
      "min": [
        0
      ],
      "type": "SCALAR"
    },
    {
      "bufferView": 5,
      "componentType": 5126,
      "count": 36,
      "max": [
        0.6386815309524536,
        0.8537427186965942,
        -0.5873545408248901
      ],
      "min": [
        -0.6386815309524536,
        -0.6552827954292297,
        -0.5873546004295349
      ],
      "type": "VEC3"
    },
    {
      "bufferView": 6,
      "componentType": 5126,
      "count": 36,
      "max": [
        0.9556456804275513,
        0.8799176216125488,
        -0.2851295471191406
      ],
      "min": [
        -0.9556456804275513,
        -0.8538835048675537,
        -1.0
      ],
      "type": "VEC3"
    },
    {
      "bufferView": 7,
      "componentType": 5126,
      "count": 36,
      "max": [
        -0.2945191562175751,
        0.714630126953125,
        0.9540188312530518,
        1.0
      ],
      "min": [
        -1.0,
        -0.7145784497261047,
        -0.9540188312530518,
        1.0
      ],
      "type": "VEC4"
    },
    {
      "bufferView": 8,
      "componentType": 5126,
      "count": 36,
      "max": [
        0.5947946310043335,
        0.725934624671936
      ],
      "min": [
        0.36250683665275574,
        0.5564960241317749
      ],
      "type": "VEC2"
    },
    {
      "bufferView": 9,
      "componentType": 5125,
      "count": 150,
      "max": [
        35
      ],
      "min": [
        0
      ],
      "type": "SCALAR"
    }
  ],
  "asset": {
    "version": "2.0"
  },
  "bufferViews": [
    {
      "buffer": 0,
      "byteLength": 4176,
      "target": 34962
    },
    {
      "buffer": 0,
      "byteLength": 4176,
      "byteOffset": 4176,
      "target": 34962
    },
    {
      "buffer": 0,
      "byteLength": 5568,
      "byteOffset": 8352,
      "target": 34962
    },
    {
      "buffer": 0,
      "byteLength": 2784,
      "byteOffset": 13920,
      "target": 34962
    },
    {
      "buffer": 0,
      "byteLength": 6360,
      "byteOffset": 16704,
      "target": 34963
    },
    {
      "buffer": 0,
      "byteLength": 432,
      "byteOffset": 23064,
      "target": 34962
    },
    {
      "buffer": 0,
      "byteLength": 432,
      "byteOffset": 23496,
      "target": 34962
    },
    {
      "buffer": 0,
      "byteLength": 576,
      "byteOffset": 23928,
      "target": 34962
    },
    {
      "buffer": 0,
      "byteLength": 288,
      "byteOffset": 24504,
      "target": 34962
    },
    {
      "buffer": 0,
      "byteLength": 600,
      "byteOffset": 24792,
      "target": 34963
    }
  ],
  "buffers": [
    {
      "byteLength": 25392,
      "uri": "data:application/octet-stream;base64,"
    }
  ],
  "materials": [
    {
      "name": "lambert11",
      "pbrMetallicRoughness": {
        "baseColorFactor": [
          1.0,
          0.7220077514648438,
          0.8003692030906677,
          1.0
        ],
        "metallicFactor": 0.0
      }
    },
    {
      "name": "standardSurface1",
      "pbrMetallicRoughness": {
        "metallicFactor": 0.0
      }
    }
  ],
  "meshes": [
    {
      "primitives": [
        {
          "attributes": {
            "NORMAL": 1,
            "POSITION": 0,
            "TANGENT": 2,
            "TEXCOORD_0": 3
          },
          "indices": 4,
          "material": 0,
          "mode": 4
        },
        {
          "attributes": {
            "NORMAL": 6,
            "POSITION": 5,
            "TANGENT": 7,
            "TEXCOORD_0": 8
          },
          "indices": 9,
          "material": 1,
          "mode": 4
        }
      ]
    }
  ],
  "nodes": [
    {
      "children": [
        1
      ],
      "name": "timer",
      "rotation": [
        0.24577981233596802,
        -0.18473127484321594,
        0.04777475818991661,
        0.9503600597381592
      ],
      "scale": [
        1.0,
        1.0,
        1.0
      ],
      "translation": [
        0.0,
        0.0,
        0.0
      ]
    },
    {
      "mesh": 0,
      "name": "Oden_Timer_Model",
      "rotation": [
        -2.224476768026386e-17,
        -0.0,
        0.0,
        1.0
      ],
      "scale": [
        2.020820379257202,
        1.2477350234985352,
        0.3797093629837036
      ],
      "translation": [
        0.0,
        0.0,
        0.0
      ]
    }
  ],
  "samplers": [
    {
      "wrapS": 10497,
      "wrapT": 10497
    }
  ],
  "scenes": [
    {
      "nodes": [
        0
      ]
    }
  ]
}
