{
  "accessors": [
    {
      "bufferView": 0,
      "componentType": 5126,
      "count": 5076,
      "max": [
        0.5621702075004578,
        1.554060935974121,
        0.021704375743865967
      ],
      "min": [
        -0.5625644326210022,
        0.03896486759185791,
        -0.28629937767982483
      ],
      "type": "VEC3"
    },
    {
      "bufferView": 1,
      "componentType": 5126,
      "count": 5076,
      "max": [
        0.9998520612716675,
        0.9947901368141174,
        0.9999821186065674
      ],
      "min": [
        -0.9998520612716675,
        -1.0,
        -0.9999821186065674
      ],
      "type": "VEC3"
    },
    {
      "bufferView": 2,
      "componentType": 5126,
      "count": 5076,
      "max": [
        0.9999986886978149,
        0.9946785569190979,
        0.9970177412033081,
        1.0
      ],
      "min": [
        -0.9999986886978149,
        -0.8662567734718323,
        -1.0,
        -1.0
      ],
      "type": "VEC4"
    },
    {
      "bufferView": 3,
      "componentType": 5126,
      "count": 5076,
      "max": [
        1.0684878826141357,
        1.0
      ],
      "min": [
        -0.060274943709373474,
        0.0
      ],
      "type": "VEC2"
    },
    {
      "bufferView": 4,
      "componentType": 5125,
      "count": 7656,
      "max": [
        5075
      ],
      "min": [
        0
      ],
      "type": "SCALAR"
    }
  ],
  "asset": {
    "version": "2.0"
  },
  "bufferViews": [
    {
      "buffer": 0,
      "byteLength": 60912,
      "target": 34962
    },
    {
      "buffer": 0,
      "byteLength": 60912,
      "byteOffset": 60912,
      "target": 34962
    },
    {
      "buffer": 0,
      "byteLength": 81216,
      "byteOffset": 121824,
      "target": 34962
    },
    {
      "buffer": 0,
      "byteLength": 40608,
      "byteOffset": 203040,
      "target": 34962
    },
    {
      "buffer": 0,
      "byteLength": 30624,
      "byteOffset": 243648,
      "target": 34963
    }
  ],
  "buffers": [
    {
      "byteLength": 274272,
      "uri": "scene.bin"
    }
  ],
  "materials": [
    {
      "name": "lambert1",
      "pbrMetallicRoughness": {
        "baseColorFactor": [
          0.5,
          0.5,
          0.5,
          1.0
        ],
        "metallicFactor": 0.0,
        "roughnessFactor": 0.6000000238418579
      }
    }
  ],
  "meshes": [
    {
      "primitives": [
        {
          "attributes": {
            "NORMAL": 1,
            "POSITION": 0,
            "TANGENT": 2,
            "TEXCOORD_0": 3
          },
          "indices": 4,
          "material": 0,
          "mode": 4
        }
      ]
    }
  ],
  "nodes": [
    {
      "children": [
        1
      ],
      "name": "Sketchfab_model",
      "rotation": [
        -0.7071067690849304,
        0.0,
        -0.0,
        0.7071067690849304
      ],
      "scale": [
        1.0,
        1.0,
        1.0
      ],
      "translation": [
        0.0,
        0.0,
        0.0
      ]
    },
    {
      "children": [
        2
      ],
      "name": "555f210709fa474f92f1b3365372ee66.fbx",
      "rotation": [
        0.7071067690849304,
        0.0,
        0.0,
        0.7071067690849304
      ],
      "scale": [
        1.0,
        1.0,
        1.0
      ],
      "translation": [
        0.0,
        0.0,
        0.0
      ]
    },
    {
      "children": [
        3
      ],
      "name": "RootNode",
      "rotation": [
        0.0,
        0.0,
        0.0,
        1.0
      ],
      "scale": [
        1.0,
        1.0,
        1.0
      ],
      "translation": [
        0.0,
        0.0,
        0.0
      ]
    },
    {
      "children": [
        4,
        16
      ],
      "name": "Object_3",
      "rotation": [
        0.0,
        0.0,
        0.0,
        1.0
      ],
      "scale": [
        1.0,
        1.0,
        1.0
      ],
      "translation": [
        0.0,
        0.0,
        0.0
      ]
    },
    {
      "children": [
        5
      ],
      "name": "_rootJoint",
      "rotation": [
        0.0,
        0.0,
        0.0,
        1.0
      ],
      "scale": [
        1.0,
        1.0,
        1.0
      ],
      "translation": [
        0.0,
        0.0,
        0.0
      ]
    },
    {
      "children": [
        6
      ],
      "name": "Cape_joint_00",
      "rotation": [
        0.0,
        0.0,
        0.0,
        1.0
      ],
      "scale": [
        1.0,
        1.0,
        1.0
      ],
      "translation": [
        -0.0067048934288322926,
        0.04855002462863922,
        -0.2575085461139679
      ]
    },
    {
      "children": [
        7
      ],
      "name": "Down_01",
      "rotation": [
        0.0,
        0.0,
        0.0,
        1.0
      ],
      "scale": [
        1.0,
        1.0,
        1.0
      ],
      "translation": [
        -0.004414317663758993,
        0.22712846100330353,
        0.0
      ]
    },
    {
      "children": [
        8
      ],
      "name": "Down1_02",
      "rotation": [
        0.0,
        0.0,
        0.0,
        1.0
      ],
      "scale": [
        1.0,
        1.0,
        1.0
      ],
      "translation": [
        0.003487403504550457,
        0.44990286231040955,
        -0.004520922899246216
      ]
    },
    {
      "children": [
        9
      ],
      "name": "Down2_03",
      "rotation": [
        0.0,
        -0.0,
        -0.06620953232049942,
        0.9978058338165283
      ],
      "scale": [
        1.0,
        1.0,
        1.0
      ],
      "translation": [
        0.004075097851455212,
        0.35814744234085083,
        -0.011835068464279175
      ]
    },
    {
      "children": [
        10,
        13
      ],
      "name": "Center_04",
      "rotation": [
        0.0,
        0.0,
        0.06620953232049942,
        0.9978058338165283
      ],
      "scale": [
        1.0,
        1.0,
        1.0
      ],
      "translation": [
        -0.025732774287462234,
        0.2204287201166153,
        0.013559043407440186
      ]
    },
    {
      "children": [
        11
      ],
      "name": "R_shoulder_05",
      "rotation": [
        0.5432373881340027,
        0.6001702547073364,
        -0.35747283697128296,
        -0.4657273292541504
      ],
      "scale": [
        1.0,
        1.0,
        1.0
      ],
      "translation": [
        -0.16010677814483643,
        0.059941768646240234,
        0.0222817063331604
      ]
    },
    {
      "children": [
        12
      ],
      "name": "R_shoulder1_06",
      "rotation": [
        0.23416708409786224,
        0.6985383629798889,
        -0.005952229257673025,
        0.676146924495697
      ],
      "scale": [
        1.0,
        1.0,
        1.0
      ],
      "translation": [
        0.16566860675811768,
        -0.10849887132644653,
        0.004216018598526716
      ]
    },
    {
      "name": "R_shoulder2_07",
      "rotation": [
        -0.40699830651283264,
        2.1292164109353898e-32,
        -1.7501119890187156e-32,
        0.9134289026260376
      ],
      "scale": [
        1.0,
        1.0,
        1.0
      ],
      "translation": [
        0.020814478397369385,
        -0.09617754071950912,
        0.07141897082328796
      ]
    },
    {
      "children": [
        14
      ],
      "name": "L_shoulder_08",
      "rotation": [
        0.6681994795799255,
        0.4598558843135834,
        -0.4988970160484314,
        -0.30519476532936096
      ],
      "scale": [
        1.0,
        1.0,
        1.0
      ],
      "translation": [
        0.1719139665365219,
        0.059981465339660645,
        0.022281497716903687
      ]
    },
    {
      "children": [
        15
      ],
      "name": "L_shoulder1_09",
      "rotation": [
        0.47816988825798035,
        0.6092156171798706,
        -0.14553940296173096,
        0.6156526803970337
      ],
      "scale": [
        1.0,
        1.0,
        1.0
      ],
      "translation": [
        0.085709348320961,
        -0.15243621170520782,
        -0.09302397072315216
      ]
    },
    {
      "name": "L_shoulder2_010",
      "rotation": [
        -0.40076833963394165,
        0.07093919813632965,
        2.9816396188386786e-16,
        0.9134289026260376
      ],
      "scale": [
        1.0,
        1.0,
        1.0
      ],
      "translation": [
        -0.03569931909441948,
        -0.09045045077800751,
        0.07299511134624481
      ]
    },
    {
      "children": [
        17
      ],
      "name": "Cape",
      "rotation": [
        0.0,
        0.0,
        0.0,
        1.0
      ],
      "scale": [
        1.0,
        1.0,
        1.0
      ],
      "translation": [
        0.0,
        0.0,
        0.0
      ]
    },
    {
      "mesh": 0,
      "name": "Cape_lambert1_0",
      "rotation": [
        0.0,
        0.0,
        0.0,
        1.0
      ],
      "scale": [
        1.0,
        1.0,
        1.0
      ],
      "translation": [
        0.0,
        0.0,
        0.0
      ]
    }
  ],
  "samplers": [
    {
      "wrapS": 10497,
      "wrapT": 10497
    }
  ],
  "scenes": [
    {
      "nodes": [
        0
      ]
    }
  ]
}
