{
	"asset":
	{
		"version": "2.0",
		"generator": "Unreal Engine 5.3.2"
	},
	"scene": 0,
	"accessors": [
		{
			"bufferView": 0,
			"count": 4752,
			"type": "SCALAR",
			"componentType": 5123
		},
		{
			"bufferView": 1,
			"count": 954,
			"type": "VEC3",
			"componentType": 5126,
			"min": [ -0.459969968, -0.467529505, -0.27697143 ],
			"max": [ 0.477305561, 0.130534947, 0.0530015677 ]
		},
		{
			"bufferView": 2,
			"count": 954,
			"type": "VEC3",
			"componentType": 5126
		},
		{
			"bufferView": 3,
			"count": 954,
			"type": "VEC4",
			"componentType": 5126
		},
		{
			"bufferView": 4,
			"count": 954,
			"type": "VEC2",
			"componentType": 5126
		},
		{
			"bufferView": 5,
			"count": 954,
			"type": "VEC2",
			"componentType": 5126
		},
		{
			"bufferView": 6,
			"count": 7218,
			"type": "SCALAR",
			"componentType": 5123
		},
		{
			"bufferView": 7,
			"count": 1317,
			"type": "VEC3",
			"componentType": 5126,
			"min": [ -0.115055084, -0.00526336674, -0.110466421 ],
			"max": [ 0.116328478, 0.245698601, 0.117598996 ]
		},
		{
			"bufferView": 8,
			"count": 1317,
			"type": "VEC3",
			"componentType": 5126
		},
		{
			"bufferView": 9,
			"count": 1317,
			"type": "VEC4",
			"componentType": 5126
		},
		{
			"bufferView": 10,
			"count": 1317,
			"type": "VEC2",
			"componentType": 5126
		},
		{
			"bufferView": 11,
			"count": 1317,
			"type": "VEC2",
			"componentType": 5126
		}
	],
	"buffers": [
		{
			"uri": "MeltedWax.bin",
			"byteLength": 151116
		}
	],
	"bufferViews": [
		{
			"buffer": 0,
			"byteLength": 9504,
			"target": 34963
		},
		{
			"buffer": 0,
			"byteLength": 11448,
			"byteOffset": 9504,
			"target": 34962
		},
		{
			"buffer": 0,
			"byteLength": 11448,
			"byteOffset": 20952,
			"target": 34962
		},
		{
			"buffer": 0,
			"byteLength": 15264,
			"byteOffset": 32400,
			"target": 34962
		},
		{
			"buffer": 0,
			"byteLength": 7632,
			"byteOffset": 47664,
			"target": 34962
		},
		{
			"buffer": 0,
			"byteLength": 7632,
			"byteOffset": 55296,
			"target": 34962
		},
		{
			"buffer": 0,
			"byteLength": 14436,
			"byteOffset": 62928,
			"target": 34963
		},
		{
			"buffer": 0,
			"byteLength": 15804,
			"byteOffset": 77364,
			"target": 34962
		},
		{
			"buffer": 0,
			"byteLength": 15804,
			"byteOffset": 93168,
			"target": 34962
		},
		{
			"buffer": 0,
			"byteLength": 21072,
			"byteOffset": 108972,
			"target": 34962
		},
		{
			"buffer": 0,
			"byteLength": 10536,
			"byteOffset": 130044,
			"target": 34962
		},
		{
			"buffer": 0,
			"byteLength": 10536,
			"byteOffset": 140580,
			"target": 34962
		}
	],
	"images": [
		{
			"uri": "M_Candle_Master_01_MetallicRoughness.png"
		},
		{
			"uri": "T_Candle_Master_01_D.png"
		},
		{
			"uri": "T_Candle_Master_01_N.png"
		}
	],
	"materials": [
		{
			"name": "M_Candle_Master_01",
			"pbrMetallicRoughness":
			{
				"baseColorTexture":
				{
					"index": 0
				},
				"metallicRoughnessTexture":
				{
					"index": 1
				}
			},
			"normalTexture":
			{
				"index": 2
			}
		}
	],
	"meshes": [
		{
			"name": "SM_Candle_Melted_01",
			"primitives": [
				{
					"attributes":
					{
						"POSITION": 1,
						"NORMAL": 2,
						"TANGENT": 3,
						"TEXCOORD_0": 4,
						"TEXCOORD_1": 5
					},
					"indices": 0,
					"material": 0
				}
			]
		},
		{
			"name": "SM_Candle_01",
			"primitives": [
				{
					"attributes":
					{
						"POSITION": 7,
						"NORMAL": 8,
						"TANGENT": 9,
						"TEXCOORD_0": 10,
						"TEXCOORD_1": 11
					},
					"indices": 6,
					"material": 0
				}
			]
		}
	],
	"nodes": [
		{
			"name": "BP_Melted_Wax_6",
			"rotation": [ 0, 0.707106829, -0, 0.707106829 ],
			"children": [ 1, 3 ]
		},
		{
			"name": "PointLight",
			"translation": [ 9.53674295e-09, 0.296684414, -0.073167935 ],
			"children": [ 2 ]
		},
		{
			"name": "PointLight",
			"rotation": [ -0, -0.707106829, 0, 0.707106769 ],
			"extensions":
			{
				"KHR_lights_punctual":
				{
					"light": 0
				}
			}
		},
		{
			"name": "SM_Candle_Melted_01",
			"mesh": 0,
			"children": [ 4, 5, 6 ]
		},
		{
			"name": "SM_Candle_03",
			"translation": [ 0.300189704, 0.0889590234, -0.136550054 ],
			"rotation": [ -0, -0.0136864204, -0, 0.999906421 ],
			"scale": [ 0.75, 0.75, 0.75 ],
			"mesh": 1
		},
		{
			"name": "SM_Candle_02",
			"translation": [ -0.239956319, 0.0674523413, -0.1345862 ],
			"rotation": [ -0, -0.705820203, -0, 0.70839107 ],
			"scale": [ 0.75, 0.75, 0.75 ],
			"mesh": 1
		},
		{
			"name": "SM_Candle_01",
			"translation": [ -9.53674295e-09, 0.026541369, -0.0935931876 ],
			"rotation": [ -0, -0.520067513, -0, 0.854125202 ],
			"scale": [ 0.84375, 0.84375, 0.84375 ],
			"mesh": 1
		}
	],
	"samplers": [
		{
			"minFilter": 9987,
			"magFilter": 9729
		}
	],
	"scenes": [
		{
			"name": "ThirdPersonMap",
			"nodes": [ 0 ]
		}
	],
	"textures": [
		{
			"name": "T_Candle_Master_01_D",
			"sampler": 0,
			"source": 1
		},
		{
			"name": "M_Candle_Master_01_MetallicRoughness",
			"sampler": 0,
			"source": 0
		},
		{
			"name": "T_Candle_Master_01_N",
			"sampler": 0,
			"source": 2
		}
	],
	"extensions":
	{
		"KHR_lights_punctual":
		{
			"lights": [
				{
					"name": "MeltedWaxLight",
					"type": "point",
					"color": [ 1, 0.630757093, 0.219526187 ],
					"intensity": 1.27999997,
					"range": 7.5
				}
			]
		}
	},
	"extensionsUsed": [
		"KHR_lights_punctual"
	]
}