{
	"asset":{
		"generator":"Khronos glTF Blender I/O v4.2.57",
		"version":"2.0"
	},
	"scene":0,
	"scenes":[
		{
			"name":"Scene",
			"nodes":[
				0
			]
		}
	],
	"nodes":[
		{
			"mesh":0,
			"name":"gamestart",
			"rotation":[
				0,
				-0.7071068286895752,
				0,
				0.7071067094802856
			],
			"scale":[
				0.5389161705970764,
				0.5389161109924316,
				0.5389161705970764
			]
		}
	],
	"materials":[
		{
			"name":"m_gamestart",
			"pbrMetallicRoughness":{
				"baseColorFactor":[
					0.800000011920929,
					0.6839324235916138,
					0.6456000208854675,
					1
				],
				"metallicFactor":0
			}
		}
	],
	"meshes":[
		{
			"name":"Mesh_1",
			"primitives":[
				{
					"attributes":{
						"POSITION":0,
						"NORMAL":1,
						"TEXCOORD_0":2
					},
					"indices":3,
					"material":0
				}
			]
		}
	],
	"accessors":[
		{
			"bufferView":0,
			"componentType":5126,
			"count":4846,
			"max":[
				2.3396706581115723,
				0.5761590003967285,
				0.24923041462898254
			],
			"min":[
				-4.650728225708008,
				-0.6026053428649902,
				0.15645134449005127
			],
			"type":"VEC3"
		},
		{
			"bufferView":1,
			"componentType":5126,
			"count":4846,
			"type":"VEC3"
		},
		{
			"bufferView":2,
			"componentType":5126,
			"count":4846,
			"type":"VEC2"
		},
		{
			"bufferView":3,
			"componentType":5123,
			"count":14094,
			"type":"SCALAR"
		}
	],
	"bufferViews":[
		{
			"buffer":0,
			"byteLength":58152,
			"byteOffset":0,
			"target":34962
		},
		{
			"buffer":0,
			"byteLength":58152,
			"byteOffset":58152,
			"target":34962
		},
		{
			"buffer":0,
			"byteLength":38768,
			"byteOffset":116304,
			"target":34962
		},
		{
			"buffer":0,
			"byteLength":28188,
			"byteOffset":155072,
			"target":34963
		}
	],
	"buffers":[
		{
			"byteLength":183260,
			"uri":"BookSpineWordModel.bin"
		}
	]
}
