{
	"asset":{
		"generator":"Khronos glTF Blender I/O v4.2.57",
		"version":"2.0"
	},
	"scene":0,
	"scenes":[
		{
			"name":"Scene",
			"nodes":[
				0
			]
		}
	],
	"nodes":[
		{
			"mesh":0,
			"name":"BookMiddle",
			"rotation":[
				0,
				0,
				-1,
				6.123234262925839e-17
			],
			"scale":[
				6.461100101470947,
				6.461100101470947,
				6.461100101470947
			]
		}
	],
	"materials":[
		{
			"name":"lambert3",
			"pbrMetallicRoughness":{
				"baseColorFactor":[
					1,
					0.9999899864196777,
					0.9999899864196777,
					1
				],
				"metallicFactor":0
			}
		}
	],
	"meshes":[
		{
			"name":"Mesh_0",
			"primitives":[
				{
					"attributes":{
						"POSITION":0,
						"NORMAL":1,
						"TEXCOORD_0":2
					},
					"indices":3,
					"material":0
				}
			]
		}
	],
	"accessors":[
		{
			"bufferView":0,
			"componentType":5126,
			"count":102,
			"max":[
				2.9802322387695312e-08,
				0.017495999112725258,
				0.43172916769981384
			],
			"min":[
				-0.7022411227226257,
				-0.0174960196018219,
				-0.43172916769981384
			],
			"type":"VEC3"
		},
		{
			"bufferView":1,
			"componentType":5126,
			"count":102,
			"type":"VEC3"
		},
		{
			"bufferView":2,
			"componentType":5126,
			"count":102,
			"type":"VEC2"
		},
		{
			"bufferView":3,
			"componentType":5123,
			"count":336,
			"type":"SCALAR"
		}
	],
	"bufferViews":[
		{
			"buffer":0,
			"byteLength":1224,
			"byteOffset":0,
			"target":34962
		},
		{
			"buffer":0,
			"byteLength":1224,
			"byteOffset":1224,
			"target":34962
		},
		{
			"buffer":0,
			"byteLength":816,
			"byteOffset":2448,
			"target":34962
		},
		{
			"buffer":0,
			"byteLength":672,
			"byteOffset":3264,
			"target":34963
		}
	],
	"buffers":[
		{
			"byteLength":3936,
			"uri":"BookMiddle.bin"
		}
	]
}
