{
	"asset":{
		"generator":"Khronos glTF Blender I/O v4.2.57",
		"version":"2.0"
	},
	"scene":0,
	"scenes":[
		{
			"name":"Scene",
			"nodes":[
				1
			]
		}
	],
	"nodes":[
		{
			"mesh":0,
			"name":"BookLeft1"
		},
		{
			"children":[
				0
			],
			"name":"BookLeft",
			"rotation":[
				0,
				0,
				-1,
				4.371138828673793e-08
			]
		}
	],
	"materials":[
		{
			"name":"m_patchModelBoss",
			"pbrMetallicRoughness":{
				"baseColorFactor":[
					1,
					0.9999899864196777,
					0.9999899864196777,
					1
				],
				"baseColorTexture":{
					"index":0
				},
				"metallicFactor":0
			}
		},
		{
			"name":"m_patchModelTutorial",
			"pbrMetallicRoughness":{
				"baseColorFactor":[
					1,
					0.9999899864196777,
					0.9999899864196777,
					1
				],
				"baseColorTexture":{
					"index":1
				},
				"metallicFactor":0
			}
		},
		{
			"name":"m_patchModelFirst",
			"pbrMetallicRoughness":{
				"baseColorFactor":[
					1,
					0.9999899864196777,
					0.9999899864196777,
					1
				],
				"baseColorTexture":{
					"index":2
				},
				"metallicFactor":0
			}
		},
		{
			"name":"m_patchModelDifficult1",
			"pbrMetallicRoughness":{
				"baseColorFactor":[
					1,
					0.9999899864196777,
					0.9999899864196777,
					1
				],
				"baseColorTexture":{
					"index":3
				},
				"metallicFactor":0
			}
		},
		{
			"name":"m_patchModelBobbinFirst",
			"pbrMetallicRoughness":{
				"baseColorFactor":[
					1,
					0.9999899864196777,
					0.9999899864196777,
					1
				],
				"baseColorTexture":{
					"index":4
				},
				"metallicFactor":0
			}
		},
		{
			"name":"m_BookLeft",
			"pbrMetallicRoughness":{
				"baseColorFactor":[
					1,
					0.9999899864196777,
					0.9999899864196777,
					1
				],
				"baseColorTexture":{
					"index":5
				},
				"metallicFactor":0
			}
		}
	],
	"meshes":[
		{
			"name":"Mesh_0",
			"primitives":[
				{
					"attributes":{
						"POSITION":0,
						"NORMAL":1,
						"TEXCOORD_0":2
					},
					"indices":3,
					"material":0
				},
				{
					"attributes":{
						"POSITION":4,
						"NORMAL":5,
						"TEXCOORD_0":6
					},
					"indices":7,
					"material":1
				},
				{
					"attributes":{
						"POSITION":8,
						"NORMAL":9,
						"TEXCOORD_0":10
					},
					"indices":11,
					"material":2
				},
				{
					"attributes":{
						"POSITION":12,
						"NORMAL":13,
						"TEXCOORD_0":14
					},
					"indices":15,
					"material":3
				},
				{
					"attributes":{
						"POSITION":16,
						"NORMAL":17,
						"TEXCOORD_0":18
					},
					"indices":19,
					"material":4
				},
				{
					"attributes":{
						"POSITION":20,
						"NORMAL":21,
						"TEXCOORD_0":22
					},
					"indices":23,
					"material":5
				}
			]
		}
	],
	"textures":[
		{
			"sampler":0,
			"source":0
		},
		{
			"sampler":0,
			"source":1
		},
		{
			"sampler":0,
			"source":2
		},
		{
			"sampler":0,
			"source":3
		},
		{
			"sampler":0,
			"source":4
		},
		{
			"sampler":0,
			"source":5
		}
	],
	"images":[
		{
			"mimeType":"image/png",
			"name":"patchModelBoss",
			"uri":"patchModelBoss.png"
		},
		{
			"mimeType":"image/png",
			"name":"M_patchModelTutorial_BaseColor",
			"uri":"M_patchModelTutorial_BaseColor.png"
		},
		{
			"mimeType":"image/png",
			"name":"patchModelFirst",
			"uri":"patchModelFirst.png"
		},
		{
			"mimeType":"image/png",
			"name":"M_patchModelDifficult_BaseColor",
			"uri":"M_patchModelDifficult_BaseColor.png"
		},
		{
			"mimeType":"image/png",
			"name":"M_patchModelBobbinFirst_BaseColor",
			"uri":"M_patchModelBobbinFirst_BaseColor.png"
		},
		{
			"mimeType":"image/png",
			"name":"BookLeft",
			"uri":"BookLeft.png"
		}
	],
	"accessors":[
		{
			"bufferView":0,
			"componentType":5126,
			"count":992,
			"max":[
				2.5669538974761963,
				0.6486698985099792,
				-0.05015125498175621
			],
			"min":[
				0.15734520554542542,
				0.48184964060783386,
				-2.4540891647338867
			],
			"type":"VEC3"
		},
		{
			"bufferView":1,
			"componentType":5126,
			"count":992,
			"type":"VEC3"
		},
		{
			"bufferView":2,
			"componentType":5126,
			"count":992,
			"type":"VEC2"
		},
		{
			"bufferView":3,
			"componentType":5123,
			"count":3474,
			"type":"SCALAR"
		},
		{
			"bufferView":4,
			"componentType":5126,
			"count":796,
			"max":[
				4.512784004211426,
				0.584052324295044,
				-0.798065185546875
			],
			"min":[
				2.4267470836639404,
				0.3960651159286499,
				-2.801610231399536
			],
			"type":"VEC3"
		},
		{
			"bufferView":5,
			"componentType":5126,
			"count":796,
			"type":"VEC3"
		},
		{
			"bufferView":6,
			"componentType":5126,
			"count":796,
			"type":"VEC2"
		},
		{
			"bufferView":7,
			"componentType":5123,
			"count":1188,
			"type":"SCALAR"
		},
		{
			"bufferView":8,
			"componentType":5126,
			"count":1435,
			"max":[
				4.4214606285095215,
				0.6008275151252747,
				0.7937994003295898
			],
			"min":[
				2.4995105266571045,
				0.4725182056427002,
				-1.1821297407150269
			],
			"type":"VEC3"
		},
		{
			"bufferView":9,
			"componentType":5126,
			"count":1435,
			"type":"VEC3"
		},
		{
			"bufferView":10,
			"componentType":5126,
			"count":1435,
			"type":"VEC2"
		},
		{
			"bufferView":11,
			"componentType":5123,
			"count":2106,
			"type":"SCALAR"
		},
		{
			"bufferView":12,
			"componentType":5126,
			"count":2696,
			"max":[
				2.7308666706085205,
				0.6238934397697449,
				2.3411202430725098
			],
			"min":[
				0.35760852694511414,
				0.48133227229118347,
				0.286958783864975
			],
			"type":"VEC3"
		},
		{
			"bufferView":13,
			"componentType":5126,
			"count":2696,
			"type":"VEC3"
		},
		{
			"bufferView":14,
			"componentType":5126,
			"count":2696,
			"type":"VEC2"
		},
		{
			"bufferView":15,
			"componentType":5123,
			"count":3852,
			"type":"SCALAR"
		},
		{
			"bufferView":16,
			"componentType":5126,
			"count":1480,
			"max":[
				4.253027439117432,
				0.5606015920639038,
				2.356485366821289
			],
			"min":[
				2.781064987182617,
				0.4691619575023651,
				0.8666777014732361
			],
			"type":"VEC3"
		},
		{
			"bufferView":17,
			"componentType":5126,
			"count":1480,
			"type":"VEC3"
		},
		{
			"bufferView":18,
			"componentType":5126,
			"count":1480,
			"type":"VEC2"
		},
		{
			"bufferView":19,
			"componentType":5123,
			"count":2226,
			"type":"SCALAR"
		},
		{
			"bufferView":20,
			"componentType":5126,
			"count":69,
			"max":[
				4.554257392883301,
				0.5239354968070984,
				2.8078768253326416
			],
			"min":[
				-0.0001255035458598286,
				0,
				-2.8078768253326416
			],
			"type":"VEC3"
		},
		{
			"bufferView":21,
			"componentType":5126,
			"count":69,
			"type":"VEC3"
		},
		{
			"bufferView":22,
			"componentType":5126,
			"count":69,
			"type":"VEC2"
		},
		{
			"bufferView":23,
			"componentType":5123,
			"count":120,
			"type":"SCALAR"
		}
	],
	"bufferViews":[
		{
			"buffer":0,
			"byteLength":11904,
			"byteOffset":0,
			"target":34962
		},
		{
			"buffer":0,
			"byteLength":11904,
			"byteOffset":11904,
			"target":34962
		},
		{
			"buffer":0,
			"byteLength":7936,
			"byteOffset":23808,
			"target":34962
		},
		{
			"buffer":0,
			"byteLength":6948,
			"byteOffset":31744,
			"target":34963
		},
		{
			"buffer":0,
			"byteLength":9552,
			"byteOffset":38692,
			"target":34962
		},
		{
			"buffer":0,
			"byteLength":9552,
			"byteOffset":48244,
			"target":34962
		},
		{
			"buffer":0,
			"byteLength":6368,
			"byteOffset":57796,
			"target":34962
		},
		{
			"buffer":0,
			"byteLength":2376,
			"byteOffset":64164,
			"target":34963
		},
		{
			"buffer":0,
			"byteLength":17220,
			"byteOffset":66540,
			"target":34962
		},
		{
			"buffer":0,
			"byteLength":17220,
			"byteOffset":83760,
			"target":34962
		},
		{
			"buffer":0,
			"byteLength":11480,
			"byteOffset":100980,
			"target":34962
		},
		{
			"buffer":0,
			"byteLength":4212,
			"byteOffset":112460,
			"target":34963
		},
		{
			"buffer":0,
			"byteLength":32352,
			"byteOffset":116672,
			"target":34962
		},
		{
			"buffer":0,
			"byteLength":32352,
			"byteOffset":149024,
			"target":34962
		},
		{
			"buffer":0,
			"byteLength":21568,
			"byteOffset":181376,
			"target":34962
		},
		{
			"buffer":0,
			"byteLength":7704,
			"byteOffset":202944,
			"target":34963
		},
		{
			"buffer":0,
			"byteLength":17760,
			"byteOffset":210648,
			"target":34962
		},
		{
			"buffer":0,
			"byteLength":17760,
			"byteOffset":228408,
			"target":34962
		},
		{
			"buffer":0,
			"byteLength":11840,
			"byteOffset":246168,
			"target":34962
		},
		{
			"buffer":0,
			"byteLength":4452,
			"byteOffset":258008,
			"target":34963
		},
		{
			"buffer":0,
			"byteLength":828,
			"byteOffset":262460,
			"target":34962
		},
		{
			"buffer":0,
			"byteLength":828,
			"byteOffset":263288,
			"target":34962
		},
		{
			"buffer":0,
			"byteLength":552,
			"byteOffset":264116,
			"target":34962
		},
		{
			"buffer":0,
			"byteLength":240,
			"byteOffset":264668,
			"target":34963
		}
	],
	"samplers":[
		{
			"magFilter":9729,
			"minFilter":9987
		}
	],
	"buffers":[
		{
			"byteLength":264908,
			"uri":"BookLeft.bin"
		}
	]
}
