{
  "accessors": [
    {
      "bufferView": 0,
      "componentType": 5126,
      "count": 1407,
      "max": [
        0.6644154787063599,
        0.14998947083950043,
        0.6523850560188293
      ],
      "min": [
        -0.633223295211792,
        0.008865284733474255,
        -0.6483968496322632
      ],
      "type": "VEC3"
    },
    {
      "bufferView": 1,
      "componentType": 5126,
      "count": 1407,
      "max": [
        0.9975043535232544,
        1.0,
        0.9998781085014343
      ],
      "min": [
        -0.9991778135299683,
        -0.00012243118544574827,
        -0.999927818775177
      ],
      "type": "VEC3"
    },
    {
      "bufferView": 2,
      "componentType": 5126,
      "count": 1407,
      "max": [
        0.9999820590019226,
        0.9993910789489746,
        0.9961559176445007,
        1.0
      ],
      "min": [
        -0.9999961853027344,
        -0.9997501969337463,
        -0.9991778135299683,
        -1.0
      ],
      "type": "VEC4"
    },
    {
      "bufferView": 3,
      "componentType": 5126,
      "count": 1407,
      "max": [
        0.9956986308097839,
        0.9867981672286987
      ],
      "min": [
        0.00813746452331543,
        0.08129304647445679
      ],
      "type": "VEC2"
    },
    {
      "bufferView": 4,
      "componentType": 5125,
      "count": 2106,
      "max": [
        1406
      ],
      "min": [
        0
      ],
      "type": "SCALAR"
    },
    {
      "bufferView": 5,
      "componentType": 5126,
      "count": 2376,
      "max": [
        0.7614821791648865,
        0.11548756808042526,
        0.7614821791648865
      ],
      "min": [
        -0.7614821791648865,
        0.08987679332494736,
        -0.7614821791648865
      ],
      "type": "VEC3"
    },
    {
      "bufferView": 6,
      "componentType": 5126,
      "count": 2376,
      "max": [
        0.9998680949211121,
        1.0,
        0.9998680949211121
      ],
      "min": [
        -0.9998680949211121,
        -1.0,
        -0.9998680949211121
      ],
      "type": "VEC3"
    },
    {
      "bufferView": 7,
      "componentType": 5126,
      "count": 2376,
      "max": [
        1.0,
        0.8339910507202148,
        1.0,
        1.0
      ],
      "min": [
        -1.0,
        -0.8339850902557373,
        -1.0,
        1.0
      ],
      "type": "VEC4"
    },
    {
      "bufferView": 8,
      "componentType": 5126,
      "count": 2376,
      "max": [
        0.07602119445800781,
        0.9838258028030396
      ],
      "min": [
        0.02399998903274536,
        0.960280179977417
      ],
      "type": "VEC2"
    },
    {
      "bufferView": 9,
      "componentType": 5125,
      "count": 11520,
      "max": [
        2375
      ],
      "min": [
        0
      ],
      "type": "SCALAR"
    },
    {
      "bufferView": 10,
      "componentType": 5126,
      "count": 300,
      "max": [
        0.8281030058860779,
        0.10000000149011612,
        0.827061653137207
      ],
      "min": [
        -0.8281031847000122,
        -0.10000000149011612,
        -0.8270618319511414
      ],
      "type": "VEC3"
    },
    {
      "bufferView": 11,
      "componentType": 5126,
      "count": 300,
      "max": [
        1.0,
        1.0,
        1.0
      ],
      "min": [
        -1.0,
        -0.7116971611976624,
        -1.0
      ],
      "type": "VEC3"
    },
    {
      "bufferView": 12,
      "componentType": 5126,
      "count": 300,
      "max": [
        0.9992448687553406,
        0.9988785982131958,
        0.9101832509040833,
        1.0
      ],
      "min": [
        -0.7222334146499634,
        -0.9988266825675964,
        -0.8224531412124634,
        1.0
      ],
      "type": "VEC4"
    },
    {
      "bufferView": 13,
      "componentType": 5126,
      "count": 300,
      "max": [
        0.6775778532028198,
        0.9798285961151123
      ],
      "min": [
        0.01968599110841751,
        0.3166602849960327
      ],
      "type": "VEC2"
    },
    {
      "bufferView": 14,
      "componentType": 5125,
      "count": 420,
      "max": [
        299
      ],
      "min": [
        0
      ],
      "type": "SCALAR"
    }
  ],
  "asset": {
    "version": "2.0"
  },
  "bufferViews": [
    {
      "buffer": 0,
      "byteLength": 16884,
      "target": 34962
    },
    {
      "buffer": 0,
      "byteLength": 16884,
      "byteOffset": 16884,
      "target": 34962
    },
    {
      "buffer": 0,
      "byteLength": 22512,
      "byteOffset": 33768,
      "target": 34962
    },
    {
      "buffer": 0,
      "byteLength": 11256,
      "byteOffset": 56280,
      "target": 34962
    },
    {
      "buffer": 0,
      "byteLength": 8424,
      "byteOffset": 67536,
      "target": 34963
    },
    {
      "buffer": 0,
      "byteLength": 28512,
      "byteOffset": 75960,
      "target": 34962
    },
    {
      "buffer": 0,
      "byteLength": 28512,
      "byteOffset": 104472,
      "target": 34962
    },
    {
      "buffer": 0,
      "byteLength": 38016,
      "byteOffset": 132984,
      "target": 34962
    },
    {
      "buffer": 0,
      "byteLength": 19008,
      "byteOffset": 171000,
      "target": 34962
    },
    {
      "buffer": 0,
      "byteLength": 46080,
      "byteOffset": 190008,
      "target": 34963
    },
    {
      "buffer": 0,
      "byteLength": 3600,
      "byteOffset": 236088,
      "target": 34962
    },
    {
      "buffer": 0,
      "byteLength": 3600,
      "byteOffset": 239688,
      "target": 34962
    },
    {
      "buffer": 0,
      "byteLength": 4800,
      "byteOffset": 243288,
      "target": 34962
    },
    {
      "buffer": 0,
      "byteLength": 2400,
      "byteOffset": 248088,
      "target": 34962
    },
    {
      "buffer": 0,
      "byteLength": 1680,
      "byteOffset": 250488,
      "target": 34963
    }
  ],
  "buffers": [
    {
      "byteLength": 252168,
      "uri": "data:application/octet-stream;base64,"
    }
  ],
  "images": [
    {
      "uri": "patchModelFirst.png"
    }
  ],
  "materials": [
    {
      "name": "m_patchModelFirst",
      "pbrMetallicRoughness": {
        "baseColorFactor": [
          1.0,
          0.9999899864196777,
          0.9999899864196777,
          1.0
        ],
        "baseColorTexture": {
          "index": 0
        },
        "metallicFactor": 0.0
      }
    }
  ],
  "meshes": [
    {
      "primitives": [
        {
          "attributes": {
            "NORMAL": 1,
            "POSITION": 0,
            "TANGENT": 2,
            "TEXCOORD_0": 3
          },
          "indices": 4,
          "material": 0,
          "mode": 4
        }
      ]
    },
    {
      "primitives": [
        {
          "attributes": {
            "NORMAL": 6,
            "POSITION": 5,
            "TANGENT": 7,
            "TEXCOORD_0": 8
          },
          "indices": 9,
          "material": 0,
          "mode": 4
        }
      ]
    },
    {
      "primitives": [
        {
          "attributes": {
            "NORMAL": 11,
            "POSITION": 10,
            "TANGENT": 12,
            "TEXCOORD_0": 13
          },
          "indices": 14,
          "material": 0,
          "mode": 4
        }
      ]
    }
  ],
  "nodes": [
    {
      "children": [
        1,
        2,
        3
      ],
      "name": "patchModelFirst",
      "rotation": [
        0.0,
        0.0,
        0.0,
        1.0
      ],
      "scale": [
        1.0,
        1.0,
        1.0
      ],
      "translation": [
        0.0,
        0.0,
        0.0
      ]
    },
    {
      "mesh": 0,
      "name": "pCylinder12",
      "rotation": [
        0.0,
        0.0,
        0.0,
        1.0
      ],
      "scale": [
        1.0,
        1.0,
        1.0
      ],
      "translation": [
        0.0,
        0.0,
        0.0
      ]
    },
    {
      "mesh": 1,
      "name": "wappen_TrailMode5",
      "rotation": [
        0.0,
        0.0,
        0.0,
        1.0
      ],
      "scale": [
        1.0,
        1.0,
        1.0
      ],
      "translation": [
        0.0,
        0.0,
        0.0
      ]
    },
    {
      "mesh": 2,
      "name": "wappen_plane5",
      "rotation": [
        0.0,
        0.0,
        0.0,
        1.0
      ],
      "scale": [
        1.0,
        1.0,
        1.0
      ],
      "translation": [
        0.0,
        0.0,
        0.0
      ]
    }
  ],
  "samplers": [
    {
      "wrapS": 10497,
      "wrapT": 10497
    }
  ],
  "scenes": [
    {
      "nodes": [
        0
      ]
    }
  ],
  "textures": [
    {
      "sampler": 0,
      "source": 0
    }
  ]
}
