{
  "accessors": [
    {
      "bufferView": 0,
      "componentType": 5126,
      "count": 2376,
      "max": [
        0.7614821791648865,
        0.12177444994449615,
        0.7614821791648865
      ],
      "min": [
        -0.7614821791648865,
        0.09616368263959885,
        -0.7614821791648865
      ],
      "type": "VEC3"
    },
    {
      "bufferView": 1,
      "componentType": 5126,
      "count": 2376,
      "max": [
        0.9998680949211121,
        1.0,
        0.9998680949211121
      ],
      "min": [
        -0.9998680949211121,
        -1.0,
        -0.9998680949211121
      ],
      "type": "VEC3"
    },
    {
      "bufferView": 2,
      "componentType": 5126,
      "count": 2376,
      "max": [
        1.0,
        0.8339910507202148,
        1.0,
        1.0
      ],
      "min": [
        -1.0,
        -0.8339850902557373,
        -1.0,
        1.0
      ],
      "type": "VEC4"
    },
    {
      "bufferView": 3,
      "componentType": 5126,
      "count": 2376,
      "max": [
        0.07698166370391846,
        0.9860536456108093
      ],
      "min": [
        0.02496040239930153,
        0.9625080823898315
      ],
      "type": "VEC2"
    },
    {
      "bufferView": 4,
      "componentType": 5125,
      "count": 11520,
      "max": [
        2375
      ],
      "min": [
        0
      ],
      "type": "SCALAR"
    },
    {
      "bufferView": 5,
      "componentType": 5126,
      "count": 290,
      "max": [
        0.8281030058860779,
        0.20000000298023224,
        0.827061653137207
      ],
      "min": [
        -0.8281031847000122,
        0.0,
        -0.8270618319511414
      ],
      "type": "VEC3"
    },
    {
      "bufferView": 6,
      "componentType": 5126,
      "count": 290,
      "max": [
        1.0,
        1.0,
        1.0
      ],
      "min": [
        -1.0,
        -0.7116971611976624,
        -1.0
      ],
      "type": "VEC3"
    },
    {
      "bufferView": 7,
      "componentType": 5126,
      "count": 290,
      "max": [
        0.9936805963516235,
        0.9999969005584717,
        0.8219069838523865,
        1.0
      ],
      "min": [
        -0.7294201254844666,
        -0.9999972581863403,
        -0.9105756878852844,
        1.0
      ],
      "type": "VEC4"
    },
    {
      "bufferView": 8,
      "componentType": 5126,
      "count": 290,
      "max": [
        0.7099337577819824,
        0.9922112226486206
      ],
      "min": [
        0.03470492362976074,
        0.31153082847595215
      ],
      "type": "VEC2"
    },
    {
      "bufferView": 9,
      "componentType": 5125,
      "count": 420,
      "max": [
        289
      ],
      "min": [
        0
      ],
      "type": "SCALAR"
    },
    {
      "bufferView": 10,
      "componentType": 5126,
      "count": 1475,
      "max": [
        0.6375075578689575,
        0.13540984690189362,
        0.6371708512306213
      ],
      "min": [
        -0.5843784809112549,
        0.0239688903093338,
        -0.5979416370391846
      ],
      "type": "VEC3"
    },
    {
      "bufferView": 11,
      "componentType": 5126,
      "count": 1475,
      "max": [
        1.0,
        1.0,
        1.0
      ],
      "min": [
        -1.0,
        -0.2764427959918976,
        -1.0
      ],
      "type": "VEC3"
    },
    {
      "bufferView": 12,
      "componentType": 5126,
      "count": 1475,
      "max": [
        0.9891200661659241,
        0.9999988079071045,
        0.7243965864181519,
        1.0
      ],
      "min": [
        -0.661929190158844,
        -0.9999971985816956,
        -0.9999039173126221,
        1.0
      ],
      "type": "VEC4"
    },
    {
      "bufferView": 13,
      "componentType": 5126,
      "count": 1475,
      "max": [
        0.9870328903198242,
        0.9793382883071899
      ],
      "min": [
        0.006964385509490967,
        0.009765803813934326
      ],
      "type": "VEC2"
    },
    {
      "bufferView": 14,
      "componentType": 5125,
      "count": 2226,
      "max": [
        1474
      ],
      "min": [
        0
      ],
      "type": "SCALAR"
    }
  ],
  "asset": {
    "version": "2.0"
  },
  "bufferViews": [
    {
      "buffer": 0,
      "byteLength": 28512,
      "target": 34962
    },
    {
      "buffer": 0,
      "byteLength": 28512,
      "byteOffset": 28512,
      "target": 34962
    },
    {
      "buffer": 0,
      "byteLength": 38016,
      "byteOffset": 57024,
      "target": 34962
    },
    {
      "buffer": 0,
      "byteLength": 19008,
      "byteOffset": 95040,
      "target": 34962
    },
    {
      "buffer": 0,
      "byteLength": 46080,
      "byteOffset": 114048,
      "target": 34963
    },
    {
      "buffer": 0,
      "byteLength": 3480,
      "byteOffset": 160128,
      "target": 34962
    },
    {
      "buffer": 0,
      "byteLength": 3480,
      "byteOffset": 163608,
      "target": 34962
    },
    {
      "buffer": 0,
      "byteLength": 4640,
      "byteOffset": 167088,
      "target": 34962
    },
    {
      "buffer": 0,
      "byteLength": 2320,
      "byteOffset": 171728,
      "target": 34962
    },
    {
      "buffer": 0,
      "byteLength": 1680,
      "byteOffset": 174048,
      "target": 34963
    },
    {
      "buffer": 0,
      "byteLength": 17700,
      "byteOffset": 175728,
      "target": 34962
    },
    {
      "buffer": 0,
      "byteLength": 17700,
      "byteOffset": 193428,
      "target": 34962
    },
    {
      "buffer": 0,
      "byteLength": 23600,
      "byteOffset": 211128,
      "target": 34962
    },
    {
      "buffer": 0,
      "byteLength": 11800,
      "byteOffset": 234728,
      "target": 34962
    },
    {
      "buffer": 0,
      "byteLength": 8904,
      "byteOffset": 246528,
      "target": 34963
    }
  ],
  "buffers": [
    {
      "byteLength": 255432,
      "uri": "data:application/octet-stream;base64,"
    }
  ],
  "images": [
    {
      "uri": "patchModelBobbinFirst.fbm/M_patchModelBobbinFirst_BaseColor.png"
    }
  ],
  "materials": [
    {
      "name": "m_patchModelBobbinFirst",
      "pbrMetallicRoughness": {
        "baseColorFactor": [
          1.0,
          0.9999899864196777,
          0.9999899864196777,
          1.0
        ],
        "baseColorTexture": {
          "index": 0
        },
        "metallicFactor": 0.0
      }
    }
  ],
  "meshes": [
    {
      "primitives": [
        {
          "attributes": {
            "NORMAL": 1,
            "POSITION": 0,
            "TANGENT": 2,
            "TEXCOORD_0": 3
          },
          "indices": 4,
          "material": 0,
          "mode": 4
        }
      ]
    },
    {
      "primitives": [
        {
          "attributes": {
            "NORMAL": 6,
            "POSITION": 5,
            "TANGENT": 7,
            "TEXCOORD_0": 8
          },
          "indices": 9,
          "material": 0,
          "mode": 4
        }
      ]
    },
    {
      "primitives": [
        {
          "attributes": {
            "NORMAL": 11,
            "POSITION": 10,
            "TANGENT": 12,
            "TEXCOORD_0": 13
          },
          "indices": 14,
          "material": 0,
          "mode": 4
        }
      ]
    }
  ],
  "nodes": [
    {
      "children": [
        1,
        2,
        3
      ],
      "name": "patchModelBobbinFirst",
      "rotation": [
        0.0,
        0.0,
        0.0,
        1.0
      ],
      "scale": [
        1.0,
        1.0,
        1.0
      ],
      "translation": [
        0.0,
        0.0,
        0.0
      ]
    },
    {
      "mesh": 0,
      "name": "wappen_TrailMode6",
      "rotation": [
        0.0,
        0.0,
        0.0,
        1.0
      ],
      "scale": [
        1.0,
        1.0,
        1.0
      ],
      "translation": [
        0.0,
        -0.006286885589361191,
        0.0
      ]
    },
    {
      "mesh": 1,
      "name": "wappen_plane6",
      "rotation": [
        0.0,
        0.0,
        0.0,
        1.0
      ],
      "scale": [
        1.0,
        1.0,
        1.0
      ],
      "translation": [
        0.0,
        -0.10000000149011612,
        0.0
      ]
    },
    {
      "mesh": 2,
      "name": "patchModelBobbinFirst",
      "rotation": [
        0.0,
        0.0,
        0.0,
        1.0
      ],
      "scale": [
        1.0,
        1.0,
        1.0
      ],
      "translation": [
        0.0,
        0.0,
        0.0
      ]
    }
  ],
  "samplers": [
    {
      "wrapS": 10497,
      "wrapT": 10497
    }
  ],
  "scenes": [
    {
      "nodes": [
        0
      ]
    }
  ],
  "textures": [
    {
      "sampler": 0,
      "source": 0
    }
  ]
}
