{
  "accessors": [
    {
      "bufferView": 0,
      "componentType": 5126,
      "count": 1332,
      "max": [
        0.7095369696617126,
        0.17421114444732666,
        0.6669660806655884
      ],
      "min": [
        -0.6310634613037109,
        0.06325139105319977,
        -0.6265018582344055
      ],
      "type": "VEC3"
    },
    {
      "bufferView": 1,
      "componentType": 5126,
      "count": 1332,
      "max": [
        0.9990056157112122,
        1.0,
        0.9999477863311768
      ],
      "min": [
        -0.9987909197807312,
        -0.004233049228787422,
        -0.9999415278434753
      ],
      "type": "VEC3"
    },
    {
      "bufferView": 2,
      "componentType": 5126,
      "count": 1332,
      "max": [
        0.9999890327453613,
        0.9998837113380432,
        0.9955806732177734,
        1.0
      ],
      "min": [
        -0.576675534248352,
        -0.9996753931045532,
        -0.9003601670265198,
        1.0
      ],
      "type": "VEC4"
    },
    {
      "bufferView": 3,
      "componentType": 5126,
      "count": 1332,
      "max": [
        0.9877014756202698,
        1.0
      ],
      "min": [
        0.0,
        0.012981176376342773
      ],
      "type": "VEC2"
    },
    {
      "bufferView": 4,
      "componentType": 5125,
      "count": 3852,
      "max": [
        1331
      ],
      "min": [
        0
      ],
      "type": "SCALAR"
    },
    {
      "bufferView": 5,
      "componentType": 5126,
      "count": 2376,
      "max": [
        0.7614821791648865,
        0.12177444994449615,
        0.7614821791648865
      ],
      "min": [
        -0.7614821791648865,
        0.09616368263959885,
        -0.7614821791648865
      ],
      "type": "VEC3"
    },
    {
      "bufferView": 6,
      "componentType": 5126,
      "count": 2376,
      "max": [
        0.9998680353164673,
        1.0,
        0.9998680353164673
      ],
      "min": [
        -0.9998680353164673,
        -1.0,
        -0.9998680353164673
      ],
      "type": "VEC3"
    },
    {
      "bufferView": 7,
      "componentType": 5126,
      "count": 2376,
      "max": [
        1.0,
        0.8339910507202148,
        1.0,
        1.0
      ],
      "min": [
        -1.0,
        -0.8339850902557373,
        -1.0,
        1.0
      ],
      "type": "VEC4"
    },
    {
      "bufferView": 8,
      "componentType": 5126,
      "count": 2376,
      "max": [
        0.07698166370391846,
        0.9860536456108093
      ],
      "min": [
        0.02496040239930153,
        0.9625080823898315
      ],
      "type": "VEC2"
    },
    {
      "bufferView": 9,
      "componentType": 5125,
      "count": 11520,
      "max": [
        2375
      ],
      "min": [
        0
      ],
      "type": "SCALAR"
    },
    {
      "bufferView": 10,
      "componentType": 5126,
      "count": 141,
      "max": [
        0.8281030058860779,
        0.20000000298023224,
        0.827061653137207
      ],
      "min": [
        -0.8281031847000122,
        0.0,
        -0.8270618319511414
      ],
      "type": "VEC3"
    },
    {
      "bufferView": 11,
      "componentType": 5126,
      "count": 141,
      "max": [
        1.0,
        1.0,
        1.0
      ],
      "min": [
        -1.0,
        -0.7116971611976624,
        -1.0
      ],
      "type": "VEC3"
    },
    {
      "bufferView": 12,
      "componentType": 5126,
      "count": 141,
      "max": [
        0.7123346328735352,
        0.9994998574256897,
        0.9105949997901917,
        1.0
      ],
      "min": [
        -0.9760758876800537,
        -0.9919756054878235,
        -0.7483010292053223,
        1.0
      ],
      "type": "VEC4"
    },
    {
      "bufferView": 13,
      "componentType": 5126,
      "count": 141,
      "max": [
        0.6692508459091187,
        0.9918463230133057
      ],
      "min": [
        0.013069871813058853,
        0.33765971660614014
      ],
      "type": "VEC2"
    },
    {
      "bufferView": 14,
      "componentType": 5125,
      "count": 420,
      "max": [
        140
      ],
      "min": [
        0
      ],
      "type": "SCALAR"
    }
  ],
  "asset": {
    "version": "2.0"
  },
  "bufferViews": [
    {
      "buffer": 0,
      "byteLength": 15984,
      "target": 34962
    },
    {
      "buffer": 0,
      "byteLength": 15984,
      "byteOffset": 15984,
      "target": 34962
    },
    {
      "buffer": 0,
      "byteLength": 21312,
      "byteOffset": 31968,
      "target": 34962
    },
    {
      "buffer": 0,
      "byteLength": 10656,
      "byteOffset": 53280,
      "target": 34962
    },
    {
      "buffer": 0,
      "byteLength": 15408,
      "byteOffset": 63936,
      "target": 34963
    },
    {
      "buffer": 0,
      "byteLength": 28512,
      "byteOffset": 79344,
      "target": 34962
    },
    {
      "buffer": 0,
      "byteLength": 28512,
      "byteOffset": 107856,
      "target": 34962
    },
    {
      "buffer": 0,
      "byteLength": 38016,
      "byteOffset": 136368,
      "target": 34962
    },
    {
      "buffer": 0,
      "byteLength": 19008,
      "byteOffset": 174384,
      "target": 34962
    },
    {
      "buffer": 0,
      "byteLength": 46080,
      "byteOffset": 193392,
      "target": 34963
    },
    {
      "buffer": 0,
      "byteLength": 1692,
      "byteOffset": 239472,
      "target": 34962
    },
    {
      "buffer": 0,
      "byteLength": 1692,
      "byteOffset": 241164,
      "target": 34962
    },
    {
      "buffer": 0,
      "byteLength": 2256,
      "byteOffset": 242856,
      "target": 34962
    },
    {
      "buffer": 0,
      "byteLength": 1128,
      "byteOffset": 245112,
      "target": 34962
    },
    {
      "buffer": 0,
      "byteLength": 1680,
      "byteOffset": 246240,
      "target": 34963
    }
  ],
  "buffers": [
    {
      "byteLength": 247920,
      "uri": "data:application/octet-stream;base64,"
    }
  ],
  "images": [
    {
      "uri": "patchModelDifficult.fbm/M_patchModelDifficult_BaseColor.png"
    }
  ],
  "materials": [
    {
      "name": "m_patchModelDifficult",
      "pbrMetallicRoughness": {
        "baseColorFactor": [
          1.0,
          0.9999899864196777,
          0.9999899864196777,
          1.0
        ],
        "baseColorTexture": {
          "index": 0
        },
        "metallicFactor": 0.0
      }
    }
  ],
  "meshes": [
    {
      "primitives": [
        {
          "attributes": {
            "NORMAL": 1,
            "POSITION": 0,
            "TANGENT": 2,
            "TEXCOORD_0": 3
          },
          "indices": 4,
          "material": 0,
          "mode": 4
        }
      ]
    },
    {
      "primitives": [
        {
          "attributes": {
            "NORMAL": 6,
            "POSITION": 5,
            "TANGENT": 7,
            "TEXCOORD_0": 8
          },
          "indices": 9,
          "material": 0,
          "mode": 4
        }
      ]
    },
    {
      "primitives": [
        {
          "attributes": {
            "NORMAL": 11,
            "POSITION": 10,
            "TANGENT": 12,
            "TEXCOORD_0": 13
          },
          "indices": 14,
          "material": 0,
          "mode": 4
        }
      ]
    }
  ],
  "nodes": [
    {
      "children": [
        1,
        2,
        3
      ],
      "name": "patchModelDifficult",
      "rotation": [
        0.0,
        0.0,
        0.0,
        1.0
      ],
      "scale": [
        1.0,
        1.0,
        1.0
      ],
      "translation": [
        0.0,
        0.0,
        0.0
      ]
    },
    {
      "mesh": 0,
      "name": "patchModelDifficult",
      "rotation": [
        0.0,
        0.0,
        0.0,
        1.0
      ],
      "scale": [
        1.0,
        1.0,
        1.0
      ],
      "translation": [
        0.0,
        -0.016367603093385696,
        0.0
      ]
    },
    {
      "mesh": 1,
      "name": "wappen_TrailMode2",
      "rotation": [
        0.0,
        0.0,
        0.0,
        1.0
      ],
      "scale": [
        1.0,
        1.0,
        1.0
      ],
      "translation": [
        0.0,
        -0.006286885589361191,
        0.0
      ]
    },
    {
      "mesh": 2,
      "name": "wappen_plane2",
      "rotation": [
        0.0,
        0.0,
        0.0,
        1.0
      ],
      "scale": [
        1.0,
        1.0,
        1.0
      ],
      "translation": [
        0.0,
        -0.10000000149011612,
        0.0
      ]
    }
  ],
  "samplers": [
    {
      "wrapS": 10497,
      "wrapT": 10497
    }
  ],
  "scenes": [
    {
      "nodes": [
        0
      ]
    }
  ],
  "textures": [
    {
      "sampler": 0,
      "source": 0
    }
  ]
}
