{
  "accessors": [
    {
      "bufferView": 0,
      "componentType": 5126,
      "count": 4874,
      "max": [
        0.7815923690795898,
        0.11331845819950104,
        0.5949074029922485
      ],
      "min": [
        -0.7815925478935242,
        0.0,
        -0.5949074029922485
      ],
      "type": "VEC3"
    },
    {
      "bufferView": 1,
      "componentType": 5126,
      "count": 4874,
      "max": [
        1.0,
        1.0,
        1.0
      ],
      "min": [
        -1.0,
        -1.0,
        -1.0
      ],
      "type": "VEC3"
    },
    {
      "bufferView": 2,
      "componentType": 5126,
      "count": 4874,
      "max": [
        1.0,
        0.8340902924537659,
        1.0,
        1.0
      ],
      "min": [
        -1.0,
        -0.8340803384780884,
        -1.0,
        1.0
      ],
      "type": "VEC4"
    },
    {
      "bufferView": 3,
      "componentType": 5126,
      "count": 4874,
      "max": [
        0.9865503311157227,
        0.990234375
      ],
      "min": [
        0.009765625,
        0.009765625
      ],
      "type": "VEC2"
    },
    {
      "bufferView": 4,
      "componentType": 5125,
      "count": 23430,
      "max": [
        4873
      ],
      "min": [
        0
      ],
      "type": "SCALAR"
    }
  ],
  "asset": {
    "version": "2.0"
  },
  "bufferViews": [
    {
      "buffer": 0,
      "byteLength": 58488,
      "target": 34962
    },
    {
      "buffer": 0,
      "byteLength": 58488,
      "byteOffset": 58488,
      "target": 34962
    },
    {
      "buffer": 0,
      "byteLength": 77984,
      "byteOffset": 116976,
      "target": 34962
    },
    {
      "buffer": 0,
      "byteLength": 38992,
      "byteOffset": 194960,
      "target": 34962
    },
    {
      "buffer": 0,
      "byteLength": 93720,
      "byteOffset": 233952,
      "target": 34963
    }
  ],
  "buffers": [
    {
      "byteLength": 327672,
      "uri": "data:application/octet-stream;base64,"
    }
  ],
  "images": [
    {
      "uri": "M_PatchCrownModel_BaseColor.png"
    }
  ],
  "materials": [
    {
      "name": "M_PatchCrownModel",
      "pbrMetallicRoughness": {
        "baseColorFactor": [
          1.0,
          0.9999899864196777,
          0.9999899864196777,
          1.0
        ],
        "baseColorTexture": {
          "index": 0
        },
        "metallicFactor": 0.0
      }
    }
  ],
  "meshes": [
    {
      "primitives": [
        {
          "attributes": {
            "NORMAL": 1,
            "POSITION": 0,
            "TANGENT": 2,
            "TEXCOORD_0": 3
          },
          "indices": 4,
          "material": 0,
          "mode": 4
        }
      ]
    }
  ],
  "nodes": [
    {
      "mesh": 0,
      "name": "PatchCrownModel",
      "rotation": [
        0.0,
        0.0,
        0.0,
        1.0
      ],
      "scale": [
        1.0,
        1.0,
        1.0
      ],
      "translation": [
        0.0,
        0.0,
        0.0
      ]
    }
  ],
  "samplers": [
    {
      "wrapS": 10497,
      "wrapT": 10497
    }
  ],
  "scenes": [
    {
      "nodes": [
        0
      ]
    }
  ],
  "textures": [
    {
      "sampler": 0,
      "source": 0
    }
  ]
}
