{
  "accessors": [
    {
      "bufferView": 0,
      "componentType": 5126,
      "count": 141,
      "max": [
        0.8281030058860779,
        0.10000000149011612,
        0.827061653137207
      ],
      "min": [
        -0.8281031847000122,
        -0.10000000149011612,
        -0.8270618319511414
      ],
      "type": "VEC3"
    },
    {
      "bufferView": 1,
      "componentType": 5126,
      "count": 141,
      "max": [
        1.0,
        1.0,
        1.0
      ],
      "min": [
        -1.0,
        -0.7116971611976624,
        -1.0
      ],
      "type": "VEC3"
    },
    {
      "bufferView": 2,
      "componentType": 5126,
      "count": 141,
      "max": [
        1.0,
        0.9999954700469971,
        0.8224693536758423,
        1.0
      ],
      "min": [
        -0.711696445941925,
        -1.0,
        -0.8223921656608582,
        1.0
      ],
      "type": "VEC4"
    },
    {
      "bufferView": 3,
      "componentType": 5126,
      "count": 141,
      "max": [
        0.7022925615310669,
        0.9864735007286072
      ],
      "min": [
        0.012358194217085838,
        0.3008440136909485
      ],
      "type": "VEC2"
    },
    {
      "bufferView": 4,
      "componentType": 5125,
      "count": 420,
      "max": [
        140
      ],
      "min": [
        0
      ],
      "type": "SCALAR"
    },
    {
      "bufferView": 5,
      "componentType": 5126,
      "count": 2376,
      "max": [
        0.7614821791648865,
        0.11548756808042526,
        0.7614821791648865
      ],
      "min": [
        -0.7614821791648865,
        0.08987679332494736,
        -0.7614821791648865
      ],
      "type": "VEC3"
    },
    {
      "bufferView": 6,
      "componentType": 5126,
      "count": 2376,
      "max": [
        0.9998680353164673,
        1.0,
        0.9998680353164673
      ],
      "min": [
        -0.9998680353164673,
        -1.0,
        -0.9998680353164673
      ],
      "type": "VEC3"
    },
    {
      "bufferView": 7,
      "componentType": 5126,
      "count": 2376,
      "max": [
        1.0,
        0.8339910507202148,
        1.0,
        1.0
      ],
      "min": [
        -1.0,
        -0.8339850902557373,
        -1.0,
        1.0
      ],
      "type": "VEC4"
    },
    {
      "bufferView": 8,
      "componentType": 5126,
      "count": 2376,
      "max": [
        0.07698166370391846,
        0.9860536456108093
      ],
      "min": [
        0.02496040239930153,
        0.9625080823898315
      ],
      "type": "VEC2"
    },
    {
      "bufferView": 9,
      "componentType": 5125,
      "count": 11520,
      "max": [
        2375
      ],
      "min": [
        0
      ],
      "type": "SCALAR"
    },
    {
      "bufferView": 10,
      "componentType": 5126,
      "count": 962,
      "max": [
        0.7203655242919922,
        0.1356707662343979,
        0.6961156725883484
      ],
      "min": [
        -0.8155977129936218,
        0.004780647344887257,
        -0.8515434265136719
      ],
      "type": "VEC3"
    },
    {
      "bufferView": 11,
      "componentType": 5126,
      "count": 962,
      "max": [
        0.9999988675117493,
        1.0,
        0.999890148639679
      ],
      "min": [
        -0.9998977184295654,
        -0.11460421979427338,
        -0.999890148639679
      ],
      "type": "VEC3"
    },
    {
      "bufferView": 12,
      "componentType": 5126,
      "count": 962,
      "max": [
        0.999990701675415,
        0.9999927282333374,
        0.8827556371688843,
        1.0
      ],
      "min": [
        -0.4762338399887085,
        -0.9999992847442627,
        -0.9990361928939819,
        1.0
      ],
      "type": "VEC4"
    },
    {
      "bufferView": 13,
      "componentType": 5126,
      "count": 962,
      "max": [
        0.9938392639160156,
        0.9927103519439697
      ],
      "min": [
        0.01339288055896759,
        0.02092599868774414
      ],
      "type": "VEC2"
    },
    {
      "bufferView": 14,
      "componentType": 5125,
      "count": 2280,
      "max": [
        961
      ],
      "min": [
        0
      ],
      "type": "SCALAR"
    }
  ],
  "asset": {
    "version": "2.0"
  },
  "bufferViews": [
    {
      "buffer": 0,
      "byteLength": 1692,
      "target": 34962
    },
    {
      "buffer": 0,
      "byteLength": 1692,
      "byteOffset": 1692,
      "target": 34962
    },
    {
      "buffer": 0,
      "byteLength": 2256,
      "byteOffset": 3384,
      "target": 34962
    },
    {
      "buffer": 0,
      "byteLength": 1128,
      "byteOffset": 5640,
      "target": 34962
    },
    {
      "buffer": 0,
      "byteLength": 1680,
      "byteOffset": 6768,
      "target": 34963
    },
    {
      "buffer": 0,
      "byteLength": 28512,
      "byteOffset": 8448,
      "target": 34962
    },
    {
      "buffer": 0,
      "byteLength": 28512,
      "byteOffset": 36960,
      "target": 34962
    },
    {
      "buffer": 0,
      "byteLength": 38016,
      "byteOffset": 65472,
      "target": 34962
    },
    {
      "buffer": 0,
      "byteLength": 19008,
      "byteOffset": 103488,
      "target": 34962
    },
    {
      "buffer": 0,
      "byteLength": 46080,
      "byteOffset": 122496,
      "target": 34963
    },
    {
      "buffer": 0,
      "byteLength": 11544,
      "byteOffset": 168576,
      "target": 34962
    },
    {
      "buffer": 0,
      "byteLength": 11544,
      "byteOffset": 180120,
      "target": 34962
    },
    {
      "buffer": 0,
      "byteLength": 15392,
      "byteOffset": 191664,
      "target": 34962
    },
    {
      "buffer": 0,
      "byteLength": 7696,
      "byteOffset": 207056,
      "target": 34962
    },
    {
      "buffer": 0,
      "byteLength": 9120,
      "byteOffset": 214752,
      "target": 34963
    }
  ],
  "buffers": [
    {
      "byteLength": 223872,
      "uri": "data:application/octet-stream;base64,"
    }
  ],
  "images": [
    {
      "uri": "M_patchModelTutorial_BaseColor.png"
    }
  ],
  "materials": [
    {
      "name": "m_patchModelTutorial",
      "pbrMetallicRoughness": {
        "baseColorFactor": [
          1.0,
          0.9999899864196777,
          0.9999899864196777,
          1.0
        ],
        "baseColorTexture": {
          "index": 0
        },
        "metallicFactor": 0.0
      }
    }
  ],
  "meshes": [
    {
      "primitives": [
        {
          "attributes": {
            "NORMAL": 1,
            "POSITION": 0,
            "TANGENT": 2,
            "TEXCOORD_0": 3
          },
          "indices": 4,
          "material": 0,
          "mode": 4
        }
      ]
    },
    {
      "primitives": [
        {
          "attributes": {
            "NORMAL": 6,
            "POSITION": 5,
            "TANGENT": 7,
            "TEXCOORD_0": 8
          },
          "indices": 9,
          "material": 0,
          "mode": 4
        }
      ]
    },
    {
      "primitives": [
        {
          "attributes": {
            "NORMAL": 11,
            "POSITION": 10,
            "TANGENT": 12,
            "TEXCOORD_0": 13
          },
          "indices": 14,
          "material": 0,
          "mode": 4
        }
      ]
    }
  ],
  "nodes": [
    {
      "children": [
        1,
        2,
        3
      ],
      "name": "patchModelTutorial",
      "rotation": [
        0.0,
        0.0,
        0.0,
        1.0
      ],
      "scale": [
        1.0,
        1.0,
        1.0
      ],
      "translation": [
        0.0,
        0.0,
        0.0
      ]
    },
    {
      "mesh": 0,
      "name": "wappen_plane3",
      "rotation": [
        0.0,
        0.0,
        0.0,
        1.0
      ],
      "scale": [
        1.0,
        1.0,
        1.0
      ],
      "translation": [
        0.0,
        0.0,
        0.0
      ]
    },
    {
      "mesh": 1,
      "name": "wappen_TrailMode3",
      "rotation": [
        0.0,
        0.0,
        0.0,
        1.0
      ],
      "scale": [
        1.0,
        1.0,
        1.0
      ],
      "translation": [
        0.0,
        0.0,
        0.0
      ]
    },
    {
      "mesh": 2,
      "name": "patchModelTutorial",
      "rotation": [
        0.0,
        0.0,
        0.0,
        1.0
      ],
      "scale": [
        1.0,
        1.0,
        1.0
      ],
      "translation": [
        0.0,
        0.0,
        0.0
      ]
    }
  ],
  "samplers": [
    {
      "wrapS": 10497,
      "wrapT": 10497
    }
  ],
  "scenes": [
    {
      "nodes": [
        0
      ]
    }
  ],
  "textures": [
    {
      "sampler": 0,
      "source": 0
    }
  ]
}
