{
  "accessors": [
    {
      "bufferView": 0,
      "componentType": 5126,
      "count": 611,
      "max": [
        0.6552254557609558,
        0.13984279334545135,
        0.5910431742668152
      ],
      "min": [
        -0.6747624278068542,
        -0.006236830726265907,
        -0.6272479891777039
      ],
      "type": "VEC3"
    },
    {
      "bufferView": 1,
      "componentType": 5126,
      "count": 611,
      "max": [
        0.9998587965965271,
        1.0,
        0.9991202354431152
      ],
      "min": [
        -0.9996635913848877,
        -1.1337325304339174e-05,
        -0.9991202354431152
      ],
      "type": "VEC3"
    },
    {
      "bufferView": 2,
      "componentType": 5126,
      "count": 611,
      "max": [
        0.9994959831237793,
        1.0,
        0.9996635913848877,
        1.0
      ],
      "min": [
        -0.9991201758384705,
        -1.0,
        -0.9996635913848877,
        1.0
      ],
      "type": "VEC4"
    },
    {
      "bufferView": 3,
      "componentType": 5126,
      "count": 611,
      "max": [
        1.0178289413452148,
        0.5930860042572021
      ],
      "min": [
        0.010815352201461792,
        0.003159642219543457
      ],
      "type": "VEC2"
    },
    {
      "bufferView": 4,
      "componentType": 5125,
      "count": 942,
      "max": [
        610
      ],
      "min": [
        0
      ],
      "type": "SCALAR"
    },
    {
      "bufferView": 5,
      "componentType": 5126,
      "count": 2376,
      "max": [
        0.7614821791648865,
        0.11548756808042526,
        0.7614821791648865
      ],
      "min": [
        -0.7614821791648865,
        0.08987679332494736,
        -0.7614821791648865
      ],
      "type": "VEC3"
    },
    {
      "bufferView": 6,
      "componentType": 5126,
      "count": 2376,
      "max": [
        0.9998680949211121,
        1.0,
        0.9998680949211121
      ],
      "min": [
        -0.9998680949211121,
        -1.0,
        -0.9998680949211121
      ],
      "type": "VEC3"
    },
    {
      "bufferView": 7,
      "componentType": 5126,
      "count": 2376,
      "max": [
        1.0,
        0.8339910507202148,
        1.0,
        1.0
      ],
      "min": [
        -1.0,
        -0.8339850902557373,
        -1.0,
        1.0
      ],
      "type": "VEC4"
    },
    {
      "bufferView": 8,
      "componentType": 5126,
      "count": 2376,
      "max": [
        0.07698166370391846,
        0.9860536456108093
      ],
      "min": [
        0.02496040239930153,
        0.9625080823898315
      ],
      "type": "VEC2"
    },
    {
      "bufferView": 9,
      "componentType": 5125,
      "count": 11520,
      "max": [
        2375
      ],
      "min": [
        0
      ],
      "type": "SCALAR"
    },
    {
      "bufferView": 10,
      "componentType": 5126,
      "count": 300,
      "max": [
        0.8281030058860779,
        0.10000000149011612,
        0.827061653137207
      ],
      "min": [
        -0.8281031847000122,
        -0.10000000149011612,
        -0.8270618319511414
      ],
      "type": "VEC3"
    },
    {
      "bufferView": 11,
      "componentType": 5126,
      "count": 300,
      "max": [
        1.0,
        1.0,
        1.0
      ],
      "min": [
        -1.0,
        -0.7116971611976624,
        -1.0
      ],
      "type": "VEC3"
    },
    {
      "bufferView": 12,
      "componentType": 5126,
      "count": 300,
      "max": [
        0.7422511577606201,
        0.9999721050262451,
        0.8930196166038513,
        1.0
      ],
      "min": [
        -0.9510067701339722,
        -0.9999942779541016,
        -0.8063024878501892,
        1.0
      ],
      "type": "VEC4"
    },
    {
      "bufferView": 13,
      "componentType": 5126,
      "count": 300,
      "max": [
        0.6692508459091187,
        0.9918463230133057
      ],
      "min": [
        0.013069871813058853,
        0.33765971660614014
      ],
      "type": "VEC2"
    },
    {
      "bufferView": 14,
      "componentType": 5125,
      "count": 420,
      "max": [
        299
      ],
      "min": [
        0
      ],
      "type": "SCALAR"
    }
  ],
  "asset": {
    "version": "2.0"
  },
  "bufferViews": [
    {
      "buffer": 0,
      "byteLength": 7332,
      "target": 34962
    },
    {
      "buffer": 0,
      "byteLength": 7332,
      "byteOffset": 7332,
      "target": 34962
    },
    {
      "buffer": 0,
      "byteLength": 9776,
      "byteOffset": 14664,
      "target": 34962
    },
    {
      "buffer": 0,
      "byteLength": 4888,
      "byteOffset": 24440,
      "target": 34962
    },
    {
      "buffer": 0,
      "byteLength": 3768,
      "byteOffset": 29328,
      "target": 34963
    },
    {
      "buffer": 0,
      "byteLength": 28512,
      "byteOffset": 33096,
      "target": 34962
    },
    {
      "buffer": 0,
      "byteLength": 28512,
      "byteOffset": 61608,
      "target": 34962
    },
    {
      "buffer": 0,
      "byteLength": 38016,
      "byteOffset": 90120,
      "target": 34962
    },
    {
      "buffer": 0,
      "byteLength": 19008,
      "byteOffset": 128136,
      "target": 34962
    },
    {
      "buffer": 0,
      "byteLength": 46080,
      "byteOffset": 147144,
      "target": 34963
    },
    {
      "buffer": 0,
      "byteLength": 3600,
      "byteOffset": 193224,
      "target": 34962
    },
    {
      "buffer": 0,
      "byteLength": 3600,
      "byteOffset": 196824,
      "target": 34962
    },
    {
      "buffer": 0,
      "byteLength": 4800,
      "byteOffset": 200424,
      "target": 34962
    },
    {
      "buffer": 0,
      "byteLength": 2400,
      "byteOffset": 205224,
      "target": 34962
    },
    {
      "buffer": 0,
      "byteLength": 1680,
      "byteOffset": 207624,
      "target": 34963
    }
  ],
  "buffers": [
    {
      "byteLength": 209304,
      "uri": "data:application/octet-stream;base64,"
    }
  ],
  "images": [
    {
      "uri": "patchModelReflectWall.fbm/patchModelReflectWall.png"
    }
  ],
  "materials": [
    {
      "name": "m_patchModelReflectWall",
      "pbrMetallicRoughness": {
        "baseColorFactor": [
          1.0,
          0.9999899864196777,
          0.9999899864196777,
          1.0
        ],
        "baseColorTexture": {
          "index": 0
        },
        "metallicFactor": 0.0
      }
    }
  ],
  "meshes": [
    {
      "primitives": [
        {
          "attributes": {
            "NORMAL": 1,
            "POSITION": 0,
            "TANGENT": 2,
            "TEXCOORD_0": 3
          },
          "indices": 4,
          "material": 0,
          "mode": 4
        }
      ]
    },
    {
      "primitives": [
        {
          "attributes": {
            "NORMAL": 6,
            "POSITION": 5,
            "TANGENT": 7,
            "TEXCOORD_0": 8
          },
          "indices": 9,
          "material": 0,
          "mode": 4
        }
      ]
    },
    {
      "primitives": [
        {
          "attributes": {
            "NORMAL": 11,
            "POSITION": 10,
            "TANGENT": 12,
            "TEXCOORD_0": 13
          },
          "indices": 14,
          "material": 0,
          "mode": 4
        }
      ]
    }
  ],
  "nodes": [
    {
      "children": [
        1,
        2,
        3
      ],
      "name": "patchModelReflectWall",
      "rotation": [
        0.0,
        0.0,
        0.0,
        1.0
      ],
      "scale": [
        1.0,
        1.0,
        1.0
      ],
      "translation": [
        0.0,
        0.0,
        0.0
      ]
    },
    {
      "mesh": 0,
      "name": "pCube8",
      "rotation": [
        0.0,
        0.0,
        0.0,
        1.0
      ],
      "scale": [
        1.0,
        1.0,
        1.0
      ],
      "translation": [
        0.0,
        0.0,
        0.0
      ]
    },
    {
      "mesh": 1,
      "name": "wappen_TrailMode4",
      "rotation": [
        0.0,
        0.0,
        0.0,
        1.0
      ],
      "scale": [
        1.0,
        1.0,
        1.0
      ],
      "translation": [
        0.0,
        0.0,
        0.0
      ]
    },
    {
      "mesh": 2,
      "name": "wappen_plane4",
      "rotation": [
        0.0,
        0.0,
        0.0,
        1.0
      ],
      "scale": [
        1.0,
        1.0,
        1.0
      ],
      "translation": [
        0.0,
        0.0,
        0.0
      ]
    }
  ],
  "samplers": [
    {
      "wrapS": 10497,
      "wrapT": 10497
    }
  ],
  "scenes": [
    {
      "nodes": [
        0
      ]
    }
  ],
  "textures": [
    {
      "sampler": 0,
      "source": 0
    }
  ]
}
