{
  "accessors": [
    {
      "bufferView": 0,
      "componentType": 5126,
      "count": 62,
      "max": [
        0.10000000149011612,
        0.10000000149011612,
        0.09510566294193268
      ],
      "min": [
        -0.10000001639127731,
        -0.10000000149011612,
        -0.09510567039251328
      ],
      "type": "VEC3"
    },
    {
      "bufferView": 1,
      "componentType": 5126,
      "count": 62,
      "max": [
        0.9510565996170044,
        1.0,
        1.0
      ],
      "min": [
        -0.9510565996170044,
        -1.0,
        -1.0
      ],
      "type": "VEC3"
    },
    {
      "bufferView": 2,
      "componentType": 5126,
      "count": 62,
      "max": [
        1.0,
        7.103962837635199e-15,
        0.9510565996170044,
        1.0
      ],
      "min": [
        -1.0,
        -3.609699090876455e-15,
        -0.9510565996170044,
        1.0
      ],
      "type": "VEC4"
    },
    {
      "bufferView": 3,
      "componentType": 5126,
      "count": 62,
      "max": [
        0.65625,
        0.9923526048660278
      ],
      "min": [
        0.34375,
        0.007647395133972168
      ],
      "type": "VEC2"
    },
    {
      "bufferView": 4,
      "componentType": 5125,
      "count": 120,
      "max": [
        61
      ],
      "min": [
        0
      ],
      "type": "SCALAR"
    }
  ],
  "asset": {
    "version": "2.0"
  },
  "bufferViews": [
    {
      "buffer": 0,
      "byteLength": 744,
      "target": 34962
    },
    {
      "buffer": 0,
      "byteLength": 744,
      "byteOffset": 744,
      "target": 34962
    },
    {
      "buffer": 0,
      "byteLength": 992,
      "byteOffset": 1488,
      "target": 34962
    },
    {
      "buffer": 0,
      "byteLength": 496,
      "byteOffset": 2480,
      "target": 34962
    },
    {
      "buffer": 0,
      "byteLength": 480,
      "byteOffset": 2976,
      "target": 34963
    }
  ],
  "buffers": [
    {
      "byteLength": 3456,
      "uri": "data:application/octet-stream;base64,"
    }
  ],
  "materials": [
    {
      "name": "standardSurface1",
      "pbrMetallicRoughness": {
        "baseColorFactor": [
          1.0,
          0.841399073600769,
          0.6023166179656982,
          1.0
        ],
        "metallicFactor": 0.0
      }
    }
  ],
  "meshes": [
    {
      "primitives": [
        {
          "attributes": {
            "NORMAL": 1,
            "POSITION": 0,
            "TANGENT": 2,
            "TEXCOORD_0": 3
          },
          "indices": 4,
          "material": 0,
          "mode": 4
        }
      ]
    }
  ],
  "nodes": [
    {
      "mesh": 0,
      "name": "TimeClearModel",
      "rotation": [
        0.0,
        0.0,
        0.0,
        1.0
      ],
      "scale": [
        4.223815441131592,
        0.4990292191505432,
        4.223815441131592
      ],
      "translation": [
        0.0,
        0.0,
        0.0
      ]
    }
  ],
  "samplers": [
    {
      "wrapS": 10497,
      "wrapT": 10497
    }
  ],
  "scenes": [
    {
      "nodes": [
        0
      ]
    }
  ]
}
