{
  "accessors": [
    {
      "bufferView": 0,
      "componentType": 5126,
      "count": 6771,
      "max": [
        5.358877658843994,
        9.041731834411621,
        3.0072877407073975
      ],
      "min": [
        -5.358877658843994,
        0.0,
        -3.0072877407073975
      ],
      "type": "VEC3"
    },
    {
      "bufferView": 1,
      "componentType": 5126,
      "count": 6771,
      "max": [
        1.0,
        1.0,
        1.0
      ],
      "min": [
        -1.0,
        -1.0,
        -0.9999968409538269
      ],
      "type": "VEC3"
    },
    {
      "bufferView": 2,
      "componentType": 5126,
      "count": 6771,
      "max": [
        1.0,
        0.9999998807907104,
        1.0,
        1.0
      ],
      "min": [
        -1.0,
        -0.999996542930603,
        -1.0,
        1.0
      ],
      "type": "VEC4"
    },
    {
      "bufferView": 3,
      "componentType": 5126,
      "count": 6771,
      "max": [
        0.9351628422737122,
        0.9976789951324463
      ],
      "min": [
        0.004281401634216309,
        0.004016995429992676
      ],
      "type": "VEC2"
    },
    {
      "bufferView": 4,
      "componentType": 5125,
      "count": 9930,
      "max": [
        6770
      ],
      "min": [
        0
      ],
      "type": "SCALAR"
    },
    {
      "bufferView": 5,
      "componentType": 5126,
      "count": 12,
      "max": [
        12.782942771911621,
        7.399613857269287,
        6.330779552459717
      ],
      "min": [
        -5.8901472091674805,
        0.0,
        -12.349448204040527
      ],
      "type": "VEC3"
    },
    {
      "bufferView": 6,
      "componentType": 5126,
      "count": 12,
      "max": [
        0.0,
        1.0,
        1.0
      ],
      "min": [
        -1.0,
        0.0,
        0.0
      ],
      "type": "VEC3"
    },
    {
      "bufferView": 7,
      "componentType": 5126,
      "count": 12,
      "max": [
        1.0,
        0.0,
        1.0,
        1.0
      ],
      "min": [
        0.0,
        0.0,
        0.0,
        1.0
      ],
      "type": "VEC4"
    },
    {
      "bufferView": 8,
      "componentType": 5126,
      "count": 12,
      "max": [
        1.0,
        1.0
      ],
      "min": [
        0.0,
        0.0
      ],
      "type": "VEC2"
    },
    {
      "bufferView": 9,
      "componentType": 5125,
      "count": 18,
      "max": [
        11
      ],
      "min": [
        0
      ],
      "type": "SCALAR"
    }
  ],
  "asset": {
    "version": "2.0"
  },
  "bufferViews": [
    {
      "buffer": 0,
      "byteLength": 81252,
      "target": 34962
    },
    {
      "buffer": 0,
      "byteLength": 81252,
      "byteOffset": 81252,
      "target": 34962
    },
    {
      "buffer": 0,
      "byteLength": 108336,
      "byteOffset": 162504,
      "target": 34962
    },
    {
      "buffer": 0,
      "byteLength": 54168,
      "byteOffset": 270840,
      "target": 34962
    },
    {
      "buffer": 0,
      "byteLength": 39720,
      "byteOffset": 325008,
      "target": 34963
    },
    {
      "buffer": 0,
      "byteLength": 144,
      "byteOffset": 364728,
      "target": 34962
    },
    {
      "buffer": 0,
      "byteLength": 144,
      "byteOffset": 364872,
      "target": 34962
    },
    {
      "buffer": 0,
      "byteLength": 192,
      "byteOffset": 365016,
      "target": 34962
    },
    {
      "buffer": 0,
      "byteLength": 96,
      "byteOffset": 365208,
      "target": 34962
    },
    {
      "buffer": 0,
      "byteLength": 72,
      "byteOffset": 365304,
      "target": 34963
    }
  ],
  "buffers": [
    {
      "byteLength": 365376,
      "uri": "data:application/octet-stream;base64,"
    }
  ],
  "images": [
    {
      "uri": "misin_tex.png"
    }
  ],
  "materials": [
    {
      "name": "M_misin",
      "pbrMetallicRoughness": {
        "baseColorFactor": [
          0.800000011920929,
          0.800000011920929,
          0.800000011920929,
          1.0
        ],
        "baseColorTexture": {
          "index": 0
        },
        "metallicFactor": 0.0
      }
    },
    {
      "name": "m_startWall",
      "pbrMetallicRoughness": {
        "baseColorFactor": [
          0.37400001287460327,
          0.6403200030326843,
          0.800000011920929,
          1.0
        ],
        "metallicFactor": 0.0
      }
    }
  ],
  "meshes": [
    {
      "primitives": [
        {
          "attributes": {
            "NORMAL": 1,
            "POSITION": 0,
            "TANGENT": 2,
            "TEXCOORD_0": 3
          },
          "indices": 4,
          "material": 0,
          "mode": 4
        }
      ]
    },
    {
      "primitives": [
        {
          "attributes": {
            "NORMAL": 6,
            "POSITION": 5,
            "TANGENT": 7,
            "TEXCOORD_0": 8
          },
          "indices": 9,
          "material": 1,
          "mode": 4
        }
      ]
    }
  ],
  "nodes": [
    {
      "mesh": 0,
      "name": "SewingMachine",
      "rotation": [
        0.0,
        -0.6087614297866821,
        0.0,
        0.7933533191680908
      ],
      "scale": [
        0.5713996887207031,
        0.5713996887207031,
        0.5713996887207031
      ],
      "translation": [
        8.543628692626953,
        0.0,
        0.0
      ]
    },
    {
      "mesh": 1,
      "name": "wall",
      "rotation": [
        0.0,
        0.0,
        0.0,
        1.0
      ],
      "scale": [
        1.0,
        1.0,
        1.0
      ],
      "translation": [
        0.0,
        0.0,
        0.0
      ]
    }
  ],
  "samplers": [
    {
      "wrapS": 10497,
      "wrapT": 10497
    }
  ],
  "scenes": [
    {
      "nodes": [
        0,
        1
      ]
    }
  ],
  "textures": [
    {
      "sampler": 0,
      "source": 0
    }
  ]
}
