{
  "accessors": [
    {
      "bufferView": 0,
      "componentType": 5126,
      "count": 2896,
      "max": [
        7.766434669494629,
        1.1197445392608643,
        0.38000068068504333
      ],
      "min": [
        0.08700733631849289,
        -1.6387605667114258,
        0.24999962747097015
      ],
      "type": "VEC3"
    },
    {
      "bufferView": 1,
      "componentType": 5126,
      "count": 2896,
      "max": [
        1.0,
        1.0,
        1.0
      ],
      "min": [
        -1.0,
        -1.0,
        -1.0
      ],
      "type": "VEC3"
    },
    {
      "bufferView": 2,
      "componentType": 5126,
      "count": 2896,
      "max": [
        1.0,
        1.0,
        0.9999653697013855,
        1.0
      ],
      "min": [
        -1.0,
        -1.0,
        -0.9999653697013855,
        1.0
      ],
      "type": "VEC4"
    },
    {
      "bufferView": 3,
      "componentType": 5126,
      "count": 2896,
      "max": [
        0.9980080127716064,
        0.9980382919311523
      ],
      "min": [
        0.03563137352466583,
        0.01718306541442871
      ],
      "type": "VEC2"
    },
    {
      "bufferView": 4,
      "componentType": 5125,
      "count": 7704,
      "max": [
        2895
      ],
      "min": [
        0
      ],
      "type": "SCALAR"
    }
  ],
  "asset": {
    "version": "2.0"
  },
  "bufferViews": [
    {
      "buffer": 0,
      "byteLength": 34752,
      "target": 34962
    },
    {
      "buffer": 0,
      "byteLength": 34752,
      "byteOffset": 34752,
      "target": 34962
    },
    {
      "buffer": 0,
      "byteLength": 46336,
      "byteOffset": 69504,
      "target": 34962
    },
    {
      "buffer": 0,
      "byteLength": 23168,
      "byteOffset": 115840,
      "target": 34962
    },
    {
      "buffer": 0,
      "byteLength": 30816,
      "byteOffset": 139008,
      "target": 34963
    }
  ],
  "buffers": [
    {
      "byteLength": 169824,
      "uri": "data:application/octet-stream;base64,"
    }
  ],
  "materials": [
    {
      "name": "lambert11",
      "pbrMetallicRoughness": {
        "baseColorFactor": [
          0.3008800148963928,
          0.800000011920929,
          0.1454399973154068,
          1.0
        ],
        "metallicFactor": 0.0
      }
    }
  ],
  "meshes": [
    {
      "primitives": [
        {
          "attributes": {
            "NORMAL": 1,
            "POSITION": 0,
            "TANGENT": 2,
            "TEXCOORD_0": 3
          },
          "indices": 4,
          "material": 0,
          "mode": 4
        }
      ]
    }
  ],
  "nodes": [
    {
      "mesh": 0,
      "name": "typeMesh1",
      "rotation": [
        0.0,
        -0.1734192818403244,
        0.0,
        0.9848480820655823
      ],
      "scale": [
        1.088697910308838,
        1.088697910308838,
        1.088697910308838
      ],
      "translation": [
        -0.17515112459659576,
        3.3093724250793457,
        -5.735299110412598
      ]
    }
  ],
  "samplers": [
    {
      "wrapS": 10497,
      "wrapT": 10497
    }
  ],
  "scenes": [
    {
      "nodes": [
        0
      ]
    }
  ]
}
