{
  "accessors": [
    {
      "bufferView": 0,
      "componentType": 5126,
      "count": 1151,
      "max": [
        0.6040889024734497,
        2.41859769821167,
        0.6279237270355225
      ],
      "min": [
        -0.6040889024734497,
        1.34306001663208,
        -0.5621163249015808
      ],
      "type": "VEC3"
    },
    {
      "bufferView": 1,
      "componentType": 5126,
      "count": 1151,
      "max": [
        1.0,
        0.9998464584350586,
        0.9985050559043884
      ],
      "min": [
        -1.0,
        -0.999994695186615,
        -0.9983794093132019
      ],
      "type": "VEC3"
    },
    {
      "bufferView": 2,
      "componentType": 5126,
      "count": 1151,
      "max": [
        1.0,
        0.8813982605934143,
        0.9972829818725586,
        1.0
      ],
      "min": [
        -1.0,
        -0.8814032077789307,
        -0.9993399977684021,
        -1.0
      ],
      "type": "VEC4"
    },
    {
      "bufferView": 3,
      "componentType": 5126,
      "count": 1151,
      "max": [
        0.992525041103363,
        0.996281623840332
      ],
      "min": [
        0.010812063701450825,
        0.013327836990356445
      ],
      "type": "VEC2"
    },
    {
      "bufferView": 4,
      "componentType": 5125,
      "count": 6000,
      "max": [
        1150
      ],
      "min": [
        0
      ],
      "type": "SCALAR"
    },
    {
      "bufferView": 5,
      "componentType": 5126,
      "count": 7630,
      "max": [
        1.0532331466674805,
        2.5059144496917725,
        0.6133354306221008
      ],
      "min": [
        -1.0532331466674805,
        -6.934165867278352e-05,
        -0.5910144448280334
      ],
      "type": "VEC3"
    },
    {
      "bufferView": 6,
      "componentType": 5126,
      "count": 7630,
      "max": [
        1.0,
        0.9999943375587463,
        0.9999837875366211
      ],
      "min": [
        -1.0,
        -1.0,
        -0.9999868869781494
      ],
      "type": "VEC3"
    },
    {
      "bufferView": 7,
      "componentType": 5126,
      "count": 7630,
      "max": [
        1.0,
        0.9999924302101135,
        0.9999999403953552,
        1.0
      ],
      "min": [
        -0.9999998807907104,
        -0.9987808465957642,
        -0.9999999403953552,
        -1.0
      ],
      "type": "VEC4"
    },
    {
      "bufferView": 8,
      "componentType": 5126,
      "count": 7630,
      "max": [
        0.9960064888000488,
        0.9954332709312439
      ],
      "min": [
        0.005966438911855221,
        0.005350887775421143
      ],
      "type": "VEC2"
    },
    {
      "bufferView": 9,
      "componentType": 5125,
      "count": 36240,
      "max": [
        7629
      ],
      "min": [
        0
      ],
      "type": "SCALAR"
    }
  ],
  "asset": {
    "version": "2.0"
  },
  "bufferViews": [
    {
      "buffer": 0,
      "byteLength": 13812,
      "target": 34962
    },
    {
      "buffer": 0,
      "byteLength": 13812,
      "byteOffset": 13812,
      "target": 34962
    },
    {
      "buffer": 0,
      "byteLength": 18416,
      "byteOffset": 27624,
      "target": 34962
    },
    {
      "buffer": 0,
      "byteLength": 9208,
      "byteOffset": 46040,
      "target": 34962
    },
    {
      "buffer": 0,
      "byteLength": 24000,
      "byteOffset": 55248,
      "target": 34963
    },
    {
      "buffer": 0,
      "byteLength": 91560,
      "byteOffset": 79248,
      "target": 34962
    },
    {
      "buffer": 0,
      "byteLength": 91560,
      "byteOffset": 170808,
      "target": 34962
    },
    {
      "buffer": 0,
      "byteLength": 122080,
      "byteOffset": 262368,
      "target": 34962
    },
    {
      "buffer": 0,
      "byteLength": 61040,
      "byteOffset": 384448,
      "target": 34962
    },
    {
      "buffer": 0,
      "byteLength": 144960,
      "byteOffset": 445488,
      "target": 34963
    }
  ],
  "buffers": [
    {
      "byteLength": 590448,
      "uri": "data:application/octet-stream;base64,"
    }
  ],
  "images": [
    {
      "uri": "\\ScissorsPlayer.fbm/playerface.png"
    },
    {
      "uri": "\\ScissorsPlayer.fbm/playerbody.png"
    }
  ],
  "materials": [
    {
      "name": "m_playerface",
      "pbrMetallicRoughness": {
        "baseColorFactor": [
          0.800000011920929,
          0.800000011920929,
          0.800000011920929,
          1.0
        ],
        "baseColorTexture": {
          "index": 0
        },
        "metallicFactor": 0.0
      }
    },
    {
      "name": "m_ScissorsPlayer",
      "pbrMetallicRoughness": {
        "baseColorFactor": [
          0.800000011920929,
          0.800000011920929,
          0.800000011920929,
          1.0
        ],
        "baseColorTexture": {
          "index": 1
        },
        "metallicFactor": 0.0
      }
    }
  ],
  "meshes": [
    {
      "primitives": [
        {
          "attributes": {
            "NORMAL": 1,
            "POSITION": 0,
            "TANGENT": 2,
            "TEXCOORD_0": 3
          },
          "indices": 4,
          "material": 0,
          "mode": 4
        }
      ]
    },
    {
      "primitives": [
        {
          "attributes": {
            "NORMAL": 6,
            "POSITION": 5,
            "TANGENT": 7,
            "TEXCOORD_0": 8
          },
          "indices": 9,
          "material": 1,
          "mode": 4
        }
      ]
    }
  ],
  "nodes": [
    {
      "children": [
        1,
        2
      ],
      "name": "ScissorsPlayer",
      "rotation": [
        0.0,
        0.0,
        0.0,
        1.0
      ],
      "scale": [
        1.0,
        1.0,
        1.0
      ],
      "translation": [
        0.0,
        0.0,
        0.0
      ]
    },
    {
      "mesh": 0,
      "name": "face",
      "rotation": [
        0.0,
        0.0,
        0.0,
        1.0
      ],
      "scale": [
        1.0,
        1.0,
        1.0
      ],
      "translation": [
        0.0,
        0.0,
        0.0
      ]
    },
    {
      "mesh": 1,
      "name": "body",
      "rotation": [
        0.0,
        0.0,
        0.0,
        1.0
      ],
      "scale": [
        1.0,
        1.0,
        1.0
      ],
      "translation": [
        0.0,
        0.0,
        0.0
      ]
    }
  ],
  "samplers": [
    {
      "wrapS": 10497,
      "wrapT": 10497
    }
  ],
  "scenes": [
    {
      "nodes": [
        0
      ]
    }
  ],
  "textures": [
    {
      "sampler": 0,
      "source": 0
    },
    {
      "sampler": 0,
      "source": 1
    }
  ]
}
