{
  "accessors": [
    {
      "bufferView": 0,
      "componentType": 5126,
      "count": 99,
      "max": [
        0.40528663992881775,
        0.005028420593589544,
        0.06327316164970398
      ],
      "min": [
        -0.40528663992881775,
        -0.1319950520992279,
        -0.06327316164970398
      ],
      "type": "VEC3"
    },
    {
      "bufferView": 1,
      "componentType": 5126,
      "count": 99,
      "max": [
        0.8512774705886841,
        1.0,
        0.9998680353164673
      ],
      "min": [
        -0.8512774705886841,
        -1.0,
        -0.9998680353164673
      ],
      "type": "VEC3"
    },
    {
      "bufferView": 2,
      "componentType": 5126,
      "count": 99,
      "max": [
        1.0,
        0.8339890837669373,
        0.20053330063819885,
        1.0
      ],
      "min": [
        0.5140572190284729,
        -0.8339858651161194,
        -0.20053036510944366,
        1.0
      ],
      "type": "VEC4"
    },
    {
      "bufferView": 3,
      "componentType": 5126,
      "count": 99,
      "max": [
        0.9884764552116394,
        0.9883696436882019
      ],
      "min": [
        0.011523455381393433,
        0.5461862683296204
      ],
      "type": "VEC2"
    },
    {
      "bufferView": 4,
      "componentType": 5125,
      "count": 480,
      "max": [
        98
      ],
      "min": [
        0
      ],
      "type": "SCALAR"
    }
  ],
  "asset": {
    "version": "2.0"
  },
  "bufferViews": [
    {
      "buffer": 0,
      "byteLength": 1188,
      "target": 34962
    },
    {
      "buffer": 0,
      "byteLength": 1188,
      "byteOffset": 1188,
      "target": 34962
    },
    {
      "buffer": 0,
      "byteLength": 1584,
      "byteOffset": 2376,
      "target": 34962
    },
    {
      "buffer": 0,
      "byteLength": 792,
      "byteOffset": 3960,
      "target": 34962
    },
    {
      "buffer": 0,
      "byteLength": 1920,
      "byteOffset": 4752,
      "target": 34963
    }
  ],
  "buffers": [
    {
      "byteLength": 6672,
      "uri": "data:application/octet-stream;base64,"
    }
  ],
  "materials": [
    {
      "name": "m_TrailModel",
      "pbrMetallicRoughness": {
        "baseColorFactor": [
          0.800000011920929,
          0.38440001010894775,
          0.5251200199127197,
          1.0
        ],
        "metallicFactor": 0.0
      }
    }
  ],
  "meshes": [
    {
      "primitives": [
        {
          "attributes": {
            "NORMAL": 1,
            "POSITION": 0,
            "TANGENT": 2,
            "TEXCOORD_0": 3
          },
          "indices": 4,
          "material": 0,
          "mode": 4
        }
      ]
    }
  ],
  "nodes": [
    {
      "mesh": 0,
      "name": "TrailModel",
      "rotation": [
        -0.0,
        -0.7071067690849304,
        0.0,
        0.7071067690849304
      ],
      "scale": [
        1.0,
        1.0,
        1.0
      ],
      "translation": [
        0.0,
        0.09265927225351334,
        0.0
      ]
    }
  ],
  "samplers": [
    {
      "wrapS": 10497,
      "wrapT": 10497
    }
  ],
  "scenes": [
    {
      "nodes": [
        0
      ]
    }
  ]
}
