{
  "accessors": [
    {
      "bufferView": 0,
      "componentType": 5126,
      "count": 201,
      "max": [
        2.9055728912353516,
        0.30153053998947144,
        2.903674840927124
      ],
      "min": [
        -2.9055721759796143,
        0.19609135389328003,
        -2.903674840927124
      ],
      "type": "VEC3"
    },
    {
      "bufferView": 1,
      "componentType": 5126,
      "count": 201,
      "max": [
        0.07045396417379379,
        1.0,
        0.07046104967594147
      ],
      "min": [
        -0.07045398652553558,
        0.9975144267082214,
        -0.07046104222536087
      ],
      "type": "VEC3"
    },
    {
      "bufferView": 2,
      "componentType": 5126,
      "count": 201,
      "max": [
        -0.8516784310340881,
        0.07025788724422455,
        -0.5186941623687744,
        1.0
      ],
      "min": [
        -0.8539996147155762,
        -0.0702579915523529,
        -0.52085280418396,
        1.0
      ],
      "type": "VEC4"
    },
    {
      "bufferView": 3,
      "componentType": 5126,
      "count": 201,
      "max": [
        0.98828125,
        0.98828125
      ],
      "min": [
        0.01171875,
        0.011736869812011719
      ],
      "type": "VEC2"
    },
    {
      "bufferView": 4,
      "componentType": 5125,
      "count": 1080,
      "max": [
        200
      ],
      "min": [
        0
      ],
      "type": "SCALAR"
    }
  ],
  "asset": {
    "version": "2.0"
  },
  "bufferViews": [
    {
      "buffer": 0,
      "byteLength": 2412,
      "target": 34962
    },
    {
      "buffer": 0,
      "byteLength": 2412,
      "byteOffset": 2412,
      "target": 34962
    },
    {
      "buffer": 0,
      "byteLength": 3216,
      "byteOffset": 4824,
      "target": 34962
    },
    {
      "buffer": 0,
      "byteLength": 1608,
      "byteOffset": 8040,
      "target": 34962
    },
    {
      "buffer": 0,
      "byteLength": 4320,
      "byteOffset": 9648,
      "target": 34963
    }
  ],
  "buffers": [
    {
      "byteLength": 13968,
      "uri": "data:application/octet-stream;base64,"
    }
  ],
  "images": [
    {
      "uri": "./m_BobbinApplyRange_BaseColo.png"
    },
    {
      "uri": "m_BobbinApplyRange_Opacity.png"
    }
  ],
  "materials": [
    {
      "alphaMode": "BLEND",
      "name": "m_BobbinApplyRange",
      "normalTexture": {
        "index": 1
      },
      "pbrMetallicRoughness": {
        "baseColorFactor": [
          1.0,
          0.9999899864196777,
          0.9999899864196777,
          1.0
        ],
        "baseColorTexture": {
          "index": 0
        },
        "metallicFactor": 0.0
      }
    }
  ],
  "meshes": [
    {
      "primitives": [
        {
          "attributes": {
            "NORMAL": 1,
            "POSITION": 0,
            "TANGENT": 2,
            "TEXCOORD_0": 3
          },
          "indices": 4,
          "material": 0,
          "mode": 4
        }
      ]
    }
  ],
  "nodes": [
    {
      "mesh": 0,
      "name": "BobbinApplyRange",
      "rotation": [
        0.0,
        0.0,
        0.0,
        1.0
      ],
      "scale": [
        1.0,
        1.0,
        1.0
      ],
      "translation": [
        0.0,
        -0.1961195021867752,
        0.0
      ]
    }
  ],
  "samplers": [
    {
      "wrapS": 10497,
      "wrapT": 10497
    }
  ],
  "scenes": [
    {
      "nodes": [
        0
      ]
    }
  ],
  "textures": [
    {
      "sampler": 0,
      "source": 0
    },
    {
      "sampler": 0,
      "source": 1
    }
  ]
}
