{
  "accessors": [
    {
      "bufferView": 0,
      "componentType": 5126,
      "count": 21,
      "max": [
        0.9600000381469727,
        -1.1720532178878784,
        0.960000216960907
      ],
      "min": [
        -0.9600004553794861,
        -1.1720534563064575,
        -0.9600006341934204
      ],
      "type": "VEC3"
    },
    {
      "bufferView": 1,
      "componentType": 5126,
      "count": 21,
      "max": [
        2.9802308176840597e-07,
        1.0,
        5.357904342417896e-07
      ],
      "min": [
        -2.980231954552437e-07,
        1.0,
        -4.01841987240914e-07
      ],
      "type": "VEC3"
    },
    {
      "bufferView": 2,
      "componentType": 5126,
      "count": 21,
      "max": [
        -1.0,
        2.9802305334669654e-07,
        1.2512764442362823e-06,
        -1.0
      ],
      "min": [
        -1.0,
        -2.980231954552437e-07,
        -9.336924335912045e-07,
        -1.0
      ],
      "type": "VEC4"
    },
    {
      "bufferView": 3,
      "componentType": 5126,
      "count": 21,
      "max": [
        0.6570277214050293,
        0.7305159568786621
      ],
      "min": [
        0.34416332840919495,
        0.41765153408050537
      ],
      "type": "VEC2"
    },
    {
      "bufferView": 4,
      "componentType": 5125,
      "count": 60,
      "max": [
        20
      ],
      "min": [
        0
      ],
      "type": "SCALAR"
    },
    {
      "bufferView": 5,
      "componentType": 5126,
      "count": 42,
      "max": [
        0.9600000381469727,
        1.3236817121505737,
        0.960000216960907
      ],
      "min": [
        -0.9600004553794861,
        -1.1720534563064575,
        -0.9600006341934204
      ],
      "type": "VEC3"
    },
    {
      "bufferView": 6,
      "componentType": 5126,
      "count": 42,
      "max": [
        1.0,
        0.0,
        1.0
      ],
      "min": [
        -1.0,
        0.0,
        -1.0
      ],
      "type": "VEC3"
    },
    {
      "bufferView": 7,
      "componentType": 5126,
      "count": 42,
      "max": [
        1.0,
        4.271292254998116e-06,
        1.0,
        1.0
      ],
      "min": [
        -1.0,
        -4.38994402429671e-06,
        -1.0,
        1.0
      ],
      "type": "VEC4"
    },
    {
      "bufferView": 8,
      "componentType": 5126,
      "count": 42,
      "max": [
        0.989427924156189,
        0.9892652034759521
      ],
      "min": [
        0.01057213544845581,
        0.8131660223007202
      ],
      "type": "VEC2"
    },
    {
      "bufferView": 9,
      "componentType": 5125,
      "count": 120,
      "max": [
        41
      ],
      "min": [
        0
      ],
      "type": "SCALAR"
    }
  ],
  "asset": {
    "version": "2.0"
  },
  "bufferViews": [
    {
      "buffer": 0,
      "byteLength": 252,
      "target": 34962
    },
    {
      "buffer": 0,
      "byteLength": 252,
      "byteOffset": 252,
      "target": 34962
    },
    {
      "buffer": 0,
      "byteLength": 336,
      "byteOffset": 504,
      "target": 34962
    },
    {
      "buffer": 0,
      "byteLength": 168,
      "byteOffset": 840,
      "target": 34962
    },
    {
      "buffer": 0,
      "byteLength": 240,
      "byteOffset": 1008,
      "target": 34963
    },
    {
      "buffer": 0,
      "byteLength": 504,
      "byteOffset": 1248,
      "target": 34962
    },
    {
      "buffer": 0,
      "byteLength": 504,
      "byteOffset": 1752,
      "target": 34962
    },
    {
      "buffer": 0,
      "byteLength": 672,
      "byteOffset": 2256,
      "target": 34962
    },
    {
      "buffer": 0,
      "byteLength": 336,
      "byteOffset": 2928,
      "target": 34962
    },
    {
      "buffer": 0,
      "byteLength": 480,
      "byteOffset": 3264,
      "target": 34963
    }
  ],
  "buffers": [
    {
      "byteLength": 3744,
      "uri": "data:application/octet-stream;base64,"
    }
  ],
  "images": [
    {
      "uri": "M_EnemyToBigArrowMark_BaseColor.png"
    },
    {
      "uri": "M_EnemyToBigArrowMark_Opacity.png"
    }
  ],
  "materials": [
    {
      "alphaMode": "BLEND",
      "name": "M_EnemyToBigArrowMark",
      "normalTexture": {
        "index": 1
      },
      "pbrMetallicRoughness": {
        "baseColorFactor": [
          1.0,
          0.9999899864196777,
          0.9999899864196777,
          1.0
        ],
        "baseColorTexture": {
          "index": 0
        },
        "metallicFactor": 0.0
      }
    }
  ],
  "meshes": [
    {
      "primitives": [
        {
          "attributes": {
            "NORMAL": 1,
            "POSITION": 0,
            "TANGENT": 2,
            "TEXCOORD_0": 3
          },
          "indices": 4,
          "material": 0,
          "mode": 4
        }
      ]
    },
    {
      "primitives": [
        {
          "attributes": {
            "NORMAL": 6,
            "POSITION": 5,
            "TANGENT": 7,
            "TEXCOORD_0": 8
          },
          "indices": 9,
          "material": 0,
          "mode": 4
        }
      ]
    }
  ],
  "nodes": [
    {
      "children": [
        1,
        2
      ],
      "name": "EnemyToBigArrowMark",
      "rotation": [
        0.0,
        0.0,
        0.0,
        1.0
      ],
      "scale": [
        0.8513679504394531,
        0.3686554729938507,
        0.8513679504394531
      ],
      "translation": [
        -1.5012000799179077,
        0.4320839047431946,
        -3.6329498291015625
      ]
    },
    {
      "mesh": 1,
      "name": "mawari",
      "rotation": [
        0.0,
        0.0,
        0.0,
        1.0
      ],
      "scale": [
        1.0,
        1.0,
        1.0
      ],
      "translation": [
        0.0,
        0.7995299696922302,
        0.0
      ]
    },
    {
      "mesh": 0,
      "name": "jimen",
      "rotation": [
        0.0,
        0.0,
        0.0,
        1.0
      ],
      "scale": [
        1.0,
        1.0,
        1.0
      ],
      "translation": [
        0.0,
        0.0,
        0.0
      ]
    }
  ],
  "samplers": [
    {
      "wrapS": 10497,
      "wrapT": 10497
    }
  ],
  "scenes": [
    {
      "nodes": [
        0
      ]
    }
  ],
  "textures": [
    {
      "sampler": 0,
      "source": 0
    },
    {
      "sampler": 0,
      "source": 1
    }
  ]
}
