{
  "accessors": [
    {
      "bufferView": 0,
      "componentType": 5126,
      "count": 42,
      "max": [
        1.53600013256073,
        5.272424221038818,
        1.536000370979309
      ],
      "min": [
        -1.5360007286071777,
        1.2792481184005737,
        -1.5360010862350464
      ],
      "type": "VEC3"
    },
    {
      "bufferView": 1,
      "componentType": 5126,
      "count": 42,
      "max": [
        1.0,
        0.00010000590555137023,
        1.0
      ],
      "min": [
        -1.0,
        0.0,
        -1.0
      ],
      "type": "VEC3"
    },
    {
      "bufferView": 2,
      "componentType": 5126,
      "count": 42,
      "max": [
        1.0,
        1.868672188720666e-05,
        1.0,
        1.0
      ],
      "min": [
        -1.0,
        -4.750756943394663e-06,
        -1.0,
        -1.0
      ],
      "type": "VEC4"
    },
    {
      "bufferView": 3,
      "componentType": 5126,
      "count": 42,
      "max": [
        0.989427924156189,
        0.9892652034759521
      ],
      "min": [
        0.01057213544845581,
        0.8131660223007202
      ],
      "type": "VEC2"
    },
    {
      "bufferView": 4,
      "componentType": 5125,
      "count": 120,
      "max": [
        41
      ],
      "min": [
        0
      ],
      "type": "SCALAR"
    }
  ],
  "asset": {
    "version": "2.0"
  },
  "bufferViews": [
    {
      "buffer": 0,
      "byteLength": 504,
      "target": 34962
    },
    {
      "buffer": 0,
      "byteLength": 504,
      "byteOffset": 504,
      "target": 34962
    },
    {
      "buffer": 0,
      "byteLength": 672,
      "byteOffset": 1008,
      "target": 34962
    },
    {
      "buffer": 0,
      "byteLength": 336,
      "byteOffset": 1680,
      "target": 34962
    },
    {
      "buffer": 0,
      "byteLength": 480,
      "byteOffset": 2016,
      "target": 34963
    }
  ],
  "buffers": [
    {
      "byteLength": 2496,
      "uri": "data:application/octet-stream;base64,"
    }
  ],
  "images": [
    {
      "uri": "M_EnemyToBigArrowMark_BaseColor.png"
    },
    {
      "uri": "M_EnemyToBigArrowMark_Opacity.png"
    }
  ],
  "materials": [
    {
      "alphaMode": "BLEND",
      "name": "M_EnemyToBigArrowMark",
      "normalTexture": {
        "index": 1
      },
      "pbrMetallicRoughness": {
        "baseColorFactor": [
          1.0,
          0.9999899864196777,
          0.9999899864196777,
          1.0
        ],
        "baseColorTexture": {
          "index": 0
        },
        "metallicFactor": 0.0
      }
    }
  ],
  "meshes": [
    {
      "primitives": [
        {
          "attributes": {
            "NORMAL": 1,
            "POSITION": 0,
            "TANGENT": 2,
            "TEXCOORD_0": 3
          },
          "indices": 4,
          "material": 0,
          "mode": 4
        }
      ]
    }
  ],
  "nodes": [
    {
      "mesh": 0,
      "name": "mawari",
      "rotation": [
        0.0,
        0.0,
        0.0,
        1.0
      ],
      "scale": [
        1.0,
        1.0,
        1.0
      ],
      "translation": [
        0.0,
        -1.8752855062484741,
        0.0
      ]
    },
    {
      "children": [
        0
      ],
      "name": "EnemyToBigArrowMark",
      "rotation": [
        0.0,
        0.0,
        0.0,
        1.0
      ],
      "scale": [
        0.8513679504394531,
        0.3686554729938507,
        0.8513679504394531
      ],
      "translation": [
        0.0,
        0.6913342475891113,
        0.0
      ]
    }
  ],
  "samplers": [
    {
      "wrapS": 10497,
      "wrapT": 10497
    }
  ],
  "scenes": [
    {
      "nodes": [
        1
      ]
    }
  ],
  "textures": [
    {
      "sampler": 0,
      "source": 0
    },
    {
      "sampler": 0,
      "source": 1
    }
  ]
}
