{
  "accessors": [
    {
      "bufferView": 0,
      "componentType": 5126,
      "count": 726,
      "max": [
        1.667210578918457,
        0.39951154589653015,
        0.3995119631290436
      ],
      "min": [
        -1.667210578918457,
        -0.399511456489563,
        -0.39975011348724365
      ],
      "type": "VEC3"
    },
    {
      "bufferView": 1,
      "componentType": 5126,
      "count": 726,
      "max": [
        1.0,
        0.9999936819076538,
        0.999993622303009
      ],
      "min": [
        -1.0,
        -0.9999936819076538,
        -0.999993622303009
      ],
      "type": "VEC3"
    },
    {
      "bufferView": 2,
      "componentType": 5126,
      "count": 726,
      "max": [
        1.0,
        0.9999936819076538,
        0.9999936819076538,
        1.0
      ],
      "min": [
        -1.0,
        -0.999993622303009,
        -0.9999936819076538,
        1.0
      ],
      "type": "VEC4"
    },
    {
      "bufferView": 3,
      "componentType": 5126,
      "count": 726,
      "max": [
        1.0,
        1.0
      ],
      "min": [
        0.0,
        0.0
      ],
      "type": "VEC2"
    },
    {
      "bufferView": 4,
      "componentType": 5125,
      "count": 1320,
      "max": [
        725
      ],
      "min": [
        0
      ],
      "type": "SCALAR"
    }
  ],
  "asset": {
    "version": "2.0"
  },
  "bufferViews": [
    {
      "buffer": 0,
      "byteLength": 8712,
      "target": 34962
    },
    {
      "buffer": 0,
      "byteLength": 8712,
      "byteOffset": 8712,
      "target": 34962
    },
    {
      "buffer": 0,
      "byteLength": 11616,
      "byteOffset": 17424,
      "target": 34962
    },
    {
      "buffer": 0,
      "byteLength": 5808,
      "byteOffset": 29040,
      "target": 34962
    },
    {
      "buffer": 0,
      "byteLength": 5280,
      "byteOffset": 34848,
      "target": 34963
    }
  ],
  "buffers": [
    {
      "byteLength": 40128,
      "uri": "data:application/octet-stream;base64,"
    }
  ],
  "materials": [
    {
      "name": "m_oden2",
      "pbrMetallicRoughness": {
        "baseColorFactor": [
          0.5868725776672363,
          0.423421174287796,
          0.18127340078353882,
          1.0
        ],
        "metallicFactor": 0.0
      }
    }
  ],
  "meshes": [
    {
      "primitives": [
        {
          "attributes": {
            "NORMAL": 1,
            "POSITION": 0,
            "TANGENT": 2,
            "TEXCOORD_0": 3
          },
          "indices": 4,
          "material": 0,
          "mode": 4
        }
      ]
    }
  ],
  "nodes": [
    {
      "mesh": 0,
      "name": "Oden_Goboten",
      "rotation": [
        0.0,
        0.0,
        0.0,
        1.0
      ],
      "scale": [
        1.0,
        1.0,
        1.0
      ],
      "translation": [
        0.0,
        0.0,
        0.0
      ]
    }
  ],
  "samplers": [
    {
      "wrapS": 10497,
      "wrapT": 10497
    }
  ],
  "scenes": [
    {
      "nodes": [
        0
      ]
    }
  ]
}
