{
  "accessors": [
    {
      "bufferView": 0,
      "componentType": 5126,
      "count": 439,
      "max": [
        0.20000000298023224,
        0.3293893337249756,
        0.20000003278255463
      ],
      "min": [
        -0.20000004768371582,
        -0.20000000298023224,
        -0.2000000923871994
      ],
      "type": "VEC3"
    },
    {
      "bufferView": 1,
      "componentType": 5126,
      "count": 439,
      "max": [
        1.0,
        1.0,
        1.0
      ],
      "min": [
        -1.0,
        -1.0,
        -1.0
      ],
      "type": "VEC3"
    },
    {
      "bufferView": 2,
      "componentType": 5126,
      "count": 439,
      "max": [
        1.0,
        0.0786905512213707,
        1.0,
        1.0
      ],
      "min": [
        -1.0,
        -0.07869064807891846,
        -1.0,
        1.0
      ],
      "type": "VEC4"
    },
    {
      "bufferView": 3,
      "componentType": 5126,
      "count": 439,
      "max": [
        1.0000001192092896,
        1.0
      ],
      "min": [
        0.0,
        0.0
      ],
      "type": "VEC2"
    },
    {
      "bufferView": 4,
      "componentType": 5125,
      "count": 2280,
      "max": [
        438
      ],
      "min": [
        0
      ],
      "type": "SCALAR"
    }
  ],
  "asset": {
    "version": "2.0"
  },
  "bufferViews": [
    {
      "buffer": 0,
      "byteLength": 5268,
      "target": 34962
    },
    {
      "buffer": 0,
      "byteLength": 5268,
      "byteOffset": 5268,
      "target": 34962
    },
    {
      "buffer": 0,
      "byteLength": 7024,
      "byteOffset": 10536,
      "target": 34962
    },
    {
      "buffer": 0,
      "byteLength": 3512,
      "byteOffset": 17560,
      "target": 34962
    },
    {
      "buffer": 0,
      "byteLength": 9120,
      "byteOffset": 21072,
      "target": 34963
    }
  ],
  "buffers": [
    {
      "byteLength": 30192,
      "uri": "Oden_Egg.bin"
    }
  ],
  "materials": [
    {
      "name": "m_oden",
      "pbrMetallicRoughness": {
        "baseColorFactor": [
          1.0,
          0.998017430305481,
          0.9266409277915955,
          1.0
        ],
        "metallicFactor": 0.0
      }
    }
  ],
  "meshes": [
    {
      "primitives": [
        {
          "attributes": {
            "NORMAL": 1,
            "POSITION": 0,
            "TANGENT": 2,
            "TEXCOORD_0": 3
          },
          "indices": 4,
          "material": 0,
          "mode": 4
        }
      ]
    }
  ],
  "nodes": [
    {
      "mesh": 0,
      "name": "Oden_Egg",
      "rotation": [
        0.0,
        0.0,
        0.0,
        1.0
      ],
      "scale": [
        3.6199593544006348,
        3.6199593544006348,
        3.6199593544006348
      ],
      "translation": [
        0.0,
        0.0,
        0.0
      ]
    }
  ],
  "samplers": [
    {
      "wrapS": 10497,
      "wrapT": 10497
    }
  ],
  "scenes": [
    {
      "nodes": [
        0
      ]
    }
  ]
}
