{
  "accessors": [
    {
      "bufferView": 0,
      "componentType": 5126,
      "count": 422,
      "max": [
        0.7480144500732422,
        0.7480144500732422,
        0.7480145692825317
      ],
      "min": [
        -0.7480146288871765,
        -0.7480144500732422,
        -0.7480148077011108
      ],
      "type": "VEC3"
    },
    {
      "bufferView": 1,
      "componentType": 5126,
      "count": 422,
      "max": [
        1.0,
        1.0,
        1.0
      ],
      "min": [
        -1.0,
        -1.0,
        -1.0
      ],
      "type": "VEC3"
    },
    {
      "bufferView": 2,
      "componentType": 5126,
      "count": 422,
      "max": [
        0.9997198581695557,
        0.4380553364753723,
        0.9989116787910461,
        1.0
      ],
      "min": [
        -8.740099133319745e-07,
        -0.4380502998828888,
        -0.9989117383956909,
        1.0
      ],
      "type": "VEC4"
    },
    {
      "bufferView": 3,
      "componentType": 5126,
      "count": 422,
      "max": [
        0.9889224171638489,
        0.5588842034339905
      ],
      "min": [
        0.4779391884803772,
        0.30698394775390625
      ],
      "type": "VEC2"
    },
    {
      "bufferView": 4,
      "componentType": 5125,
      "count": 2280,
      "max": [
        421
      ],
      "min": [
        0
      ],
      "type": "SCALAR"
    }
  ],
  "asset": {
    "version": "2.0"
  },
  "bufferViews": [
    {
      "buffer": 0,
      "byteLength": 5064,
      "target": 34962
    },
    {
      "buffer": 0,
      "byteLength": 5064,
      "byteOffset": 5064,
      "target": 34962
    },
    {
      "buffer": 0,
      "byteLength": 6752,
      "byteOffset": 10128,
      "target": 34962
    },
    {
      "buffer": 0,
      "byteLength": 3376,
      "byteOffset": 16880,
      "target": 34962
    },
    {
      "buffer": 0,
      "byteLength": 9120,
      "byteOffset": 20256,
      "target": 34963
    }
  ],
  "buffers": [
    {
      "byteLength": 29376,
      "uri": "data:application/octet-stream;base64,"
    }
  ],
  "images": [
    {
      "uri": "m_oden_BaseColo.png"
    }
  ],
  "materials": [
    {
      "name": "m_oden1",
      "pbrMetallicRoughness": {
        "baseColorFactor": [
          0.800000011920929,
          0.800000011920929,
          0.800000011920929,
          1.0
        ],
        "baseColorTexture": {
          "index": 0
        },
        "metallicFactor": 0.0
      }
    }
  ],
  "meshes": [
    {
      "primitives": [
        {
          "attributes": {
            "NORMAL": 1,
            "POSITION": 0,
            "TANGENT": 2,
            "TEXCOORD_0": 3
          },
          "indices": 4,
          "material": 0,
          "mode": 4
        }
      ]
    }
  ],
  "nodes": [
    {
      "children": [
        1
      ],
      "name": "oden1",
      "rotation": [
        0.0,
        0.0,
        0.0,
        1.0
      ],
      "scale": [
        1.0,
        1.0,
        1.0
      ],
      "translation": [
        0.0,
        0.0,
        0.0
      ]
    },
    {
      "mesh": 0,
      "name": "Oden_Tukune",
      "rotation": [
        0.0,
        0.0,
        0.0,
        1.0
      ],
      "scale": [
        1.0,
        1.0,
        1.0
      ],
      "translation": [
        0.0,
        0.0,
        0.0
      ]
    }
  ],
  "samplers": [
    {
      "wrapS": 10497,
      "wrapT": 10497
    }
  ],
  "scenes": [
    {
      "nodes": [
        0
      ]
    }
  ],
  "textures": [
    {
      "sampler": 0,
      "source": 0
    }
  ]
}
