{
  "accessors": [
    {
      "bufferView": 0,
      "componentType": 5126,
      "count": 22,
      "max": [
        0.72754967212677,
        0.30000001192092896,
        1.0
      ],
      "min": [
        -0.72754967212677,
        -0.30000001192092896,
        -1.0
      ],
      "type": "VEC3"
    },
    {
      "bufferView": 1,
      "componentType": 5126,
      "count": 22,
      "max": [
        1.0,
        1.0,
        0.824142575263977
      ],
      "min": [
        -0.5663824081420898,
        -1.0,
        -0.824142575263977
      ],
      "type": "VEC3"
    },
    {
      "bufferView": 2,
      "componentType": 5126,
      "count": 22,
      "max": [
        0.9836669564247131,
        0.11718600243330002,
        0.5663824081420898,
        1.0
      ],
      "min": [
        0.0,
        -0.12371478974819183,
        -1.0,
        1.0
      ],
      "type": "VEC4"
    },
    {
      "bufferView": 3,
      "componentType": 5126,
      "count": 22,
      "max": [
        0.875,
        1.0
      ],
      "min": [
        0.2500000596046448,
        0.0
      ],
      "type": "VEC2"
    },
    {
      "bufferView": 4,
      "componentType": 5125,
      "count": 36,
      "max": [
        21
      ],
      "min": [
        0
      ],
      "type": "SCALAR"
    }
  ],
  "asset": {
    "version": "2.0"
  },
  "bufferViews": [
    {
      "buffer": 0,
      "byteLength": 264,
      "target": 34962
    },
    {
      "buffer": 0,
      "byteLength": 264,
      "byteOffset": 264,
      "target": 34962
    },
    {
      "buffer": 0,
      "byteLength": 352,
      "byteOffset": 528,
      "target": 34962
    },
    {
      "buffer": 0,
      "byteLength": 176,
      "byteOffset": 880,
      "target": 34962
    },
    {
      "buffer": 0,
      "byteLength": 144,
      "byteOffset": 1056,
      "target": 34963
    }
  ],
  "buffers": [
    {
      "byteLength": 1200,
      "uri": "data:application/octet-stream;base64,"
    }
  ],
  "materials": [
    {
      "name": "m_oden",
      "pbrMetallicRoughness": {
        "baseColorFactor": [
          1.0,
          0.9944842457771301,
          0.96138995885849,
          1.0
        ],
        "metallicFactor": 0.0
      }
    }
  ],
  "meshes": [
    {
      "primitives": [
        {
          "attributes": {
            "NORMAL": 1,
            "POSITION": 0,
            "TANGENT": 2,
            "TEXCOORD_0": 3
          },
          "indices": 4,
          "material": 0,
          "mode": 4
        }
      ]
    }
  ],
  "nodes": [
    {
      "mesh": 0,
      "name": "Oden_Konnyaku",
      "rotation": [
        -0.0,
        -0.7071067690849304,
        0.0,
        0.7071067690849304
      ],
      "scale": [
        1.0,
        1.0,
        1.0
      ],
      "translation": [
        -7.156355716480479e-17,
        0.0,
        -0.16114680469036102
      ]
    }
  ],
  "samplers": [
    {
      "wrapS": 10497,
      "wrapT": 10497
    }
  ],
  "scenes": [
    {
      "nodes": [
        0
      ]
    }
  ]
}
