{
  "accessors": [
    {
      "bufferView": 2,
      "componentType": 5126,
      "count": 565,
      "max": [
        7.602260112762451,
        0.0373939648270607,
        1.036430408163369e-08
      ],
      "min": [
        -7.602260112762451,
        -0.35876041650772095,
        -15.792579650878906
      ],
      "type": "VEC3"
    },
    {
      "bufferView": 2,
      "byteOffset": 6780,
      "componentType": 5126,
      "count": 565,
      "max": [
        0.6998425722122192,
        -0.7134237885475159,
        0.5452244281768799
      ],
      "min": [
        -0.6378050446510315,
        -0.9999918341636658,
        -0.043131209909915924
      ],
      "type": "VEC3"
    },
    {
      "bufferView": 1,
      "componentType": 5126,
      "count": 565,
      "max": [
        0.9705536961555481,
        1.0
      ],
      "min": [
        0.062757708132267,
        3.255568799431785e-06
      ],
      "type": "VEC2"
    },
    {
      "bufferView": 1,
      "byteOffset": 4520,
      "componentType": 5126,
      "count": 565,
      "max": [
        0.9705536961555481,
        1.0
      ],
      "min": [
        0.062757708132267,
        3.255568799431785e-06
      ],
      "type": "VEC2"
    },
    {
      "bufferView": 1,
      "byteOffset": 9040,
      "componentType": 5126,
      "count": 565,
      "max": [
        0.9705536961555481,
        1.0
      ],
      "min": [
        0.062757708132267,
        3.255568799431785e-06
      ],
      "type": "VEC2"
    },
    {
      "bufferView": 0,
      "componentType": 5125,
      "count": 2757,
      "type": "SCALAR"
    },
    {
      "bufferView": 2,
      "byteOffset": 13560,
      "componentType": 5126,
      "count": 1615,
      "max": [
        8.658074378967285,
        2.4916491508483887,
        0.3585844933986664
      ],
      "min": [
        -8.658074378967285,
        -0.6444239616394043,
        -13.20640754699707
      ],
      "type": "VEC3"
    },
    {
      "bufferView": 2,
      "byteOffset": 32940,
      "componentType": 5126,
      "count": 1615,
      "max": [
        1.0,
        1.0,
        1.0
      ],
      "min": [
        -1.0,
        -0.9998175501823425,
        -1.0
      ],
      "type": "VEC3"
    },
    {
      "bufferView": 1,
      "byteOffset": 13560,
      "componentType": 5126,
      "count": 1615,
      "max": [
        1.0,
        1.0
      ],
      "min": [
        0.0,
        0.0
      ],
      "type": "VEC2"
    },
    {
      "bufferView": 1,
      "byteOffset": 26480,
      "componentType": 5126,
      "count": 1615,
      "max": [
        1.0,
        1.0
      ],
      "min": [
        0.0,
        0.0
      ],
      "type": "VEC2"
    },
    {
      "bufferView": 0,
      "byteOffset": 11028,
      "componentType": 5125,
      "count": 4245,
      "type": "SCALAR"
    },
    {
      "bufferView": 2,
      "byteOffset": 52320,
      "componentType": 5126,
      "count": 1210,
      "max": [
        7.602260112762451,
        -0.10458487272262573,
        0.0
      ],
      "min": [
        -7.602260112762451,
        -0.9571772813796997,
        -15.824418067932129
      ],
      "type": "VEC3"
    },
    {
      "bufferView": 2,
      "byteOffset": 66840,
      "componentType": 5126,
      "count": 1210,
      "max": [
        0.9843965768814087,
        0.9990334510803223,
        0.9974434971809387
      ],
      "min": [
        -0.9959694743156433,
        -0.9999532103538513,
        -0.9984437823295593
      ],
      "type": "VEC3"
    },
    {
      "bufferView": 1,
      "byteOffset": 39400,
      "componentType": 5126,
      "count": 1210,
      "max": [
        0.977584958076477,
        0.9999485015869141
      ],
      "min": [
        -0.006834426894783974,
        -0.00019410261302255094
      ],
      "type": "VEC2"
    },
    {
      "bufferView": 1,
      "byteOffset": 49080,
      "componentType": 5126,
      "count": 1210,
      "max": [
        0.977584958076477,
        0.9999485015869141
      ],
      "min": [
        -0.006834426894783974,
        -0.00019410261302255094
      ],
      "type": "VEC2"
    },
    {
      "bufferView": 1,
      "byteOffset": 58760,
      "componentType": 5126,
      "count": 1210,
      "max": [
        0.977584958076477,
        0.9999485015869141
      ],
      "min": [
        -0.006834426894783974,
        -0.00019410261302255094
      ],
      "type": "VEC2"
    },
    {
      "bufferView": 0,
      "byteOffset": 28008,
      "componentType": 5125,
      "count": 6489,
      "type": "SCALAR"
    }
  ],
  "asset": {
    "extras": {
      "author": "CommunicationNode (https://sketchfab.com/Starven38)",
      "license": "CC-BY-4.0 (http://creativecommons.org/licenses/by/4.0/)",
      "source": "https://sketchfab.com/3d-models/curtain-a-prop-e5b01c717dbd4244b861168eddd67375",
      "title": "Curtain a prop"
    },
    "generator": "Sketchfab-16.74.0",
    "version": "2.0"
  },
  "bufferViews": [
    {
      "buffer": 0,
      "byteLength": 53964,
      "name": "floatBufferViews",
      "target": 34963
    },
    {
      "buffer": 0,
      "byteLength": 68440,
      "byteOffset": 53964,
      "byteStride": 8,
      "name": "floatBufferViews",
      "target": 34962
    },
    {
      "buffer": 0,
      "byteLength": 81360,
      "byteOffset": 122404,
      "byteStride": 12,
      "name": "floatBufferViews",
      "target": 34962
    }
  ],
  "buffers": [
    {
      "byteLength": 203764,
      "uri": "scene.bin"
    }
  ],
  "extensionsUsed": [
    "KHR_materials_clearcoat",
    "KHR_materials_specular"
  ],
  "images": [
    {
      "uri": "textures/curtain_main_mat_baseColor.png"
    },
    {
      "uri": "textures/curtain_main_mat_clearcoat_roughness.png"
    },
    {
      "uri": "textures/curtain_wood_baseColor.jpeg"
    },
    {
      "uri": "textures/curtain_foreground_mat_baseColor.png"
    }
  ],
  "materials": [
    {
      "alphaMode": "BLEND",
      "doubleSided": true,
      "extensions": {
        "KHR_materials_clearcoat": {
          "clearcoatFactor": 1.0,
          "clearcoatRoughnessFactor": 1.0,
          "clearcoatRoughnessTexture": {
            "index": 1
          }
        },
        "KHR_materials_specular": {
          "specularColorFactor": [
            1.0,
            1.0,
            1.0
          ],
          "specularFactor": 0.18742914264119662
        }
      },
      "name": "curtain_main_mat",
      "pbrMetallicRoughness": {
        "baseColorFactor": [
          1.0,
          1.0,
          1.0,
          0.9554314832197583
        ],
        "baseColorTexture": {
          "index": 0
        },
        "metallicFactor": 0.4739062061903426,
        "roughnessFactor": 0.4434299228340505
      }
    },
    {
      "doubleSided": true,
      "extensions": {
        "KHR_materials_clearcoat": {
          "clearcoatFactor": 0.21790542599748874,
          "clearcoatRoughnessFactor": 0.937145713205983
        }
      },
      "name": "curtain_wood",
      "pbrMetallicRoughness": {
        "baseColorTexture": {
          "index": 2
        },
        "metallicFactor": 0.0,
        "roughnessFactor": 0.8591533805969142
      }
    },
    {
      "alphaMode": "BLEND",
      "doubleSided": true,
      "extensions": {
        "KHR_materials_clearcoat": {
          "clearcoatFactor": 0.19352439931245502,
          "clearcoatRoughnessFactor": 0.8091453231095561
        },
        "KHR_materials_specular": {
          "specularColorFactor": [
            1.0,
            1.0,
            1.0
          ],
          "specularFactor": 0.16914337262742132
        }
      },
      "name": "curtain_foreground_mat",
      "pbrMetallicRoughness": {
        "baseColorFactor": [
          1.0,
          1.0,
          1.0,
          0.9798125099047921
        ],
        "baseColorTexture": {
          "index": 3
        },
        "metallicFactor": 0.22400068266874718,
        "roughnessFactor": 0.35809632943643255
      }
    }
  ],
  "meshes": [
    {
      "name": "curtain_prop_curtain_main_mat_0",
      "primitives": [
        {
          "attributes": {
            "NORMAL": 1,
            "POSITION": 0,
            "TEXCOORD_0": 2,
            "TEXCOORD_1": 3,
            "TEXCOORD_2": 4
          },
          "indices": 5,
          "material": 0,
          "mode": 4
        }
      ]
    },
    {
      "name": "curtain_prop_curtain_wood_0",
      "primitives": [
        {
          "attributes": {
            "NORMAL": 7,
            "POSITION": 6,
            "TEXCOORD_0": 8,
            "TEXCOORD_1": 9
          },
          "indices": 10,
          "material": 1,
          "mode": 4
        }
      ]
    },
    {
      "name": "curtain_prop_curtain_foreground_mat_0",
      "primitives": [
        {
          "attributes": {
            "NORMAL": 12,
            "POSITION": 11,
            "TEXCOORD_0": 13,
            "TEXCOORD_1": 14,
            "TEXCOORD_2": 15
          },
          "indices": 16,
          "material": 2,
          "mode": 4
        }
      ]
    }
  ],
  "nodes": [
    {
      "children": [
        1
      ],
      "matrix": [
        1.0,
        0.0,
        0.0,
        0.0,
        0.0,
        2.220446049250313e-16,
        -1.0,
        0.0,
        0.0,
        1.0,
        2.220446049250313e-16,
        0.0,
        0.0,
        0.0,
        0.0,
        1.0
      ],
      "name": "Sketchfab_model"
    },
    {
      "children": [
        2
      ],
      "matrix": [
        1.0,
        0.0,
        0.0,
        0.0,
        0.0,
        0.0,
        1.0,
        0.0,
        0.0,
        -1.0,
        0.0,
        0.0,
        0.0,
        0.0,
        0.0,
        1.0
      ],
      "name": "ff0bf3ceb1014910bb5fb75bbfc1b8b8.fbx"
    },
    {
      "children": [
        3
      ],
      "name": "RootNode"
    },
    {
      "children": [
        4,
        5,
        6
      ],
      "matrix": [
        100.0,
        0.0,
        0.0,
        0.0,
        0.0,
        -2.8212996916465727e-05,
        -99.99999999999602,
        0.0,
        0.0,
        99.99999999999602,
        -2.8212996916465727e-05,
        0.0,
        0.0,
        0.0,
        0.0,
        1.0
      ],
      "name": "curtain_prop"
    },
    {
      "mesh": 0,
      "name": "curtain_prop_curtain_main_mat_0"
    },
    {
      "mesh": 1,
      "name": "curtain_prop_curtain_wood_0"
    },
    {
      "mesh": 2,
      "name": "curtain_prop_curtain_foreground_mat_0"
    }
  ],
  "samplers": [
    {
      "magFilter": 9729,
      "minFilter": 9987,
      "wrapS": 10497,
      "wrapT": 10497
    }
  ],
  "scene": 0,
  "scenes": [
    {
      "name": "Sketchfab_Scene",
      "nodes": [
        0
      ]
    }
  ],
  "textures": [
    {
      "sampler": 0,
      "source": 0
    },
    {
      "sampler": 0,
      "source": 1
    },
    {
      "sampler": 0,
      "source": 2
    },
    {
      "sampler": 0,
      "source": 3
    }
  ]
}
