{
  "accessors": [
    {
      "bufferView": 0,
      "componentType": 5126,
      "count": 692,
      "max": [
        -68.5438232421875,
        63.091365814208984,
        -5.44559907913208
      ],
      "min": [
        -77.19361877441406,
        51.878997802734375,
        -18.087045669555664
      ],
      "type": "VEC3"
    },
    {
      "bufferView": 1,
      "componentType": 5126,
      "count": 692,
      "max": [
        0.9973065853118896,
        1.0,
        0.9961823225021362
      ],
      "min": [
        -0.9962265491485596,
        -1.0,
        -0.999704122543335
      ],
      "type": "VEC3"
    },
    {
      "bufferView": 2,
      "componentType": 5126,
      "count": 692,
      "max": [
        0.9999920129776001,
        1.0,
        0.9993123412132263,
        1.0
      ],
      "min": [
        -0.9999967813491821,
        -1.0,
        -0.9943029284477234,
        -1.0
      ],
      "type": "VEC4"
    },
    {
      "bufferView": 3,
      "componentType": 5126,
      "count": 692,
      "max": [
        0.998507022857666,
        0.9990744590759277
      ],
      "min": [
        0.0024151764810085297,
        0.0018485188484191895
      ],
      "type": "VEC2"
    },
    {
      "bufferView": 4,
      "componentType": 5125,
      "count": 2016,
      "max": [
        691
      ],
      "min": [
        0
      ],
      "type": "SCALAR"
    },
    {
      "bufferView": 5,
      "componentType": 5126,
      "count": 710,
      "max": [
        95.3514633178711,
        62.20344161987305,
        -5.500820159912109
      ],
      "min": [
        86.70166778564453,
        51.878997802734375,
        -18.087045669555664
      ],
      "type": "VEC3"
    },
    {
      "bufferView": 6,
      "componentType": 5126,
      "count": 710,
      "max": [
        0.9887869954109192,
        1.0,
        0.9996423125267029
      ],
      "min": [
        -0.9982874989509583,
        -1.0,
        -0.9997023940086365
      ],
      "type": "VEC3"
    },
    {
      "bufferView": 7,
      "componentType": 5126,
      "count": 710,
      "max": [
        0.9999983906745911,
        1.0,
        0.9941794276237488,
        1.0
      ],
      "min": [
        -0.9999925494194031,
        -0.9998095035552979,
        -0.9943841099739075,
        -1.0
      ],
      "type": "VEC4"
    },
    {
      "bufferView": 8,
      "componentType": 5126,
      "count": 710,
      "max": [
        0.996627151966095,
        0.996004045009613
      ],
      "min": [
        0.004081659018993378,
        0.004854261875152588
      ],
      "type": "VEC2"
    },
    {
      "bufferView": 9,
      "componentType": 5125,
      "count": 2016,
      "max": [
        709
      ],
      "min": [
        0
      ],
      "type": "SCALAR"
    },
    {
      "bufferView": 10,
      "componentType": 5126,
      "count": 660,
      "max": [
        89.52945709228516,
        63.091365814208984,
        -26.98166275024414
      ],
      "min": [
        78.34664916992188,
        51.878997802734375,
        -40.36832046508789
      ],
      "type": "VEC3"
    },
    {
      "bufferView": 11,
      "componentType": 5126,
      "count": 660,
      "max": [
        0.9423533082008362,
        1.0,
        0.9701308608055115
      ],
      "min": [
        -0.9670032262802124,
        -1.0,
        -0.9640665054321289
      ],
      "type": "VEC3"
    },
    {
      "bufferView": 12,
      "componentType": 5126,
      "count": 660,
      "max": [
        0.9999980926513672,
        1.0,
        0.9769673347473145,
        1.0
      ],
      "min": [
        -0.996525228023529,
        -0.9993743896484375,
        -0.9889095425605774,
        -1.0
      ],
      "type": "VEC4"
    },
    {
      "bufferView": 13,
      "componentType": 5126,
      "count": 660,
      "max": [
        0.9981065392494202,
        0.997047483921051
      ],
      "min": [
        0.00699845515191555,
        0.006711602210998535
      ],
      "type": "VEC2"
    },
    {
      "bufferView": 14,
      "componentType": 5125,
      "count": 2016,
      "max": [
        659
      ],
      "min": [
        0
      ],
      "type": "SCALAR"
    },
    {
      "bufferView": 15,
      "componentType": 5126,
      "count": 671,
      "max": [
        93.27393341064453,
        63.091365814208984,
        -16.420167922973633
      ],
      "min": [
        83.25328063964844,
        51.878997802734375,
        -29.540800094604492
      ],
      "type": "VEC3"
    },
    {
      "bufferView": 16,
      "componentType": 5126,
      "count": 671,
      "max": [
        0.9810813069343567,
        1.0,
        0.9947081804275513
      ],
      "min": [
        -0.9803924560546875,
        -1.0,
        -0.9919403791427612
      ],
      "type": "VEC3"
    },
    {
      "bufferView": 17,
      "componentType": 5126,
      "count": 671,
      "max": [
        0.9999979734420776,
        1.0,
        0.9982060194015503,
        1.0
      ],
      "min": [
        -0.9999926686286926,
        -0.9997351765632629,
        -0.9980700016021729,
        -1.0
      ],
      "type": "VEC4"
    },
    {
      "bufferView": 18,
      "componentType": 5126,
      "count": 671,
      "max": [
        0.9980396628379822,
        0.9994498491287231
      ],
      "min": [
        0.004748709499835968,
        0.003021061420440674
      ],
      "type": "VEC2"
    },
    {
      "bufferView": 19,
      "componentType": 5125,
      "count": 2013,
      "max": [
        670
      ],
      "min": [
        0
      ],
      "type": "SCALAR"
    },
    {
      "bufferView": 20,
      "componentType": 5126,
      "count": 664,
      "max": [
        21.986492156982422,
        80.18244171142578,
        -79.34107208251953
      ],
      "min": [
        -2.0361738204956055,
        46.23186492919922,
        -82.80842590332031
      ],
      "type": "VEC3"
    },
    {
      "bufferView": 21,
      "componentType": 5126,
      "count": 664,
      "max": [
        1.0,
        1.0,
        1.0
      ],
      "min": [
        -1.0,
        -1.0,
        -1.0
      ],
      "type": "VEC3"
    },
    {
      "bufferView": 22,
      "componentType": 5126,
      "count": 664,
      "max": [
        1.0,
        1.0,
        1.0,
        1.0
      ],
      "min": [
        -0.5619429349899292,
        -0.9999971985816956,
        -1.0,
        -1.0
      ],
      "type": "VEC4"
    },
    {
      "bufferView": 23,
      "componentType": 5126,
      "count": 664,
      "max": [
        0.9931465983390808,
        0.9988669157028198
      ],
      "min": [
        0.001744687557220459,
        0.002740621566772461
      ],
      "type": "VEC2"
    },
    {
      "bufferView": 24,
      "componentType": 5125,
      "count": 1788,
      "max": [
        663
      ],
      "min": [
        0
      ],
      "type": "SCALAR"
    },
    {
      "bufferView": 25,
      "componentType": 5126,
      "count": 357,
      "max": [
        0.25,
        0.25,
        0.25
      ],
      "min": [
        -0.25,
        -4.506824970245361,
        -0.24999988079071045
      ],
      "type": "VEC3"
    },
    {
      "bufferView": 26,
      "componentType": 5126,
      "count": 357,
      "max": [
        1.0,
        1.0,
        1.0
      ],
      "min": [
        -1.0,
        -1.0,
        -1.0
      ],
      "type": "VEC3"
    },
    {
      "bufferView": 27,
      "componentType": 5126,
      "count": 357,
      "max": [
        1.0,
        1.0,
        1.0,
        1.0
      ],
      "min": [
        -0.9999816417694092,
        -1.0,
        -1.0,
        -1.0
      ],
      "type": "VEC4"
    },
    {
      "bufferView": 28,
      "componentType": 5126,
      "count": 357,
      "max": [
        0.9988601207733154,
        0.9979352951049805
      ],
      "min": [
        0.003316640853881836,
        0.0003657341003417969
      ],
      "type": "VEC2"
    },
    {
      "bufferView": 29,
      "componentType": 5125,
      "count": 720,
      "max": [
        356
      ],
      "min": [
        0
      ],
      "type": "SCALAR"
    },
    {
      "bufferView": 30,
      "componentType": 5126,
      "count": 21311,
      "max": [
        143.594482421875,
        14.598442077636719,
        584.9357299804688
      ],
      "min": [
        -139.92027282714844,
        -75.2542495727539,
        -135.2541961669922
      ],
      "type": "VEC3"
    },
    {
      "bufferView": 31,
      "componentType": 5126,
      "count": 21311,
      "max": [
        1.0,
        1.0,
        1.0
      ],
      "min": [
        -1.0,
        -1.0,
        -1.0
      ],
      "type": "VEC3"
    },
    {
      "bufferView": 32,
      "componentType": 5126,
      "count": 21311,
      "max": [
        1.0,
        1.0,
        1.0,
        1.0
      ],
      "min": [
        -1.0,
        -1.0,
        -1.0,
        -1.0
      ],
      "type": "VEC4"
    },
    {
      "bufferView": 33,
      "componentType": 5126,
      "count": 21311,
      "max": [
        0.9967900514602661,
        0.9648569226264954
      ],
      "min": [
        0.001992045436054468,
        0.0019272565841674805
      ],
      "type": "VEC2"
    },
    {
      "bufferView": 34,
      "componentType": 5125,
      "count": 39780,
      "max": [
        21310
      ],
      "min": [
        0
      ],
      "type": "SCALAR"
    },
    {
      "bufferView": 35,
      "componentType": 5126,
      "count": 3937,
      "max": [
        59.75523376464844,
        0.04324054718017578,
        58.94651794433594
      ],
      "min": [
        -59.403564453125,
        -5.259016036987305,
        -60.222694396972656
      ],
      "type": "VEC3"
    },
    {
      "bufferView": 36,
      "componentType": 5126,
      "count": 3937,
      "max": [
        0.9998412132263184,
        1.0,
        0.9998683929443359
      ],
      "min": [
        -0.9998397827148438,
        -1.0,
        -0.9998379945755005
      ],
      "type": "VEC3"
    },
    {
      "bufferView": 37,
      "componentType": 5126,
      "count": 3937,
      "max": [
        0.7195577025413513,
        1.0,
        0.9218705296516418,
        1.0
      ],
      "min": [
        -0.8552318215370178,
        -1.0,
        -0.9986671209335327,
        -1.0
      ],
      "type": "VEC4"
    },
    {
      "bufferView": 38,
      "componentType": 5126,
      "count": 3937,
      "max": [
        0.9859817028045654,
        0.9954909086227417
      ],
      "min": [
        0.003067673882469535,
        0.0020742416381835938
      ],
      "type": "VEC2"
    },
    {
      "bufferView": 39,
      "componentType": 5125,
      "count": 5856,
      "max": [
        3936
      ],
      "min": [
        0
      ],
      "type": "SCALAR"
    },
    {
      "bufferView": 40,
      "componentType": 5126,
      "count": 1552,
      "max": [
        0.41990703344345093,
        0.7979183197021484,
        0.3695962429046631
      ],
      "min": [
        -0.41990742087364197,
        -0.6287552118301392,
        -0.369612455368042
      ],
      "type": "VEC3"
    },
    {
      "bufferView": 41,
      "componentType": 5126,
      "count": 1552,
      "max": [
        1.0,
        0.9999961853027344,
        1.0
      ],
      "min": [
        -1.0,
        -1.0,
        -1.0
      ],
      "type": "VEC3"
    },
    {
      "bufferView": 42,
      "componentType": 5126,
      "count": 1552,
      "max": [
        1.0,
        0.906882107257843,
        1.0,
        1.0
      ],
      "min": [
        -1.0,
        -0.9068813323974609,
        -1.0,
        -1.0
      ],
      "type": "VEC4"
    },
    {
      "bufferView": 43,
      "componentType": 5126,
      "count": 1552,
      "max": [
        0.9948853254318237,
        0.9946047067642212
      ],
      "min": [
        0.009479856118559837,
        0.008906960487365723
      ],
      "type": "VEC2"
    },
    {
      "bufferView": 44,
      "componentType": 5125,
      "count": 3516,
      "max": [
        1551
      ],
      "min": [
        0
      ],
      "type": "SCALAR"
    },
    {
      "bufferView": 45,
      "componentType": 5126,
      "count": 672,
      "max": [
        0.49259352684020996,
        1.8647942543029785,
        0.43320178985595703
      ],
      "min": [
        -0.49259376525878906,
        -0.4999980926513672,
        -0.43320751190185547
      ],
      "type": "VEC3"
    },
    {
      "bufferView": 46,
      "componentType": 5126,
      "count": 672,
      "max": [
        1.0,
        1.0,
        1.0
      ],
      "min": [
        -1.0,
        -1.0,
        -1.0
      ],
      "type": "VEC3"
    },
    {
      "bufferView": 47,
      "componentType": 5126,
      "count": 672,
      "max": [
        0.7683591842651367,
        1.0,
        1.0,
        1.0
      ],
      "min": [
        -0.9539955258369446,
        -0.9943591952323914,
        -1.0,
        -1.0
      ],
      "type": "VEC4"
    },
    {
      "bufferView": 48,
      "componentType": 5126,
      "count": 672,
      "max": [
        0.9928958415985107,
        0.992268443107605
      ],
      "min": [
        0.004854068160057068,
        0.0017213821411132813
      ],
      "type": "VEC2"
    },
    {
      "bufferView": 49,
      "componentType": 5125,
      "count": 1500,
      "max": [
        671
      ],
      "min": [
        0
      ],
      "type": "SCALAR"
    },
    {
      "bufferView": 50,
      "componentType": 5126,
      "count": 1462,
      "max": [
        0.5910406112670898,
        69.26296997070313,
        0.5910396575927734
      ],
      "min": [
        -0.5910425186157227,
        -0.6336951851844788,
        -0.5910415649414063
      ],
      "type": "VEC3"
    },
    {
      "bufferView": 51,
      "componentType": 5126,
      "count": 1462,
      "max": [
        1.0,
        1.0,
        1.0
      ],
      "min": [
        -1.0,
        -1.0,
        -1.0
      ],
      "type": "VEC3"
    },
    {
      "bufferView": 52,
      "componentType": 5126,
      "count": 1462,
      "max": [
        0.9994802474975586,
        1.0,
        0.9999998807907104,
        1.0
      ],
      "min": [
        -1.0,
        -0.9961580634117126,
        -1.0,
        -1.0
      ],
      "type": "VEC4"
    },
    {
      "bufferView": 53,
      "componentType": 5126,
      "count": 1462,
      "max": [
        0.9961987733840942,
        0.9938596487045288
      ],
      "min": [
        0.006280839443206787,
        0.005680441856384277
      ],
      "type": "VEC2"
    },
    {
      "bufferView": 54,
      "componentType": 5125,
      "count": 4680,
      "max": [
        1461
      ],
      "min": [
        0
      ],
      "type": "SCALAR"
    },
    {
      "bufferView": 55,
      "componentType": 5126,
      "count": 1592,
      "max": [
        0.7249367237091064,
        0.49976176023483276,
        0.5418208837509155
      ],
      "min": [
        -0.7249369025230408,
        -3.5758821964263916,
        -0.6947851181030273
      ],
      "type": "VEC3"
    },
    {
      "bufferView": 56,
      "componentType": 5126,
      "count": 1592,
      "max": [
        1.0,
        1.0,
        1.0
      ],
      "min": [
        -1.0,
        -1.0,
        -1.0
      ],
      "type": "VEC3"
    },
    {
      "bufferView": 57,
      "componentType": 5126,
      "count": 1592,
      "max": [
        1.0,
        1.0,
        0.9984081983566284,
        1.0
      ],
      "min": [
        -0.998632550239563,
        -0.9989450573921204,
        -0.999999463558197,
        -1.0
      ],
      "type": "VEC4"
    },
    {
      "bufferView": 58,
      "componentType": 5126,
      "count": 1592,
      "max": [
        1.0010697841644287,
        0.9957708120346069
      ],
      "min": [
        -0.00018835067749023438,
        0.0007086396217346191
      ],
      "type": "VEC2"
    },
    {
      "bufferView": 59,
      "componentType": 5125,
      "count": 3936,
      "max": [
        1591
      ],
      "min": [
        0
      ],
      "type": "SCALAR"
    },
    {
      "bufferView": 60,
      "componentType": 5126,
      "count": 43394,
      "max": [
        88.03441619873047,
        51.95428466796875,
        -9.131135940551758
      ],
      "min": [
        -87.40568542480469,
        0.04042530059814453,
        -89.61840057373047
      ],
      "type": "VEC3"
    },
    {
      "bufferView": 61,
      "componentType": 5126,
      "count": 43394,
      "max": [
        0.9992352724075317,
        1.0,
        0.9992352724075317
      ],
      "min": [
        -0.9992352724075317,
        -1.0,
        -0.9992352724075317
      ],
      "type": "VEC3"
    },
    {
      "bufferView": 62,
      "componentType": 5126,
      "count": 43394,
      "max": [
        1.0,
        1.0,
        0.9992352724075317,
        1.0
      ],
      "min": [
        -1.0,
        -0.7006610631942749,
        -1.0,
        -1.0
      ],
      "type": "VEC4"
    },
    {
      "bufferView": 63,
      "componentType": 5126,
      "count": 43394,
      "max": [
        0.9991657137870789,
        1.0044364929199219
      ],
      "min": [
        0.0018689632415771484,
        0.0019114017486572266
      ],
      "type": "VEC2"
    },
    {
      "bufferView": 64,
      "componentType": 5125,
      "count": 141600,
      "max": [
        43393
      ],
      "min": [
        0
      ],
      "type": "SCALAR"
    },
    {
      "bufferView": 65,
      "componentType": 5126,
      "count": 2911,
      "max": [
        89.16907501220703,
        47.61482620239258,
        3.3684825897216797
      ],
      "min": [
        -88.81036376953125,
        0.04042544960975647,
        -3.3715286254882813
      ],
      "type": "VEC3"
    },
    {
      "bufferView": 66,
      "componentType": 5126,
      "count": 2911,
      "max": [
        1.0,
        1.0,
        1.0
      ],
      "min": [
        -1.0,
        -1.0,
        -1.0
      ],
      "type": "VEC3"
    },
    {
      "bufferView": 67,
      "componentType": 5126,
      "count": 2911,
      "max": [
        0.9999999403953552,
        1.0,
        0.9999998807907104,
        1.0
      ],
      "min": [
        -1.0,
        -0.7029949426651001,
        -1.0,
        -1.0
      ],
      "type": "VEC4"
    },
    {
      "bufferView": 68,
      "componentType": 5126,
      "count": 2911,
      "max": [
        0.9955803751945496,
        0.9927281141281128
      ],
      "min": [
        0.005285380873829126,
        0.00646895170211792
      ],
      "type": "VEC2"
    },
    {
      "bufferView": 69,
      "componentType": 5125,
      "count": 9360,
      "max": [
        2910
      ],
      "min": [
        0
      ],
      "type": "SCALAR"
    },
    {
      "bufferView": 70,
      "componentType": 5126,
      "count": 3639,
      "max": [
        24.564577102661133,
        19.768230438232422,
        384.51922607421875
      ],
      "min": [
        -24.472745895385742,
        13.398256301879883,
        93.4156265258789
      ],
      "type": "VEC3"
    },
    {
      "bufferView": 71,
      "componentType": 5126,
      "count": 3639,
      "max": [
        0.9276153445243835,
        1.0,
        0.9275830984115601
      ],
      "min": [
        -0.9276153445243835,
        -1.0,
        -0.9275830984115601
      ],
      "type": "VEC3"
    },
    {
      "bufferView": 72,
      "componentType": 5126,
      "count": 3639,
      "max": [
        1.0,
        0.5150691866874695,
        1.0,
        1.0
      ],
      "min": [
        -0.979350209236145,
        -0.5150691866874695,
        -1.0,
        -1.0
      ],
      "type": "VEC4"
    },
    {
      "bufferView": 73,
      "componentType": 5126,
      "count": 3639,
      "max": [
        0.931559145450592,
        0.9980080127716064
      ],
      "min": [
        0.0018593997228890657,
        0.00199204683303833
      ],
      "type": "VEC2"
    },
    {
      "bufferView": 74,
      "componentType": 5125,
      "count": 10080,
      "max": [
        3638
      ],
      "min": [
        0
      ],
      "type": "SCALAR"
    },
    {
      "bufferView": 75,
      "componentType": 5126,
      "count": 2097,
      "max": [
        -23.868106842041016,
        48.52204895019531,
        483.70587158203125
      ],
      "min": [
        -30.533267974853516,
        6.585803031921387,
        477.04071044921875
      ],
      "type": "VEC3"
    },
    {
      "bufferView": 76,
      "componentType": 5126,
      "count": 2097,
      "max": [
        0.9888975024223328,
        1.0,
        0.9888975024223328
      ],
      "min": [
        -0.9888975024223328,
        -1.0,
        -0.9889121651649475
      ],
      "type": "VEC3"
    },
    {
      "bufferView": 77,
      "componentType": 5126,
      "count": 2097,
      "max": [
        1.0,
        1.0,
        0.9975095391273499,
        1.0
      ],
      "min": [
        -1.0,
        -0.700337290763855,
        -1.0,
        -1.0
      ],
      "type": "VEC4"
    },
    {
      "bufferView": 78,
      "componentType": 5126,
      "count": 2097,
      "max": [
        0.9991657137870789,
        1.0044364929199219
      ],
      "min": [
        0.0018689632415771484,
        0.0019114017486572266
      ],
      "type": "VEC2"
    },
    {
      "bufferView": 79,
      "componentType": 5125,
      "count": 6600,
      "max": [
        2096
      ],
      "min": [
        0
      ],
      "type": "SCALAR"
    },
    {
      "bufferView": 80,
      "componentType": 5126,
      "count": 8496,
      "max": [
        30.18323516845703,
        48.52204895019531,
        508.7041931152344
      ],
      "min": [
        -16.697017669677734,
        6.585803031921387,
        454.4557189941406
      ],
      "type": "VEC3"
    },
    {
      "bufferView": 81,
      "componentType": 5126,
      "count": 8496,
      "max": [
        0.9888975024223328,
        1.0,
        0.9888975024223328
      ],
      "min": [
        -0.9888975024223328,
        -1.0,
        -0.9889121651649475
      ],
      "type": "VEC3"
    },
    {
      "bufferView": 82,
      "componentType": 5126,
      "count": 8496,
      "max": [
        1.0,
        1.0,
        0.9975160956382751,
        1.0
      ],
      "min": [
        -1.0,
        -0.7005792856216431,
        -1.0,
        -1.0
      ],
      "type": "VEC4"
    },
    {
      "bufferView": 83,
      "componentType": 5126,
      "count": 8496,
      "max": [
        0.9991657137870789,
        1.0044364929199219
      ],
      "min": [
        0.0018689632415771484,
        0.0019114017486572266
      ],
      "type": "VEC2"
    },
    {
      "bufferView": 84,
      "componentType": 5125,
      "count": 26880,
      "max": [
        8495
      ],
      "min": [
        0
      ],
      "type": "SCALAR"
    },
    {
      "bufferView": 85,
      "componentType": 5126,
      "count": 11098,
      "max": [
        77.47687530517578,
        63.53519058227539,
        -17.947324752807617
      ],
      "min": [
        -86.2183609008789,
        52.014766693115234,
        -90.39453125
      ],
      "type": "VEC3"
    },
    {
      "bufferView": 86,
      "componentType": 5126,
      "count": 11098,
      "max": [
        0.9999696016311646,
        1.0,
        0.9997746348381042
      ],
      "min": [
        -0.9999696016311646,
        -1.0,
        -0.9999999403953552
      ],
      "type": "VEC3"
    },
    {
      "bufferView": 87,
      "componentType": 5126,
      "count": 11098,
      "max": [
        1.0,
        1.0,
        0.9998671412467957,
        1.0
      ],
      "min": [
        -1.0,
        -0.9988425970077515,
        -0.9999998211860657,
        -1.0
      ],
      "type": "VEC4"
    },
    {
      "bufferView": 88,
      "componentType": 5126,
      "count": 11098,
      "max": [
        0.9968655109405518,
        0.9980080127716064
      ],
      "min": [
        0.000773996114730835,
        0.00199204683303833
      ],
      "type": "VEC2"
    },
    {
      "bufferView": 89,
      "componentType": 5125,
      "count": 32256,
      "max": [
        11097
      ],
      "min": [
        0
      ],
      "type": "SCALAR"
    },
    {
      "bufferView": 90,
      "componentType": 5126,
      "count": 4839,
      "max": [
        13.240673065185547,
        52.83543014526367,
        -78.43749237060547
      ],
      "min": [
        -11.440672874450684,
        0.2112126350402832,
        -82.67228698730469
      ],
      "type": "VEC3"
    },
    {
      "bufferView": 91,
      "componentType": 5126,
      "count": 4839,
      "max": [
        1.0,
        1.0,
        1.0
      ],
      "min": [
        -1.0,
        -1.0,
        -1.0
      ],
      "type": "VEC3"
    },
    {
      "bufferView": 92,
      "componentType": 5126,
      "count": 4839,
      "max": [
        1.0,
        1.0,
        1.0,
        1.0
      ],
      "min": [
        -1.0,
        -1.0,
        -1.0,
        -1.0
      ],
      "type": "VEC4"
    },
    {
      "bufferView": 93,
      "componentType": 5126,
      "count": 4839,
      "max": [
        0.928872287273407,
        0.9980080127716064
      ],
      "min": [
        0.0018548816442489624,
        0.00199204683303833
      ],
      "type": "VEC2"
    },
    {
      "bufferView": 94,
      "componentType": 5125,
      "count": 8856,
      "max": [
        4838
      ],
      "min": [
        0
      ],
      "type": "SCALAR"
    },
    {
      "bufferView": 95,
      "componentType": 5126,
      "count": 2604,
      "max": [
        17.83584213256836,
        2.216346502304077,
        386.120361328125
      ],
      "min": [
        -17.591753005981445,
        -7.355307579040527,
        87.42414855957031
      ],
      "type": "VEC3"
    },
    {
      "bufferView": 96,
      "componentType": 5126,
      "count": 2604,
      "max": [
        1.0,
        1.0,
        1.0
      ],
      "min": [
        -1.0,
        -1.0,
        -1.0
      ],
      "type": "VEC3"
    },
    {
      "bufferView": 97,
      "componentType": 5126,
      "count": 2604,
      "max": [
        1.0,
        1.0,
        0.7074567079544067,
        1.0
      ],
      "min": [
        -0.7073527574539185,
        -1.0,
        -0.7073068022727966,
        -1.0
      ],
      "type": "VEC4"
    },
    {
      "bufferView": 98,
      "componentType": 5126,
      "count": 2604,
      "max": [
        0.9941476583480835,
        0.9971293807029724
      ],
      "min": [
        0.0027909353375434875,
        0.00181502103805542
      ],
      "type": "VEC2"
    },
    {
      "bufferView": 99,
      "componentType": 5125,
      "count": 4560,
      "max": [
        2603
      ],
      "min": [
        0
      ],
      "type": "SCALAR"
    },
    {
      "bufferView": 100,
      "componentType": 5126,
      "count": 188,
      "max": [
        0.4755282700061798,
        0.5,
        0.4755283296108246
      ],
      "min": [
        -0.47552838921546936,
        0.15450848639011383,
        -0.4755285084247589
      ],
      "type": "VEC3"
    },
    {
      "bufferView": 101,
      "componentType": 5126,
      "count": 188,
      "max": [
        0.9238767027854919,
        1.0,
        0.9238767027854919
      ],
      "min": [
        -0.9238767027854919,
        0.3826840817928314,
        -0.9238767027854919
      ],
      "type": "VEC3"
    },
    {
      "bufferView": 102,
      "componentType": 5126,
      "count": 188,
      "max": [
        0.9999982714653015,
        0.07865187525749207,
        0.9999982118606567,
        1.0
      ],
      "min": [
        -0.9999982714653015,
        -0.07866250723600388,
        -0.9999982118606567,
        -1.0
      ],
      "type": "VEC4"
    },
    {
      "bufferView": 103,
      "componentType": 5126,
      "count": 188,
      "max": [
        1.0000001192092896,
        1.0
      ],
      "min": [
        0.0,
        0.6000000834465027
      ],
      "type": "VEC2"
    },
    {
      "bufferView": 104,
      "componentType": 5125,
      "count": 900,
      "max": [
        187
      ],
      "min": [
        0
      ],
      "type": "SCALAR"
    }
  ],
  "asset": {
    "version": "2.0"
  },
  "bufferViews": [
    {
      "buffer": 0,
      "byteLength": 8304,
      "target": 34962
    },
    {
      "buffer": 0,
      "byteLength": 8304,
      "byteOffset": 8304,
      "target": 34962
    },
    {
      "buffer": 0,
      "byteLength": 11072,
      "byteOffset": 16608,
      "target": 34962
    },
    {
      "buffer": 0,
      "byteLength": 5536,
      "byteOffset": 27680,
      "target": 34962
    },
    {
      "buffer": 0,
      "byteLength": 8064,
      "byteOffset": 33216,
      "target": 34963
    },
    {
      "buffer": 0,
      "byteLength": 8520,
      "byteOffset": 41280,
      "target": 34962
    },
    {
      "buffer": 0,
      "byteLength": 8520,
      "byteOffset": 49800,
      "target": 34962
    },
    {
      "buffer": 0,
      "byteLength": 11360,
      "byteOffset": 58320,
      "target": 34962
    },
    {
      "buffer": 0,
      "byteLength": 5680,
      "byteOffset": 69680,
      "target": 34962
    },
    {
      "buffer": 0,
      "byteLength": 8064,
      "byteOffset": 75360,
      "target": 34963
    },
    {
      "buffer": 0,
      "byteLength": 7920,
      "byteOffset": 83424,
      "target": 34962
    },
    {
      "buffer": 0,
      "byteLength": 7920,
      "byteOffset": 91344,
      "target": 34962
    },
    {
      "buffer": 0,
      "byteLength": 10560,
      "byteOffset": 99264,
      "target": 34962
    },
    {
      "buffer": 0,
      "byteLength": 5280,
      "byteOffset": 109824,
      "target": 34962
    },
    {
      "buffer": 0,
      "byteLength": 8064,
      "byteOffset": 115104,
      "target": 34963
    },
    {
      "buffer": 0,
      "byteLength": 8052,
      "byteOffset": 123168,
      "target": 34962
    },
    {
      "buffer": 0,
      "byteLength": 8052,
      "byteOffset": 131220,
      "target": 34962
    },
    {
      "buffer": 0,
      "byteLength": 10736,
      "byteOffset": 139272,
      "target": 34962
    },
    {
      "buffer": 0,
      "byteLength": 5368,
      "byteOffset": 150008,
      "target": 34962
    },
    {
      "buffer": 0,
      "byteLength": 8052,
      "byteOffset": 155376,
      "target": 34963
    },
    {
      "buffer": 0,
      "byteLength": 7968,
      "byteOffset": 163428,
      "target": 34962
    },
    {
      "buffer": 0,
      "byteLength": 7968,
      "byteOffset": 171396,
      "target": 34962
    },
    {
      "buffer": 0,
      "byteLength": 10624,
      "byteOffset": 179364,
      "target": 34962
    },
    {
      "buffer": 0,
      "byteLength": 5312,
      "byteOffset": 189988,
      "target": 34962
    },
    {
      "buffer": 0,
      "byteLength": 7152,
      "byteOffset": 195300,
      "target": 34963
    },
    {
      "buffer": 0,
      "byteLength": 4284,
      "byteOffset": 202452,
      "target": 34962
    },
    {
      "buffer": 0,
      "byteLength": 4284,
      "byteOffset": 206736,
      "target": 34962
    },
    {
      "buffer": 0,
      "byteLength": 5712,
      "byteOffset": 211020,
      "target": 34962
    },
    {
      "buffer": 0,
      "byteLength": 2856,
      "byteOffset": 216732,
      "target": 34962
    },
    {
      "buffer": 0,
      "byteLength": 2880,
      "byteOffset": 219588,
      "target": 34963
    },
    {
      "buffer": 0,
      "byteLength": 255732,
      "byteOffset": 222468,
      "target": 34962
    },
    {
      "buffer": 0,
      "byteLength": 255732,
      "byteOffset": 478200,
      "target": 34962
    },
    {
      "buffer": 0,
      "byteLength": 340976,
      "byteOffset": 733932,
      "target": 34962
    },
    {
      "buffer": 0,
      "byteLength": 170488,
      "byteOffset": 1074908,
      "target": 34962
    },
    {
      "buffer": 0,
      "byteLength": 159120,
      "byteOffset": 1245396,
      "target": 34963
    },
    {
      "buffer": 0,
      "byteLength": 47244,
      "byteOffset": 1404516,
      "target": 34962
    },
    {
      "buffer": 0,
      "byteLength": 47244,
      "byteOffset": 1451760,
      "target": 34962
    },
    {
      "buffer": 0,
      "byteLength": 62992,
      "byteOffset": 1499004,
      "target": 34962
    },
    {
      "buffer": 0,
      "byteLength": 31496,
      "byteOffset": 1561996,
      "target": 34962
    },
    {
      "buffer": 0,
      "byteLength": 23424,
      "byteOffset": 1593492,
      "target": 34963
    },
    {
      "buffer": 0,
      "byteLength": 18624,
      "byteOffset": 1616916,
      "target": 34962
    },
    {
      "buffer": 0,
      "byteLength": 18624,
      "byteOffset": 1635540,
      "target": 34962
    },
    {
      "buffer": 0,
      "byteLength": 24832,
      "byteOffset": 1654164,
      "target": 34962
    },
    {
      "buffer": 0,
      "byteLength": 12416,
      "byteOffset": 1678996,
      "target": 34962
    },
    {
      "buffer": 0,
      "byteLength": 14064,
      "byteOffset": 1691412,
      "target": 34963
    },
    {
      "buffer": 0,
      "byteLength": 8064,
      "byteOffset": 1705476,
      "target": 34962
    },
    {
      "buffer": 0,
      "byteLength": 8064,
      "byteOffset": 1713540,
      "target": 34962
    },
    {
      "buffer": 0,
      "byteLength": 10752,
      "byteOffset": 1721604,
      "target": 34962
    },
    {
      "buffer": 0,
      "byteLength": 5376,
      "byteOffset": 1732356,
      "target": 34962
    },
    {
      "buffer": 0,
      "byteLength": 6000,
      "byteOffset": 1737732,
      "target": 34963
    },
    {
      "buffer": 0,
      "byteLength": 17544,
      "byteOffset": 1743732,
      "target": 34962
    },
    {
      "buffer": 0,
      "byteLength": 17544,
      "byteOffset": 1761276,
      "target": 34962
    },
    {
      "buffer": 0,
      "byteLength": 23392,
      "byteOffset": 1778820,
      "target": 34962
    },
    {
      "buffer": 0,
      "byteLength": 11696,
      "byteOffset": 1802212,
      "target": 34962
    },
    {
      "buffer": 0,
      "byteLength": 18720,
      "byteOffset": 1813908,
      "target": 34963
    },
    {
      "buffer": 0,
      "byteLength": 19104,
      "byteOffset": 1832628,
      "target": 34962
    },
    {
      "buffer": 0,
      "byteLength": 19104,
      "byteOffset": 1851732,
      "target": 34962
    },
    {
      "buffer": 0,
      "byteLength": 25472,
      "byteOffset": 1870836,
      "target": 34962
    },
    {
      "buffer": 0,
      "byteLength": 12736,
      "byteOffset": 1896308,
      "target": 34962
    },
    {
      "buffer": 0,
      "byteLength": 15744,
      "byteOffset": 1909044,
      "target": 34963
    },
    {
      "buffer": 0,
      "byteLength": 520728,
      "byteOffset": 1924788,
      "target": 34962
    },
    {
      "buffer": 0,
      "byteLength": 520728,
      "byteOffset": 2445516,
      "target": 34962
    },
    {
      "buffer": 0,
      "byteLength": 694304,
      "byteOffset": 2966244,
      "target": 34962
    },
    {
      "buffer": 0,
      "byteLength": 347152,
      "byteOffset": 3660548,
      "target": 34962
    },
    {
      "buffer": 0,
      "byteLength": 566400,
      "byteOffset": 4007700,
      "target": 34963
    },
    {
      "buffer": 0,
      "byteLength": 34932,
      "byteOffset": 4574100,
      "target": 34962
    },
    {
      "buffer": 0,
      "byteLength": 34932,
      "byteOffset": 4609032,
      "target": 34962
    },
    {
      "buffer": 0,
      "byteLength": 46576,
      "byteOffset": 4643964,
      "target": 34962
    },
    {
      "buffer": 0,
      "byteLength": 23288,
      "byteOffset": 4690540,
      "target": 34962
    },
    {
      "buffer": 0,
      "byteLength": 37440,
      "byteOffset": 4713828,
      "target": 34963
    },
    {
      "buffer": 0,
      "byteLength": 43668,
      "byteOffset": 4751268,
      "target": 34962
    },
    {
      "buffer": 0,
      "byteLength": 43668,
      "byteOffset": 4794936,
      "target": 34962
    },
    {
      "buffer": 0,
      "byteLength": 58224,
      "byteOffset": 4838604,
      "target": 34962
    },
    {
      "buffer": 0,
      "byteLength": 29112,
      "byteOffset": 4896828,
      "target": 34962
    },
    {
      "buffer": 0,
      "byteLength": 40320,
      "byteOffset": 4925940,
      "target": 34963
    },
    {
      "buffer": 0,
      "byteLength": 25164,
      "byteOffset": 4966260,
      "target": 34962
    },
    {
      "buffer": 0,
      "byteLength": 25164,
      "byteOffset": 4991424,
      "target": 34962
    },
    {
      "buffer": 0,
      "byteLength": 33552,
      "byteOffset": 5016588,
      "target": 34962
    },
    {
      "buffer": 0,
      "byteLength": 16776,
      "byteOffset": 5050140,
      "target": 34962
    },
    {
      "buffer": 0,
      "byteLength": 26400,
      "byteOffset": 5066916,
      "target": 34963
    },
    {
      "buffer": 0,
      "byteLength": 101952,
      "byteOffset": 5093316,
      "target": 34962
    },
    {
      "buffer": 0,
      "byteLength": 101952,
      "byteOffset": 5195268,
      "target": 34962
    },
    {
      "buffer": 0,
      "byteLength": 135936,
      "byteOffset": 5297220,
      "target": 34962
    },
    {
      "buffer": 0,
      "byteLength": 67968,
      "byteOffset": 5433156,
      "target": 34962
    },
    {
      "buffer": 0,
      "byteLength": 107520,
      "byteOffset": 5501124,
      "target": 34963
    },
    {
      "buffer": 0,
      "byteLength": 133176,
      "byteOffset": 5608644,
      "target": 34962
    },
    {
      "buffer": 0,
      "byteLength": 133176,
      "byteOffset": 5741820,
      "target": 34962
    },
    {
      "buffer": 0,
      "byteLength": 177568,
      "byteOffset": 5874996,
      "target": 34962
    },
    {
      "buffer": 0,
      "byteLength": 88784,
      "byteOffset": 6052564,
      "target": 34962
    },
    {
      "buffer": 0,
      "byteLength": 129024,
      "byteOffset": 6141348,
      "target": 34963
    },
    {
      "buffer": 0,
      "byteLength": 58068,
      "byteOffset": 6270372,
      "target": 34962
    },
    {
      "buffer": 0,
      "byteLength": 58068,
      "byteOffset": 6328440,
      "target": 34962
    },
    {
      "buffer": 0,
      "byteLength": 77424,
      "byteOffset": 6386508,
      "target": 34962
    },
    {
      "buffer": 0,
      "byteLength": 38712,
      "byteOffset": 6463932,
      "target": 34962
    },
    {
      "buffer": 0,
      "byteLength": 35424,
      "byteOffset": 6502644,
      "target": 34963
    },
    {
      "buffer": 0,
      "byteLength": 31248,
      "byteOffset": 6538068,
      "target": 34962
    },
    {
      "buffer": 0,
      "byteLength": 31248,
      "byteOffset": 6569316,
      "target": 34962
    },
    {
      "buffer": 0,
      "byteLength": 41664,
      "byteOffset": 6600564,
      "target": 34962
    },
    {
      "buffer": 0,
      "byteLength": 20832,
      "byteOffset": 6642228,
      "target": 34962
    },
    {
      "buffer": 0,
      "byteLength": 18240,
      "byteOffset": 6663060,
      "target": 34963
    },
    {
      "buffer": 0,
      "byteLength": 2256,
      "byteOffset": 6681300,
      "target": 34962
    },
    {
      "buffer": 0,
      "byteLength": 2256,
      "byteOffset": 6683556,
      "target": 34962
    },
    {
      "buffer": 0,
      "byteLength": 3008,
      "byteOffset": 6685812,
      "target": 34962
    },
    {
      "buffer": 0,
      "byteLength": 1504,
      "byteOffset": 6688820,
      "target": 34962
    },
    {
      "buffer": 0,
      "byteLength": 3600,
      "byteOffset": 6690324,
      "target": 34963
    }
  ],
  "buffers": [
    {
      "byteLength": 6693924,
      "uri": "scene.bin"
    }
  ],
  "images": [
    {
      "uri": "archbroken1_baseColor.png"
    },
    {
      "uri": "archbroken1_metallicRoughness.png"
    },
    {
      "uri": "archbroken1_normal.png"
    },
    {
      "uri": "archbroken3_baseColor.png"
    },
    {
      "uri": "archbroken3_metallicRoughness.png"
    },
    {
      "uri": "archbroken3_normal.png"
    },
    {
      "uri": "archbroken4_baseColor.png"
    },
    {
      "uri": "archbroken4_metallicRoughness.png"
    },
    {
      "uri": "archbroken4_normal.png"
    },
    {
      "uri": "MiddleArch_baseColor.png"
    },
    {
      "uri": "MiddleArch_metallicRoughness.png"
    },
    {
      "uri": "MiddleArch_normal.png"
    },
    {
      "uri": "aecondraryarens_baseColor.png"
    },
    {
      "uri": "aecondraryarens_metallicRoughness.png"
    },
    {
      "uri": "aecondraryarens_normal.png"
    },
    {
      "uri": "SideArch_baseColor.png"
    },
    {
      "uri": "SideArch_metallicRoughness.png"
    },
    {
      "uri": "SideArch_normal.png"
    },
    {
      "uri": "atairs_baseColor.png"
    },
    {
      "uri": "atairs_metallicRoughness.png"
    },
    {
      "uri": "atairs_normal.png"
    },
    {
      "uri": "bigstairs_baseColor.png"
    },
    {
      "uri": "bigstairs_metallicRoughness.png"
    },
    {
      "uri": "bigstairs_normal.png"
    },
    {
      "uri": "Gazebo_baseColor.png"
    },
    {
      "uri": "Gazebo_metallicRoughness.png"
    },
    {
      "uri": "Gazebo_normal.png"
    },
    {
      "uri": "lambert1_baseColor.png"
    },
    {
      "uri": "lambert1_metallicRoughness.png"
    },
    {
      "uri": "lambert1_normal.png"
    },
    {
      "uri": "MainArena_baseColor.png"
    },
    {
      "uri": "MainArena_normal.png"
    },
    {
      "uri": "Pillar_baseColor.png"
    },
    {
      "uri": "Pillar_metallicRoughness.png"
    },
    {
      "uri": "Pillar_normal.png"
    },
    {
      "uri": "torch_baseColor.png"
    },
    {
      "uri": "torch_metallicRoughness.png"
    },
    {
      "uri": "torch_normal.png"
    },
    {
      "uri": "Arch_baseColor.png"
    },
    {
      "uri": "Arch_metallicRoughness.png"
    },
    {
      "uri": "Arch_normal.png"
    },
    {
      "uri": "MiddlePilalr_baseColor.png"
    },
    {
      "uri": "MiddlePilalr_metallicRoughness.png"
    },
    {
      "uri": "MiddlePilalr_normal.png"
    },
    {
      "uri": "Bridge_baseColor.png"
    },
    {
      "uri": "Bridge_metallicRoughness.png"
    },
    {
      "uri": "Dome_baseColor.png"
    },
    {
      "uri": "Dome_metallicRoughness.png"
    },
    {
      "uri": "Dome_normal.png"
    }
  ],
  "materials": [
    {
      "name": "archbroken1",
      "normalTexture": {
        "index": 2
      },
      "pbrMetallicRoughness": {
        "baseColorTexture": {
          "index": 0
        },
        "metallicRoughnessTexture": {
          "index": 1
        }
      }
    },
    {
      "name": "archbroken2",
      "normalTexture": {
        "index": 5
      },
      "pbrMetallicRoughness": {
        "baseColorTexture": {
          "index": 3
        },
        "metallicFactor": 0.0,
        "metallicRoughnessTexture": {
          "index": 4
        }
      }
    },
    {
      "name": "archbroken4",
      "normalTexture": {
        "index": 8
      },
      "pbrMetallicRoughness": {
        "baseColorTexture": {
          "index": 6
        },
        "metallicFactor": 0.0,
        "metallicRoughnessTexture": {
          "index": 7
        }
      }
    },
    {
      "name": "archbroken3",
      "normalTexture": {
        "index": 5
      },
      "pbrMetallicRoughness": {
        "baseColorTexture": {
          "index": 3
        },
        "metallicFactor": 0.0,
        "metallicRoughnessTexture": {
          "index": 4
        }
      }
    },
    {
      "name": "MiddleArch",
      "normalTexture": {
        "index": 11
      },
      "pbrMetallicRoughness": {
        "baseColorTexture": {
          "index": 9
        },
        "metallicRoughnessTexture": {
          "index": 10
        }
      }
    },
    {
      "name": "aecondraryarens",
      "normalTexture": {
        "index": 14
      },
      "pbrMetallicRoughness": {
        "baseColorTexture": {
          "index": 12
        },
        "metallicRoughnessTexture": {
          "index": 13
        }
      }
    },
    {
      "name": "SideArch",
      "normalTexture": {
        "index": 17
      },
      "pbrMetallicRoughness": {
        "baseColorTexture": {
          "index": 15
        },
        "metallicRoughnessTexture": {
          "index": 16
        }
      }
    },
    {
      "name": "atairs",
      "normalTexture": {
        "index": 20
      },
      "pbrMetallicRoughness": {
        "baseColorTexture": {
          "index": 18
        },
        "metallicFactor": 0.0,
        "metallicRoughnessTexture": {
          "index": 19
        }
      }
    },
    {
      "name": "bigstairs",
      "normalTexture": {
        "index": 23
      },
      "pbrMetallicRoughness": {
        "baseColorTexture": {
          "index": 21
        },
        "metallicFactor": 0.0,
        "metallicRoughnessTexture": {
          "index": 22
        }
      }
    },
    {
      "name": "Gazebo",
      "normalTexture": {
        "index": 26
      },
      "pbrMetallicRoughness": {
        "baseColorTexture": {
          "index": 24
        },
        "metallicRoughnessTexture": {
          "index": 25
        }
      }
    },
    {
      "name": "lambert1",
      "normalTexture": {
        "index": 29
      },
      "pbrMetallicRoughness": {
        "baseColorTexture": {
          "index": 27
        },
        "metallicRoughnessTexture": {
          "index": 28
        }
      }
    },
    {
      "name": "MainArena",
      "normalTexture": {
        "index": 31
      },
      "pbrMetallicRoughness": {
        "baseColorTexture": {
          "index": 30
        },
        "metallicFactor": 0.0,
        "roughnessFactor": 0.6000000238418579
      }
    },
    {
      "name": "Pillar",
      "normalTexture": {
        "index": 34
      },
      "pbrMetallicRoughness": {
        "baseColorTexture": {
          "index": 32
        },
        "metallicRoughnessTexture": {
          "index": 33
        }
      }
    },
    {
      "name": "PillarBroken",
      "normalTexture": {
        "index": 29
      },
      "pbrMetallicRoughness": {
        "baseColorTexture": {
          "index": 27
        },
        "metallicRoughnessTexture": {
          "index": 28
        }
      }
    },
    {
      "name": "torch",
      "normalTexture": {
        "index": 37
      },
      "pbrMetallicRoughness": {
        "baseColorTexture": {
          "index": 35
        },
        "metallicRoughnessTexture": {
          "index": 36
        }
      }
    },
    {
      "name": "little",
      "normalTexture": {
        "index": 34
      },
      "pbrMetallicRoughness": {
        "baseColorTexture": {
          "index": 32
        },
        "metallicRoughnessTexture": {
          "index": 33
        }
      }
    },
    {
      "name": "Arch",
      "normalTexture": {
        "index": 40
      },
      "pbrMetallicRoughness": {
        "baseColorTexture": {
          "index": 38
        },
        "metallicRoughnessTexture": {
          "index": 39
        }
      }
    },
    {
      "name": "MiddlePilalr",
      "normalTexture": {
        "index": 43
      },
      "pbrMetallicRoughness": {
        "baseColorTexture": {
          "index": 41
        },
        "metallicRoughnessTexture": {
          "index": 42
        }
      }
    },
    {
      "name": "Bridge",
      "pbrMetallicRoughness": {
        "baseColorTexture": {
          "index": 44
        },
        "metallicRoughnessTexture": {
          "index": 45
        }
      }
    },
    {
      "name": "Dome",
      "normalTexture": {
        "index": 48
      },
      "pbrMetallicRoughness": {
        "baseColorTexture": {
          "index": 46
        },
        "metallicRoughnessTexture": {
          "index": 47
        }
      }
    }
  ],
  "meshes": [
    {
      "primitives": [
        {
          "attributes": {
            "NORMAL": 1,
            "POSITION": 0,
            "TANGENT": 2,
            "TEXCOORD_0": 3
          },
          "indices": 4,
          "material": 0,
          "mode": 4
        }
      ]
    },
    {
      "primitives": [
        {
          "attributes": {
            "NORMAL": 6,
            "POSITION": 5,
            "TANGENT": 7,
            "TEXCOORD_0": 8
          },
          "indices": 9,
          "material": 1,
          "mode": 4
        }
      ]
    },
    {
      "primitives": [
        {
          "attributes": {
            "NORMAL": 11,
            "POSITION": 10,
            "TANGENT": 12,
            "TEXCOORD_0": 13
          },
          "indices": 14,
          "material": 2,
          "mode": 4
        }
      ]
    },
    {
      "primitives": [
        {
          "attributes": {
            "NORMAL": 16,
            "POSITION": 15,
            "TANGENT": 17,
            "TEXCOORD_0": 18
          },
          "indices": 19,
          "material": 3,
          "mode": 4
        }
      ]
    },
    {
      "primitives": [
        {
          "attributes": {
            "NORMAL": 21,
            "POSITION": 20,
            "TANGENT": 22,
            "TEXCOORD_0": 23
          },
          "indices": 24,
          "material": 4,
          "mode": 4
        }
      ]
    },
    {
      "primitives": [
        {
          "attributes": {
            "NORMAL": 26,
            "POSITION": 25,
            "TANGENT": 27,
            "TEXCOORD_0": 28
          },
          "indices": 29,
          "material": 5,
          "mode": 4
        }
      ]
    },
    {
      "primitives": [
        {
          "attributes": {
            "NORMAL": 31,
            "POSITION": 30,
            "TANGENT": 32,
            "TEXCOORD_0": 33
          },
          "indices": 34,
          "material": 6,
          "mode": 4
        }
      ]
    },
    {
      "primitives": [
        {
          "attributes": {
            "NORMAL": 36,
            "POSITION": 35,
            "TANGENT": 37,
            "TEXCOORD_0": 38
          },
          "indices": 39,
          "material": 7,
          "mode": 4
        }
      ]
    },
    {
      "primitives": [
        {
          "attributes": {
            "NORMAL": 41,
            "POSITION": 40,
            "TANGENT": 42,
            "TEXCOORD_0": 43
          },
          "indices": 44,
          "material": 8,
          "mode": 4
        }
      ]
    },
    {
      "primitives": [
        {
          "attributes": {
            "NORMAL": 46,
            "POSITION": 45,
            "TANGENT": 47,
            "TEXCOORD_0": 48
          },
          "indices": 49,
          "material": 9,
          "mode": 4
        }
      ]
    },
    {
      "primitives": [
        {
          "attributes": {
            "NORMAL": 51,
            "POSITION": 50,
            "TANGENT": 52,
            "TEXCOORD_0": 53
          },
          "indices": 54,
          "material": 10,
          "mode": 4
        }
      ]
    },
    {
      "primitives": [
        {
          "attributes": {
            "NORMAL": 56,
            "POSITION": 55,
            "TANGENT": 57,
            "TEXCOORD_0": 58
          },
          "indices": 59,
          "material": 11,
          "mode": 4
        }
      ]
    },
    {
      "primitives": [
        {
          "attributes": {
            "NORMAL": 61,
            "POSITION": 60,
            "TANGENT": 62,
            "TEXCOORD_0": 63
          },
          "indices": 64,
          "material": 12,
          "mode": 4
        }
      ]
    },
    {
      "primitives": [
        {
          "attributes": {
            "NORMAL": 66,
            "POSITION": 65,
            "TANGENT": 67,
            "TEXCOORD_0": 68
          },
          "indices": 69,
          "material": 13,
          "mode": 4
        }
      ]
    },
    {
      "primitives": [
        {
          "attributes": {
            "NORMAL": 71,
            "POSITION": 70,
            "TANGENT": 72,
            "TEXCOORD_0": 73
          },
          "indices": 74,
          "material": 14,
          "mode": 4
        }
      ]
    },
    {
      "primitives": [
        {
          "attributes": {
            "NORMAL": 76,
            "POSITION": 75,
            "TANGENT": 77,
            "TEXCOORD_0": 78
          },
          "indices": 79,
          "material": 15,
          "mode": 4
        }
      ]
    },
    {
      "primitives": [
        {
          "attributes": {
            "NORMAL": 81,
            "POSITION": 80,
            "TANGENT": 82,
            "TEXCOORD_0": 83
          },
          "indices": 84,
          "material": 15,
          "mode": 4
        }
      ]
    },
    {
      "primitives": [
        {
          "attributes": {
            "NORMAL": 86,
            "POSITION": 85,
            "TANGENT": 87,
            "TEXCOORD_0": 88
          },
          "indices": 89,
          "material": 16,
          "mode": 4
        }
      ]
    },
    {
      "primitives": [
        {
          "attributes": {
            "NORMAL": 91,
            "POSITION": 90,
            "TANGENT": 92,
            "TEXCOORD_0": 93
          },
          "indices": 94,
          "material": 17,
          "mode": 4
        }
      ]
    },
    {
      "primitives": [
        {
          "attributes": {
            "NORMAL": 96,
            "POSITION": 95,
            "TANGENT": 97,
            "TEXCOORD_0": 98
          },
          "indices": 99,
          "material": 18,
          "mode": 4
        }
      ]
    },
    {
      "primitives": [
        {
          "attributes": {
            "NORMAL": 101,
            "POSITION": 100,
            "TANGENT": 102,
            "TEXCOORD_0": 103
          },
          "indices": 104,
          "material": 19,
          "mode": 4
        }
      ]
    }
  ],
  "nodes": [
    {
      "mesh": 0,
      "name": "polySurface3_archbroken1_0",
      "rotation": [
        0.0,
        0.0,
        0.0,
        1.0
      ],
      "scale": [
        1.0,
        1.0,
        1.0
      ],
      "translation": [
        0.0,
        0.0,
        0.0
      ]
    },
    {
      "children": [
        0
      ],
      "name": "polySurface3",
      "rotation": [
        0.0,
        0.0,
        0.0,
        1.0
      ],
      "scale": [
        1.0273675918579102,
        1.0273675918579102,
        1.0930049419403076
      ],
      "translation": [
        -9.046525001525879,
        -1.284033179283142,
        0.0
      ]
    },
    {
      "mesh": 1,
      "name": "polySurface10_archbroken2_0",
      "rotation": [
        0.0,
        0.0,
        0.0,
        1.0
      ],
      "scale": [
        1.0,
        1.0,
        1.0
      ],
      "translation": [
        0.0,
        0.0,
        0.0
      ]
    },
    {
      "children": [
        2
      ],
      "name": "polySurface10",
      "rotation": [
        0.0,
        0.0,
        0.0,
        1.0
      ],
      "scale": [
        1.0273675918579102,
        1.0273675918579102,
        1.0930049419403076
      ],
      "translation": [
        -9.058724403381348,
        -1.2848739624023438,
        -0.036465056240558624
      ]
    },
    {
      "mesh": 2,
      "name": "polySurface8_archbroken4_0",
      "rotation": [
        0.0,
        0.0,
        0.0,
        1.0
      ],
      "scale": [
        1.0,
        1.0,
        1.0
      ],
      "translation": [
        0.0,
        0.0,
        0.0
      ]
    },
    {
      "children": [
        4
      ],
      "name": "polySurface8",
      "rotation": [
        0.0,
        0.0,
        0.0,
        1.0
      ],
      "scale": [
        1.0273675918579102,
        1.0273675918579102,
        1.0930049419403076
      ],
      "translation": [
        -9.019224166870117,
        -1.2862077951431274,
        0.03886818513274193
      ]
    },
    {
      "mesh": 3,
      "name": "polySurface9_archbroken3_0",
      "rotation": [
        0.0,
        0.0,
        0.0,
        1.0
      ],
      "scale": [
        1.0,
        1.0,
        1.0
      ],
      "translation": [
        0.0,
        0.0,
        0.0
      ]
    },
    {
      "children": [
        6
      ],
      "name": "polySurface9",
      "rotation": [
        0.0,
        0.0,
        0.0,
        1.0
      ],
      "scale": [
        1.0273675918579102,
        1.0273675918579102,
        1.0930049419403076
      ],
      "translation": [
        -9.025043487548828,
        -1.297024130821228,
        -0.026409991085529327
      ]
    },
    {
      "children": [
        3,
        5,
        7
      ],
      "name": "polySurface6",
      "rotation": [
        0.0,
        0.0,
        0.0,
        1.0
      ],
      "scale": [
        1.0,
        1.0,
        1.0
      ],
      "translation": [
        0.0,
        0.0,
        0.0
      ]
    },
    {
      "children": [
        8
      ],
      "name": "polySurface4",
      "rotation": [
        0.0,
        0.0,
        0.0,
        1.0
      ],
      "scale": [
        1.0,
        1.0,
        1.0
      ],
      "translation": [
        0.0,
        0.0,
        0.0
      ]
    },
    {
      "children": [
        1,
        9
      ],
      "name": "polySurface2",
      "rotation": [
        0.0,
        0.0,
        0.0,
        1.0
      ],
      "scale": [
        1.0,
        1.0,
        1.0
      ],
      "translation": [
        0.0,
        0.0,
        0.0
      ]
    },
    {
      "children": [
        10
      ],
      "name": "pCube20",
      "rotation": [
        0.0,
        0.0,
        0.0,
        1.0
      ],
      "scale": [
        1.0,
        1.0,
        1.0
      ],
      "translation": [
        0.0,
        0.0,
        0.0
      ]
    },
    {
      "mesh": 4,
      "name": "pCube36_MiddleArch_0",
      "rotation": [
        0.0,
        0.0,
        0.0,
        1.0
      ],
      "scale": [
        1.0,
        1.0,
        1.0
      ],
      "translation": [
        0.0,
        0.0,
        0.0
      ]
    },
    {
      "children": [
        12
      ],
      "name": "pCube36",
      "rotation": [
        0.0,
        0.0,
        0.0,
        1.0
      ],
      "scale": [
        1.0,
        1.0,
        1.0
      ],
      "translation": [
        -9.046525001525879,
        0.0,
        0.0
      ]
    },
    {
      "mesh": 5,
      "name": "pCube47_aecondraryarens_0",
      "rotation": [
        0.0,
        0.0,
        0.0,
        1.0
      ],
      "scale": [
        1.0,
        1.0,
        1.0
      ],
      "translation": [
        0.0,
        0.0,
        0.0
      ]
    },
    {
      "children": [
        14
      ],
      "name": "pCube47",
      "rotation": [
        0.0,
        0.0,
        0.0,
        1.0
      ],
      "scale": [
        380.9695129394531,
        26.983612060546875,
        380.9695129394531
      ],
      "translation": [
        0.0619889497756958,
        -6.841021537780762,
        481.00848388671875
      ]
    },
    {
      "mesh": 6,
      "name": "pCube68_SideArch_0",
      "rotation": [
        0.0,
        0.0,
        0.0,
        1.0
      ],
      "scale": [
        1.0,
        1.0,
        1.0
      ],
      "translation": [
        0.0,
        0.0,
        0.0
      ]
    },
    {
      "children": [
        16
      ],
      "name": "pCube68",
      "rotation": [
        0.0,
        0.0,
        0.0,
        1.0
      ],
      "scale": [
        1.0,
        1.0,
        1.0
      ],
      "translation": [
        0.0,
        0.0,
        0.0
      ]
    },
    {
      "mesh": 7,
      "name": "pCube69_atairs_0",
      "rotation": [
        0.0,
        0.0,
        0.0,
        1.0
      ],
      "scale": [
        1.0,
        1.0,
        1.0
      ],
      "translation": [
        0.0,
        0.0,
        0.0
      ]
    },
    {
      "children": [
        18
      ],
      "name": "pCube69",
      "rotation": [
        0.0,
        0.0,
        0.0,
        1.0
      ],
      "scale": [
        1.0,
        1.0,
        1.0
      ],
      "translation": [
        0.0,
        0.0,
        0.0
      ]
    },
    {
      "mesh": 8,
      "name": "pCylinder30_bigstairs_0",
      "rotation": [
        0.0,
        0.0,
        0.0,
        1.0
      ],
      "scale": [
        1.0,
        1.0,
        1.0
      ],
      "translation": [
        0.0,
        0.0,
        0.0
      ]
    },
    {
      "children": [
        20
      ],
      "name": "pCylinder30",
      "rotation": [
        0.0,
        0.0,
        0.0,
        1.0
      ],
      "scale": [
        122.1923599243164,
        7.017205715179443,
        122.1923599243164
      ],
      "translation": [
        0.10073643177747726,
        2.4805748462677,
        480.5013427734375
      ]
    },
    {
      "mesh": 9,
      "name": "pCylinder37_Gazebo_0",
      "rotation": [
        0.0,
        0.0,
        0.0,
        1.0
      ],
      "scale": [
        1.0,
        1.0,
        1.0
      ],
      "translation": [
        0.0,
        0.0,
        0.0
      ]
    },
    {
      "children": [
        22
      ],
      "name": "pCylinder37",
      "rotation": [
        0.0,
        0.0,
        0.0,
        1.0
      ],
      "scale": [
        66.77930450439453,
        7.011162281036377,
        66.77930450439453
      ],
      "translation": [
        0.10073643177747726,
        51.5404052734375,
        480.5013427734375
      ]
    },
    {
      "mesh": 10,
      "name": "pCylinder39_lambert1_0",
      "rotation": [
        0.0,
        0.0,
        0.0,
        1.0
      ],
      "scale": [
        1.0,
        1.0,
        1.0
      ],
      "translation": [
        -4.172325134277344e-06,
        -1.9073485191256623e-06,
        -7.271766662597656e-06
      ]
    },
    {
      "children": [
        24
      ],
      "name": "pCylinder39",
      "rotation": [
        0.0,
        -0.9298428893089294,
        0.0,
        0.36795681715011597
      ],
      "scale": [
        5.701815128326416,
        0.49103212356567383,
        5.701815128326416
      ],
      "translation": [
        -13.424531936645508,
        7.244322776794434,
        505.3954162597656
      ]
    },
    {
      "mesh": 11,
      "name": "pCylinder5_MainArena_0",
      "rotation": [
        0.0,
        0.0,
        0.0,
        1.0
      ],
      "scale": [
        1.0,
        1.0,
        1.0
      ],
      "translation": [
        0.0,
        0.0,
        0.0
      ]
    },
    {
      "children": [
        26
      ],
      "name": "pCylinder5",
      "rotation": [
        0.0,
        0.0,
        0.0,
        1.0
      ],
      "scale": [
        181.7696075439453,
        8.375717163085938,
        181.6629180908203
      ],
      "translation": [
        0.10093588382005692,
        -3.829089641571045,
        -0.5150130987167358
      ]
    },
    {
      "mesh": 12,
      "name": "polySurface39_Pillar_0",
      "rotation": [
        0.0,
        0.0,
        0.0,
        1.0
      ],
      "scale": [
        1.0,
        1.0,
        1.0
      ],
      "translation": [
        0.0,
        0.0,
        0.0
      ]
    },
    {
      "children": [
        28
      ],
      "name": "polySurface39",
      "rotation": [
        0.0,
        0.0,
        0.0,
        1.0
      ],
      "scale": [
        1.0,
        1.0,
        1.0
      ],
      "translation": [
        0.0,
        0.0,
        0.0
      ]
    },
    {
      "children": [
        29
      ],
      "name": "polySurface36",
      "rotation": [
        0.0,
        0.0,
        0.0,
        1.0
      ],
      "scale": [
        1.0,
        1.0,
        1.0
      ],
      "translation": [
        0.0,
        0.0,
        0.0
      ]
    },
    {
      "children": [
        30
      ],
      "name": "pCylinder69",
      "rotation": [
        0.0,
        0.0,
        0.0,
        1.0
      ],
      "scale": [
        1.0,
        1.0,
        1.0
      ],
      "translation": [
        0.0,
        0.0,
        0.0
      ]
    },
    {
      "mesh": 13,
      "name": "pCylinder70_PillarBroken_0",
      "rotation": [
        0.0,
        0.0,
        0.0,
        1.0
      ],
      "scale": [
        1.0,
        1.0,
        1.0
      ],
      "translation": [
        0.0,
        0.0,
        0.0
      ]
    },
    {
      "children": [
        32
      ],
      "name": "pCylinder70",
      "rotation": [
        0.0,
        0.0,
        0.0,
        1.0
      ],
      "scale": [
        1.0,
        1.0,
        1.0
      ],
      "translation": [
        0.0,
        0.0,
        0.0
      ]
    },
    {
      "mesh": 14,
      "name": "pCylinder71_torch_0",
      "rotation": [
        0.0,
        0.0,
        0.0,
        1.0
      ],
      "scale": [
        1.0,
        1.0,
        1.0
      ],
      "translation": [
        0.0,
        0.0,
        0.0
      ]
    },
    {
      "children": [
        34
      ],
      "name": "pCylinder71",
      "rotation": [
        0.0,
        0.0,
        0.0,
        1.0
      ],
      "scale": [
        1.0,
        1.0,
        1.0
      ],
      "translation": [
        0.0,
        0.0,
        0.0
      ]
    },
    {
      "mesh": 15,
      "name": "polySurface40_little_0",
      "rotation": [
        0.0,
        0.0,
        0.0,
        1.0
      ],
      "scale": [
        1.0,
        1.0,
        1.0
      ],
      "translation": [
        0.0,
        0.0,
        0.0
      ]
    },
    {
      "children": [
        36
      ],
      "name": "polySurface40",
      "rotation": [
        0.0,
        0.0,
        0.0,
        1.0
      ],
      "scale": [
        1.0,
        1.0,
        1.0
      ],
      "translation": [
        0.0,
        0.0,
        0.0
      ]
    },
    {
      "mesh": 16,
      "name": "polySurface41_little_0",
      "rotation": [
        0.0,
        0.0,
        0.0,
        1.0
      ],
      "scale": [
        1.0,
        1.0,
        1.0
      ],
      "translation": [
        0.0,
        0.0,
        0.0
      ]
    },
    {
      "children": [
        38
      ],
      "name": "polySurface41",
      "rotation": [
        0.0,
        0.0,
        0.0,
        1.0
      ],
      "scale": [
        1.0,
        1.0,
        1.0
      ],
      "translation": [
        0.0,
        0.0,
        0.0
      ]
    },
    {
      "children": [
        37,
        39
      ],
      "name": "pCylinder72",
      "rotation": [
        0.0,
        0.0,
        0.0,
        1.0
      ],
      "scale": [
        1.0,
        1.0,
        1.0
      ],
      "translation": [
        0.0,
        0.0,
        0.0
      ]
    },
    {
      "mesh": 17,
      "name": "polySurface29_Arch_0",
      "rotation": [
        0.0,
        0.0,
        0.0,
        1.0
      ],
      "scale": [
        1.0,
        1.0,
        1.0
      ],
      "translation": [
        0.0,
        0.0,
        0.0
      ]
    },
    {
      "children": [
        41
      ],
      "name": "polySurface29",
      "rotation": [
        0.0,
        0.0,
        0.0,
        1.0
      ],
      "scale": [
        1.0,
        1.0,
        1.0
      ],
      "translation": [
        0.0,
        0.0,
        0.0
      ]
    },
    {
      "mesh": 18,
      "name": "polySurface37_MiddlePilalr_0",
      "rotation": [
        0.0,
        0.0,
        0.0,
        1.0
      ],
      "scale": [
        1.0,
        1.0,
        1.0
      ],
      "translation": [
        0.0,
        0.0,
        0.0
      ]
    },
    {
      "children": [
        43
      ],
      "name": "polySurface37",
      "rotation": [
        0.0,
        0.0,
        0.0,
        1.0
      ],
      "scale": [
        1.0,
        1.0,
        1.0
      ],
      "translation": [
        0.0,
        0.0,
        0.0
      ]
    },
    {
      "mesh": 19,
      "name": "polySurface45_Bridge_0",
      "rotation": [
        0.0,
        0.0,
        0.0,
        1.0
      ],
      "scale": [
        1.0,
        1.0,
        1.0
      ],
      "translation": [
        0.0,
        0.0,
        0.0
      ]
    },
    {
      "children": [
        45
      ],
      "name": "polySurface45",
      "rotation": [
        0.0,
        0.0,
        0.0,
        1.0
      ],
      "scale": [
        1.0,
        1.0,
        1.0
      ],
      "translation": [
        0.0,
        0.0,
        0.0
      ]
    },
    {
      "mesh": 20,
      "name": "pSphere1_Dome_0",
      "rotation": [
        0.0,
        0.0,
        0.0,
        1.0
      ],
      "scale": [
        1.0,
        1.0,
        1.0
      ],
      "translation": [
        0.0,
        0.0,
        0.0
      ]
    },
    {
      "children": [
        47
      ],
      "name": "pSphere1",
      "rotation": [
        0.0,
        0.0,
        0.0,
        1.0
      ],
      "scale": [
        41.81245040893555,
        41.81245040893555,
        41.81245040893555
      ],
      "translation": [
        0.10048206150531769,
        57.67252731323242,
        480.817626953125
      ]
    },
    {
      "children": [
        11,
        13,
        15,
        17,
        19,
        21,
        23,
        25,
        27,
        31,
        33,
        35,
        40,
        42,
        44,
        46,
        48
      ],
      "name": "RootNode",
      "rotation": [
        0.0,
        0.0,
        0.0,
        1.0
      ],
      "scale": [
        1.0,
        1.0,
        1.0
      ],
      "translation": [
        0.0,
        0.0,
        0.0
      ]
    },
    {
      "children": [
        49
      ],
      "name": "982c2e7e08d24a39a1e92dfa2d64b245.fbx",
      "rotation": [
        0.70710688829422,
        0.0,
        0.0,
        0.7071066498756409
      ],
      "scale": [
        1.0,
        1.0,
        1.0
      ],
      "translation": [
        0.0,
        0.0,
        0.0
      ]
    },
    {
      "children": [
        50
      ],
      "name": "Sketchfab_model",
      "rotation": [
        -0.70710688829422,
        0.0,
        0.0,
        0.7071066498756409
      ],
      "scale": [
        0.5,
        0.5000000596046448,
        0.5000000596046448
      ],
      "translation": [
        0.0,
        0.0,
        0.0
      ]
    }
  ],
  "samplers": [
    {
      "wrapS": 10497,
      "wrapT": 10497
    }
  ],
  "scenes": [
    {
      "nodes": [
        51
      ]
    }
  ],
  "textures": [
    {
      "sampler": 0,
      "source": 0
    },
    {
      "sampler": 0,
      "source": 1
    },
    {
      "sampler": 0,
      "source": 2
    },
    {
      "sampler": 0,
      "source": 3
    },
    {
      "sampler": 0,
      "source": 4
    },
    {
      "sampler": 0,
      "source": 5
    },
    {
      "sampler": 0,
      "source": 6
    },
    {
      "sampler": 0,
      "source": 7
    },
    {
      "sampler": 0,
      "source": 8
    },
    {
      "sampler": 0,
      "source": 9
    },
    {
      "sampler": 0,
      "source": 10
    },
    {
      "sampler": 0,
      "source": 11
    },
    {
      "sampler": 0,
      "source": 12
    },
    {
      "sampler": 0,
      "source": 13
    },
    {
      "sampler": 0,
      "source": 14
    },
    {
      "sampler": 0,
      "source": 15
    },
    {
      "sampler": 0,
      "source": 16
    },
    {
      "sampler": 0,
      "source": 17
    },
    {
      "sampler": 0,
      "source": 18
    },
    {
      "sampler": 0,
      "source": 19
    },
    {
      "sampler": 0,
      "source": 20
    },
    {
      "sampler": 0,
      "source": 21
    },
    {
      "sampler": 0,
      "source": 22
    },
    {
      "sampler": 0,
      "source": 23
    },
    {
      "sampler": 0,
      "source": 24
    },
    {
      "sampler": 0,
      "source": 25
    },
    {
      "sampler": 0,
      "source": 26
    },
    {
      "sampler": 0,
      "source": 27
    },
    {
      "sampler": 0,
      "source": 28
    },
    {
      "sampler": 0,
      "source": 29
    },
    {
      "sampler": 0,
      "source": 30
    },
    {
      "sampler": 0,
      "source": 31
    },
    {
      "sampler": 0,
      "source": 32
    },
    {
      "sampler": 0,
      "source": 33
    },
    {
      "sampler": 0,
      "source": 34
    },
    {
      "sampler": 0,
      "source": 35
    },
    {
      "sampler": 0,
      "source": 36
    },
    {
      "sampler": 0,
      "source": 37
    },
    {
      "sampler": 0,
      "source": 38
    },
    {
      "sampler": 0,
      "source": 39
    },
    {
      "sampler": 0,
      "source": 40
    },
    {
      "sampler": 0,
      "source": 41
    },
    {
      "sampler": 0,
      "source": 42
    },
    {
      "sampler": 0,
      "source": 43
    },
    {
      "sampler": 0,
      "source": 44
    },
    {
      "sampler": 0,
      "source": 45
    },
    {
      "sampler": 0,
      "source": 46
    },
    {
      "sampler": 0,
      "source": 47
    },
    {
      "sampler": 0,
      "source": 48
    }
  ]
}
