{
	"asset":
	{
		"version": "2.0",
		"generator": "Unreal Engine 5.3.2"
	},
	"scene": 0,
	"accessors": [
		{
			"bufferView": 0,
			"count": 14352,
			"type": "SCALAR",
			"componentType": 5123
		},
		{
			"bufferView": 1,
			"count": 3088,
			"type": "VEC3",
			"componentType": 5126,
			"min": [ -0.270313442, -0.000435204536, -0.270313442 ],
			"max": [ 0.270313442, 1.36290812, 0.270313442 ]
		},
		{
			"bufferView": 2,
			"count": 3088,
			"type": "VEC3",
			"componentType": 5126
		},
		{
			"bufferView": 3,
			"count": 3088,
			"type": "VEC4",
			"componentType": 5126
		},
		{
			"bufferView": 4,
			"count": 3088,
			"type": "VEC2",
			"componentType": 5126
		},
		{
			"bufferView": 5,
			"count": 3088,
			"type": "VEC2",
			"componentType": 5126
		},
		{
			"bufferView": 6,
			"count": 7218,
			"type": "SCALAR",
			"componentType": 5123
		},
		{
			"bufferView": 7,
			"count": 1317,
			"type": "VEC3",
			"componentType": 5126,
			"min": [ -0.115055084, -0.00526336674, -0.110466421 ],
			"max": [ 0.116328478, 0.245698601, 0.117598996 ]
		},
		{
			"bufferView": 8,
			"count": 1317,
			"type": "VEC3",
			"componentType": 5126
		},
		{
			"bufferView": 9,
			"count": 1317,
			"type": "VEC4",
			"componentType": 5126
		},
		{
			"bufferView": 10,
			"count": 1317,
			"type": "VEC2",
			"componentType": 5126
		},
		{
			"bufferView": 11,
			"count": 1317,
			"type": "VEC2",
			"componentType": 5126
		}
	],
	"buffers": [
		{
			"uri": "StandingBrazier.bin",
			"byteLength": 289820
		}
	],
	"bufferViews": [
		{
			"buffer": 0,
			"byteLength": 28704,
			"target": 34963
		},
		{
			"buffer": 0,
			"byteLength": 37056,
			"byteOffset": 28704,
			"target": 34962
		},
		{
			"buffer": 0,
			"byteLength": 37056,
			"byteOffset": 65760,
			"target": 34962
		},
		{
			"buffer": 0,
			"byteLength": 49408,
			"byteOffset": 102816,
			"target": 34962
		},
		{
			"buffer": 0,
			"byteLength": 24704,
			"byteOffset": 152224,
			"target": 34962
		},
		{
			"buffer": 0,
			"byteLength": 24704,
			"byteOffset": 176928,
			"target": 34962
		},
		{
			"buffer": 0,
			"byteLength": 14436,
			"byteOffset": 201632,
			"target": 34963
		},
		{
			"buffer": 0,
			"byteLength": 15804,
			"byteOffset": 216068,
			"target": 34962
		},
		{
			"buffer": 0,
			"byteLength": 15804,
			"byteOffset": 231872,
			"target": 34962
		},
		{
			"buffer": 0,
			"byteLength": 21072,
			"byteOffset": 247676,
			"target": 34962
		},
		{
			"buffer": 0,
			"byteLength": 10536,
			"byteOffset": 268748,
			"target": 34962
		},
		{
			"buffer": 0,
			"byteLength": 10536,
			"byteOffset": 279284,
			"target": 34962
		}
	],
	"images": [
		{
			"uri": "M_StandingBrazier_01_MetallicRoughness.png"
		},
		{
			"uri": "M_Candle_Master_01_MetallicRoughness.png"
		},
		{
			"uri": "T_StandingBrazier_01_D.png"
		},
		{
			"uri": "T_StandingBrazier_01_N.png"
		},
		{
			"uri": "T_Candle_Master_01_D.png"
		},
		{
			"uri": "T_Candle_Master_01_N.png"
		}
	],
	"materials": [
		{
			"name": "M_StandingBrazier_01",
			"pbrMetallicRoughness":
			{
				"baseColorTexture":
				{
					"index": 0
				},
				"metallicRoughnessTexture":
				{
					"index": 1
				}
			},
			"normalTexture":
			{
				"index": 2
			}
		},
		{
			"name": "M_Candle_Master_01",
			"pbrMetallicRoughness":
			{
				"baseColorTexture":
				{
					"index": 3
				},
				"metallicRoughnessTexture":
				{
					"index": 4
				}
			},
			"normalTexture":
			{
				"index": 5
			}
		}
	],
	"meshes": [
		{
			"name": "SM_StandingBrazier_01",
			"primitives": [
				{
					"attributes":
					{
						"POSITION": 1,
						"NORMAL": 2,
						"TANGENT": 3,
						"TEXCOORD_0": 4,
						"TEXCOORD_1": 5
					},
					"indices": 0,
					"material": 0
				}
			]
		},
		{
			"name": "SM_Candle_01",
			"primitives": [
				{
					"attributes":
					{
						"POSITION": 7,
						"NORMAL": 8,
						"TANGENT": 9,
						"TEXCOORD_0": 10,
						"TEXCOORD_1": 11
					},
					"indices": 6,
					"material": 1
				}
			]
		}
	],
	"nodes": [
		{
			"name": "BP_Standing_Brazier_6",
			"rotation": [ -0, -0.707106829, 0, 0.707106829 ],
			"children": [ 1 ]
		},
		{
			"name": "StandingBrazier_01",
			"mesh": 0,
			"children": [ 2, 3, 5 ]
		},
		{
			"name": "Candle_01",
			"translation": [ 9.99999994e-09, 1.24667192, 0 ],
			"scale": [ 0.375, 0.375, 0.375 ],
			"mesh": 1
		},
		{
			"name": "PointLight1",
			"translation": [ -5.99999979e-08, 1.55576563, 0 ],
			"children": [ 4 ]
		},
		{
			"name": "PointLight1",
			"rotation": [ -0, -0.707106829, 0, 0.707106769 ],
			"extensions":
			{
				"KHR_lights_punctual":
				{
					"light": 0
				}
			}
		},
		{
			"name": "PointLight",
			"translation": [ -4.9999997e-08, 1.65085554, 0 ],
			"children": [ 6 ]
		},
		{
			"name": "PointLight",
			"rotation": [ -0, -0.707106829, 0, 0.707106769 ],
			"extensions":
			{
				"KHR_lights_punctual":
				{
					"light": 1
				}
			}
		}
	],
	"samplers": [
		{
			"minFilter": 9987,
			"magFilter": 9729
		}
	],
	"scenes": [
		{
			"name": "ThirdPersonMap",
			"nodes": [ 0 ]
		}
	],
	"textures": [
		{
			"name": "T_StandingBrazier_01_D",
			"sampler": 0,
			"source": 2
		},
		{
			"name": "M_StandingBrazier_01_MetallicRoughness",
			"sampler": 0,
			"source": 0
		},
		{
			"name": "T_StandingBrazier_01_N",
			"sampler": 0,
			"source": 3
		},
		{
			"name": "T_Candle_Master_01_D",
			"sampler": 0,
			"source": 4
		},
		{
			"name": "M_Candle_Master_01_MetallicRoughness",
			"sampler": 0,
			"source": 1
		},
		{
			"name": "T_Candle_Master_01_N",
			"sampler": 0,
			"source": 5
		}
	],
	"extensions":
	{
		"KHR_lights_punctual":
		{
			"lights": [
				{
					"name": "BottomStandingBrazier",
					"type": "point",
					"color": [ 0.959999979, 0.523895442, 0.240151942 ],
					"range": 8
				},
				{
					"name": "TopStandingBrazier",
					"type": "point",
					"color": [ 1, 0.545724452, 0.25015831 ],
					"intensity": 1.5999999,
					"range": 8
				}
			]
		}
	},
	"extensionsUsed": [
		"KHR_lights_punctual"
	]
}