{
  "accessors": [
    {
      "bufferView": 2,
      "componentType": 5126,
      "count": 13770,
      "max": [
        1892.9134521484375,
        -9.95559310913086,
        308.6737365722656
      ],
      "min": [
        1436.0089111328125,
        -164.34169006347656,
        -111.85087585449219
      ],
      "type": "VEC3"
    },
    {
      "bufferView": 2,
      "byteOffset": 165240,
      "componentType": 5126,
      "count": 13770,
      "max": [
        0.9629368782043457,
        0.9999952912330627,
        0.9864562153816223
      ],
      "min": [
        -0.9811859726905823,
        -0.9999953508377075,
        -0.9864546060562134
      ],
      "type": "VEC3"
    },
    {
      "bufferView": 3,
      "componentType": 5126,
      "count": 13770,
      "max": [
        0.9776435494422913,
        0.9998416900634766,
        0.9999985694885254,
        1.0
      ],
      "min": [
        -0.9996408224105835,
        -0.9954299330711365,
        -0.9999718070030212,
        -1.0
      ],
      "type": "VEC4"
    },
    {
      "bufferView": 1,
      "componentType": 5126,
      "count": 13770,
      "max": [
        1.0,
        1.0
      ],
      "min": [
        0.0,
        0.0
      ],
      "type": "VEC2"
    },
    {
      "bufferView": 0,
      "componentType": 5125,
      "count": 78720,
      "type": "SCALAR"
    }
  ],
  "asset": {
    "extras": {
      "author": "jlwande2 (https://sketchfab.com/jlwande2)",
      "license": "CC-BY-4.0 (http://creativecommons.org/licenses/by/4.0/)",
      "source": "https://sketchfab.com/3d-models/cloth-in-movement-bffa3036f5e24cb28cc8f98532783928",
      "title": "Cloth in movement"
    },
    "generator": "Sketchfab-12.68.0",
    "version": "2.0"
  },
  "bufferViews": [
    {
      "buffer": 0,
      "byteLength": 314880,
      "name": "floatBufferViews",
      "target": 34963
    },
    {
      "buffer": 0,
      "byteLength": 110160,
      "byteOffset": 314880,
      "byteStride": 8,
      "name": "floatBufferViews",
      "target": 34962
    },
    {
      "buffer": 0,
      "byteLength": 330480,
      "byteOffset": 425040,
      "byteStride": 12,
      "name": "floatBufferViews",
      "target": 34962
    },
    {
      "buffer": 0,
      "byteLength": 220320,
      "byteOffset": 755520,
      "byteStride": 16,
      "name": "floatBufferViews",
      "target": 34962
    }
  ],
  "buffers": [
    {
      "byteLength": 975840,
      "uri": "scene.bin"
    }
  ],
  "images": [
    {
      "uri": "textures/blanket_01_baseColor.jpeg"
    },
    {
      "uri": "textures/blanket_01_metallicRoughness.png"
    },
    {
      "uri": "textures/blanket_01_normal.png"
    }
  ],
  "materials": [
    {
      "doubleSided": true,
      "name": "blanket_01",
      "normalTexture": {
        "index": 2
      },
      "occlusionTexture": {
        "index": 1
      },
      "pbrMetallicRoughness": {
        "baseColorTexture": {
          "index": 0
        },
        "metallicRoughnessTexture": {
          "index": 1
        }
      }
    }
  ],
  "meshes": [
    {
      "name": "Plane_1_blanket_01_0",
      "primitives": [
        {
          "attributes": {
            "NORMAL": 1,
            "POSITION": 0,
            "TANGENT": 2,
            "TEXCOORD_0": 3
          },
          "indices": 4,
          "material": 0,
          "mode": 4
        }
      ]
    }
  ],
  "nodes": [
    {
      "children": [
        1
      ],
      "matrix": [
        1.0,
        0.0,
        0.0,
        0.0,
        0.0,
        2.220446049250313e-16,
        -1.0,
        0.0,
        0.0,
        1.0,
        2.220446049250313e-16,
        0.0,
        0.0,
        0.0,
        0.0,
        1.0
      ],
      "name": "Sketchfab_model"
    },
    {
      "children": [
        2
      ],
      "matrix": [
        1.0,
        0.0,
        0.0,
        0.0,
        0.0,
        0.0,
        1.0,
        0.0,
        0.0,
        -1.0,
        0.0,
        0.0,
        0.0,
        0.0,
        0.0,
        1.0
      ],
      "name": "014fbba86c284c4dba09645f2a9e349d.fbx"
    },
    {
      "children": [
        3
      ],
      "name": "RootNode"
    },
    {
      "children": [
        4
      ],
      "name": "Cloth_Surface"
    },
    {
      "children": [
        5
      ],
      "name": "Plane_1"
    },
    {
      "mesh": 0,
      "name": "Plane_1_blanket_01_0"
    }
  ],
  "samplers": [
    {
      "magFilter": 9729,
      "minFilter": 9987,
      "wrapS": 10497,
      "wrapT": 10497
    }
  ],
  "scene": 0,
  "scenes": [
    {
      "name": "Sketchfab_Scene",
      "nodes": [
        0
      ]
    }
  ],
  "textures": [
    {
      "sampler": 0,
      "source": 0
    },
    {
      "sampler": 0,
      "source": 1
    },
    {
      "sampler": 0,
      "source": 2
    }
  ]
}
