{
	"asset":{
		"generator":"Khronos glTF Blender I/O v4.2.57",
		"version":"2.0"
	},
	"scene":0,
	"scenes":[
		{
			"name":"Scene",
			"nodes":[
				1
			]
		}
	],
	"nodes":[
		{
			"mesh":0,
			"name":"Oden_Goboten",
			"translation":[
				0,
				0,
				0.36687934398651123
			]
		},
		{
			"children":[
				0
			],
			"name":"oden2",
			"rotation":[
				0,
				0.7071068286895752,
				-0.7071068286895752,
				5.338508302088485e-08
			],
			"translation":[
				0,
				0.366879403591156,
				0
			]
		}
	],
	"materials":[
		{
			"name":"m_oden2",
			"pbrMetallicRoughness":{
				"baseColorFactor":[
					1,
					0.9999899864196777,
					0.9999899864196777,
					1
				],
				"baseColorTexture":{
					"index":0
				},
				"metallicFactor":0
			}
		}
	],
	"meshes":[
		{
			"name":"Mesh_0",
			"primitives":[
				{
					"attributes":{
						"POSITION":0,
						"NORMAL":1,
						"TEXCOORD_0":2
					},
					"indices":3,
					"material":0
				}
			]
		}
	],
	"textures":[
		{
			"sampler":0,
			"source":0
		}
	],
	"images":[
		{
			"mimeType":"image/png",
			"name":"m_oden2_faceColo",
			"uri":"m_oden2_faceColo.png"
		}
	],
	"accessors":[
		{
			"bufferView":0,
			"componentType":5126,
			"count":505,
			"max":[
				1.6673930883407593,
				0.3995116055011749,
				0.032632678747177124
			],
			"min":[
				-1.6670280694961548,
				-0.3995113968849182,
				-0.7666294574737549
			],
			"type":"VEC3"
		},
		{
			"bufferView":1,
			"componentType":5126,
			"count":505,
			"type":"VEC3"
		},
		{
			"bufferView":2,
			"componentType":5126,
			"count":505,
			"type":"VEC2"
		},
		{
			"bufferView":3,
			"componentType":5123,
			"count":1320,
			"type":"SCALAR"
		}
	],
	"bufferViews":[
		{
			"buffer":0,
			"byteLength":6060,
			"byteOffset":0,
			"target":34962
		},
		{
			"buffer":0,
			"byteLength":6060,
			"byteOffset":6060,
			"target":34962
		},
		{
			"buffer":0,
			"byteLength":4040,
			"byteOffset":12120,
			"target":34962
		},
		{
			"buffer":0,
			"byteLength":2640,
			"byteOffset":16160,
			"target":34963
		}
	],
	"samplers":[
		{
			"magFilter":9729,
			"minFilter":9987
		}
	],
	"buffers":[
		{
			"byteLength":18800,
			"uri":"Oden_Goboten.bin"
		}
	]
}
