{
	"asset":{
		"generator":"Khronos glTF Blender I/O v4.2.57",
		"version":"2.0"
	},
	"scene":0,
	"scenes":[
		{
			"name":"Scene",
			"nodes":[
				1
			]
		}
	],
	"nodes":[
		{
			"mesh":0,
			"name":"Oden_Chikuwa",
			"translation":[
				0,
				0,
				0.3895776867866516
			]
		},
		{
			"children":[
				0
			],
			"name":"oden1",
			"rotation":[
				0,
				0.7071068286895752,
				-0.7071068286895752,
				5.338508302088485e-08
			],
			"translation":[
				0,
				0.3895776867866516,
				0
			]
		}
	],
	"materials":[
		{
			"name":"m_oden1",
			"pbrMetallicRoughness":{
				"baseColorFactor":[
					1,
					0.9999899864196777,
					0.9999899864196777,
					1
				],
				"baseColorTexture":{
					"index":0
				},
				"metallicFactor":0
			}
		}
	],
	"meshes":[
		{
			"name":"Mesh_0",
			"primitives":[
				{
					"attributes":{
						"POSITION":0,
						"NORMAL":1,
						"TEXCOORD_0":2
					},
					"indices":3,
					"material":0
				}
			]
		}
	],
	"textures":[
		{
			"sampler":0,
			"source":0
		}
	],
	"images":[
		{
			"mimeType":"image/png",
			"name":"m_oden_BaseColo",
			"uri":"m_oden_BaseColo.png"
		}
	],
	"accessors":[
		{
			"bufferView":0,
			"componentType":5126,
			"count":382,
			"max":[
				1.5882465839385986,
				0.3995116055011749,
				0.010172426700592041
			],
			"min":[
				-1.5884290933609009,
				-0.39951154589653015,
				-0.7893277406692505
			],
			"type":"VEC3"
		},
		{
			"bufferView":1,
			"componentType":5126,
			"count":382,
			"type":"VEC3"
		},
		{
			"bufferView":2,
			"componentType":5126,
			"count":382,
			"type":"VEC2"
		},
		{
			"bufferView":3,
			"componentType":5123,
			"count":1080,
			"type":"SCALAR"
		}
	],
	"bufferViews":[
		{
			"buffer":0,
			"byteLength":4584,
			"byteOffset":0,
			"target":34962
		},
		{
			"buffer":0,
			"byteLength":4584,
			"byteOffset":4584,
			"target":34962
		},
		{
			"buffer":0,
			"byteLength":3056,
			"byteOffset":9168,
			"target":34962
		},
		{
			"buffer":0,
			"byteLength":2160,
			"byteOffset":12224,
			"target":34963
		}
	],
	"samplers":[
		{
			"magFilter":9729,
			"minFilter":9987
		}
	],
	"buffers":[
		{
			"byteLength":14384,
			"uri":"Oden_Chikuwa.bin"
		}
	]
}
