{
	"asset":{
		"generator":"Khronos glTF Blender I/O v4.2.57",
		"version":"2.0"
	},
	"scene":0,
	"scenes":[
		{
			"name":"Scene",
			"nodes":[
				1
			]
		}
	],
	"nodes":[
		{
			"mesh":0,
			"name":"Oden_Tukune",
			"translation":[
				0,
				-0.7582563757896423,
				0
			]
		},
		{
			"children":[
				0
			],
			"name":"oden1",
			"rotation":[
				0,
				1,
				0,
				7.549790126404332e-08
			],
			"translation":[
				0,
				0.7582563757896423,
				0
			]
		}
	],
	"materials":[
		{
			"name":"m_oden1",
			"pbrMetallicRoughness":{
				"baseColorFactor":[
					0.800000011920929,
					0.800000011920929,
					0.800000011920929,
					1
				],
				"baseColorTexture":{
					"index":0
				},
				"metallicFactor":0
			}
		}
	],
	"meshes":[
		{
			"name":"Mesh_0",
			"primitives":[
				{
					"attributes":{
						"POSITION":0,
						"NORMAL":1,
						"TEXCOORD_0":2
					},
					"indices":3,
					"material":0
				}
			]
		}
	],
	"textures":[
		{
			"sampler":0,
			"source":0
		}
	],
	"images":[
		{
			"mimeType":"image/png",
			"name":"m_oden_BaseColo",
			"uri":"m_oden_BaseColo.png"
		}
	],
	"accessors":[
		{
			"bufferView":0,
			"componentType":5126,
			"count":422,
			"max":[
				0.7480144500732422,
				1.5062708854675293,
				0.7480145692825317
			],
			"min":[
				-0.7480146288871765,
				0.010241925716400146,
				-0.7480148077011108
			],
			"type":"VEC3"
		},
		{
			"bufferView":1,
			"componentType":5126,
			"count":422,
			"type":"VEC3"
		},
		{
			"bufferView":2,
			"componentType":5126,
			"count":422,
			"type":"VEC2"
		},
		{
			"bufferView":3,
			"componentType":5123,
			"count":2280,
			"type":"SCALAR"
		}
	],
	"bufferViews":[
		{
			"buffer":0,
			"byteLength":5064,
			"byteOffset":0,
			"target":34962
		},
		{
			"buffer":0,
			"byteLength":5064,
			"byteOffset":5064,
			"target":34962
		},
		{
			"buffer":0,
			"byteLength":3376,
			"byteOffset":10128,
			"target":34962
		},
		{
			"buffer":0,
			"byteLength":4560,
			"byteOffset":13504,
			"target":34963
		}
	],
	"samplers":[
		{
			"magFilter":9729,
			"minFilter":9987
		}
	],
	"buffers":[
		{
			"byteLength":18064,
			"uri":"Oden_Tsukune.bin"
		}
	]
}
