{
  "accessors": [
    {
      "bufferView": 0,
      "componentType": 5126,
      "count": 694,
      "max": [
        3.615626811981201,
        1.1789523363113403,
        3.6335573196411133
      ],
      "min": [
        -3.615626811981201,
        -2.9929370880126953,
        -3.6335577964782715
      ],
      "type": "VEC3"
    },
    {
      "bufferView": 1,
      "componentType": 5126,
      "count": 694,
      "max": [
        0.8984014987945557,
        1.0,
        0.897659957408905
      ],
      "min": [
        -0.8984014987945557,
        0.4391751289367676,
        -0.8976598978042603
      ],
      "type": "VEC3"
    },
    {
      "bufferView": 2,
      "componentType": 5126,
      "count": 694,
      "max": [
        1.0,
        0.28012382984161377,
        1.0,
        1.0
      ],
      "min": [
        -1.0,
        -0.27433648705482483,
        -1.0,
        1.0
      ],
      "type": "VEC4"
    },
    {
      "bufferView": 3,
      "componentType": 5126,
      "count": 694,
      "max": [
        1.0000001192092896,
        1.0
      ],
      "min": [
        0.0,
        0.0
      ],
      "type": "VEC2"
    },
    {
      "bufferView": 4,
      "componentType": 5125,
      "count": 3240,
      "max": [
        693
      ],
      "min": [
        0
      ],
      "type": "SCALAR"
    },
    {
      "bufferView": 5,
      "componentType": 5126,
      "count": 734,
      "max": [
        47.65986633300781,
        66.61259460449219,
        32.92195129394531
      ],
      "min": [
        -38.348594665527344,
        30.60376739501953,
        -31.204750061035156
      ],
      "type": "VEC3"
    },
    {
      "bufferView": 6,
      "componentType": 5126,
      "count": 734,
      "max": [
        0.9989239573478699,
        0.9944613575935364,
        0.9999580979347229
      ],
      "min": [
        -0.9573320150375366,
        -1.0,
        -0.9986746907234192
      ],
      "type": "VEC3"
    },
    {
      "bufferView": 7,
      "componentType": 5126,
      "count": 734,
      "max": [
        0.9868377447128296,
        0.9789823889732361,
        0.9998582601547241,
        1.0
      ],
      "min": [
        -0.9999768137931824,
        -0.9730216860771179,
        -0.9999971985816956,
        -1.0
      ],
      "type": "VEC4"
    },
    {
      "bufferView": 8,
      "componentType": 5126,
      "count": 734,
      "max": [
        0.9448582530021667,
        0.052302539348602295
      ],
      "min": [
        0.9102809429168701,
        0.004582047462463379
      ],
      "type": "VEC2"
    },
    {
      "bufferView": 9,
      "componentType": 5125,
      "count": 3252,
      "max": [
        733
      ],
      "min": [
        0
      ],
      "type": "SCALAR"
    },
    {
      "bufferView": 10,
      "componentType": 5126,
      "count": 7616,
      "max": [
        49.67982864379883,
        84.56427001953125,
        35.47853469848633
      ],
      "min": [
        -47.6390380859375,
        38.506935119628906,
        -32.96495056152344
      ],
      "type": "VEC3"
    },
    {
      "bufferView": 11,
      "componentType": 5126,
      "count": 7616,
      "max": [
        0.9996939301490784,
        0.9978234767913818,
        0.998845100402832
      ],
      "min": [
        -0.9996939897537231,
        -0.9972569942474365,
        -0.9975388646125793
      ],
      "type": "VEC3"
    },
    {
      "bufferView": 12,
      "componentType": 5126,
      "count": 7616,
      "max": [
        0.9999656677246094,
        0.9910417199134827,
        0.9984911680221558,
        1.0
      ],
      "min": [
        -0.9996920824050903,
        -0.9901358485221863,
        -0.9972258806228638,
        1.0
      ],
      "type": "VEC4"
    },
    {
      "bufferView": 13,
      "componentType": 5126,
      "count": 7616,
      "max": [
        0.9853411912918091,
        0.9922512769699097
      ],
      "min": [
        0.009480815380811691,
        0.007504940032958984
      ],
      "type": "VEC2"
    },
    {
      "bufferView": 14,
      "componentType": 5125,
      "count": 23304,
      "max": [
        7615
      ],
      "min": [
        0
      ],
      "type": "SCALAR"
    },
    {
      "bufferView": 15,
      "componentType": 5126,
      "count": 734,
      "max": [
        20.895002365112305,
        50.107418060302734,
        33.31338119506836
      ],
      "min": [
        -48.539451599121094,
        16.1356143951416,
        -30.14937400817871
      ],
      "type": "VEC3"
    },
    {
      "bufferView": 16,
      "componentType": 5126,
      "count": 734,
      "max": [
        0.9844176769256592,
        0.9960365891456604,
        0.9999562501907349
      ],
      "min": [
        -0.9992855191230774,
        -1.0,
        -0.9999644756317139
      ],
      "type": "VEC3"
    },
    {
      "bufferView": 17,
      "componentType": 5126,
      "count": 734,
      "max": [
        1.0,
        0.9855103492736816,
        0.999955415725708,
        1.0
      ],
      "min": [
        -0.9731928110122681,
        -0.9824740290641785,
        -0.9999996423721313,
        -1.0
      ],
      "type": "VEC4"
    },
    {
      "bufferView": 18,
      "componentType": 5126,
      "count": 734,
      "max": [
        0.9866909384727478,
        0.04754042625427246
      ],
      "min": [
        0.959344744682312,
        0.009799599647521973
      ],
      "type": "VEC2"
    },
    {
      "bufferView": 19,
      "componentType": 5125,
      "count": 3252,
      "max": [
        733
      ],
      "min": [
        0
      ],
      "type": "SCALAR"
    },
    {
      "bufferView": 20,
      "componentType": 5126,
      "count": 3835,
      "max": [
        26.303760528564453,
        53.42310333251953,
        31.752878189086914
      ],
      "min": [
        -44.718727111816406,
        19.4449405670166,
        -30.93147850036621
      ],
      "type": "VEC3"
    },
    {
      "bufferView": 21,
      "componentType": 5126,
      "count": 3835,
      "max": [
        0.9996348023414612,
        0.9928564429283142,
        0.9992424845695496
      ],
      "min": [
        -0.9996347427368164,
        -0.9928566217422485,
        -0.9992424845695496
      ],
      "type": "VEC3"
    },
    {
      "bufferView": 22,
      "componentType": 5126,
      "count": 3835,
      "max": [
        0.9996342658996582,
        0.9993453621864319,
        0.9992396235466003,
        1.0
      ],
      "min": [
        -0.9996352195739746,
        -0.9998003840446472,
        -0.9992454051971436,
        1.0
      ],
      "type": "VEC4"
    },
    {
      "bufferView": 23,
      "componentType": 5126,
      "count": 3835,
      "max": [
        0.9853411912918091,
        0.9903748631477356
      ],
      "min": [
        0.009480815380811691,
        0.007504940032958984
      ],
      "type": "VEC2"
    },
    {
      "bufferView": 24,
      "componentType": 5125,
      "count": 10896,
      "max": [
        3834
      ],
      "min": [
        0
      ],
      "type": "SCALAR"
    },
    {
      "bufferView": 25,
      "componentType": 5126,
      "count": 119,
      "max": [
        48.103790283203125,
        23.356115341186523,
        32.258934020996094
      ],
      "min": [
        -25.68263053894043,
        2.6230521202087402,
        -27.532461166381836
      ],
      "type": "VEC3"
    },
    {
      "bufferView": 26,
      "componentType": 5126,
      "count": 119,
      "max": [
        0.9990162253379822,
        0.9992587566375732,
        0.9964699149131775
      ],
      "min": [
        -0.6961480379104614,
        -0.3335152566432953,
        -0.9996578693389893
      ],
      "type": "VEC3"
    },
    {
      "bufferView": 27,
      "componentType": 5126,
      "count": 119,
      "max": [
        0.8889786601066589,
        0.9405685067176819,
        0.3007943332195282,
        1.0
      ],
      "min": [
        -0.32442590594291687,
        -0.9859926104545593,
        -0.9236860275268555,
        1.0
      ],
      "type": "VEC4"
    },
    {
      "bufferView": 28,
      "componentType": 5126,
      "count": 119,
      "max": [
        0.998065173625946,
        0.10167551040649414
      ],
      "min": [
        0.9096779227256775,
        0.005103468894958496
      ],
      "type": "VEC2"
    },
    {
      "bufferView": 29,
      "componentType": 5125,
      "count": 624,
      "max": [
        118
      ],
      "min": [
        0
      ],
      "type": "SCALAR"
    },
    {
      "bufferView": 30,
      "componentType": 5126,
      "count": 3247,
      "max": [
        41.90867614746094,
        30.873559951782227,
        28.885299682617188
      ],
      "min": [
        -37.97117233276367,
        3.0358519554138184,
        -26.434616088867188
      ],
      "type": "VEC3"
    },
    {
      "bufferView": 31,
      "componentType": 5126,
      "count": 3247,
      "max": [
        1.0,
        1.0,
        1.0
      ],
      "min": [
        -1.0,
        -1.0,
        -1.0
      ],
      "type": "VEC3"
    },
    {
      "bufferView": 32,
      "componentType": 5126,
      "count": 3247,
      "max": [
        1.0,
        0.9646381735801697,
        1.0,
        1.0
      ],
      "min": [
        -1.0,
        -0.9897868633270264,
        -1.0,
        1.0
      ],
      "type": "VEC4"
    },
    {
      "bufferView": 33,
      "componentType": 5126,
      "count": 3247,
      "max": [
        0.9853411912918091,
        0.9903748631477356
      ],
      "min": [
        0.009480815380811691,
        0.007504940032958984
      ],
      "type": "VEC2"
    },
    {
      "bufferView": 34,
      "componentType": 5125,
      "count": 9216,
      "max": [
        3246
      ],
      "min": [
        0
      ],
      "type": "SCALAR"
    },
    {
      "bufferView": 35,
      "componentType": 5126,
      "count": 977,
      "max": [
        52.236053466796875,
        50.993839263916016,
        38.70337677001953
      ],
      "min": [
        -52.236053466796875,
        -0.15490257740020752,
        -37.5687255859375
      ],
      "type": "VEC3"
    },
    {
      "bufferView": 36,
      "componentType": 5126,
      "count": 977,
      "max": [
        1.0,
        1.0,
        0.9969760775566101
      ],
      "min": [
        -1.0,
        -0.9999576210975647,
        -0.9969760775566101
      ],
      "type": "VEC3"
    },
    {
      "bufferView": 37,
      "componentType": 5126,
      "count": 977,
      "max": [
        1.0,
        0.9958134293556213,
        1.0,
        1.0
      ],
      "min": [
        -1.0,
        -0.9958214163780212,
        -1.0,
        1.0
      ],
      "type": "VEC4"
    },
    {
      "bufferView": 38,
      "componentType": 5126,
      "count": 977,
      "max": [
        0.989411473274231,
        0.9881311655044556
      ],
      "min": [
        0.008227750658988953,
        0.010822117328643799
      ],
      "type": "VEC2"
    },
    {
      "bufferView": 39,
      "componentType": 5125,
      "count": 2772,
      "max": [
        976
      ],
      "min": [
        0
      ],
      "type": "SCALAR"
    },
    {
      "bufferView": 40,
      "componentType": 5126,
      "count": 786,
      "max": [
        52.03606033325195,
        90.97198486328125,
        38.164127349853516
      ],
      "min": [
        -52.03606033325195,
        50.74592590332031,
        -36.96292495727539
      ],
      "type": "VEC3"
    },
    {
      "bufferView": 41,
      "componentType": 5126,
      "count": 786,
      "max": [
        1.0,
        1.0,
        0.9999922513961792
      ],
      "min": [
        -1.0,
        -1.0,
        -0.9999922513961792
      ],
      "type": "VEC3"
    },
    {
      "bufferView": 42,
      "componentType": 5126,
      "count": 786,
      "max": [
        0.6870343685150146,
        1.0,
        1.0,
        1.0
      ],
      "min": [
        -1.0,
        -1.0,
        -1.0,
        1.0
      ],
      "type": "VEC4"
    },
    {
      "bufferView": 43,
      "componentType": 5126,
      "count": 786,
      "max": [
        0.9916372895240784,
        0.9917685985565186
      ],
      "min": [
        0.011900991201400757,
        0.08217459917068481
      ],
      "type": "VEC2"
    },
    {
      "bufferView": 44,
      "componentType": 5125,
      "count": 2196,
      "max": [
        785
      ],
      "min": [
        0
      ],
      "type": "SCALAR"
    },
    {
      "bufferView": 45,
      "componentType": 5126,
      "count": 84,
      "max": [
        5.901471138000488,
        1.5519943237304688,
        5.901471138000488
      ],
      "min": [
        -5.901471138000488,
        -1.5519943237304688,
        -5.901472091674805
      ],
      "type": "VEC3"
    },
    {
      "bufferView": 46,
      "componentType": 5126,
      "count": 84,
      "max": [
        1.0,
        1.0,
        1.0
      ],
      "min": [
        -1.0,
        -1.0,
        -1.0
      ],
      "type": "VEC3"
    },
    {
      "bufferView": 47,
      "componentType": 5126,
      "count": 84,
      "max": [
        1.0,
        7.810570969013497e-05,
        1.0,
        1.0
      ],
      "min": [
        -1.0,
        -6.26587990382177e-08,
        -1.0,
        1.0
      ],
      "type": "VEC4"
    },
    {
      "bufferView": 48,
      "componentType": 5126,
      "count": 84,
      "max": [
        0.9853411912918091,
        0.16264230012893677
      ],
      "min": [
        0.6447927355766296,
        0.011656343936920166
      ],
      "type": "VEC2"
    },
    {
      "bufferView": 49,
      "componentType": 5125,
      "count": 240,
      "max": [
        83
      ],
      "min": [
        0
      ],
      "type": "SCALAR"
    },
    {
      "bufferView": 50,
      "componentType": 5126,
      "count": 1962,
      "max": [
        18.165977478027344,
        25.342193603515625,
        20.83974266052246
      ],
      "min": [
        -18.165977478027344,
        8.331816673278809,
        -20.83974266052246
      ],
      "type": "VEC3"
    },
    {
      "bufferView": 51,
      "componentType": 5126,
      "count": 1962,
      "max": [
        0.9999704360961914,
        0.9334296584129333,
        0.9975428581237793
      ],
      "min": [
        -0.9999704360961914,
        -1.0,
        -0.9975428581237793
      ],
      "type": "VEC3"
    },
    {
      "bufferView": 52,
      "componentType": 5126,
      "count": 1962,
      "max": [
        1.0,
        0.9683393836021423,
        0.9999618530273438,
        1.0
      ],
      "min": [
        -1.0,
        -0.9695139527320862,
        -0.9999745488166809,
        1.0
      ],
      "type": "VEC4"
    },
    {
      "bufferView": 53,
      "componentType": 5126,
      "count": 1962,
      "max": [
        0.9841554164886475,
        0.9922512769699097
      ],
      "min": [
        0.014220375567674637,
        0.42654353380203247
      ],
      "type": "VEC2"
    },
    {
      "bufferView": 54,
      "componentType": 5125,
      "count": 7272,
      "max": [
        1961
      ],
      "min": [
        0
      ],
      "type": "SCALAR"
    },
    {
      "bufferView": 55,
      "componentType": 5126,
      "count": 84,
      "max": [
        5.901471138000488,
        1.5519943237304688,
        5.901471138000488
      ],
      "min": [
        -5.901471138000488,
        -1.5519943237304688,
        -5.901472091674805
      ],
      "type": "VEC3"
    },
    {
      "bufferView": 56,
      "componentType": 5126,
      "count": 84,
      "max": [
        1.0,
        1.0,
        1.0
      ],
      "min": [
        -1.0,
        -1.0,
        -1.0
      ],
      "type": "VEC3"
    },
    {
      "bufferView": 57,
      "componentType": 5126,
      "count": 84,
      "max": [
        1.0,
        7.810570969013497e-05,
        1.0,
        1.0
      ],
      "min": [
        -1.0,
        -6.26587990382177e-08,
        -1.0,
        1.0
      ],
      "type": "VEC4"
    },
    {
      "bufferView": 58,
      "componentType": 5126,
      "count": 84,
      "max": [
        0.9853411912918091,
        0.16264230012893677
      ],
      "min": [
        0.6447927355766296,
        0.011656343936920166
      ],
      "type": "VEC2"
    },
    {
      "bufferView": 59,
      "componentType": 5125,
      "count": 240,
      "max": [
        83
      ],
      "min": [
        0
      ],
      "type": "SCALAR"
    },
    {
      "bufferView": 60,
      "componentType": 5126,
      "count": 84,
      "max": [
        5.901471138000488,
        1.5519943237304688,
        5.901471138000488
      ],
      "min": [
        -5.901471138000488,
        -1.5519943237304688,
        -5.901472091674805
      ],
      "type": "VEC3"
    },
    {
      "bufferView": 61,
      "componentType": 5126,
      "count": 84,
      "max": [
        1.0,
        1.0,
        1.0
      ],
      "min": [
        -1.0,
        -1.0,
        -1.0
      ],
      "type": "VEC3"
    },
    {
      "bufferView": 62,
      "componentType": 5126,
      "count": 84,
      "max": [
        1.0,
        7.810570969013497e-05,
        1.0,
        1.0
      ],
      "min": [
        -1.0,
        -6.26587990382177e-08,
        -1.0,
        1.0
      ],
      "type": "VEC4"
    },
    {
      "bufferView": 63,
      "componentType": 5126,
      "count": 84,
      "max": [
        0.9853411912918091,
        0.16264230012893677
      ],
      "min": [
        0.6447927355766296,
        0.011656343936920166
      ],
      "type": "VEC2"
    },
    {
      "bufferView": 64,
      "componentType": 5125,
      "count": 240,
      "max": [
        83
      ],
      "min": [
        0
      ],
      "type": "SCALAR"
    },
    {
      "bufferView": 65,
      "componentType": 5126,
      "count": 84,
      "max": [
        5.901471138000488,
        1.5519943237304688,
        5.901471138000488
      ],
      "min": [
        -5.901471138000488,
        -1.5519943237304688,
        -5.901472091674805
      ],
      "type": "VEC3"
    },
    {
      "bufferView": 66,
      "componentType": 5126,
      "count": 84,
      "max": [
        1.0,
        1.0,
        1.0
      ],
      "min": [
        -1.0,
        -1.0,
        -1.0
      ],
      "type": "VEC3"
    },
    {
      "bufferView": 67,
      "componentType": 5126,
      "count": 84,
      "max": [
        1.0,
        7.810570969013497e-05,
        1.0,
        1.0
      ],
      "min": [
        -1.0,
        -6.26587990382177e-08,
        -1.0,
        1.0
      ],
      "type": "VEC4"
    },
    {
      "bufferView": 68,
      "componentType": 5126,
      "count": 84,
      "max": [
        0.9853411912918091,
        0.16264230012893677
      ],
      "min": [
        0.6447927355766296,
        0.011656343936920166
      ],
      "type": "VEC2"
    },
    {
      "bufferView": 69,
      "componentType": 5125,
      "count": 240,
      "max": [
        83
      ],
      "min": [
        0
      ],
      "type": "SCALAR"
    },
    {
      "bufferView": 70,
      "componentType": 5126,
      "count": 84,
      "max": [
        5.901471138000488,
        1.5519943237304688,
        5.901471138000488
      ],
      "min": [
        -5.901471138000488,
        -1.5519943237304688,
        -5.901472091674805
      ],
      "type": "VEC3"
    },
    {
      "bufferView": 71,
      "componentType": 5126,
      "count": 84,
      "max": [
        1.0,
        1.0,
        1.0
      ],
      "min": [
        -1.0,
        -1.0,
        -1.0
      ],
      "type": "VEC3"
    },
    {
      "bufferView": 72,
      "componentType": 5126,
      "count": 84,
      "max": [
        1.0,
        7.810570969013497e-05,
        1.0,
        1.0
      ],
      "min": [
        -1.0,
        -6.26587990382177e-08,
        -1.0,
        1.0
      ],
      "type": "VEC4"
    },
    {
      "bufferView": 73,
      "componentType": 5126,
      "count": 84,
      "max": [
        0.9853411912918091,
        0.16264230012893677
      ],
      "min": [
        0.6447927355766296,
        0.011656343936920166
      ],
      "type": "VEC2"
    },
    {
      "bufferView": 74,
      "componentType": 5125,
      "count": 240,
      "max": [
        83
      ],
      "min": [
        0
      ],
      "type": "SCALAR"
    }
  ],
  "asset": {
    "version": "2.0"
  },
  "bufferViews": [
    {
      "buffer": 0,
      "byteLength": 8328,
      "target": 34962
    },
    {
      "buffer": 0,
      "byteLength": 8328,
      "byteOffset": 8328,
      "target": 34962
    },
    {
      "buffer": 0,
      "byteLength": 11104,
      "byteOffset": 16656,
      "target": 34962
    },
    {
      "buffer": 0,
      "byteLength": 5552,
      "byteOffset": 27760,
      "target": 34962
    },
    {
      "buffer": 0,
      "byteLength": 12960,
      "byteOffset": 33312,
      "target": 34963
    },
    {
      "buffer": 0,
      "byteLength": 8808,
      "byteOffset": 46272,
      "target": 34962
    },
    {
      "buffer": 0,
      "byteLength": 8808,
      "byteOffset": 55080,
      "target": 34962
    },
    {
      "buffer": 0,
      "byteLength": 11744,
      "byteOffset": 63888,
      "target": 34962
    },
    {
      "buffer": 0,
      "byteLength": 5872,
      "byteOffset": 75632,
      "target": 34962
    },
    {
      "buffer": 0,
      "byteLength": 13008,
      "byteOffset": 81504,
      "target": 34963
    },
    {
      "buffer": 0,
      "byteLength": 91392,
      "byteOffset": 94512,
      "target": 34962
    },
    {
      "buffer": 0,
      "byteLength": 91392,
      "byteOffset": 185904,
      "target": 34962
    },
    {
      "buffer": 0,
      "byteLength": 121856,
      "byteOffset": 277296,
      "target": 34962
    },
    {
      "buffer": 0,
      "byteLength": 60928,
      "byteOffset": 399152,
      "target": 34962
    },
    {
      "buffer": 0,
      "byteLength": 93216,
      "byteOffset": 460080,
      "target": 34963
    },
    {
      "buffer": 0,
      "byteLength": 8808,
      "byteOffset": 553296,
      "target": 34962
    },
    {
      "buffer": 0,
      "byteLength": 8808,
      "byteOffset": 562104,
      "target": 34962
    },
    {
      "buffer": 0,
      "byteLength": 11744,
      "byteOffset": 570912,
      "target": 34962
    },
    {
      "buffer": 0,
      "byteLength": 5872,
      "byteOffset": 582656,
      "target": 34962
    },
    {
      "buffer": 0,
      "byteLength": 13008,
      "byteOffset": 588528,
      "target": 34963
    },
    {
      "buffer": 0,
      "byteLength": 46020,
      "byteOffset": 601536,
      "target": 34962
    },
    {
      "buffer": 0,
      "byteLength": 46020,
      "byteOffset": 647556,
      "target": 34962
    },
    {
      "buffer": 0,
      "byteLength": 61360,
      "byteOffset": 693576,
      "target": 34962
    },
    {
      "buffer": 0,
      "byteLength": 30680,
      "byteOffset": 754936,
      "target": 34962
    },
    {
      "buffer": 0,
      "byteLength": 43584,
      "byteOffset": 785616,
      "target": 34963
    },
    {
      "buffer": 0,
      "byteLength": 1428,
      "byteOffset": 829200,
      "target": 34962
    },
    {
      "buffer": 0,
      "byteLength": 1428,
      "byteOffset": 830628,
      "target": 34962
    },
    {
      "buffer": 0,
      "byteLength": 1904,
      "byteOffset": 832056,
      "target": 34962
    },
    {
      "buffer": 0,
      "byteLength": 952,
      "byteOffset": 833960,
      "target": 34962
    },
    {
      "buffer": 0,
      "byteLength": 2496,
      "byteOffset": 834912,
      "target": 34963
    },
    {
      "buffer": 0,
      "byteLength": 38964,
      "byteOffset": 837408,
      "target": 34962
    },
    {
      "buffer": 0,
      "byteLength": 38964,
      "byteOffset": 876372,
      "target": 34962
    },
    {
      "buffer": 0,
      "byteLength": 51952,
      "byteOffset": 915336,
      "target": 34962
    },
    {
      "buffer": 0,
      "byteLength": 25976,
      "byteOffset": 967288,
      "target": 34962
    },
    {
      "buffer": 0,
      "byteLength": 36864,
      "byteOffset": 993264,
      "target": 34963
    },
    {
      "buffer": 0,
      "byteLength": 11724,
      "byteOffset": 1030128,
      "target": 34962
    },
    {
      "buffer": 0,
      "byteLength": 11724,
      "byteOffset": 1041852,
      "target": 34962
    },
    {
      "buffer": 0,
      "byteLength": 15632,
      "byteOffset": 1053576,
      "target": 34962
    },
    {
      "buffer": 0,
      "byteLength": 7816,
      "byteOffset": 1069208,
      "target": 34962
    },
    {
      "buffer": 0,
      "byteLength": 11088,
      "byteOffset": 1077024,
      "target": 34963
    },
    {
      "buffer": 0,
      "byteLength": 9432,
      "byteOffset": 1088112,
      "target": 34962
    },
    {
      "buffer": 0,
      "byteLength": 9432,
      "byteOffset": 1097544,
      "target": 34962
    },
    {
      "buffer": 0,
      "byteLength": 12576,
      "byteOffset": 1106976,
      "target": 34962
    },
    {
      "buffer": 0,
      "byteLength": 6288,
      "byteOffset": 1119552,
      "target": 34962
    },
    {
      "buffer": 0,
      "byteLength": 8784,
      "byteOffset": 1125840,
      "target": 34963
    },
    {
      "buffer": 0,
      "byteLength": 1008,
      "byteOffset": 1134624,
      "target": 34962
    },
    {
      "buffer": 0,
      "byteLength": 1008,
      "byteOffset": 1135632,
      "target": 34962
    },
    {
      "buffer": 0,
      "byteLength": 1344,
      "byteOffset": 1136640,
      "target": 34962
    },
    {
      "buffer": 0,
      "byteLength": 672,
      "byteOffset": 1137984,
      "target": 34962
    },
    {
      "buffer": 0,
      "byteLength": 960,
      "byteOffset": 1138656,
      "target": 34963
    },
    {
      "buffer": 0,
      "byteLength": 23544,
      "byteOffset": 1139616,
      "target": 34962
    },
    {
      "buffer": 0,
      "byteLength": 23544,
      "byteOffset": 1163160,
      "target": 34962
    },
    {
      "buffer": 0,
      "byteLength": 31392,
      "byteOffset": 1186704,
      "target": 34962
    },
    {
      "buffer": 0,
      "byteLength": 15696,
      "byteOffset": 1218096,
      "target": 34962
    },
    {
      "buffer": 0,
      "byteLength": 29088,
      "byteOffset": 1233792,
      "target": 34963
    },
    {
      "buffer": 0,
      "byteLength": 1008,
      "byteOffset": 1262880,
      "target": 34962
    },
    {
      "buffer": 0,
      "byteLength": 1008,
      "byteOffset": 1263888,
      "target": 34962
    },
    {
      "buffer": 0,
      "byteLength": 1344,
      "byteOffset": 1264896,
      "target": 34962
    },
    {
      "buffer": 0,
      "byteLength": 672,
      "byteOffset": 1266240,
      "target": 34962
    },
    {
      "buffer": 0,
      "byteLength": 960,
      "byteOffset": 1266912,
      "target": 34963
    },
    {
      "buffer": 0,
      "byteLength": 1008,
      "byteOffset": 1267872,
      "target": 34962
    },
    {
      "buffer": 0,
      "byteLength": 1008,
      "byteOffset": 1268880,
      "target": 34962
    },
    {
      "buffer": 0,
      "byteLength": 1344,
      "byteOffset": 1269888,
      "target": 34962
    },
    {
      "buffer": 0,
      "byteLength": 672,
      "byteOffset": 1271232,
      "target": 34962
    },
    {
      "buffer": 0,
      "byteLength": 960,
      "byteOffset": 1271904,
      "target": 34963
    },
    {
      "buffer": 0,
      "byteLength": 1008,
      "byteOffset": 1272864,
      "target": 34962
    },
    {
      "buffer": 0,
      "byteLength": 1008,
      "byteOffset": 1273872,
      "target": 34962
    },
    {
      "buffer": 0,
      "byteLength": 1344,
      "byteOffset": 1274880,
      "target": 34962
    },
    {
      "buffer": 0,
      "byteLength": 672,
      "byteOffset": 1276224,
      "target": 34962
    },
    {
      "buffer": 0,
      "byteLength": 960,
      "byteOffset": 1276896,
      "target": 34963
    },
    {
      "buffer": 0,
      "byteLength": 1008,
      "byteOffset": 1277856,
      "target": 34962
    },
    {
      "buffer": 0,
      "byteLength": 1008,
      "byteOffset": 1278864,
      "target": 34962
    },
    {
      "buffer": 0,
      "byteLength": 1344,
      "byteOffset": 1279872,
      "target": 34962
    },
    {
      "buffer": 0,
      "byteLength": 672,
      "byteOffset": 1281216,
      "target": 34962
    },
    {
      "buffer": 0,
      "byteLength": 960,
      "byteOffset": 1281888,
      "target": 34963
    }
  ],
  "buffers": [
    {
      "byteLength": 1282848,
      "uri": "result_asset.bin"
    }
  ],
  "images": [
    {
      "uri": "m_island_baseColor.png"
    },
    {
      "uri": "result_asset\\m_treasure_BaseColor.png"
    },
    {
      "uri": "result_asset\\m_treasure_Metalness.png"
    },
    {
      "uri": "result_asset\\m_treasure_Normal.png"
    },
    {
      "uri": "result_asset\\BaseColor.png"
    },
    {
      "uri": "result_asset\\Metalness.png"
    }
  ],
  "materials": [
    {
      "emissiveFactor": [
        1.0,
        1.0,
        1.0
      ],
      "name": "m_island",
      "pbrMetallicRoughness": {
        "baseColorFactor": [
          1.0,
          0.9446583390235901,
          0.7837837934494019,
          1.0
        ],
        "baseColorTexture": {
          "index": 0
        },
        "metallicFactor": 0.0
      }
    },
    {
      "emissiveFactor": [
        1.0,
        1.0,
        1.0
      ],
      "name": "m_treasure",
      "normalTexture": {
        "index": 3
      },
      "pbrMetallicRoughness": {
        "baseColorTexture": {
          "index": 1
        },
        "metallicFactor": 0.0,
        "metallicRoughnessTexture": {
          "index": 2
        }
      }
    },
    {
      "emissiveFactor": [
        1.0,
        1.0,
        1.0
      ],
      "name": "m_treasure_box",
      "pbrMetallicRoughness": {
        "baseColorTexture": {
          "index": 4
        },
        "metallicFactor": 0.0,
        "metallicRoughnessTexture": {
          "index": 5
        }
      }
    }
  ],
  "meshes": [
    {
      "primitives": [
        {
          "attributes": {
            "NORMAL": 1,
            "POSITION": 0,
            "TANGENT": 2,
            "TEXCOORD_0": 3
          },
          "indices": 4,
          "material": 0,
          "mode": 4
        }
      ]
    },
    {
      "primitives": [
        {
          "attributes": {
            "NORMAL": 6,
            "POSITION": 5,
            "TANGENT": 7,
            "TEXCOORD_0": 8
          },
          "indices": 9,
          "material": 1,
          "mode": 4
        }
      ]
    },
    {
      "primitives": [
        {
          "attributes": {
            "NORMAL": 11,
            "POSITION": 10,
            "TANGENT": 12,
            "TEXCOORD_0": 13
          },
          "indices": 14,
          "material": 1,
          "mode": 4
        }
      ]
    },
    {
      "primitives": [
        {
          "attributes": {
            "NORMAL": 16,
            "POSITION": 15,
            "TANGENT": 17,
            "TEXCOORD_0": 18
          },
          "indices": 19,
          "material": 1,
          "mode": 4
        }
      ]
    },
    {
      "primitives": [
        {
          "attributes": {
            "NORMAL": 21,
            "POSITION": 20,
            "TANGENT": 22,
            "TEXCOORD_0": 23
          },
          "indices": 24,
          "material": 1,
          "mode": 4
        }
      ]
    },
    {
      "primitives": [
        {
          "attributes": {
            "NORMAL": 26,
            "POSITION": 25,
            "TANGENT": 27,
            "TEXCOORD_0": 28
          },
          "indices": 29,
          "material": 1,
          "mode": 4
        }
      ]
    },
    {
      "primitives": [
        {
          "attributes": {
            "NORMAL": 31,
            "POSITION": 30,
            "TANGENT": 32,
            "TEXCOORD_0": 33
          },
          "indices": 34,
          "material": 1,
          "mode": 4
        }
      ]
    },
    {
      "primitives": [
        {
          "attributes": {
            "NORMAL": 36,
            "POSITION": 35,
            "TANGENT": 37,
            "TEXCOORD_0": 38
          },
          "indices": 39,
          "material": 2,
          "mode": 4
        }
      ]
    },
    {
      "primitives": [
        {
          "attributes": {
            "NORMAL": 41,
            "POSITION": 40,
            "TANGENT": 42,
            "TEXCOORD_0": 43
          },
          "indices": 44,
          "material": 2,
          "mode": 4
        }
      ]
    },
    {
      "primitives": [
        {
          "attributes": {
            "NORMAL": 46,
            "POSITION": 45,
            "TANGENT": 47,
            "TEXCOORD_0": 48
          },
          "indices": 49,
          "material": 1,
          "mode": 4
        }
      ]
    },
    {
      "primitives": [
        {
          "attributes": {
            "NORMAL": 51,
            "POSITION": 50,
            "TANGENT": 52,
            "TEXCOORD_0": 53
          },
          "indices": 54,
          "material": 1,
          "mode": 4
        }
      ]
    },
    {
      "primitives": [
        {
          "attributes": {
            "NORMAL": 56,
            "POSITION": 55,
            "TANGENT": 57,
            "TEXCOORD_0": 58
          },
          "indices": 59,
          "material": 1,
          "mode": 4
        }
      ]
    },
    {
      "primitives": [
        {
          "attributes": {
            "NORMAL": 61,
            "POSITION": 60,
            "TANGENT": 62,
            "TEXCOORD_0": 63
          },
          "indices": 64,
          "material": 1,
          "mode": 4
        }
      ]
    },
    {
      "primitives": [
        {
          "attributes": {
            "NORMAL": 66,
            "POSITION": 65,
            "TANGENT": 67,
            "TEXCOORD_0": 68
          },
          "indices": 69,
          "material": 1,
          "mode": 4
        }
      ]
    },
    {
      "primitives": [
        {
          "attributes": {
            "NORMAL": 71,
            "POSITION": 70,
            "TANGENT": 72,
            "TEXCOORD_0": 73
          },
          "indices": 74,
          "material": 1,
          "mode": 4
        }
      ]
    }
  ],
  "nodes": [
    {
      "children": [
        1
      ],
      "name": "island",
      "rotation": [
        0.0,
        0.0,
        0.0,
        1.0
      ],
      "scale": [
        1238.891845703125,
        155.43724060058594,
        1238.891845703125
      ],
      "translation": [
        0.0,
        -183.25308227539063,
        0.0
      ]
    },
    {
      "mesh": 0,
      "name": "island",
      "rotation": [
        0.0,
        0.0,
        0.0,
        1.0
      ],
      "scale": [
        1.0,
        1.0,
        1.0
      ],
      "translation": [
        0.0,
        0.00025373653625138104,
        0.0
      ]
    },
    {
      "children": [
        3
      ],
      "mesh": 1,
      "name": "treasure3",
      "rotation": [
        0.0,
        0.0,
        0.0,
        1.0
      ],
      "scale": [
        1.0,
        1.0,
        1.0
      ],
      "translation": [
        0.0,
        0.0,
        0.0
      ]
    },
    {
      "mesh": 2,
      "name": "treasure3_coin",
      "rotation": [
        0.0,
        0.0,
        0.0,
        1.0
      ],
      "scale": [
        1.0,
        1.0,
        1.0
      ],
      "translation": [
        0.0,
        0.0,
        0.0
      ]
    },
    {
      "children": [
        5
      ],
      "mesh": 3,
      "name": "treasure2",
      "rotation": [
        0.0,
        0.0,
        0.0,
        1.0
      ],
      "scale": [
        1.0,
        1.0,
        1.0
      ],
      "translation": [
        0.0,
        0.0,
        0.0
      ]
    },
    {
      "mesh": 4,
      "name": "treasure2_coin",
      "rotation": [
        0.0,
        0.0,
        0.0,
        1.0
      ],
      "scale": [
        1.0,
        1.0,
        1.0
      ],
      "translation": [
        0.0,
        0.0,
        0.0
      ]
    },
    {
      "children": [
        7
      ],
      "mesh": 5,
      "name": "treasure1",
      "rotation": [
        0.0,
        0.0,
        0.0,
        1.0
      ],
      "scale": [
        1.0,
        1.0,
        1.0
      ],
      "translation": [
        0.0,
        0.0,
        0.0
      ]
    },
    {
      "mesh": 6,
      "name": "treasure1_coin",
      "rotation": [
        0.0,
        0.0,
        0.0,
        1.0
      ],
      "scale": [
        1.0,
        1.0,
        1.0
      ],
      "translation": [
        0.0,
        0.0,
        0.0
      ]
    },
    {
      "mesh": 7,
      "name": "treasure_box_down",
      "rotation": [
        0.0,
        0.0,
        0.0,
        1.0
      ],
      "scale": [
        1.0,
        1.0,
        1.0
      ],
      "translation": [
        0.0,
        0.0,
        0.0
      ]
    },
    {
      "mesh": 8,
      "name": "treasure_box_up",
      "rotation": [
        0.5714513659477234,
        0.0,
        0.0,
        0.8206359148025513
      ],
      "scale": [
        1.0,
        1.0,
        1.0
      ],
      "translation": [
        0.0,
        68.93724822998047,
        -22.669469833374023
      ]
    },
    {
      "mesh": 9,
      "name": "treasure_coin_low",
      "rotation": [
        0.0,
        0.0,
        0.0,
        1.0
      ],
      "scale": [
        1.0,
        1.0,
        1.0
      ],
      "translation": [
        0.0,
        0.0,
        0.0
      ]
    },
    {
      "mesh": 10,
      "name": "crown1",
      "rotation": [
        0.1105860099196434,
        0.9437792301177979,
        0.18863116204738617,
        -0.24793100357055664
      ],
      "scale": [
        1.0,
        1.0,
        1.0
      ],
      "translation": [
        76.43800354003906,
        -7.489786624908447,
        -58.92838668823242
      ]
    },
    {
      "mesh": 11,
      "name": "treasure_coin_low1",
      "rotation": [
        0.04049279913306236,
        0.48586156964302063,
        -0.006182061042636633,
        0.8730753660202026
      ],
      "scale": [
        1.0,
        1.0,
        1.0
      ],
      "translation": [
        64.93569946289063,
        2.285247802734375,
        -55.248409271240234
      ]
    },
    {
      "mesh": 12,
      "name": "treasure_coin_low2",
      "rotation": [
        0.13303428888320923,
        -0.08419796824455261,
        -0.03717389702796936,
        0.986828625202179
      ],
      "scale": [
        1.0,
        1.0,
        1.0
      ],
      "translation": [
        75.7665023803711,
        0.6885018348693848,
        -54.701393127441406
      ]
    },
    {
      "mesh": 13,
      "name": "treasure_coin_low3",
      "rotation": [
        0.035780780017375946,
        0.4704488217830658,
        -0.028823649510741234,
        0.8812302947044373
      ],
      "scale": [
        1.0,
        1.0,
        1.0
      ],
      "translation": [
        76.3054428100586,
        1.4089792966842651,
        -74.00084686279297
      ]
    },
    {
      "mesh": 14,
      "name": "treasure_coin_low4",
      "rotation": [
        0.035780780017375946,
        0.4704488217830658,
        -0.028823649510741234,
        0.8812302947044373
      ],
      "scale": [
        1.0,
        1.0,
        1.0
      ],
      "translation": [
        63.55250930786133,
        0.4488445818424225,
        -42.983970642089844
      ]
    }
  ],
  "samplers": [
    {
      "wrapS": 10497,
      "wrapT": 10497
    }
  ],
  "scenes": [
    {
      "nodes": [
        0,
        2,
        4,
        6,
        8,
        9,
        10,
        11,
        12,
        13,
        14,
        15
      ]
    }
  ],
  "textures": [
    {
      "sampler": 0,
      "source": 0
    },
    {
      "sampler": 0,
      "source": 1
    },
    {
      "sampler": 0,
      "source": 2
    },
    {
      "sampler": 0,
      "source": 3
    },
    {
      "sampler": 0,
      "source": 4
    },
    {
      "sampler": 0,
      "source": 5
    }
  ]
}
