{
	"asset":{
		"generator":"Khronos glTF Blender I/O v4.2.57",
		"version":"2.0"
	},
	"scene":0,
	"scenes":[
		{
			"name":"Scene",
			"nodes":[
				0,
				2,
				4,
				6,
				7,
				8,
				9,
				10,
				11,
				12,
				13,
				14
			]
		}
	],
	"nodes":[
		{
			"name":"island",
			"scale":[
				1238.891845703125,
				155.43724060058594,
				1238.891845703125
			],
			"translation":[
				0,
				-183.25308227539062,
				0
			]
		},
		{
			"mesh":0,
			"name":"treasure3_coin"
		},
		{
			"children":[
				1
			],
			"mesh":1,
			"name":"treasure3"
		},
		{
			"mesh":2,
			"name":"treasure2_coin"
		},
		{
			"children":[
				3
			],
			"mesh":3,
			"name":"treasure2"
		},
		{
			"mesh":4,
			"name":"treasure1_coin"
		},
		{
			"children":[
				5
			],
			"mesh":5,
			"name":"treasure1"
		},
		{
			"mesh":6,
			"name":"treasure_box_down"
		},
		{
			"mesh":7,
			"name":"treasure_box_up",
			"rotation":[
				0.5714514255523682,
				0,
				0,
				0.8206359148025513
			],
			"translation":[
				0,
				68.93724822998047,
				-22.669469833374023
			]
		},
		{
			"mesh":8,
			"name":"treasure_coin_low"
		},
		{
			"mesh":9,
			"name":"crown1",
			"rotation":[
				-0.1105860024690628,
				-0.9437792897224426,
				-0.18863113224506378,
				0.24793097376823425
			],
			"translation":[
				76.43800354003906,
				-7.489786624908447,
				-58.92838668823242
			]
		},
		{
			"mesh":10,
			"name":"treasure_coin_low1",
			"rotation":[
				0.04049280658364296,
				0.4858616590499878,
				-0.006182062905281782,
				0.8730753660202026
			],
			"translation":[
				64.93569946289062,
				2.285247802734375,
				-55.248409271240234
			]
		},
		{
			"mesh":11,
			"name":"treasure_coin_low2",
			"rotation":[
				0.13303430378437042,
				-0.0841979831457138,
				-0.03717390447854996,
				0.9868286848068237
			],
			"translation":[
				75.7665023803711,
				0.6885018348693848,
				-54.701393127441406
			]
		},
		{
			"mesh":12,
			"name":"treasure_coin_low3",
			"rotation":[
				0.035780783742666245,
				0.4704488515853882,
				-0.028823653236031532,
				0.8812302947044373
			],
			"translation":[
				76.3054428100586,
				1.4089792966842651,
				-74.00084686279297
			]
		},
		{
			"mesh":13,
			"name":"treasure_coin_low4",
			"rotation":[
				0.035780783742666245,
				0.4704488515853882,
				-0.028823653236031532,
				0.8812302947044373
			],
			"translation":[
				63.55250930786133,
				0.4488445818424225,
				-42.983970642089844
			]
		}
	],
	"materials":[
		{
			"emissiveFactor":[
				1,
				1,
				1
			],
			"name":"m_treasure",
			"normalTexture":{
				"index":0
			},
			"pbrMetallicRoughness":{
				"baseColorTexture":{
					"index":1
				},
				"metallicFactor":0,
				"metallicRoughnessTexture":{
					"index":2
				}
			}
		},
		{
			"emissiveFactor":[
				1,
				1,
				1
			],
			"name":"m_treasure_box",
			"pbrMetallicRoughness":{
				"baseColorTexture":{
					"index":3
				},
				"metallicFactor":0,
				"metallicRoughnessTexture":{
					"index":4
				}
			}
		}
	],
	"meshes":[
		{
			"name":"Mesh_2",
			"primitives":[
				{
					"attributes":{
						"POSITION":0,
						"NORMAL":1,
						"TEXCOORD_0":2
					},
					"indices":3,
					"material":0
				}
			]
		},
		{
			"name":"Mesh_1",
			"primitives":[
				{
					"attributes":{
						"POSITION":4,
						"NORMAL":5,
						"TEXCOORD_0":6
					},
					"indices":7,
					"material":0
				}
			]
		},
		{
			"name":"Mesh_4",
			"primitives":[
				{
					"attributes":{
						"POSITION":8,
						"NORMAL":9,
						"TEXCOORD_0":10
					},
					"indices":11,
					"material":0
				}
			]
		},
		{
			"name":"Mesh_3",
			"primitives":[
				{
					"attributes":{
						"POSITION":12,
						"NORMAL":13,
						"TEXCOORD_0":14
					},
					"indices":15,
					"material":0
				}
			]
		},
		{
			"name":"Mesh_6",
			"primitives":[
				{
					"attributes":{
						"POSITION":16,
						"NORMAL":17,
						"TEXCOORD_0":18
					},
					"indices":19,
					"material":0
				}
			]
		},
		{
			"name":"Mesh_5",
			"primitives":[
				{
					"attributes":{
						"POSITION":20,
						"NORMAL":21,
						"TEXCOORD_0":22
					},
					"indices":23,
					"material":0
				}
			]
		},
		{
			"name":"Mesh_7",
			"primitives":[
				{
					"attributes":{
						"POSITION":24,
						"NORMAL":25,
						"TEXCOORD_0":26
					},
					"indices":27,
					"material":1
				}
			]
		},
		{
			"name":"Mesh_8",
			"primitives":[
				{
					"attributes":{
						"POSITION":28,
						"NORMAL":29,
						"TEXCOORD_0":30
					},
					"indices":31,
					"material":1
				}
			]
		},
		{
			"name":"Mesh_9",
			"primitives":[
				{
					"attributes":{
						"POSITION":32,
						"NORMAL":33,
						"TEXCOORD_0":34
					},
					"indices":35,
					"material":0
				}
			]
		},
		{
			"name":"Mesh_10",
			"primitives":[
				{
					"attributes":{
						"POSITION":36,
						"NORMAL":37,
						"TEXCOORD_0":38
					},
					"indices":39,
					"material":0
				}
			]
		},
		{
			"name":"Mesh_11",
			"primitives":[
				{
					"attributes":{
						"POSITION":40,
						"NORMAL":41,
						"TEXCOORD_0":42
					},
					"indices":35,
					"material":0
				}
			]
		},
		{
			"name":"Mesh_12",
			"primitives":[
				{
					"attributes":{
						"POSITION":43,
						"NORMAL":44,
						"TEXCOORD_0":45
					},
					"indices":35,
					"material":0
				}
			]
		},
		{
			"name":"Mesh_13",
			"primitives":[
				{
					"attributes":{
						"POSITION":46,
						"NORMAL":47,
						"TEXCOORD_0":48
					},
					"indices":35,
					"material":0
				}
			]
		},
		{
			"name":"Mesh_14",
			"primitives":[
				{
					"attributes":{
						"POSITION":49,
						"NORMAL":50,
						"TEXCOORD_0":51
					},
					"indices":35,
					"material":0
				}
			]
		}
	],
	"textures":[
		{
			"sampler":0,
			"source":0
		},
		{
			"sampler":0,
			"source":1
		},
		{
			"sampler":0,
			"source":2
		},
		{
			"sampler":0,
			"source":3
		},
		{
			"sampler":0,
			"source":4
		}
	],
	"images":[
		{
			"mimeType":"image/png",
			"name":"m_treasure_Normal",
			"uri":"m_treasure_Normal.png"
		},
		{
			"mimeType":"image/png",
			"name":"m_treasure_BaseColor",
			"uri":"m_treasure_BaseColor.png"
		},
		{
			"mimeType":"image/png",
			"name":"m_treasure_Metalness",
			"uri":"m_treasure_Metalness.png"
		},
		{
			"mimeType":"image/png",
			"name":"BaseColor",
			"uri":"BaseColor.png"
		},
		{
			"mimeType":"image/png",
			"name":"Metalness",
			"uri":"Metalness.png"
		}
	],
	"accessors":[
		{
			"bufferView":0,
			"componentType":5126,
			"count":7765,
			"max":[
				49.67982864379883,
				84.56427001953125,
				35.47853469848633
			],
			"min":[
				-47.6390380859375,
				38.506935119628906,
				-32.96495056152344
			],
			"type":"VEC3"
		},
		{
			"bufferView":1,
			"componentType":5126,
			"count":7765,
			"type":"VEC3"
		},
		{
			"bufferView":2,
			"componentType":5126,
			"count":7765,
			"type":"VEC2"
		},
		{
			"bufferView":3,
			"componentType":5123,
			"count":23304,
			"type":"SCALAR"
		},
		{
			"bufferView":4,
			"componentType":5126,
			"count":786,
			"max":[
				47.65986633300781,
				66.61259460449219,
				32.92195129394531
			],
			"min":[
				-38.348594665527344,
				30.60376739501953,
				-31.204750061035156
			],
			"type":"VEC3"
		},
		{
			"bufferView":5,
			"componentType":5126,
			"count":786,
			"type":"VEC3"
		},
		{
			"bufferView":6,
			"componentType":5126,
			"count":786,
			"type":"VEC2"
		},
		{
			"bufferView":7,
			"componentType":5123,
			"count":3252,
			"type":"SCALAR"
		},
		{
			"bufferView":8,
			"componentType":5126,
			"count":3902,
			"max":[
				26.303760528564453,
				53.42310333251953,
				31.752878189086914
			],
			"min":[
				-44.718727111816406,
				19.4449405670166,
				-30.93147850036621
			],
			"type":"VEC3"
		},
		{
			"bufferView":9,
			"componentType":5126,
			"count":3902,
			"type":"VEC3"
		},
		{
			"bufferView":10,
			"componentType":5126,
			"count":3902,
			"type":"VEC2"
		},
		{
			"bufferView":11,
			"componentType":5123,
			"count":10896,
			"type":"SCALAR"
		},
		{
			"bufferView":12,
			"componentType":5126,
			"count":764,
			"max":[
				20.895002365112305,
				50.107418060302734,
				33.31338119506836
			],
			"min":[
				-48.539451599121094,
				16.1356143951416,
				-30.14937400817871
			],
			"type":"VEC3"
		},
		{
			"bufferView":13,
			"componentType":5126,
			"count":764,
			"type":"VEC3"
		},
		{
			"bufferView":14,
			"componentType":5126,
			"count":764,
			"type":"VEC2"
		},
		{
			"bufferView":15,
			"componentType":5123,
			"count":3252,
			"type":"SCALAR"
		},
		{
			"bufferView":16,
			"componentType":5126,
			"count":3341,
			"max":[
				41.90867614746094,
				30.873559951782227,
				28.885299682617188
			],
			"min":[
				-37.97117233276367,
				3.0358519554138184,
				-26.434616088867188
			],
			"type":"VEC3"
		},
		{
			"bufferView":17,
			"componentType":5126,
			"count":3341,
			"type":"VEC3"
		},
		{
			"bufferView":18,
			"componentType":5126,
			"count":3341,
			"type":"VEC2"
		},
		{
			"bufferView":19,
			"componentType":5123,
			"count":9216,
			"type":"SCALAR"
		},
		{
			"bufferView":20,
			"componentType":5126,
			"count":119,
			"max":[
				48.103790283203125,
				23.356115341186523,
				32.258934020996094
			],
			"min":[
				-25.68263053894043,
				2.6230521202087402,
				-27.532461166381836
			],
			"type":"VEC3"
		},
		{
			"bufferView":21,
			"componentType":5126,
			"count":119,
			"type":"VEC3"
		},
		{
			"bufferView":22,
			"componentType":5126,
			"count":119,
			"type":"VEC2"
		},
		{
			"bufferView":23,
			"componentType":5123,
			"count":624,
			"type":"SCALAR"
		},
		{
			"bufferView":24,
			"componentType":5126,
			"count":1050,
			"max":[
				52.236053466796875,
				50.993839263916016,
				38.70337677001953
			],
			"min":[
				-52.236053466796875,
				-0.15490257740020752,
				-37.5687255859375
			],
			"type":"VEC3"
		},
		{
			"bufferView":25,
			"componentType":5126,
			"count":1050,
			"type":"VEC3"
		},
		{
			"bufferView":26,
			"componentType":5126,
			"count":1050,
			"type":"VEC2"
		},
		{
			"bufferView":27,
			"componentType":5123,
			"count":2772,
			"type":"SCALAR"
		},
		{
			"bufferView":28,
			"componentType":5126,
			"count":786,
			"max":[
				52.03606033325195,
				90.97198486328125,
				38.164127349853516
			],
			"min":[
				-52.03606033325195,
				50.74592590332031,
				-36.96292495727539
			],
			"type":"VEC3"
		},
		{
			"bufferView":29,
			"componentType":5126,
			"count":786,
			"type":"VEC3"
		},
		{
			"bufferView":30,
			"componentType":5126,
			"count":786,
			"type":"VEC2"
		},
		{
			"bufferView":31,
			"componentType":5123,
			"count":2196,
			"type":"SCALAR"
		},
		{
			"bufferView":32,
			"componentType":5126,
			"count":84,
			"max":[
				5.901471138000488,
				1.5519943237304688,
				5.901471138000488
			],
			"min":[
				-5.901471138000488,
				-1.5519943237304688,
				-5.901472091674805
			],
			"type":"VEC3"
		},
		{
			"bufferView":33,
			"componentType":5126,
			"count":84,
			"type":"VEC3"
		},
		{
			"bufferView":34,
			"componentType":5126,
			"count":84,
			"type":"VEC2"
		},
		{
			"bufferView":35,
			"componentType":5123,
			"count":240,
			"type":"SCALAR"
		},
		{
			"bufferView":36,
			"componentType":5126,
			"count":1962,
			"max":[
				18.165977478027344,
				25.342193603515625,
				20.83974266052246
			],
			"min":[
				-18.165977478027344,
				8.331816673278809,
				-20.83974266052246
			],
			"type":"VEC3"
		},
		{
			"bufferView":37,
			"componentType":5126,
			"count":1962,
			"type":"VEC3"
		},
		{
			"bufferView":38,
			"componentType":5126,
			"count":1962,
			"type":"VEC2"
		},
		{
			"bufferView":39,
			"componentType":5123,
			"count":7272,
			"type":"SCALAR"
		},
		{
			"bufferView":40,
			"componentType":5126,
			"count":84,
			"max":[
				5.901471138000488,
				1.5519943237304688,
				5.901471138000488
			],
			"min":[
				-5.901471138000488,
				-1.5519943237304688,
				-5.901472091674805
			],
			"type":"VEC3"
		},
		{
			"bufferView":41,
			"componentType":5126,
			"count":84,
			"type":"VEC3"
		},
		{
			"bufferView":42,
			"componentType":5126,
			"count":84,
			"type":"VEC2"
		},
		{
			"bufferView":43,
			"componentType":5126,
			"count":84,
			"max":[
				5.901471138000488,
				1.5519943237304688,
				5.901471138000488
			],
			"min":[
				-5.901471138000488,
				-1.5519943237304688,
				-5.901472091674805
			],
			"type":"VEC3"
		},
		{
			"bufferView":44,
			"componentType":5126,
			"count":84,
			"type":"VEC3"
		},
		{
			"bufferView":45,
			"componentType":5126,
			"count":84,
			"type":"VEC2"
		},
		{
			"bufferView":46,
			"componentType":5126,
			"count":84,
			"max":[
				5.901471138000488,
				1.5519943237304688,
				5.901471138000488
			],
			"min":[
				-5.901471138000488,
				-1.5519943237304688,
				-5.901472091674805
			],
			"type":"VEC3"
		},
		{
			"bufferView":47,
			"componentType":5126,
			"count":84,
			"type":"VEC3"
		},
		{
			"bufferView":48,
			"componentType":5126,
			"count":84,
			"type":"VEC2"
		},
		{
			"bufferView":49,
			"componentType":5126,
			"count":84,
			"max":[
				5.901471138000488,
				1.5519943237304688,
				5.901471138000488
			],
			"min":[
				-5.901471138000488,
				-1.5519943237304688,
				-5.901472091674805
			],
			"type":"VEC3"
		},
		{
			"bufferView":50,
			"componentType":5126,
			"count":84,
			"type":"VEC3"
		},
		{
			"bufferView":51,
			"componentType":5126,
			"count":84,
			"type":"VEC2"
		}
	],
	"bufferViews":[
		{
			"buffer":0,
			"byteLength":93180,
			"byteOffset":0,
			"target":34962
		},
		{
			"buffer":0,
			"byteLength":93180,
			"byteOffset":93180,
			"target":34962
		},
		{
			"buffer":0,
			"byteLength":62120,
			"byteOffset":186360,
			"target":34962
		},
		{
			"buffer":0,
			"byteLength":46608,
			"byteOffset":248480,
			"target":34963
		},
		{
			"buffer":0,
			"byteLength":9432,
			"byteOffset":295088,
			"target":34962
		},
		{
			"buffer":0,
			"byteLength":9432,
			"byteOffset":304520,
			"target":34962
		},
		{
			"buffer":0,
			"byteLength":6288,
			"byteOffset":313952,
			"target":34962
		},
		{
			"buffer":0,
			"byteLength":6504,
			"byteOffset":320240,
			"target":34963
		},
		{
			"buffer":0,
			"byteLength":46824,
			"byteOffset":326744,
			"target":34962
		},
		{
			"buffer":0,
			"byteLength":46824,
			"byteOffset":373568,
			"target":34962
		},
		{
			"buffer":0,
			"byteLength":31216,
			"byteOffset":420392,
			"target":34962
		},
		{
			"buffer":0,
			"byteLength":21792,
			"byteOffset":451608,
			"target":34963
		},
		{
			"buffer":0,
			"byteLength":9168,
			"byteOffset":473400,
			"target":34962
		},
		{
			"buffer":0,
			"byteLength":9168,
			"byteOffset":482568,
			"target":34962
		},
		{
			"buffer":0,
			"byteLength":6112,
			"byteOffset":491736,
			"target":34962
		},
		{
			"buffer":0,
			"byteLength":6504,
			"byteOffset":497848,
			"target":34963
		},
		{
			"buffer":0,
			"byteLength":40092,
			"byteOffset":504352,
			"target":34962
		},
		{
			"buffer":0,
			"byteLength":40092,
			"byteOffset":544444,
			"target":34962
		},
		{
			"buffer":0,
			"byteLength":26728,
			"byteOffset":584536,
			"target":34962
		},
		{
			"buffer":0,
			"byteLength":18432,
			"byteOffset":611264,
			"target":34963
		},
		{
			"buffer":0,
			"byteLength":1428,
			"byteOffset":629696,
			"target":34962
		},
		{
			"buffer":0,
			"byteLength":1428,
			"byteOffset":631124,
			"target":34962
		},
		{
			"buffer":0,
			"byteLength":952,
			"byteOffset":632552,
			"target":34962
		},
		{
			"buffer":0,
			"byteLength":1248,
			"byteOffset":633504,
			"target":34963
		},
		{
			"buffer":0,
			"byteLength":12600,
			"byteOffset":634752,
			"target":34962
		},
		{
			"buffer":0,
			"byteLength":12600,
			"byteOffset":647352,
			"target":34962
		},
		{
			"buffer":0,
			"byteLength":8400,
			"byteOffset":659952,
			"target":34962
		},
		{
			"buffer":0,
			"byteLength":5544,
			"byteOffset":668352,
			"target":34963
		},
		{
			"buffer":0,
			"byteLength":9432,
			"byteOffset":673896,
			"target":34962
		},
		{
			"buffer":0,
			"byteLength":9432,
			"byteOffset":683328,
			"target":34962
		},
		{
			"buffer":0,
			"byteLength":6288,
			"byteOffset":692760,
			"target":34962
		},
		{
			"buffer":0,
			"byteLength":4392,
			"byteOffset":699048,
			"target":34963
		},
		{
			"buffer":0,
			"byteLength":1008,
			"byteOffset":703440,
			"target":34962
		},
		{
			"buffer":0,
			"byteLength":1008,
			"byteOffset":704448,
			"target":34962
		},
		{
			"buffer":0,
			"byteLength":672,
			"byteOffset":705456,
			"target":34962
		},
		{
			"buffer":0,
			"byteLength":480,
			"byteOffset":706128,
			"target":34963
		},
		{
			"buffer":0,
			"byteLength":23544,
			"byteOffset":706608,
			"target":34962
		},
		{
			"buffer":0,
			"byteLength":23544,
			"byteOffset":730152,
			"target":34962
		},
		{
			"buffer":0,
			"byteLength":15696,
			"byteOffset":753696,
			"target":34962
		},
		{
			"buffer":0,
			"byteLength":14544,
			"byteOffset":769392,
			"target":34963
		},
		{
			"buffer":0,
			"byteLength":1008,
			"byteOffset":783936,
			"target":34962
		},
		{
			"buffer":0,
			"byteLength":1008,
			"byteOffset":784944,
			"target":34962
		},
		{
			"buffer":0,
			"byteLength":672,
			"byteOffset":785952,
			"target":34962
		},
		{
			"buffer":0,
			"byteLength":1008,
			"byteOffset":786624,
			"target":34962
		},
		{
			"buffer":0,
			"byteLength":1008,
			"byteOffset":787632,
			"target":34962
		},
		{
			"buffer":0,
			"byteLength":672,
			"byteOffset":788640,
			"target":34962
		},
		{
			"buffer":0,
			"byteLength":1008,
			"byteOffset":789312,
			"target":34962
		},
		{
			"buffer":0,
			"byteLength":1008,
			"byteOffset":790320,
			"target":34962
		},
		{
			"buffer":0,
			"byteLength":672,
			"byteOffset":791328,
			"target":34962
		},
		{
			"buffer":0,
			"byteLength":1008,
			"byteOffset":792000,
			"target":34962
		},
		{
			"buffer":0,
			"byteLength":1008,
			"byteOffset":793008,
			"target":34962
		},
		{
			"buffer":0,
			"byteLength":672,
			"byteOffset":794016,
			"target":34962
		}
	],
	"samplers":[
		{
			"magFilter":9729,
			"minFilter":9987
		}
	],
	"buffers":[
		{
			"byteLength":794688,
			"uri":"treasureBox.bin"
		}
	]
}
