{
  "accessors": [
    {
      "bufferView": 0,
      "componentType": 5126,
      "count": 141,
      "max": [
        0.9148365259170532,
        0.9756942987442017,
        0.9148365259170532
      ],
      "min": [
        -0.9148365259170532,
        -1.029608964920044,
        -0.9148365259170532
      ],
      "type": "VEC3"
    },
    {
      "bufferView": 1,
      "componentType": 5126,
      "count": 141,
      "max": [
        0.9999399185180664,
        1.0,
        0.9999399185180664
      ],
      "min": [
        -0.9999399185180664,
        -0.01171005330979824,
        -0.9999399185180664
      ],
      "type": "VEC3"
    },
    {
      "bufferView": 2,
      "componentType": 5126,
      "count": 141,
      "max": [
        1.0,
        0.4021013379096985,
        1.0,
        1.0
      ],
      "min": [
        -0.7056740522384644,
        -0.4021012485027313,
        -1.0,
        1.0
      ],
      "type": "VEC4"
    },
    {
      "bufferView": 3,
      "componentType": 5126,
      "count": 141,
      "max": [
        0.875,
        0.90234375
      ],
      "min": [
        0.125,
        0.34765625
      ],
      "type": "VEC2"
    },
    {
      "bufferView": 4,
      "componentType": 5125,
      "count": 672,
      "max": [
        140
      ],
      "min": [
        0
      ],
      "type": "SCALAR"
    }
  ],
  "asset": {
    "version": "2.0"
  },
  "bufferViews": [
    {
      "buffer": 0,
      "byteLength": 1692,
      "target": 34962
    },
    {
      "buffer": 0,
      "byteLength": 1692,
      "byteOffset": 1692,
      "target": 34962
    },
    {
      "buffer": 0,
      "byteLength": 2256,
      "byteOffset": 3384,
      "target": 34962
    },
    {
      "buffer": 0,
      "byteLength": 1128,
      "byteOffset": 5640,
      "target": 34962
    },
    {
      "buffer": 0,
      "byteLength": 2688,
      "byteOffset": 6768,
      "target": 34963
    }
  ],
  "buffers": [
    {
      "byteLength": 9456,
      "uri": "data:application/octet-stream;base64,"
    }
  ],
  "materials": [
    {
      "name": "standardSurface1",
      "pbrMetallicRoughness": {
        "baseColorFactor": [
          0.0,
          1.0,
          0.08494114875793457,
          1.0
        ],
        "metallicFactor": 0.0
      }
    }
  ],
  "meshes": [
    {
      "primitives": [
        {
          "attributes": {
            "NORMAL": 1,
            "POSITION": 0,
            "TANGENT": 2,
            "TEXCOORD_0": 3
          },
          "indices": 4,
          "material": 0,
          "mode": 4
        }
      ]
    }
  ],
  "nodes": [
    {
      "mesh": 0,
      "name": "Oden_Bubble_Model",
      "rotation": [
        0.0,
        0.0,
        0.0,
        1.0
      ],
      "scale": [
        3.0784008502960205,
        8.049735069274902,
        2.64558482170105
      ],
      "translation": [
        0.0,
        0.0,
        0.0
      ]
    }
  ],
  "samplers": [
    {
      "wrapS": 10497,
      "wrapT": 10497
    }
  ],
  "scenes": [
    {
      "nodes": [
        0
      ]
    }
  ]
}
