{
  "accessors": [
    {
      "bufferView": 0,
      "componentType": 5126,
      "count": 151,
      "max": [
        2.8162333965301514,
        4.7725324630737305,
        2.4202775955200195
      ],
      "min": [
        -2.8162333965301514,
        -11.369627952575684,
        -2.4202775955200195
      ],
      "type": "VEC3"
    },
    {
      "bufferView": 1,
      "componentType": 5126,
      "count": 151,
      "max": [
        0.999991238117218,
        1.0,
        0.9999935030937195
      ],
      "min": [
        -0.999991238117218,
        -0.004227626137435436,
        -0.9999935030937195
      ],
      "type": "VEC3"
    },
    {
      "bufferView": 2,
      "componentType": 5126,
      "count": 151,
      "max": [
        1.0,
        0.5488330721855164,
        0.9999992847442627,
        1.0
      ],
      "min": [
        -1.0,
        -0.5488331913948059,
        -0.9999991059303284,
        1.0
      ],
      "type": "VEC4"
    },
    {
      "bufferView": 3,
      "componentType": 5126,
      "count": 151,
      "max": [
        0.9578709006309509,
        0.9761636853218079
      ],
      "min": [
        0.024780329316854477,
        0.011995792388916016
      ],
      "type": "VEC2"
    },
    {
      "bufferView": 4,
      "componentType": 5125,
      "count": 672,
      "max": [
        150
      ],
      "min": [
        0
      ],
      "type": "SCALAR"
    }
  ],
  "asset": {
    "version": "2.0"
  },
  "bufferViews": [
    {
      "buffer": 0,
      "byteLength": 1812,
      "target": 34962
    },
    {
      "buffer": 0,
      "byteLength": 1812,
      "byteOffset": 1812,
      "target": 34962
    },
    {
      "buffer": 0,
      "byteLength": 2416,
      "byteOffset": 3624,
      "target": 34962
    },
    {
      "buffer": 0,
      "byteLength": 1208,
      "byteOffset": 6040,
      "target": 34962
    },
    {
      "buffer": 0,
      "byteLength": 2688,
      "byteOffset": 7248,
      "target": 34963
    }
  ],
  "buffers": [
    {
      "byteLength": 9936,
      "uri": "data:application/octet-stream;base64,"
    }
  ],
  "images": [
    {
      "uri": "Oden_Person_Model2.fbm/suit2.png"
    }
  ],
  "materials": [
    {
      "name": "human2",
      "pbrMetallicRoughness": {
        "baseColorFactor": [
          1.0,
          0.9999899864196777,
          0.9999899864196777,
          1.0
        ],
        "baseColorTexture": {
          "index": 0
        },
        "metallicFactor": 0.0
      }
    }
  ],
  "meshes": [
    {
      "primitives": [
        {
          "attributes": {
            "NORMAL": 1,
            "POSITION": 0,
            "TANGENT": 2,
            "TEXCOORD_0": 3
          },
          "indices": 4,
          "material": 0,
          "mode": 4
        }
      ]
    }
  ],
  "nodes": [
    {
      "mesh": 0,
      "name": "Oden_Person_Model2",
      "rotation": [
        0.0,
        0.0,
        0.0,
        1.0
      ],
      "scale": [
        1.0,
        1.0,
        1.0
      ],
      "translation": [
        0.0,
        0.0,
        0.0
      ]
    }
  ],
  "samplers": [
    {
      "wrapS": 10497,
      "wrapT": 10497
    }
  ],
  "scenes": [
    {
      "nodes": [
        0
      ]
    }
  ],
  "textures": [
    {
      "sampler": 0,
      "source": 0
    }
  ]
}
