{
  "accessors": [
    {
      "bufferView": 0,
      "componentType": 5126,
      "count": 276,
      "max": [
        0.13694362342357635,
        0.48250818252563477,
        0.13677147030830383
      ],
      "min": [
        -0.13694363832473755,
        -0.10000000149011612,
        -0.13677147030830383
      ],
      "type": "VEC3"
    },
    {
      "bufferView": 1,
      "componentType": 5126,
      "count": 276,
      "max": [
        0.9996752142906189,
        0.9999993443489075,
        0.9996728301048279
      ],
      "min": [
        -0.9996751546859741,
        -1.0,
        -0.9996728897094727
      ],
      "type": "VEC3"
    },
    {
      "bufferView": 2,
      "componentType": 5126,
      "count": 276,
      "max": [
        0.9999993443489075,
        0.4676596224308014,
        0.9999533295631409,
        1.0
      ],
      "min": [
        -0.9999991059303284,
        -0.4612797498703003,
        -0.9999542832374573,
        1.0
      ],
      "type": "VEC4"
    },
    {
      "bufferView": 3,
      "componentType": 5126,
      "count": 276,
      "max": [
        0.9846869707107544,
        0.9899532198905945
      ],
      "min": [
        0.5942428708076477,
        0.6426430940628052
      ],
      "type": "VEC2"
    },
    {
      "bufferView": 4,
      "componentType": 5125,
      "count": 1440,
      "max": [
        275
      ],
      "min": [
        0
      ],
      "type": "SCALAR"
    }
  ],
  "asset": {
    "version": "2.0"
  },
  "bufferViews": [
    {
      "buffer": 0,
      "byteLength": 3312,
      "target": 34962
    },
    {
      "buffer": 0,
      "byteLength": 3312,
      "byteOffset": 3312,
      "target": 34962
    },
    {
      "buffer": 0,
      "byteLength": 4416,
      "byteOffset": 6624,
      "target": 34962
    },
    {
      "buffer": 0,
      "byteLength": 2208,
      "byteOffset": 11040,
      "target": 34962
    },
    {
      "buffer": 0,
      "byteLength": 5760,
      "byteOffset": 13248,
      "target": 34963
    }
  ],
  "buffers": [
    {
      "byteLength": 19008,
      "uri": "data:application/octet-stream;base64,"
    }
  ],
  "materials": [
    {
      "name": "lambert2",
      "pbrMetallicRoughness": {
        "baseColorFactor": [
          0.4000000059604645,
          0.4000000059604645,
          0.4000000059604645,
          1.0
        ],
        "metallicFactor": 0.0
      }
    }
  ],
  "meshes": [
    {
      "primitives": [
        {
          "attributes": {
            "NORMAL": 1,
            "POSITION": 0,
            "TANGENT": 2,
            "TEXCOORD_0": 3
          },
          "indices": 4,
          "material": 0,
          "mode": 4
        }
      ]
    }
  ],
  "nodes": [
    {
      "mesh": 0,
      "name": "BossTearModel",
      "rotation": [
        -0.08003538101911545,
        -0.010316004045307636,
        0.1274186074733734,
        0.9885607957839966
      ],
      "scale": [
        1.1785439252853394,
        1.1785439252853394,
        0.6977641582489014
      ],
      "translation": [
        0.13891160488128662,
        -0.529911458492279,
        0.0892893448472023
      ]
    }
  ],
  "samplers": [
    {
      "wrapS": 10497,
      "wrapT": 10497
    }
  ],
  "scenes": [
    {
      "nodes": [
        0
      ]
    }
  ]
}
