{
  "accessors": [
    {
      "bufferView": 0,
      "componentType": 5126,
      "count": 4250,
      "max": [
        3.4027488231658936,
        5.538462162017822,
        2.1340205669403076
      ],
      "min": [
        -3.4027493000030518,
        0.002930975053459406,
        -1.5466231107711792
      ],
      "type": "VEC3"
    },
    {
      "bufferView": 1,
      "componentType": 5126,
      "count": 4250,
      "max": [
        0.9995273351669312,
        0.9999603033065796,
        0.9991945624351501
      ],
      "min": [
        -0.9995275139808655,
        -1.0,
        -0.9997438788414001
      ],
      "type": "VEC3"
    },
    {
      "bufferView": 2,
      "componentType": 5126,
      "count": 4250,
      "max": [
        1.0,
        0.9997277855873108,
        0.9999803900718689,
        1.0
      ],
      "min": [
        -1.0,
        -0.9996974468231201,
        -0.9996435642242432,
        1.0
      ],
      "type": "VEC4"
    },
    {
      "bufferView": 3,
      "componentType": 5126,
      "count": 4250,
      "max": [
        0.9931177496910095,
        0.9927335977554321
      ],
      "min": [
        0.005655039567500353,
        0.010188877582550049
      ],
      "type": "VEC2"
    },
    {
      "bufferView": 4,
      "componentType": 5125,
      "count": 20268,
      "max": [
        4249
      ],
      "min": [
        0
      ],
      "type": "SCALAR"
    }
  ],
  "asset": {
    "version": "2.0"
  },
  "bufferViews": [
    {
      "buffer": 0,
      "byteLength": 51000,
      "target": 34962
    },
    {
      "buffer": 0,
      "byteLength": 51000,
      "byteOffset": 51000,
      "target": 34962
    },
    {
      "buffer": 0,
      "byteLength": 68000,
      "byteOffset": 102000,
      "target": 34962
    },
    {
      "buffer": 0,
      "byteLength": 34000,
      "byteOffset": 170000,
      "target": 34962
    },
    {
      "buffer": 0,
      "byteLength": 81072,
      "byteOffset": 204000,
      "target": 34963
    }
  ],
  "buffers": [
    {
      "byteLength": 285072,
      "uri": "data:application/octet-stream;base64,"
    }
  ],
  "images": [
    {
      "uri": "./BossEnemy.fbm/standardSurface1_BaseColo.png"
    }
  ],
  "materials": [
    {
      "alphaMode": "BLEND",
      "name": "L_BossEnemy",
      "pbrMetallicRoughness": {
        "baseColorFactor": [
          1.0,
          0.9999899864196777,
          0.9999899864196777,
          1.0
        ],
        "baseColorTexture": {
          "index": 0
        },
        "metallicFactor": 0.0
      }
    }
  ],
  "meshes": [
    {
      "primitives": [
        {
          "attributes": {
            "NORMAL": 1,
            "POSITION": 0,
            "TANGENT": 2,
            "TEXCOORD_0": 3
          },
          "indices": 4,
          "material": 0,
          "mode": 4
        }
      ]
    }
  ],
  "nodes": [
    {
      "mesh": 0,
      "name": "BossEnemy",
      "rotation": [
        0.0,
        0.0,
        0.0,
        1.0
      ],
      "scale": [
        1.0,
        1.0,
        1.0
      ],
      "translation": [
        0.0,
        0.0,
        0.0
      ]
    }
  ],
  "samplers": [
    {
      "wrapS": 10497,
      "wrapT": 10497
    }
  ],
  "scenes": [
    {
      "nodes": [
        0
      ]
    }
  ],
  "textures": [
    {
      "sampler": 0,
      "source": 0
    }
  ]
}
