{
  "accessors": [
    {
      "bufferView": 0,
      "componentType": 5126,
      "count": 113,
      "max": [
        0.09079661220312119,
        1.5182644128799438,
        0.08635272085666656
      ],
      "min": [
        -0.09079661965370178,
        0.0,
        -0.08635272830724716
      ],
      "type": "VEC3"
    },
    {
      "bufferView": 1,
      "componentType": 5126,
      "count": 113,
      "max": [
        1.0,
        1.0,
        0.9510565400123596
      ],
      "min": [
        -1.0,
        -0.8910064101219177,
        -0.9510564804077148
      ],
      "type": "VEC3"
    },
    {
      "bufferView": 2,
      "componentType": 5126,
      "count": 113,
      "max": [
        0.9510605931282043,
        0.99698406457901,
        0.9999995231628418,
        1.0
      ],
      "min": [
        -0.9510588645935059,
        -0.9993239045143127,
        -0.9999995231628418,
        1.0
      ],
      "type": "VEC4"
    },
    {
      "bufferView": 3,
      "componentType": 5126,
      "count": 113,
      "max": [
        0.9915232062339783,
        0.9873050451278687
      ],
      "min": [
        0.8342136144638062,
        0.19452935457229614
      ],
      "type": "VEC2"
    },
    {
      "bufferView": 4,
      "componentType": 5125,
      "count": 570,
      "max": [
        112
      ],
      "min": [
        0
      ],
      "type": "SCALAR"
    }
  ],
  "asset": {
    "version": "2.0"
  },
  "bufferViews": [
    {
      "buffer": 0,
      "byteLength": 1356,
      "target": 34962
    },
    {
      "buffer": 0,
      "byteLength": 1356,
      "byteOffset": 1356,
      "target": 34962
    },
    {
      "buffer": 0,
      "byteLength": 1808,
      "byteOffset": 2712,
      "target": 34962
    },
    {
      "buffer": 0,
      "byteLength": 904,
      "byteOffset": 4520,
      "target": 34962
    },
    {
      "buffer": 0,
      "byteLength": 2280,
      "byteOffset": 5424,
      "target": 34963
    }
  ],
  "buffers": [
    {
      "byteLength": 7704,
      "uri": "data:application/octet-stream;base64,"
    }
  ],
  "images": [
    {
      "uri": "NeedlePin.fbm/Needle.png"
    }
  ],
  "materials": [
    {
      "name": "m_NeedleEnemy",
      "pbrMetallicRoughness": {
        "baseColorFactor": [
          0.800000011920929,
          0.800000011920929,
          0.800000011920929,
          1.0
        ],
        "baseColorTexture": {
          "index": 0
        },
        "metallicFactor": 0.0
      }
    }
  ],
  "meshes": [
    {
      "primitives": [
        {
          "attributes": {
            "NORMAL": 1,
            "POSITION": 0,
            "TANGENT": 2,
            "TEXCOORD_0": 3
          },
          "indices": 4,
          "material": 0,
          "mode": 4
        }
      ]
    }
  ],
  "nodes": [
    {
      "mesh": 0,
      "name": "NeedlePin",
      "rotation": [
        0.0,
        0.0,
        0.0,
        1.0
      ],
      "scale": [
        1.600109577178955,
        1.600109577178955,
        1.600109577178955
      ],
      "translation": [
        8.659632122487437e-09,
        0.0,
        8.659632122487437e-09
      ]
    }
  ],
  "samplers": [
    {
      "wrapS": 10497,
      "wrapT": 10497
    }
  ],
  "scenes": [
    {
      "nodes": [
        0
      ]
    }
  ],
  "textures": [
    {
      "sampler": 0,
      "source": 0
    }
  ]
}
