{
  "accessors": [
    {
      "bufferView": 0,
      "componentType": 5126,
      "count": 1827,
      "max": [
        0.6063851714134216,
        0.8331310153007507,
        0.6312558650970459
      ],
      "min": [
        -0.6198088526725769,
        -0.0113893523812294,
        -0.630908191204071
      ],
      "type": "VEC3"
    },
    {
      "bufferView": 1,
      "componentType": 5126,
      "count": 1827,
      "max": [
        0.9995228052139282,
        1.0,
        0.9996693730354309
      ],
      "min": [
        -0.9996522068977356,
        -0.9999901652336121,
        -0.998198926448822
      ],
      "type": "VEC3"
    },
    {
      "bufferView": 2,
      "componentType": 5126,
      "count": 1827,
      "max": [
        0.9999064803123474,
        0.9991407990455627,
        0.9992347359657288,
        1.0
      ],
      "min": [
        -0.9966222643852234,
        -0.997115969657898,
        -0.9978329539299011,
        1.0
      ],
      "type": "VEC4"
    },
    {
      "bufferView": 3,
      "componentType": 5126,
      "count": 1827,
      "max": [
        0.9771044254302979,
        0.9925357103347778
      ],
      "min": [
        0.02426883578300476,
        0.01740330457687378
      ],
      "type": "VEC2"
    },
    {
      "bufferView": 4,
      "componentType": 5125,
      "count": 8712,
      "max": [
        1826
      ],
      "min": [
        0
      ],
      "type": "SCALAR"
    }
  ],
  "asset": {
    "version": "2.0"
  },
  "bufferViews": [
    {
      "buffer": 0,
      "byteLength": 21924,
      "target": 34962
    },
    {
      "buffer": 0,
      "byteLength": 21924,
      "byteOffset": 21924,
      "target": 34962
    },
    {
      "buffer": 0,
      "byteLength": 29232,
      "byteOffset": 43848,
      "target": 34962
    },
    {
      "buffer": 0,
      "byteLength": 14616,
      "byteOffset": 73080,
      "target": 34962
    },
    {
      "buffer": 0,
      "byteLength": 34848,
      "byteOffset": 87696,
      "target": 34963
    }
  ],
  "buffers": [
    {
      "byteLength": 122544,
      "uri": "data:application/octet-stream;base64,"
    }
  ],
  "images": [
    {
      "uri": "YarnBigEnemy.fbm/YarnBigEnemy.png"
    }
  ],
  "materials": [
    {
      "name": "m_YarnBigEnemy1",
      "pbrMetallicRoughness": {
        "baseColorFactor": [
          1.0,
          0.9999899864196777,
          0.9999899864196777,
          1.0
        ],
        "baseColorTexture": {
          "index": 0
        },
        "metallicFactor": 0.0
      }
    }
  ],
  "meshes": [
    {
      "primitives": [
        {
          "attributes": {
            "NORMAL": 1,
            "POSITION": 0,
            "TANGENT": 2,
            "TEXCOORD_0": 3
          },
          "indices": 4,
          "material": 0,
          "mode": 4
        }
      ]
    }
  ],
  "nodes": [
    {
      "mesh": 0,
      "name": "YarnBigEnemy",
      "rotation": [
        0.0,
        0.0,
        0.0,
        1.0
      ],
      "scale": [
        1.4739025831222534,
        1.4739025831222534,
        1.4739025831222534
      ],
      "translation": [
        0.004168584477156401,
        0.005396848078817129,
        -0.02354985661804676
      ]
    }
  ],
  "samplers": [
    {
      "wrapS": 10497,
      "wrapT": 10497
    }
  ],
  "scenes": [
    {
      "nodes": [
        0
      ]
    }
  ],
  "textures": [
    {
      "sampler": 0,
      "source": 0
    }
  ]
}
